<svg width="62" height="62" viewBox="0 0 62 62" fill="none" xmlns="http://www.w3.org/2000/svg">
<path d="M53.1544 0C53.0736 0 53.0332 0 52.9524 0H8.92638C8.88599 0 8.88599 0 8.8456 0C3.95831 0 0 3.47135 0 7.75C0 12.0286 3.95831 15.5 8.8456 15.5C8.88599 15.5 8.88599 15.5 8.92638 15.5H53.1544C58.0417 15.5 62 12.0286 62 7.75C62 3.47135 58.0417 0 53.1544 0Z" fill="#001A4B"/>
<path d="M31.0202 23.25C30.9798 23.25 30.9394 23.25 30.9394 23.25H7.83583C7.79544 23.25 7.79544 23.25 7.75505 23.25C3.47362 23.25 0 26.7214 0 31C0 35.2786 3.47362 38.75 7.75505 38.75C7.79544 38.75 7.79544 38.75 7.83583 38.75H30.9798H31.0202C35.3016 38.75 38.7752 35.2786 38.7752 31C38.7752 26.7214 35.3016 23.25 31.0202 23.25Z" fill="#001A4B"/>
<path d="M7.75505 62C12.038 62 15.5101 58.5302 15.5101 54.25C15.5101 49.9698 12.038 46.5 7.75505 46.5C3.47205 46.5 0 49.9698 0 54.25C0 58.5302 3.47205 62 7.75505 62Z" fill="#001A4B"/>
</svg>
