<svg width="18" height="18" viewBox="0 0 18 18" fill="none" xmlns="http://www.w3.org/2000/svg">
<path d="M3.99997 1.99998C3.99997 3.06197 3.28997 3.97596 1.99898 3.97596C0.783994 3.97596 0 3.11397 0 2.05198C0 0.961991 0.759994 0 1.99998 0C3.23997 0 3.97597 0.909991 3.99997 1.99998ZM0 17.9998V4.99995H3.99997V17.9998H0Z" fill="#FEFEFE"/>
<path d="M6.00019 9.44402C6.00019 7.89904 5.94919 6.60805 5.89819 5.49306H9.49217L9.67016 7.21604H9.74616C10.2522 6.40505 11.4921 5.21606 13.5681 5.21606C16.1001 5.21606 18.0001 6.91105 18.0001 10.558V17.9999H14.0001V11.139C14.0001 9.54502 13.3931 8.32903 12.0001 8.32903C10.9382 8.32903 10.4062 9.18903 10.1272 9.89802C10.0252 10.152 10.0002 10.506 10.0002 10.861V17.9999H6.00019V9.44402Z" fill="#FEFEFE"/>
</svg>
