<svg width="93" height="93" viewBox="0 0 93 93" fill="none" xmlns="http://www.w3.org/2000/svg">
<path d="M79.7316 0C79.6104 0 79.5498 0 79.4287 0H13.3896C13.329 0 13.329 0 13.2684 0C5.93746 0 0 5.20703 0 11.625C0 18.043 5.93746 23.25 13.2684 23.25C13.329 23.25 13.329 23.25 13.3896 23.25H79.7316C87.0625 23.25 93 18.043 93 11.625C93 5.20703 87.0625 0 79.7316 0Z" fill="#FEFEFE"/>
<path d="M46.5303 34.875C46.4697 34.875 46.4091 34.875 46.4091 34.875H11.7537C11.6932 34.875 11.6932 34.875 11.6326 34.875C5.21042 34.875 0 40.082 0 46.5C0 52.918 5.21042 58.125 11.6326 58.125C11.6932 58.125 11.6932 58.125 11.7537 58.125H46.4697H46.5303C52.9524 58.125 58.1629 52.918 58.1629 46.5C58.1629 40.082 52.9524 34.875 46.5303 34.875Z" fill="#FEFEFE"/>
<path d="M11.6326 93C18.0571 93 23.2651 87.7953 23.2651 81.375C23.2651 74.9547 18.0571 69.75 11.6326 69.75C5.20808 69.75 0 74.9547 0 81.375C0 87.7953 5.20808 93 11.6326 93Z" fill="#FEFEFE"/>
</svg>
