<svg width="18" height="15" viewBox="0 0 18 15" fill="none" xmlns="http://www.w3.org/2000/svg">
<path d="M16.157 3.66606C16.1648 3.82563 16.1677 3.98716 16.1677 4.14673C16.1677 9.06173 12.4533 14.7273 5.6612 14.7273C3.57456 14.7273 1.63467 14.1117 0 13.0558C0.966889 13.1735 1.94734 13.0982 2.88532 12.8342C3.8233 12.5702 4.70041 12.1227 5.46652 11.5173C4.69606 11.5026 3.94941 11.2459 3.33096 10.783C2.71251 10.3201 2.25317 9.67425 2.01717 8.93565C2.57093 9.03991 3.14084 9.01804 3.68511 8.87163C2.84929 8.70098 2.09778 8.24463 1.55793 7.5799C1.01807 6.91517 0.723076 6.08296 0.722935 5.22428V5.17799C1.23574 5.46521 1.80926 5.62494 2.39576 5.64388C1.61303 5.11848 1.05894 4.31212 0.846603 3.38939C0.634262 2.46665 0.779671 1.49711 1.25315 0.678649C2.18034 1.82758 3.33719 2.76728 4.64857 3.43671C5.95996 4.10615 7.39654 4.49035 8.865 4.56435C8.80147 4.28622 8.76963 4.00169 8.77011 3.7163C8.77011 3.22818 8.86561 2.74485 9.05116 2.29391C9.23671 1.84296 9.50867 1.43324 9.85152 1.08813C10.1944 0.743031 10.6014 0.469311 11.0493 0.282608C11.4972 0.0959049 11.9773 -0.000124432 12.4621 4.9385e-06C12.9673 -0.000824661 13.4673 0.102875 13.9311 0.304671C14.3949 0.506468 14.8125 0.802057 15.1582 1.1731C15.9849 1.00832 16.7778 0.703227 17.503 0.270872C17.2272 1.13194 16.6501 1.8628 15.8791 2.32749C16.6111 2.24012 17.326 2.04291 18 1.74242C17.5049 2.48945 16.8806 3.14099 16.157 3.66606Z" fill="#FEFEFE"/>
</svg>
