<svg width="350" height="302" viewBox="0 0 350 302" fill="none" xmlns="http://www.w3.org/2000/svg">
<path d="M43.4727 197.73V206.146L143.284 301.348L348.878 228.552V220.241L43.4727 197.73Z" fill="#231F20"/>
<path d="M143.246 302C143.088 302 142.935 301.94 142.817 301.831L43.0441 206.628C42.9812 206.565 42.9309 206.491 42.8963 206.408C42.8617 206.325 42.8434 206.236 42.8425 206.146V197.73C42.8437 197.642 42.8621 197.555 42.8968 197.474C42.9314 197.394 42.9816 197.321 43.0441 197.261C43.1033 197.197 43.1764 197.148 43.2575 197.118C43.3386 197.089 43.4252 197.08 43.5104 197.092L348.916 219.59C349.076 219.6 349.227 219.673 349.337 219.794C349.447 219.915 349.508 220.075 349.508 220.241V228.553C349.505 228.688 349.463 228.818 349.386 228.928C349.31 229.037 349.203 229.12 349.08 229.165L143.485 301.961L143.246 302ZM44.0648 205.859L143.397 300.606L348.21 228.084V220.853L44.1026 198.434L44.0648 205.859Z" fill="#231F20"/>
<path d="M43.4727 197.731L0.617432 45.5726L212.122 0.654785L242.263 134.536L43.4727 197.731Z" fill="white"/>
<path d="M43.4725 198.382C43.3672 198.381 43.2635 198.354 43.1701 198.304C43.0964 198.263 43.0315 198.208 42.9794 198.141C42.9274 198.074 42.8893 197.996 42.8677 197.913L0.0249655 45.7548C0.000963306 45.6702 -0.00583115 45.5814 0.00501238 45.494C0.0158559 45.4065 0.0441014 45.3223 0.0879685 45.2467C0.13386 45.1688 0.194241 45.1011 0.265614 45.0474C0.336988 44.9937 0.417942 44.9552 0.503797 44.9341L211.996 0.0162332C212.076 -0.00286036 212.159 -0.00513506 212.24 0.00953928C212.322 0.0242136 212.399 0.0555429 212.468 0.101679C212.538 0.147814 212.597 0.207825 212.644 0.27817C212.69 0.348515 212.723 0.427771 212.739 0.511269L242.88 134.379C242.919 134.54 242.896 134.709 242.816 134.853C242.736 134.996 242.606 135.102 242.452 135.148L43.6993 198.356C43.6268 198.383 43.5491 198.392 43.4725 198.382ZM1.41105 46.0805L43.901 196.923L241.532 134.066L211.643 1.42318L1.41105 46.0805Z" fill="#231F20"/>
<path d="M49.6216 185.238L11.479 53.8452L204.586 11.2332L232.283 129.885L49.6216 185.238Z" fill="white"/>
<path d="M49.6343 185.889C49.4974 185.891 49.3638 185.846 49.2543 185.761C49.1448 185.676 49.0657 185.556 49.0294 185.42L10.9372 54.0271C10.9036 53.9469 10.8862 53.8604 10.8862 53.773C10.8862 53.6856 10.9036 53.5992 10.9372 53.519C10.982 53.4401 11.042 53.3716 11.1136 53.3178C11.1851 53.264 11.2667 53.2261 11.3531 53.2063L204.46 10.5943C204.622 10.5627 204.789 10.5965 204.927 10.6886C205.066 10.7807 205.165 10.9241 205.204 11.0893L232.926 129.728C232.965 129.89 232.942 130.062 232.862 130.208C232.783 130.353 232.652 130.461 232.497 130.51L49.7855 185.863L49.6343 185.889ZM12.2855 54.3397L50.0879 184.43L231.539 129.429L204.12 12.0012L12.2855 54.3397Z" fill="#231F20"/>
<path d="M242.263 134.536L43.4724 197.731L143.409 290.485L348.878 220.242L242.263 134.536Z" fill="white"/>
<path d="M143.409 291.136C143.256 291.133 143.108 291.072 142.994 290.966L43.0567 198.226C42.9736 198.149 42.9115 198.051 42.8768 197.942C42.842 197.833 42.8358 197.716 42.8589 197.604C42.8819 197.491 42.9333 197.387 43.0079 197.302C43.0825 197.217 43.1776 197.153 43.2835 197.118L242.074 133.91C242.171 133.877 242.275 133.87 242.376 133.888C242.477 133.906 242.572 133.95 242.653 134.014L349.269 219.72C349.356 219.796 349.422 219.893 349.462 220.002C349.502 220.112 349.513 220.23 349.496 220.346C349.479 220.462 349.432 220.572 349.358 220.662C349.285 220.752 349.188 220.818 349.08 220.854L143.611 291.097C143.547 291.123 143.479 291.137 143.409 291.136ZM44.72 198.017L143.561 289.742L347.555 220.046L242.137 135.291L44.72 198.017Z" fill="#231F20"/>
<path d="M238.974 146.48L66.998 204.373L112.764 245.995L289.692 185.236L238.974 146.48Z" fill="white"/>
<path d="M112.764 246.648C112.611 246.645 112.463 246.585 112.348 246.478L66.5823 204.87C66.4969 204.794 66.4329 204.696 66.3974 204.586C66.3619 204.476 66.3561 204.358 66.3807 204.244C66.4035 204.133 66.4538 204.031 66.5268 203.946C66.5997 203.862 66.6927 203.798 66.7965 203.762L238.785 145.856C238.88 145.826 238.98 145.818 239.079 145.834C239.177 145.85 239.27 145.889 239.352 145.947L290.07 184.716C290.162 184.787 290.234 184.883 290.276 184.994C290.318 185.104 290.33 185.225 290.31 185.342C290.295 185.459 290.248 185.569 290.174 185.659C290.1 185.749 290.003 185.816 289.894 185.85L113.004 246.609C112.928 246.642 112.846 246.655 112.764 246.648ZM68.2456 204.648L112.903 245.254L288.344 185.016L238.86 147.237L68.2456 204.648Z" fill="#E6E7E8"/>
<path d="M201.663 116.583C201.663 116.583 147.694 138.521 96.6857 125.507C45.6776 112.493 15.2971 66.9885 15.2971 66.9885L42.6156 161.071C42.6156 161.071 61.9453 173.421 109.765 172.796C170.766 172.053 211.907 140.631 211.907 140.631L198.046 115.958" fill="white"/>
<path d="M106.577 173.513C61.4159 173.513 42.477 161.788 42.3131 161.632C42.1835 161.546 42.0858 161.418 42.0359 161.267L14.7174 67.1715C14.6791 67.024 14.6921 66.8673 14.7541 66.7287C14.8162 66.5902 14.9234 66.4785 15.057 66.4134C15.1905 66.3482 15.342 66.3336 15.4849 66.3722C15.6278 66.4107 15.7531 66.5 15.8389 66.6243C16.1413 67.0672 46.673 112.076 96.862 124.869C139.768 135.812 185.307 121.729 198.009 117.261L197.479 116.336C197.437 116.263 197.409 116.182 197.397 116.097C197.385 116.012 197.39 115.926 197.412 115.844C197.433 115.761 197.47 115.684 197.52 115.616C197.571 115.549 197.634 115.492 197.706 115.45C197.777 115.405 197.856 115.376 197.939 115.362C198.021 115.349 198.105 115.353 198.186 115.374C198.267 115.394 198.343 115.431 198.41 115.482C198.476 115.534 198.533 115.598 198.576 115.672L199.218 116.818L201.461 115.984C201.537 115.951 201.619 115.934 201.701 115.934C201.784 115.935 201.865 115.953 201.941 115.987C202.016 116.021 202.084 116.071 202.14 116.133C202.197 116.195 202.24 116.269 202.268 116.349C202.298 116.429 202.314 116.514 202.313 116.599C202.311 116.685 202.294 116.77 202.261 116.848C202.228 116.927 202.181 116.998 202.122 117.058C202.062 117.117 201.992 117.164 201.915 117.196L199.861 117.965L212.462 140.358C212.541 140.497 212.566 140.661 212.534 140.817C212.501 140.974 212.412 141.113 212.285 141.205C211.882 141.518 170.287 172.77 109.778 173.5L106.577 173.513ZM43.1448 160.642C45.3247 161.944 65.2214 172.718 109.753 172.197C166.456 171.506 206.376 143.889 211.076 140.489L198.689 118.434C186.202 122.85 140.07 137.258 96.6226 126.159C53.5279 115.177 24.798 80.6807 17.0107 70.3371L43.1448 160.642Z" fill="#231F20"/>
<path d="M188.155 119.997L205.027 147.029L219.619 141.896L198.689 108.377L188.155 119.997Z" fill="white"/>
<path d="M204.989 147.68C204.884 147.678 204.781 147.65 204.689 147.598C204.596 147.546 204.518 147.471 204.46 147.38L187.588 120.362C187.512 120.237 187.479 120.091 187.492 119.945C187.506 119.798 187.566 119.661 187.663 119.554L198.197 107.934C198.264 107.862 198.344 107.806 198.433 107.77C198.523 107.734 198.618 107.719 198.714 107.725C198.808 107.737 198.899 107.769 198.98 107.821C199.06 107.873 199.129 107.942 199.18 108.025L220.11 141.544C220.161 141.627 220.193 141.721 220.204 141.819C220.214 141.916 220.204 142.015 220.172 142.108C220.141 142.201 220.089 142.285 220.022 142.354C219.954 142.423 219.873 142.476 219.783 142.508L205.191 147.641C205.127 147.668 205.058 147.681 204.989 147.68ZM188.911 120.075L205.292 146.247L218.649 141.544L198.601 109.432L188.911 120.075Z" fill="#231F20"/>
<path d="M267.263 129.272C267.263 129.272 267.54 149.152 256.351 163.599C245.161 178.046 210.547 185.237 210.547 185.237L221.484 141.427L267.263 129.272Z" fill="#143561"/>
<path d="M210.547 185.889C210.375 185.884 210.212 185.809 210.093 185.681C210.02 185.6 209.967 185.502 209.941 185.395C209.914 185.288 209.915 185.175 209.942 185.068L220.867 141.271C220.897 141.159 220.955 141.057 221.034 140.975C221.114 140.893 221.212 140.833 221.32 140.802L267.112 128.647C267.204 128.618 267.302 128.612 267.397 128.63C267.493 128.648 267.582 128.69 267.659 128.751C267.735 128.812 267.797 128.892 267.837 128.982C267.878 129.073 267.897 129.173 267.893 129.273C267.893 129.468 268.044 149.543 256.829 164.003C245.615 178.464 212.096 185.576 210.673 185.876L210.547 185.889ZM222.001 141.974L211.416 184.378C217.137 183.075 245.98 175.923 255.859 163.183C265.499 150.755 266.519 134.015 266.62 130.12L222.001 141.974Z" fill="#231F20"/>
<path d="M229.032 68.0315C229.032 68.0315 211.618 59.5768 194.279 64.1233C176.94 68.6698 156.351 98.3458 156.351 98.3458L199.458 106.084L229.032 68.0315Z" fill="#143561"/>
<path d="M199.458 106.8H199.344L156.237 99.0489C156.133 99.0313 156.035 98.986 155.954 98.9175C155.872 98.8489 155.809 98.7595 155.771 98.658C155.728 98.5571 155.712 98.4464 155.723 98.3368C155.734 98.2272 155.772 98.1225 155.834 98.0327C156.678 96.8212 176.764 68.1613 194.128 63.5497C211.491 58.9381 229.12 67.3537 229.296 67.4579C229.383 67.498 229.46 67.5592 229.519 67.6363C229.578 67.7134 229.618 67.8041 229.637 67.9008C229.659 67.9949 229.661 68.0931 229.641 68.1879C229.621 68.2827 229.581 68.3716 229.523 68.4479L199.949 106.566C199.889 106.64 199.814 106.7 199.729 106.74C199.644 106.781 199.551 106.801 199.458 106.8ZM157.459 97.9546L199.206 105.406L228.024 68.2525C224.546 66.7414 209.362 60.814 194.443 64.7743C179.145 68.9299 160.975 93.1085 157.459 97.9546Z" fill="#231F20"/>
<path d="M189.944 105.159C201.852 87.2463 222.706 67.041 249.004 49.5064C288.835 22.9178 323.765 31.7894 335.597 36.1274C336.877 36.5961 337.973 37.4884 338.713 38.666C339.454 39.8436 339.798 41.2408 339.692 42.6411C338.634 55.5771 332.132 92.1445 292.225 118.72C265.94 136.268 239.541 147.601 218.85 151.431C218.85 151.431 211.038 146.702 200.97 130.588C190.902 114.473 189.944 105.159 189.944 105.159Z" fill="#143561"/>
<path d="M218.85 152.109C218.735 152.112 218.621 152.08 218.523 152.018C218.208 151.823 210.484 147.029 200.441 130.953C190.398 114.877 189.352 105.615 189.314 105.237C189.301 105.08 189.341 104.924 189.428 104.794C201.789 86.1784 223.374 65.8168 248.651 48.9596C288.268 22.5274 322.794 30.7215 335.811 35.5155C337.228 36.0301 338.439 37.0172 339.253 38.3214C340.068 39.6257 340.439 41.1729 340.31 42.7196C339.15 56.9453 332.182 92.8613 292.578 119.294C267.301 136.229 240.461 148.123 218.951 152.096L218.85 152.109ZM190.599 105.328C190.826 106.84 192.502 115.841 201.499 130.236C210.496 144.632 217.729 149.934 218.976 150.78C240.284 146.781 266.859 134.913 291.885 118.212C331.035 92.1579 337.915 56.6587 339.062 42.6544C339.163 41.3941 338.859 40.1345 338.196 39.0718C337.532 38.0091 336.548 37.2031 335.395 36.7792C322.555 32.0763 288.482 23.9734 249.344 50.0799C224.294 66.7548 202.898 86.8949 190.599 105.328Z" fill="#231F20"/>
<path d="M339.692 42.6672C338.134 58.7044 332.681 74.0746 323.84 87.3506L289.692 32.6362C305.032 29.7671 320.825 30.9638 335.597 36.1145C336.884 36.5849 337.984 37.4831 338.725 38.6688C339.466 39.8544 339.806 41.2605 339.692 42.6672Z" fill="white"/>
<path d="M323.853 88.0017C323.75 88.0005 323.648 87.9725 323.558 87.9201C323.467 87.8678 323.391 87.7928 323.336 87.7021L289.176 32.9878C289.129 32.8929 289.105 32.788 289.105 32.6816C289.105 32.5752 289.129 32.4704 289.176 32.3755C289.218 32.2744 289.284 32.1858 289.367 32.1176C289.451 32.0494 289.55 32.0037 289.655 31.9847C305.1 29.0875 321.005 30.2978 335.874 35.502C337.291 36.0166 338.502 37.0037 339.316 38.308C340.131 39.6122 340.502 41.1595 340.373 42.7061C338.839 58.8601 333.353 74.3447 324.433 87.7021C324.372 87.8027 324.286 87.8839 324.184 87.9368C324.082 87.9897 323.967 88.0122 323.853 88.0017ZM290.738 33.118L323.853 86.1649C332.343 73.1797 337.57 58.2123 339.062 42.6149C339.164 41.3545 338.859 40.0949 338.196 39.0323C337.533 37.9696 336.548 37.1635 335.395 36.7396C321.034 31.7067 305.683 30.4618 290.738 33.118Z" fill="#231F20"/>
<path d="M276.31 103.543C289.734 103.543 300.617 92.2921 300.617 78.4134C300.617 64.5348 289.734 53.2839 276.31 53.2839C262.886 53.2839 252.003 64.5348 252.003 78.4134C252.003 92.2921 262.886 103.543 276.31 103.543Z" fill="white"/>
<path d="M276.348 104.182C270.353 104.185 264.557 101.954 260.024 97.8974C255.491 93.8409 252.524 88.2311 251.668 82.0966C250.811 75.962 252.122 69.7137 255.36 64.4972C258.598 59.2808 263.546 55.4458 269.297 53.6954C275.049 51.945 281.218 52.3964 286.673 54.9669C292.128 57.5375 296.505 62.0548 299 67.6908C301.495 73.3268 301.941 79.7036 300.257 85.6523C298.573 91.601 294.872 96.7227 289.831 100.079C285.811 102.755 281.13 104.18 276.348 104.182ZM276.26 53.9232C272.004 53.9288 267.829 55.1202 264.173 57.3719C260.516 59.6237 257.515 62.8525 255.484 66.7189C253.453 70.5852 252.467 74.946 252.631 79.3425C252.794 83.739 254.101 88.0086 256.414 91.7021C258.527 95.0849 261.416 97.8766 264.822 99.8299C268.229 101.783 272.049 102.838 275.944 102.901C279.839 102.963 283.688 102.032 287.152 100.189C290.616 98.3464 293.586 95.6489 295.801 92.3358C298.016 89.0226 299.406 85.196 299.848 81.1948C300.291 77.1936 299.772 73.1414 298.338 69.3969C296.904 65.6524 294.599 62.3313 291.627 59.7277C288.655 57.1241 285.108 55.3183 281.3 54.4703C279.643 54.1081 277.954 53.9247 276.26 53.9232Z" fill="#231F20"/>
<path d="M276.31 93.9157C284.592 93.9157 291.305 86.975 291.305 78.4133C291.305 69.8516 284.592 62.9109 276.31 62.9109C268.029 62.9109 261.315 69.8516 261.315 78.4133C261.315 86.975 268.029 93.9157 276.31 93.9157Z" fill="#231F20"/>
<path d="M276.335 94.5674C272.577 94.584 268.939 93.1994 266.088 90.6676C263.236 88.1358 261.364 84.6263 260.813 80.7827C260.261 76.9391 261.069 73.0188 263.087 69.7407C265.105 66.4626 268.198 64.0464 271.799 62.9349C275.401 61.8235 279.269 62.0914 282.695 63.6895C286.121 65.2876 288.875 68.1087 290.452 71.6358C292.029 75.1628 292.323 79.1594 291.281 82.8927C290.239 86.626 287.93 89.8459 284.778 91.962C282.263 93.649 279.333 94.5534 276.335 94.5674ZM276.335 63.5626C273.576 63.556 270.875 64.3798 268.561 65.9335C265.651 67.8719 263.514 70.8299 262.542 74.2651C261.571 77.7002 261.83 81.3823 263.272 84.636C264.714 87.8898 267.242 90.4971 270.393 91.9799C273.543 93.4627 277.105 93.7215 280.426 92.7089C283.746 91.6964 286.602 89.4803 288.47 86.467C290.338 83.4538 291.093 79.8454 290.595 76.3035C290.098 72.7616 288.383 69.5237 285.764 67.1836C283.145 64.8434 279.797 63.5578 276.335 63.5626Z" fill="#231F20"/>
<path d="M286.365 72.3436C286.254 72.3429 286.145 72.3111 286.049 72.2515C285.954 72.1919 285.876 72.1066 285.824 72.0049C285.622 71.6531 280.972 63.3026 271.282 67.8882C271.145 67.945 270.993 67.95 270.852 67.9023C270.712 67.8547 270.592 67.7575 270.514 67.6277C270.478 67.5509 270.457 67.4675 270.453 67.3823C270.449 67.2971 270.461 67.2119 270.489 67.1318C270.518 67.0516 270.561 66.9782 270.617 66.9157C270.673 66.8531 270.741 66.8029 270.816 66.7679C281.59 61.6872 286.932 71.3535 286.983 71.4447C287.06 71.5973 287.077 71.775 287.03 71.9403C286.983 72.1055 286.876 72.2455 286.731 72.3305C286.613 72.3721 286.486 72.3767 286.365 72.3436Z" fill="white"/>
<path d="M288.016 77.7363C287.935 77.7298 287.856 77.7067 287.784 77.6683C287.711 77.63 287.647 77.5773 287.594 77.5131C287.541 77.4489 287.501 77.3746 287.477 77.2944C287.452 77.2142 287.442 77.1298 287.449 77.0459C287.494 76.2272 287.347 75.4093 287.021 74.6619C286.952 74.5063 286.945 74.3288 287.002 74.1679C287.058 74.007 287.174 73.8756 287.323 73.8021C287.399 73.7658 287.481 73.7457 287.565 73.7432C287.648 73.7407 287.732 73.7557 287.809 73.7873C287.887 73.819 287.958 73.8667 288.017 73.9274C288.077 73.9882 288.124 74.0608 288.155 74.1408C288.57 75.0971 288.756 76.1428 288.697 77.1892C288.675 77.3541 288.591 77.5036 288.464 77.6059C288.337 77.7081 288.176 77.7549 288.016 77.7363Z" fill="white"/>
<path d="M197.58 104.339C197.438 104.337 197.301 104.287 197.19 104.196C197.06 104.088 196.976 103.932 196.957 103.761C196.939 103.59 196.986 103.419 197.089 103.284C206.055 92.112 215.666 81.5103 225.869 71.5364C225.992 71.4318 226.148 71.379 226.307 71.3886C226.466 71.3982 226.615 71.4694 226.725 71.5881C226.835 71.7068 226.897 71.8641 226.9 72.0285C226.902 72.1929 226.845 72.3521 226.738 72.4744C216.575 82.411 207.002 92.9736 198.072 104.104C198.012 104.18 197.937 104.24 197.852 104.28C197.767 104.321 197.674 104.341 197.58 104.339Z" fill="white"/>
<path d="M225.894 122.237C208.341 133.962 185.71 145.439 183.745 142.286C181.779 139.134 201.209 122.55 218.775 110.825C236.34 99.101 247.328 99.8565 247.328 99.8565C247.328 99.8565 243.46 110.526 225.894 122.237Z" fill="#143561"/>
<path d="M185.181 143.406C184.818 143.459 184.447 143.416 184.103 143.281C183.76 143.147 183.455 142.926 183.216 142.638C182.787 141.96 181.489 139.889 193.523 129.272C201.44 122.42 209.76 116.081 218.435 110.291C235.962 98.5667 246.913 99.179 247.417 99.2051C247.515 99.2135 247.61 99.2448 247.696 99.2967C247.781 99.3486 247.853 99.4197 247.908 99.5047C247.959 99.5919 247.991 99.6894 248.002 99.7906C248.013 99.8919 248.002 99.9943 247.971 100.091C247.807 100.534 243.825 111.086 226.285 122.784C214.604 130.549 192.238 143.406 185.181 143.406ZM246.333 100.521C243.334 100.651 233.379 101.824 219.115 111.372C210.487 117.133 202.214 123.442 194.342 130.262C185.521 138.078 183.883 141.309 184.261 141.986C185.66 144.24 205.935 134.821 225.542 121.742C239.818 112.18 244.985 103.296 246.333 100.521Z" fill="#231F20"/>
<path d="M251.007 208.439L184.626 229.621L214.642 253.839L279.926 231.132L251.007 208.439Z" fill="white"/>
<path d="M214.642 254.49C214.5 254.488 214.363 254.438 214.251 254.347L184.249 230.142C184.157 230.068 184.086 229.97 184.043 229.857C184.001 229.745 183.99 229.623 184.009 229.504C184.031 229.387 184.084 229.279 184.162 229.191C184.24 229.104 184.34 229.041 184.45 229.009L250.819 207.813C250.914 207.782 251.016 207.775 251.115 207.793C251.214 207.811 251.307 207.854 251.386 207.918L280.305 230.611C280.398 230.681 280.47 230.777 280.513 230.888C280.555 230.998 280.566 231.119 280.544 231.236C280.532 231.356 280.486 231.469 280.412 231.562C280.338 231.654 280.239 231.722 280.128 231.758L214.844 254.451C214.779 254.476 214.711 254.49 214.642 254.49ZM185.975 229.882L214.768 253.109L278.604 230.963L250.882 209.207L185.975 229.882Z" fill="#E6E7E8"/>
<path d="M125.289 149.946C105.872 149.946 83.4926 146.65 63.1927 135.512C63.1191 135.473 63.0538 135.42 63.0004 135.355C62.9471 135.29 62.9069 135.214 62.8823 135.133C62.8576 135.052 62.8489 134.966 62.8568 134.881C62.8647 134.796 62.8889 134.714 62.9281 134.639C62.9666 134.562 63.0194 134.494 63.0834 134.439C63.1475 134.384 63.2215 134.342 63.3012 134.317C63.3809 134.291 63.4648 134.283 63.5478 134.291C63.6308 134.299 63.7115 134.324 63.785 134.365C113.092 161.384 174.811 141.817 175.428 141.621C175.509 141.587 175.595 141.57 175.683 141.572C175.77 141.574 175.856 141.595 175.935 141.633C176.014 141.671 176.085 141.726 176.143 141.794C176.2 141.861 176.244 141.941 176.27 142.027C176.296 142.113 176.305 142.204 176.295 142.294C176.286 142.383 176.259 142.47 176.215 142.548C176.171 142.627 176.112 142.695 176.042 142.748C175.972 142.802 175.891 142.839 175.806 142.859C159.354 147.571 142.361 149.955 125.289 149.946Z" fill="#E6E7E8"/>
<path d="M114.365 162.335C73.8027 162.335 47.2906 142.924 46.9882 142.69C46.9201 142.641 46.8621 142.578 46.8175 142.505C46.773 142.432 46.7428 142.351 46.7288 142.267C46.7147 142.182 46.7171 142.095 46.7356 142.011C46.7542 141.927 46.7886 141.848 46.837 141.778C46.9374 141.641 47.0855 141.549 47.25 141.522C47.4146 141.495 47.5827 141.536 47.7191 141.635C48.0845 141.908 84.6142 168.64 137.55 158.909C137.633 158.894 137.718 158.897 137.799 158.916C137.881 158.935 137.959 158.971 138.027 159.021C138.095 159.072 138.154 159.135 138.198 159.209C138.243 159.282 138.273 159.364 138.287 159.45C138.301 159.535 138.299 159.623 138.28 159.707C138.262 159.792 138.227 159.872 138.178 159.943C138.13 160.013 138.068 160.073 137.997 160.12C137.926 160.166 137.847 160.197 137.764 160.212C130.04 161.629 122.21 162.34 114.365 162.335Z" fill="#E6E7E8"/>
<path d="M74.1428 129.924C74.0599 129.944 73.9737 129.944 73.8908 129.924C34.2109 111.347 24.5208 88.3674 24.42 88.1459C24.3839 88.0666 24.3637 87.9805 24.3605 87.8929C24.3574 87.8053 24.3714 87.718 24.4016 87.6361C24.4319 87.5542 24.4779 87.4795 24.5367 87.4164C24.5956 87.3533 24.6662 87.3032 24.7443 87.2689C24.8223 87.2347 24.9063 87.2172 24.9911 87.2173C25.0758 87.2174 25.1597 87.2352 25.2377 87.2697C25.3157 87.3041 25.3861 87.3545 25.4448 87.4177C25.5035 87.481 25.5493 87.5559 25.5793 87.6378C25.5793 87.6378 27.9609 93.3568 35.1307 101.225C41.7461 108.481 53.9311 119.151 74.4074 128.739C74.5592 128.81 74.6777 128.94 74.7367 129.101C74.7957 129.263 74.7906 129.441 74.7224 129.599C74.6623 129.701 74.577 129.785 74.4751 129.842C74.3733 129.9 74.2586 129.928 74.1428 129.924Z" fill="#E6E7E8"/>
<path d="M145.048 137.349C144.881 137.349 144.72 137.28 144.602 137.158C144.484 137.036 144.418 136.87 144.418 136.698C144.421 136.526 144.488 136.362 144.606 136.241C144.723 136.119 144.882 136.05 145.048 136.046C145.275 136.046 167.124 136.046 177.104 131.005C177.179 130.96 177.263 130.933 177.349 130.923C177.435 130.914 177.522 130.923 177.604 130.949C177.687 130.976 177.763 131.02 177.829 131.079C177.894 131.137 177.947 131.209 177.984 131.29C178.022 131.371 178.042 131.458 178.045 131.548C178.048 131.637 178.034 131.726 178.002 131.81C177.97 131.893 177.922 131.968 177.861 132.032C177.8 132.095 177.727 132.144 177.646 132.177C167.414 137.297 145.968 137.349 145.048 137.349Z" fill="#E6E7E8"/>
<path d="M117.376 114.017L114.276 110.591L109.803 111.294L111.983 107.177L109.967 102.983L114.415 103.882L117.641 100.586L118.208 105.236L122.227 107.399L118.119 109.392L117.376 114.017Z" fill="#143561"/>
<path d="M158.606 118.161L156.691 116.05L153.919 116.48L155.28 113.94L154.02 111.347L156.779 111.895L158.77 109.862L159.123 112.741L161.605 114.07L159.072 115.308L158.606 118.161Z" fill="#143561"/>
<path d="M139.919 198.604L133.316 194.605L126.386 197.966L128.036 190.24L122.807 184.456L130.418 183.688L134.123 176.757L137.185 184L144.695 185.499L138.974 190.762L139.919 198.604Z" fill="#143561"/>
<path d="M93.8885 150.089L89.7806 145.556L83.833 146.481L86.7438 141.035L84.0472 135.486L89.957 136.658L94.2287 132.294L94.9721 138.469L100.315 141.322L94.8713 143.967L93.8885 150.089Z" fill="#143561"/>
<path d="M15.2971 67.6271C15.13 67.6461 14.9625 67.5957 14.8313 67.487C14.7002 67.3782 14.6162 67.2201 14.5978 67.0474C14.5794 66.8746 14.6282 66.7014 14.7333 66.5658C14.8385 66.4302 14.9914 66.3434 15.1585 66.3243L207.308 22.8265C207.391 22.8085 207.476 22.8076 207.559 22.8237C207.642 22.8398 207.722 22.8727 207.792 22.9205C207.863 22.9683 207.924 23.03 207.972 23.1022C208.02 23.1743 208.053 23.2555 208.07 23.341C208.088 23.4266 208.089 23.5148 208.073 23.6007C208.058 23.6866 208.026 23.7685 207.98 23.8417C207.933 23.9149 207.874 23.9779 207.804 24.0273C207.734 24.0766 207.655 24.1112 207.573 24.1292L15.4358 67.6271H15.2971Z" fill="#231F20"/>
<path d="M24.2186 60.5014C25.6313 60.5014 26.7766 59.3175 26.7766 57.8569C26.7766 56.3964 25.6313 55.2124 24.2186 55.2124C22.8059 55.2124 21.6606 56.3964 21.6606 57.8569C21.6606 59.3175 22.8059 60.5014 24.2186 60.5014Z" fill="#143561"/>
<path d="M33.3668 58.0913C34.7795 58.0913 35.9248 56.9073 35.9248 55.4468C35.9248 53.9862 34.7795 52.8022 33.3668 52.8022C31.9541 52.8022 30.8088 53.9862 30.8088 55.4468C30.8088 56.9073 31.9541 58.0913 33.3668 58.0913Z" fill="#E6E7E8"/>
<path d="M42.0741 56.02C43.4868 56.02 44.632 54.836 44.632 53.3755C44.632 51.915 43.4868 50.731 42.0741 50.731C40.6614 50.731 39.5161 51.915 39.5161 53.3755C39.5161 54.836 40.6614 56.02 42.0741 56.02Z" fill="#E6E7E8"/>
<path d="M176.919 48.3609L62.8862 76.0556C59.2685 76.9342 57.0246 80.6785 57.8745 84.4187L57.8774 84.4314C58.7273 88.1715 62.349 90.4913 65.9667 89.6126L180 61.918C183.617 61.0393 185.861 57.2951 185.011 53.5549L185.008 53.5422C184.158 49.802 180.537 47.4823 176.919 48.3609Z" fill="#E6E7E8"/>
</svg>
