<svg width="433" height="275" viewBox="0 0 433 275" fill="none" xmlns="http://www.w3.org/2000/svg">
<path d="M432.234 225.512H0.697601C0.512586 225.512 0.335148 225.438 0.204322 225.307C0.0734965 225.176 0 224.999 0 224.814C0.00357182 224.63 0.0782172 224.455 0.208277 224.325C0.338336 224.195 0.513704 224.12 0.697601 224.116H432.234C432.418 224.12 432.593 224.195 432.723 224.325C432.853 224.455 432.928 224.63 432.931 224.814C432.931 224.999 432.858 225.176 432.727 225.307C432.596 225.438 432.419 225.512 432.234 225.512Z" fill="#D1D3D4"/>
<path d="M34.9918 75.2343C14.1615 90.4001 11.371 122.015 10.8409 145.762C10.3107 168.085 15.2916 189.404 19.9515 211.183C24.4999 232.488 41.7865 244.11 62.4215 248.853C93.116 255.955 126.601 256.778 157.756 253.346C188.911 249.914 189.72 219.219 186.595 194.092C185.73 187.116 180.832 182.804 175.545 179.037C169.002 174.668 163.294 169.163 158.69 162.783C143.915 141.395 143.064 115.974 133.214 92.7022C125.429 74.2716 108.1 61.4357 87.9956 62.0775C67.8907 62.7193 48.8462 65.1609 34.9918 75.2343Z" fill="white"/>
<path d="M122.373 256.053C102.158 256.165 81.9955 253.993 62.268 249.579C31.9782 242.603 22.1699 224.898 19.2679 211.323L18.2912 206.746C13.8405 186.097 9.64097 166.606 10.1432 145.748C11.3013 97.6554 23.8162 82.5035 34.5872 74.6625L34.9918 75.2345L34.5872 74.6625C49.2508 64.0031 69.8021 61.9662 87.9816 61.3802C107.598 60.7802 125.652 72.9324 133.856 92.4234C137.461 101.501 140.408 110.826 142.674 120.327C146.441 134.628 150.347 149.403 159.276 162.407C163.225 168.155 168.206 172.968 176.019 178.493C181.376 182.302 186.455 186.865 187.348 194.022C190.222 217.029 187.864 232.962 180.135 242.743C175.056 249.174 167.578 252.983 157.895 254.058C146.1 255.369 134.241 256.035 122.373 256.053ZM35.4104 75.8205C15.4032 90.3725 12.1384 120.872 11.5384 145.804C11.0501 166.495 15.2218 185.916 19.6446 206.481L20.6352 211.057C23.4256 224.242 33.0106 241.375 62.5889 248.24C91.2185 254.881 124.103 256.429 157.672 252.718C166.964 251.7 174.135 248.058 178.977 241.933C186.455 232.46 188.743 216.82 185.953 194.245C185.116 187.59 180.288 183.307 175.196 179.679C167.313 174.099 162.22 169.146 158.174 163.258C149.105 150.059 145.185 135.145 141.432 120.732C139.173 111.29 136.245 102.021 132.67 92.9955C124.661 74.0347 107.166 62.1475 88.1211 62.8033C70.1649 63.3893 49.8647 65.3844 35.508 75.8205H35.4104Z" fill="#231F20"/>
<path d="M89.6836 193.129C85.9543 193.127 82.2281 192.917 78.522 192.501C71.4117 191.695 64.4004 190.176 57.594 187.967C48.3298 184.967 42.1072 181.535 37.4333 176.875C30.3317 169.773 27.6669 160.133 26.5926 153.394C24.2207 137.712 26.5926 120.383 28.3087 111.454C29.429 105.332 31.8754 99.5297 35.4763 94.4537C39.0772 89.3778 43.7453 85.1513 49.153 82.071C56.6592 77.704 65.6164 74.8857 76.5129 73.4626C87.9536 71.9697 96.1853 73.1975 102.422 77.3134C112.607 84.0382 115.509 96.9718 117.602 109.64L121.159 131.14C122.024 136.484 123.224 143.795 127.424 147.241C128.905 148.362 130.5 149.325 132.181 150.115C135.125 151.594 138.153 153.143 139.869 156.505C141.976 160.691 142.869 167.667 140.706 172.257C138.306 177.308 133.409 180.628 129.949 182.679C117.711 189.719 103.801 193.329 89.6836 193.129ZM85.3167 74.2439C82.4792 74.2652 79.646 74.4656 76.8338 74.8439C66.1187 76.2391 57.301 79.0295 50.0041 83.2151C44.7671 86.1916 40.2466 90.2803 36.7609 95.193C33.2752 100.106 30.9091 105.723 29.8295 111.649C28.1134 120.551 25.7415 137.698 28.1133 153.184C29.1039 159.77 31.7269 169.048 38.5634 175.884C43.0699 180.391 49.1111 183.712 58.0962 186.641C64.7867 188.824 71.682 190.32 78.6755 191.106C97.5805 193.241 115.09 189.906 129.307 181.479C132.614 179.512 137.274 176.359 139.506 171.713C141.487 167.527 140.65 161.053 138.697 157.189C137.19 154.231 134.511 152.864 131.623 151.413C129.852 150.583 128.173 149.568 126.615 148.385C121.997 144.604 120.755 136.972 119.848 131.419L116.29 109.919C114.253 97.5578 111.435 84.9451 101.724 78.5411C97.4689 75.6391 92.1113 74.2439 85.3167 74.2439Z" fill="#D1D3D4"/>
<path d="M38.3121 171.322C38.1725 171.322 38.0358 171.281 37.9192 171.204C37.8026 171.127 37.7112 171.018 37.6564 170.889C37.6224 170.804 37.6056 170.713 37.6068 170.621C37.6081 170.53 37.6274 170.439 37.6637 170.355C37.7 170.271 37.7525 170.194 37.8183 170.131C37.8841 170.067 37.9618 170.016 38.0471 169.983C47.0043 166.271 52.9757 167.192 53.2269 167.192C53.3185 167.206 53.4065 167.237 53.4859 167.285C53.5652 167.333 53.6344 167.396 53.6895 167.47C53.7446 167.545 53.7844 167.63 53.8068 167.719C53.8291 167.809 53.8336 167.903 53.8198 167.994C53.8061 168.086 53.7744 168.174 53.7267 168.253C53.6789 168.333 53.616 168.402 53.5415 168.457C53.467 168.512 53.3824 168.552 53.2925 168.574C53.2026 168.597 53.1092 168.601 53.0176 168.587C53.0176 168.587 47.1438 167.75 38.5772 171.294C38.4921 171.323 38.4015 171.333 38.3121 171.322Z" fill="#D1D3D4"/>
<path d="M397.94 75.2343C418.798 90.4001 421.519 122.015 422.091 145.762C422.621 168.085 417.64 189.404 412.98 211.183C408.432 232.488 391.145 244.11 370.51 248.853C339.816 255.955 306.331 256.778 275.176 253.346C244.021 249.914 243.212 219.219 246.337 194.092C247.202 187.116 252.099 182.804 257.387 179.037C263.929 174.668 269.637 169.163 274.241 162.783C289.016 141.395 289.867 115.974 299.717 92.7022C307.503 74.2716 324.831 61.4357 344.936 62.0775C365.041 62.7193 384.085 65.1609 397.94 75.2343Z" fill="white"/>
<path d="M310.558 256.053C298.7 256.043 286.851 255.387 275.064 254.085C265.382 253.011 257.903 249.202 252.825 242.77C245.095 233.004 242.737 217.057 245.611 194.05C246.504 186.851 251.583 182.33 256.941 178.521C264.684 172.94 269.665 168.183 273.683 162.435C282.612 149.431 286.519 134.656 290.286 120.355C292.551 110.854 295.498 101.529 299.104 92.4512C307.349 72.9183 325.403 60.8219 344.978 61.4079C363.115 61.9939 383.709 64.0309 398.372 74.6902C418.882 89.605 422.202 120.509 422.816 145.846C423.318 166.704 419.119 186.195 414.668 206.844L413.692 211.42C410.79 224.995 400.981 242.645 370.691 249.677C350.951 254.06 330.779 256.199 310.558 256.053ZM343.429 62.7473C324.943 62.7473 308.117 74.481 300.303 92.9674C296.728 101.993 293.8 111.262 291.542 120.704C287.747 135.116 283.826 150.003 274.799 163.23C270.753 169.118 265.661 174.029 257.778 179.651C252.685 183.279 247.858 187.562 247.021 194.217C244.23 216.833 246.463 232.432 253.997 241.905C258.838 248.03 266.009 251.672 275.301 252.69C308.87 256.401 341.755 254.853 370.384 248.212C399.963 241.347 409.45 224.214 412.338 211.029L413.329 206.453C417.752 185.888 421.923 166.467 421.435 145.776C420.291 98.3389 408.083 83.4382 397.563 75.7925C383.206 65.3563 362.906 63.3612 344.95 62.7752L343.429 62.7473Z" fill="#231F20"/>
<path d="M343.248 193.129C329.093 193.349 315.141 189.739 302.87 182.679C299.41 180.628 294.499 177.308 292.113 172.257C289.951 167.681 290.844 160.663 292.951 156.505C294.667 153.143 297.694 151.594 300.638 150.115C302.32 149.325 303.914 148.362 305.396 147.241C309.581 143.795 310.795 136.484 311.66 131.14L315.218 109.64C317.311 96.9718 320.213 84.0382 330.398 77.3134C336.634 73.1975 344.866 71.9697 356.307 73.4626C367.203 74.8578 376.16 77.6482 383.667 82.071C389.074 85.1513 393.742 89.3778 397.343 94.4537C400.944 99.5297 403.391 105.332 404.511 111.454C406.171 120.383 408.599 137.712 406.227 153.394C405.209 160.188 402.488 169.773 395.386 176.875C390.712 181.535 384.49 184.967 375.226 187.967C368.419 190.176 361.408 191.695 354.298 192.501C350.629 192.913 346.94 193.123 343.248 193.129ZM347.615 74.2439C340.792 74.2439 335.434 75.6391 331.137 78.4295C321.371 84.8335 318.58 97.4461 316.571 109.808L313.014 131.308C312.107 136.889 310.865 144.492 306.247 148.273C304.689 149.457 303.01 150.472 301.238 151.301C298.448 152.696 295.657 154.091 294.164 157.077C292.211 160.942 291.374 167.416 293.355 171.601C295.587 176.303 300.247 179.456 303.554 181.368C317.771 189.739 335.267 193.129 354.186 190.994C361.179 190.208 368.075 188.713 374.765 186.53C383.82 183.6 389.861 180.279 394.298 175.773C401.135 168.936 403.758 159.658 404.748 153.073C407.092 137.586 404.748 120.439 403.032 111.607C401.952 105.681 399.586 100.064 396.101 95.1512C392.615 90.2384 388.094 86.1497 382.857 83.1732C375.519 78.9039 366.743 76.1972 356.028 74.802C353.238 74.4402 350.428 74.2538 347.615 74.2439Z" fill="#D1D3D4"/>
<path d="M394.619 171.322C394.532 171.342 394.441 171.342 394.354 171.322C385.788 167.778 379.983 168.615 379.914 168.615C379.822 168.629 379.729 168.625 379.639 168.602C379.549 168.58 379.464 168.54 379.39 168.485C379.315 168.43 379.252 168.361 379.205 168.281C379.157 168.202 379.125 168.114 379.112 168.022C379.098 167.931 379.102 167.837 379.125 167.747C379.147 167.657 379.187 167.573 379.242 167.498C379.297 167.424 379.366 167.361 379.445 167.313C379.525 167.265 379.613 167.234 379.704 167.22C379.956 167.22 385.927 166.313 394.884 170.01C394.97 170.044 395.047 170.095 395.113 170.159C395.179 170.222 395.231 170.299 395.268 170.383C395.304 170.467 395.323 170.558 395.324 170.649C395.326 170.741 395.309 170.832 395.275 170.917C395.216 171.041 395.123 171.144 395.007 171.216C394.89 171.288 394.756 171.325 394.619 171.322Z" fill="#D1D3D4"/>
<path d="M292.909 89.9398L249.657 66.2214C249.657 66.2214 247.16 59.0779 244.481 56.8875C241.802 54.697 243.463 62.4683 243.463 62.4683C243.463 62.4683 228.674 53.0228 227.153 55.576C225.632 58.1292 223.107 68.5374 228.157 72.5696C232.608 76.0994 240.896 76.9923 240.896 76.9923C264 95.6183 296.606 116.198 296.606 116.198" fill="white"/>
<path d="M296.606 116.867C296.477 116.864 296.352 116.826 296.243 116.756C295.909 116.546 263.47 96.0369 240.603 77.69C239.208 77.5225 231.939 76.4901 227.725 73.1416C222.437 68.956 224.781 58.185 226.553 55.2412C226.664 55.0581 226.812 54.9003 226.987 54.7777C227.163 54.6552 227.362 54.5707 227.572 54.5296C230.362 53.8599 238.998 58.9245 242.486 61.0592C242.165 59.0361 242.026 56.6643 243.044 56.0364C243.421 55.8132 244.035 55.6876 244.914 56.3992C247.467 58.4501 249.7 64.4076 250.188 65.7331L293.244 89.4515C293.407 89.5403 293.527 89.6902 293.58 89.8681C293.632 90.046 293.612 90.2375 293.523 90.4003C293.434 90.5631 293.284 90.684 293.106 90.7363C292.928 90.7886 292.737 90.7681 292.574 90.6793L249.323 66.9609C249.246 66.9238 249.178 66.8711 249.123 66.8063C249.067 66.7414 249.026 66.6658 249.002 66.5842C249.002 66.5842 246.588 59.6082 244.077 57.627L243.798 57.4316C243.609 59.1248 243.741 60.8384 244.188 62.4823C244.221 62.6172 244.212 62.7589 244.162 62.8885C244.112 63.0181 244.024 63.1295 243.909 63.2078C243.793 63.2823 243.657 63.3219 243.519 63.3219C243.38 63.3219 243.245 63.2823 243.128 63.2078C238.37 60.1662 230.013 55.5202 227.934 56.0225C227.851 56.0225 227.795 56.0225 227.795 56.0225C226.232 58.6176 224.056 68.4677 228.632 72.1092C232.818 75.4856 240.924 76.3924 241.007 76.3924C241.14 76.4105 241.265 76.4635 241.37 76.5459C264.182 94.9347 296.704 115.5 297.025 115.695C297.179 115.796 297.289 115.952 297.331 116.132C297.372 116.311 297.343 116.5 297.248 116.658C297.166 116.742 297.065 116.805 296.953 116.842C296.841 116.878 296.722 116.887 296.606 116.867Z" fill="#231F20"/>
<path d="M282.194 224.284C282.194 224.284 285.333 260.113 284.049 262.429C282.766 264.745 252.029 269.405 251.471 266.126C250.913 262.847 266.512 256.36 266.512 256.36L263.079 227.06" fill="white"/>
<path d="M256.104 267.926C255.095 267.948 254.087 267.882 253.09 267.731C252.183 267.577 250.955 267.256 250.774 266.252C250.202 262.833 261.517 257.755 265.758 255.983L262.382 227.214C262.371 227.122 262.378 227.029 262.403 226.94C262.428 226.852 262.47 226.769 262.527 226.696C262.584 226.623 262.655 226.563 262.735 226.518C262.816 226.472 262.904 226.444 262.996 226.433C263.087 226.422 263.18 226.429 263.269 226.454C263.358 226.478 263.441 226.521 263.514 226.578C263.586 226.635 263.647 226.705 263.692 226.786C263.737 226.866 263.766 226.955 263.777 227.046L267.209 256.346C267.226 256.497 267.193 256.65 267.115 256.781C267.037 256.912 266.918 257.014 266.777 257.071C259.522 260.057 251.862 264.326 252.155 266.014C252.155 266.014 252.56 266.461 255.545 266.545C264.503 266.838 282.291 263.447 283.449 262.066C284.287 260.308 282.696 237.999 281.496 224.396C281.488 224.304 281.498 224.212 281.525 224.124C281.553 224.036 281.597 223.954 281.656 223.884C281.715 223.813 281.787 223.755 281.869 223.712C281.95 223.67 282.039 223.643 282.131 223.635C282.223 223.627 282.315 223.637 282.403 223.664C282.491 223.692 282.572 223.736 282.643 223.795C282.713 223.854 282.772 223.926 282.814 224.008C282.857 224.089 282.883 224.178 282.891 224.27C283.422 230.283 285.989 260.434 284.663 262.805C283.338 265.177 264.712 267.926 256.104 267.926Z" fill="#231F20"/>
<path d="M327.649 233.687C327.649 233.687 331.96 265.345 329.728 266.252C327.496 267.158 297.15 268.595 297.638 265.931C298.127 263.266 313.097 258.187 313.097 258.187L307.684 227.325" fill="white"/>
<path d="M309.637 268.191C303.736 268.191 298.573 267.842 297.374 266.88C297.211 266.759 297.085 266.597 297.009 266.41C296.932 266.223 296.909 266.019 296.941 265.819C297.415 263.029 308.103 259.15 312.288 257.727L306.959 227.437C306.93 227.256 306.974 227.071 307.082 226.922C307.189 226.773 307.35 226.673 307.531 226.642C307.621 226.624 307.713 226.624 307.803 226.642C307.893 226.661 307.978 226.697 308.054 226.749C308.129 226.801 308.193 226.868 308.243 226.946C308.292 227.023 308.325 227.109 308.34 227.2L313.767 258.062C313.796 258.229 313.764 258.401 313.677 258.547C313.59 258.693 313.454 258.803 313.293 258.857C306.554 261.131 299.159 264.438 298.364 265.833C299.201 266.307 303.192 266.907 313.711 266.67C318.938 266.65 324.157 266.291 329.338 265.596C330.3 263.838 328.877 248.128 326.91 233.743C326.886 233.559 326.935 233.372 327.048 233.223C327.16 233.075 327.326 232.976 327.51 232.948C327.601 232.934 327.694 232.939 327.783 232.962C327.872 232.985 327.955 233.026 328.028 233.082C328.101 233.138 328.162 233.208 328.207 233.288C328.252 233.368 328.281 233.457 328.291 233.548C330.3 248.24 332.212 265.931 329.952 266.852C328.64 267.452 318.316 268.191 309.637 268.191Z" fill="#231F20"/>
<path d="M294.22 170.22C293.481 172.759 287.007 239.282 287.007 239.282H260.903C260.903 239.282 248.89 172.48 252.839 155.989C255.545 144.632 267.879 139.079 280.436 142.762C299.117 142.023 318.315 139.637 318.315 139.637L294.22 170.22Z" fill="#231F20"/>
<path d="M287.007 239.98H260.903C260.739 239.982 260.581 239.926 260.455 239.821C260.33 239.716 260.246 239.569 260.219 239.408C259.731 236.617 248.221 172.271 252.155 155.821C252.749 153.334 253.846 150.994 255.38 148.947C256.913 146.9 258.85 145.189 261.07 143.92C264.023 142.325 267.265 141.338 270.606 141.016C273.946 140.695 277.317 141.047 280.52 142.051C298.922 141.325 318.037 138.967 318.19 138.953C318.328 138.933 318.469 138.956 318.593 139.018C318.718 139.081 318.821 139.18 318.888 139.302C318.955 139.422 318.984 139.56 318.971 139.697C318.959 139.833 318.905 139.963 318.818 140.069L294.82 170.527C294.123 173.861 289.435 221.145 287.663 239.352C287.647 239.518 287.572 239.672 287.451 239.787C287.331 239.902 287.174 239.971 287.007 239.98ZM261.489 238.585H286.379C287.077 231.385 292.839 172.494 293.551 170.024C293.579 169.939 293.621 169.859 293.676 169.787L316.725 140.488C311.633 141.074 295.797 142.818 280.45 143.418H280.227C277.191 142.446 273.991 142.096 270.817 142.388C267.643 142.681 264.561 143.61 261.754 145.12C259.69 146.281 257.891 147.86 256.471 149.755C255.051 151.65 254.042 153.821 253.508 156.128C249.839 171.503 260.331 232.083 261.489 238.585Z" fill="#231F20"/>
<path d="M374.807 148.929C374.807 148.929 383.025 162.574 370.329 177.935C357.632 193.296 321.497 177.14 321.497 177.14L330.524 237.245L304.015 236.98C304.015 236.98 276.39 155.152 279.571 146.683C282.752 138.214 305.382 134.307 305.382 134.307L374.807 148.929Z" fill="#231F20"/>
<path d="M330.482 237.943L303.973 237.678C303.828 237.677 303.687 237.631 303.569 237.546C303.452 237.461 303.364 237.341 303.317 237.204C302.187 233.855 275.636 155.04 278.873 146.432C282.11 137.823 304.28 133.791 305.229 133.624C305.316 133.61 305.406 133.61 305.494 133.624L374.947 148.245C375.042 148.267 375.133 148.307 375.212 148.365C375.291 148.422 375.358 148.496 375.407 148.58C375.491 148.72 383.778 162.811 370.859 178.382C365.501 184.869 355.163 186.753 340.988 183.963C334.604 182.634 328.355 180.724 322.32 178.256L331.165 237.134C331.182 237.232 331.177 237.333 331.151 237.43C331.124 237.526 331.077 237.616 331.012 237.692C330.946 237.768 330.865 237.83 330.773 237.873C330.682 237.917 330.583 237.94 330.482 237.943ZM304.475 236.269L329.672 236.534L320.757 177.224C320.739 177.1 320.754 176.973 320.801 176.857C320.848 176.741 320.926 176.64 321.026 176.564C321.126 176.488 321.244 176.441 321.369 176.427C321.493 176.413 321.62 176.433 321.734 176.484C322.097 176.652 357.577 192.25 369.785 177.475C376.175 169.745 377.04 162.504 376.635 157.789C376.411 154.918 375.634 152.118 374.347 149.543L305.34 135.019C303.498 135.354 283.017 139.205 280.226 146.92C277.659 153.631 296.704 213.234 304.475 236.269Z" fill="#231F20"/>
<path d="M288.765 191.036C288.627 191.038 288.492 190.997 288.377 190.92C288.263 190.842 288.174 190.732 288.123 190.604C287.523 189.083 273.488 153.198 277.897 144.199C278.11 143.699 278.431 143.251 278.836 142.887C279.241 142.523 279.72 142.252 280.241 142.093C280.328 142.067 280.421 142.059 280.512 142.069C280.603 142.079 280.691 142.107 280.771 142.151C280.852 142.195 280.922 142.254 280.98 142.326C281.037 142.397 281.08 142.479 281.106 142.567C281.154 142.745 281.131 142.934 281.043 143.095C280.954 143.256 280.807 143.377 280.631 143.432C280.297 143.541 279.991 143.723 279.736 143.964C279.48 144.205 279.281 144.5 279.152 144.827C274.967 153.282 289.267 189.739 289.421 190.102C289.455 190.188 289.471 190.279 289.469 190.372C289.466 190.464 289.446 190.555 289.408 190.64C289.371 190.724 289.317 190.8 289.249 190.863C289.182 190.927 289.103 190.976 289.016 191.008L288.765 191.036Z" fill="white"/>
<path d="M321.455 177.837C321.327 177.84 321.201 177.806 321.092 177.74C320.743 177.531 312.512 172.508 310.182 168.95C310.13 168.874 310.094 168.789 310.075 168.699C310.057 168.61 310.057 168.517 310.075 168.427C310.094 168.338 310.13 168.252 310.181 168.177C310.233 168.101 310.3 168.037 310.377 167.987C310.531 167.886 310.718 167.85 310.898 167.887C311.079 167.923 311.237 168.03 311.34 168.183C313.502 171.489 321.734 176.554 321.818 176.554C321.975 176.652 322.087 176.807 322.131 176.987C322.176 177.167 322.148 177.357 322.055 177.517C321.989 177.615 321.899 177.696 321.795 177.752C321.69 177.808 321.573 177.837 321.455 177.837Z" fill="white"/>
<path d="M374.807 148.929C374.807 148.929 403.953 77.1181 382.425 60.6407C360.897 44.1634 330.217 51.5022 326.031 66.9052C321.845 82.3082 305.34 134.307 305.34 134.307C305.34 134.307 358.218 150.073 374.807 148.929Z" fill="#143561"/>
<path d="M344.336 68.4677L339.299 119.155L367.078 64.882L344.336 68.4677Z" fill="#231F20"/>
<path d="M339.243 119.853C339.174 119.866 339.103 119.866 339.034 119.853C338.877 119.81 338.74 119.712 338.65 119.575C338.56 119.439 338.523 119.275 338.546 119.113L343.596 68.4257C343.61 68.2707 343.675 68.1247 343.781 68.0109C343.888 67.8972 344.029 67.8222 344.182 67.7979L366.91 64.2261C367.039 64.2023 367.172 64.216 367.293 64.2654C367.414 64.3149 367.519 64.3981 367.594 64.5052C367.659 64.615 367.693 64.7403 367.693 64.8679C367.693 64.9956 367.659 65.1209 367.594 65.2307L339.801 119.504C339.744 119.604 339.663 119.688 339.566 119.748C339.469 119.809 339.358 119.845 339.243 119.853ZM344.922 69.0675L340.29 115.556L365.78 65.7888L344.922 69.0675Z" fill="#231F20"/>
<path d="M327.942 60.7243L291.555 86.4658L294.876 119.155L333.872 102.678C333.872 102.678 340.332 66.5144 327.942 60.7243Z" fill="#143561"/>
<path d="M342.034 61.4639C344.649 60.5846 347.425 60.2847 350.168 60.5849C354.451 61.3383 358.372 63.3753 362.725 64.0171C367.524 64.4496 372.352 64.4496 377.151 64.0171C378.546 63.9473 377.151 65.8309 378.323 65.0217C382.258 62.1475 382.062 56.4551 382.048 52.1858C382.168 42.2977 380.934 32.4397 378.379 22.8865C376.984 17.9196 371.473 -0.259879 363.422 7.5393C365.236 5.7674 356.446 1.6376 355.191 1.2888C343.778 -1.87831 333.425 8.1532 330.872 18.5893C329.017 26.1653 328.877 33.6854 325.291 40.8009C323.701 43.9401 321.636 47.0375 321.496 50.5674C321.532 52.6949 322.157 54.7709 323.303 56.5642C324.448 58.3575 326.069 59.7976 327.984 60.7244C331.872 62.5109 336.255 62.9098 340.401 61.8545L342.034 61.4639Z" fill="white"/>
<path d="M377.918 65.9145C377.787 65.912 377.658 65.8785 377.542 65.8168C377.384 65.7102 377.261 65.5592 377.189 65.3829C377.117 65.2066 377.099 65.0128 377.137 64.8262V64.7285L374.947 64.8262C370.845 65.166 366.721 65.1286 362.627 64.7146C360.307 64.3197 358.028 63.7126 355.818 62.9008C353.933 62.2134 351.997 61.6723 350.028 61.2824C347.52 60.9942 344.978 61.2512 342.578 62.0358L342.173 62.1335L340.513 62.5381C336.209 63.6121 331.667 63.1889 327.635 61.3382C325.598 60.3591 323.875 58.8307 322.66 56.9253C321.445 55.0199 320.786 52.8131 320.757 50.5533C321.086 47.5704 322.103 44.7047 323.729 42.1821C324.036 41.61 324.343 41.038 324.636 40.466C327.035 35.7502 327.872 30.9088 328.821 25.7884C329.226 23.3747 329.658 20.8913 330.216 18.4078C331.87 11.8163 336.029 6.12993 341.811 2.55832C343.823 1.32267 346.066 0.511919 348.403 0.175996C350.74 -0.159928 353.121 -0.0139198 355.4 0.60503C356.195 0.828262 362.697 3.67448 364.106 6.06027C364.73 5.55287 365.462 5.19684 366.247 5.02013C367.031 4.84342 367.845 4.85083 368.626 5.04177C373.51 6.35326 376.998 15.3244 379.076 22.6213C381.663 32.2448 382.908 42.1796 382.774 52.1438V52.674C382.774 56.8596 382.774 62.5939 378.756 65.5517C378.521 65.757 378.228 65.8839 377.918 65.9145ZM377.207 63.2636C377.386 63.2541 377.565 63.2814 377.733 63.3438C377.901 63.4062 378.054 63.5024 378.184 63.6263C378.285 63.7313 378.365 63.8543 378.421 63.9891C381.406 61.3382 381.379 56.5387 381.365 52.6461V52.1299C381.496 42.2888 380.271 32.4766 377.723 22.9701C374.933 13.2037 371.57 7.2462 368.264 6.36722C367.46 6.21598 366.631 6.28822 365.866 6.57607C365.1 6.86393 364.429 7.35633 363.925 7.9996C363.791 8.12911 363.612 8.20041 363.426 8.19779C363.241 8.19517 363.063 8.11886 362.934 7.98565C362.804 7.85244 362.733 7.67324 362.736 7.48747C362.738 7.30169 362.815 7.12457 362.948 6.99505C363.199 5.94865 356.962 2.46065 355.009 1.91652C352.904 1.34024 350.702 1.20388 348.542 1.51594C346.382 1.82799 344.309 2.58178 342.452 3.73029C336.991 7.10704 333.066 12.4843 331.514 18.7148C330.914 21.1424 330.495 23.6119 330.119 25.9977C329.268 31.0065 328.375 36.1687 325.933 41.0799C325.64 41.6519 325.319 42.2239 325.012 42.8099C323.514 45.1442 322.56 47.786 322.222 50.5393C322.253 52.5354 322.842 54.4831 323.921 56.1621C325.001 57.8411 326.529 59.1846 328.333 60.0407C332.081 61.7456 336.298 62.1245 340.29 61.115L341.908 60.7243L342.313 60.6266C344.9 59.7917 347.636 59.5252 350.335 59.8453C352.374 60.2551 354.379 60.8147 356.335 61.5196C358.462 62.304 360.657 62.8924 362.892 63.2775C366.899 63.6801 370.934 63.7128 374.947 63.3752L377.179 63.2636H377.207Z" fill="#231F20"/>
<path d="M335.211 22.6492C335.211 22.6492 331.402 34.3549 333.677 43.1028C334.246 45.5467 335.516 47.7717 337.329 49.5061C339.143 51.2404 341.423 52.4091 343.889 52.8693L344.336 68.4537C344.336 68.4537 344.503 76.4342 354.228 74.9134C357.048 74.4734 359.71 73.3195 361.959 71.5613C364.208 69.8031 365.97 67.499 367.078 64.868L367.357 36.1687C367.357 36.1687 356.097 30.1135 356.753 19.8029C356.753 19.8169 343.778 26.5697 335.211 22.6492Z" fill="white"/>
<path d="M351.898 75.8203C349.881 75.9128 347.899 75.2737 346.317 74.0205C345.526 73.3123 344.884 72.4546 344.426 71.4967C343.969 70.5388 343.706 69.4998 343.652 68.4397L343.206 53.4971C340.73 52.9107 338.465 51.6498 336.662 49.8545C334.86 48.0591 333.589 45.7994 332.993 43.326C330.705 34.4804 334.388 22.9561 334.555 22.398C334.586 22.3059 334.635 22.2211 334.7 22.149C334.765 22.077 334.844 22.0192 334.932 21.9794C335.023 21.9415 335.12 21.9219 335.218 21.9219C335.316 21.9219 335.414 21.9415 335.504 21.9794C343.666 25.7186 356.307 19.189 356.432 19.189C356.541 19.1279 356.663 19.0958 356.788 19.0958C356.913 19.0958 357.035 19.1279 357.144 19.189C357.246 19.2574 357.328 19.3515 357.382 19.4617C357.435 19.572 357.459 19.6945 357.451 19.8169C356.823 29.5833 367.58 35.471 367.678 35.5269C367.79 35.5852 367.885 35.6732 367.951 35.7814C368.018 35.8896 368.053 36.0138 368.054 36.1407L367.775 64.854C367.789 64.9278 367.789 65.0034 367.775 65.0772C366.638 67.8334 364.807 70.2482 362.46 72.0867C360.113 73.9253 357.329 75.125 354.381 75.5692C353.562 75.7208 352.731 75.8048 351.898 75.8203ZM335.658 23.5979C334.89 26.2627 332.477 35.7082 334.346 42.9214C334.867 45.2388 336.057 47.3522 337.768 48.9992C339.48 50.6461 341.637 51.7541 343.973 52.1856C344.139 52.2055 344.291 52.284 344.404 52.4068C344.517 52.5296 344.581 52.6887 344.587 52.8553L345.033 68.4397C345.143 70.1724 345.924 71.7941 347.21 72.9601C348.786 74.3553 351.116 74.7041 354.186 74.2437C356.861 73.8152 359.385 72.7203 361.526 71.0598C363.667 69.3994 365.355 67.2268 366.436 64.7424L366.701 36.5872C364.776 35.4571 356.237 29.9321 356.083 20.933C352.833 22.4259 343.038 26.4162 335.658 23.5979Z" fill="#231F20"/>
<path d="M361.887 34.327C361.887 34.327 366.394 23.3607 372.017 30.0298C377.639 36.6988 369.952 44.4004 365.124 43.8981" fill="white"/>
<path d="M365.585 44.6237H365.055C364.963 44.615 364.874 44.5882 364.792 44.5448C364.711 44.5014 364.639 44.4424 364.581 44.371C364.522 44.2997 364.479 44.2174 364.452 44.1291C364.426 44.0408 364.417 43.9481 364.427 43.8564C364.435 43.7646 364.462 43.6755 364.506 43.5941C364.549 43.5127 364.608 43.4408 364.679 43.3824C364.751 43.324 364.833 43.2804 364.921 43.254C365.01 43.2276 365.102 43.2189 365.194 43.2285C367.622 43.4797 370.887 41.345 372.407 38.457C373.118 37.2052 373.411 35.7599 373.246 34.3302C373.08 32.9005 372.464 31.5606 371.486 30.5043C371.104 29.9065 370.572 29.4194 369.943 29.0913C369.314 28.7633 368.61 28.6059 367.901 28.6347C365.362 29.0254 363.171 33.0854 362.543 34.6201C362.473 34.7922 362.337 34.9293 362.166 35.0013C361.994 35.0732 361.801 35.0741 361.629 35.0038C361.457 34.9335 361.32 34.7977 361.248 34.6264C361.176 34.455 361.175 34.262 361.246 34.09C361.357 33.8249 363.855 27.8534 367.692 27.2535C369.38 26.9884 371.012 27.7836 372.561 29.6114C373.711 30.8835 374.434 32.4836 374.629 34.1874C374.825 35.8913 374.482 37.6135 373.649 39.1127C371.947 42.3356 368.543 44.6237 365.585 44.6237Z" fill="#231F20"/>
<path d="M341.532 43.4379C340.775 43.4599 340.023 43.317 339.327 43.0193C339.158 42.9381 339.01 42.8192 338.894 42.6716C338.777 42.5241 338.697 42.3519 338.658 42.1682C338.141 40.1731 341.894 34.676 343.066 33.0297C343.118 32.9547 343.184 32.8908 343.261 32.8416C343.337 32.7925 343.423 32.7591 343.513 32.7436C343.602 32.728 343.694 32.7304 343.783 32.7508C343.872 32.7712 343.955 32.8091 344.029 32.8622C344.105 32.9151 344.169 32.9824 344.218 33.0602C344.267 33.1381 344.301 33.2249 344.316 33.3157C344.332 33.4065 344.329 33.4995 344.309 33.5893C344.288 33.6791 344.25 33.7639 344.197 33.8389C341.685 37.3827 339.718 41.1218 340.011 41.8334C341.47 42.1456 342.986 42.0686 344.406 41.6102C344.497 41.5836 344.593 41.5753 344.688 41.5859C344.783 41.5964 344.875 41.6255 344.958 41.6714C345.042 41.7174 345.116 41.7794 345.175 41.8539C345.235 41.9284 345.279 42.0139 345.306 42.1055C345.332 42.1971 345.341 42.293 345.33 42.3878C345.32 42.4826 345.29 42.5744 345.244 42.658C345.198 42.7416 345.136 42.8153 345.062 42.8749C344.988 42.9345 344.902 42.9788 344.81 43.0054C343.743 43.3002 342.639 43.4457 341.532 43.4379Z" fill="#231F20"/>
<path d="M343.89 52.8833C343.89 52.8833 352.261 53.6925 356.99 52.3252C356.99 52.3252 352.121 64.7564 344.21 64.882L343.89 52.8833Z" fill="#231F20"/>
<path d="M344.21 65.6215C344.028 65.6215 343.852 65.5499 343.722 65.4221C343.591 65.2943 343.516 65.1204 343.513 64.9378L343.192 52.8972C343.189 52.7983 343.208 52.6999 343.246 52.6087C343.285 52.5175 343.342 52.4355 343.415 52.3682C343.487 52.3009 343.573 52.2498 343.667 52.2184C343.761 52.1869 343.861 52.1758 343.959 52.1857C344.043 52.1857 352.233 52.967 356.795 51.6555C356.92 51.6166 357.053 51.6143 357.179 51.6489C357.305 51.6836 357.419 51.7536 357.507 51.8508C357.595 51.9466 357.656 52.0653 357.68 52.1936C357.705 52.3219 357.693 52.4545 357.646 52.5763C357.437 53.1065 352.512 65.4401 344.224 65.6215H344.21ZM344.601 53.6367L344.88 64.1705C350.461 63.5008 354.395 56.2876 355.79 53.3297C352.084 53.8584 348.33 53.9614 344.601 53.6367Z" fill="#231F20"/>
<path d="M350.269 31.6652C350.299 30.4789 349.774 29.5033 349.096 29.486C348.418 29.4687 347.844 30.4164 347.814 31.6026C347.784 32.7889 348.309 33.7646 348.986 33.7818C349.664 33.7991 350.238 32.8514 350.269 31.6652Z" fill="#231F20"/>
<path d="M338.973 31.3889C339.003 30.2027 338.478 29.2271 337.8 29.2098C337.123 29.1925 336.548 30.1401 336.518 31.3264C336.488 32.5126 337.013 33.4883 337.691 33.5056C338.369 33.5229 338.943 32.5752 338.973 31.3889Z" fill="#231F20"/>
<path d="M381.895 46.5213C382.495 55.6878 383.29 72.5418 368.724 68.3841C365.706 67.4803 363.146 65.4595 361.567 62.7335C358.776 57.7387 366.282 50.5116 369.84 47.2607" fill="white"/>
<path d="M372.868 69.7373C371.398 69.7159 369.937 69.4905 368.529 69.0676C365.302 68.1359 362.564 65.984 360.897 63.0682C358.009 57.9897 364.315 51.3206 369.268 46.7443C369.401 46.6156 369.579 46.5436 369.764 46.5436C369.948 46.5436 370.126 46.6156 370.259 46.7443C370.324 46.8092 370.376 46.8863 370.412 46.9713C370.447 47.0563 370.465 47.1475 370.465 47.2396C370.465 47.3317 370.447 47.4229 370.412 47.5079C370.376 47.5929 370.324 47.6701 370.259 47.7349C367.58 50.1905 359.446 57.6409 362.125 62.3427C363.616 64.9389 366.057 66.8547 368.933 67.6863C372.589 68.7327 375.463 68.4397 377.472 66.8213C382.286 62.9287 381.56 51.8647 381.211 46.549C381.205 46.4574 381.217 46.3654 381.246 46.2783C381.275 46.1912 381.321 46.1107 381.381 46.0414C381.441 45.9721 381.515 45.9153 381.597 45.8744C381.679 45.8334 381.768 45.809 381.86 45.8026C381.952 45.7962 382.044 45.8078 382.131 45.837C382.218 45.8661 382.298 45.9121 382.368 45.9724C382.437 46.0326 382.494 46.1059 382.535 46.1881C382.576 46.2703 382.6 46.3597 382.606 46.4513C382.997 52.4367 383.737 63.5565 378.337 67.9095C376.788 69.1473 374.85 69.795 372.868 69.7373Z" fill="#231F20"/>
<path d="M350.154 46.6187C350.154 47.3582 348.912 48.0139 347.363 48.0139C345.815 48.0139 346.443 47.4 346.443 46.6187C346.443 45.8374 345.829 45.2235 347.363 45.2235C348.898 45.2235 350.154 45.8793 350.154 46.6187Z" fill="#231F20"/>
<path d="M384.964 64.4075C384.964 64.4075 372.087 75.1645 372.031 84.2613C371.975 93.358 381.797 135.884 381.797 135.884L408.627 120.927C408.627 120.927 398.163 68.0909 384.964 64.4075Z" fill="#143561"/>
<path d="M306.805 130.373H306.61C306.521 130.346 306.439 130.302 306.368 130.243C306.297 130.184 306.239 130.111 306.196 130.03C306.153 129.948 306.127 129.858 306.119 129.766C306.111 129.674 306.121 129.582 306.149 129.494L325.375 66.7098C325.393 66.6129 325.431 66.5209 325.486 66.4398C325.542 66.3587 325.614 66.2903 325.698 66.2391C325.782 66.1879 325.876 66.155 325.974 66.1427C326.072 66.1304 326.171 66.1389 326.265 66.1676C326.359 66.1964 326.446 66.2447 326.52 66.3095C326.594 66.3742 326.654 66.4539 326.695 66.5433C326.736 66.6327 326.758 66.7299 326.759 66.8283C326.76 66.9267 326.74 67.0242 326.7 67.1144L307.475 129.898C307.427 130.038 307.337 130.159 307.217 130.245C307.097 130.33 306.952 130.375 306.805 130.373Z" fill="#231F20"/>
<path d="M382.062 133.68C381.903 133.683 381.747 133.63 381.622 133.531C381.497 133.432 381.411 133.292 381.379 133.135C370.51 84.6521 371.18 84.0801 371.612 83.7313C371.745 83.6026 371.923 83.5306 372.108 83.5306C372.293 83.5306 372.47 83.6026 372.603 83.7313C372.683 83.8236 372.737 83.9357 372.759 84.056C372.781 84.1762 372.771 84.3002 372.728 84.4149C372.728 86.6891 378.686 114.482 382.788 132.759C382.808 132.849 382.811 132.941 382.796 133.032C382.78 133.123 382.747 133.21 382.697 133.288C382.648 133.366 382.584 133.433 382.508 133.486C382.433 133.539 382.348 133.576 382.258 133.596L382.062 133.68Z" fill="#231F20"/>
<path d="M344.615 132.982L294.597 151.831L272.385 135.884L316.111 122.685L344.615 132.982Z" fill="white"/>
<path d="M294.597 152.557C294.448 152.558 294.302 152.514 294.179 152.431L271.981 136.47C271.873 136.395 271.788 136.291 271.736 136.17C271.684 136.049 271.667 135.916 271.688 135.786C271.712 135.66 271.771 135.542 271.857 135.447C271.943 135.351 272.053 135.28 272.176 135.242L315.902 122.057C316.048 122.016 316.202 122.016 316.348 122.057L344.824 132.326C344.956 132.38 345.069 132.47 345.151 132.586C345.233 132.703 345.279 132.84 345.285 132.982C345.285 133.125 345.241 133.265 345.158 133.382C345.076 133.5 344.959 133.589 344.824 133.638L294.834 152.557C294.756 152.571 294.676 152.571 294.597 152.557ZM273.934 136.163L294.695 151.078L342.592 133.024L316.083 123.453L273.934 136.163Z" fill="#231F20"/>
<path d="M405.501 122.699C405.501 122.699 411.082 150.924 395.889 153.617C380.695 156.31 330.314 146.445 330.314 146.445C330.314 146.445 312.818 149.529 313.934 145.05C315.051 140.572 325.975 138.591 325.975 138.591C325.975 138.591 316.962 134.224 321.399 134.237C326.12 134.518 330.824 135.044 335.49 135.814L382.09 129.605" fill="white"/>
<path d="M388.997 154.789C369.91 154.789 333.342 147.813 330.398 147.157C327.761 147.617 316.223 149.445 313.795 146.822C313.563 146.577 313.4 146.275 313.322 145.947C313.244 145.619 313.253 145.276 313.349 144.953C314.283 141.311 320.673 139.246 324.008 138.409C319.264 135.898 319.488 134.907 319.585 134.516C319.795 133.61 320.98 133.61 321.483 133.61C326.209 133.883 330.917 134.404 335.588 135.172L382.09 128.978C382.275 128.953 382.462 129.004 382.61 129.118C382.758 129.232 382.855 129.399 382.879 129.584C382.903 129.769 382.852 129.956 382.738 130.104C382.625 130.252 382.457 130.349 382.272 130.373L335.672 136.567C335.603 136.581 335.532 136.581 335.463 136.567C330.842 135.808 326.185 135.287 321.511 135.005H321.301C322.893 136.189 324.605 137.204 326.408 138.032C326.537 138.099 326.643 138.204 326.711 138.333C326.778 138.462 326.805 138.609 326.787 138.754C326.769 138.898 326.706 139.034 326.609 139.142C326.511 139.25 326.382 139.325 326.24 139.358C323.324 139.902 315.567 142.051 314.744 145.301C314.703 145.397 314.691 145.503 314.711 145.605C314.731 145.707 314.781 145.8 314.855 145.873C316.362 147.506 325.138 146.669 330.314 145.762H330.579C331.082 145.859 380.988 155.528 395.833 152.933C397.167 152.706 398.44 152.209 399.575 151.473C400.71 150.736 401.682 149.776 402.432 148.65C408.125 140.376 405.027 123.536 404.888 122.839C404.87 122.736 404.874 122.63 404.901 122.529C404.927 122.428 404.975 122.333 405.041 122.253C405.124 122.148 405.235 122.07 405.362 122.028C405.488 121.986 405.624 121.981 405.753 122.015C405.881 122.047 405.997 122.115 406.086 122.212C406.175 122.309 406.234 122.43 406.255 122.56L405.572 122.699L406.269 122.574C406.618 124.415 409.506 140.851 403.576 149.445C402.724 150.725 401.618 151.817 400.327 152.652C399.036 153.487 397.587 154.048 396.07 154.3C393.731 154.666 391.364 154.829 388.997 154.789Z" fill="#231F20"/>
<path d="M211.443 243.021C212.89 244.414 214.741 245.312 216.731 245.589C219.061 245.589 244.328 240.929 245.374 244.389C246.421 247.849 244.356 249.579 238.315 252.425C230.222 256.234 203.058 265.177 203.058 265.177L197.114 251.225L211.443 243.021Z" fill="white"/>
<path d="M203.058 265.819C202.932 265.822 202.808 265.786 202.703 265.716C202.598 265.646 202.517 265.546 202.472 265.428L196.528 251.476C196.467 251.334 196.46 251.175 196.508 251.028C196.557 250.881 196.659 250.758 196.793 250.681L211.122 242.477C211.249 242.404 211.397 242.377 211.542 242.4C211.686 242.423 211.819 242.494 211.917 242.603C213.243 243.869 214.93 244.693 216.745 244.961C218.448 244.845 220.143 244.635 221.823 244.333C236.877 242.226 245.179 241.542 245.988 244.207C247.188 248.184 244.677 250.137 238.58 253.011C230.557 256.806 203.532 265.707 203.253 265.805L203.058 265.819ZM197.923 251.49L203.42 264.396C207.327 263.098 230.711 255.299 238.035 251.839C244.244 248.909 245.625 247.416 244.76 244.556C244.132 242.477 227.474 244.807 222.004 245.575C218.935 246.007 217.303 246.188 216.717 246.216C214.722 245.969 212.849 245.123 211.345 243.789L197.923 251.49Z" fill="#231F20"/>
<path d="M132.907 257.992C132.907 257.992 159.988 267.298 161.146 269.07C162.304 270.842 160.253 272.921 153.04 273.562C145.827 274.204 114.965 272.53 114.965 272.53C114.965 272.53 114.574 264.159 116.513 259.973C118.453 255.787 132.907 257.992 132.907 257.992Z" fill="white"/>
<path d="M147.891 274.344C136.841 274.344 115.983 273.228 114.937 273.172C114.777 273.162 114.627 273.094 114.514 272.981C114.401 272.868 114.333 272.718 114.323 272.558C114.323 272.209 113.96 263.991 115.927 259.666C118.006 255.104 131.47 257.127 133.005 257.364H133.102C139.506 259.569 160.49 266.879 161.676 268.707C161.903 269.024 162.04 269.395 162.075 269.783C162.109 270.17 162.039 270.56 161.871 270.912C161.048 272.6 158.007 273.702 153.096 274.162C151.91 274.302 150.096 274.344 147.891 274.344ZM115.579 271.93C119.876 272.153 146.454 273.507 152.984 272.921C159.29 272.363 160.504 270.842 160.713 270.381C160.791 270.229 160.824 270.056 160.806 269.886C160.789 269.715 160.723 269.553 160.616 269.419C159.541 268.163 142.98 262.136 132.712 258.62C127.298 257.755 118.299 257.434 117.044 260.196C115.537 263.615 115.537 269.991 115.579 271.93Z" fill="#231F20"/>
<path d="M62.6726 169.773C62.6726 169.773 40.5726 114.537 42.8887 87.2891C45.2047 60.0407 62.9935 58.3805 69.2301 57.9898C75.4667 57.5991 108.212 53.2322 120.169 67.8957C132.126 82.5593 129.056 153.184 129.056 153.184L62.6726 169.773Z" fill="#143561"/>
<path d="M101.682 70.5743L101.278 125.922L77.7825 66.8631L101.682 70.5743Z" fill="#231F20"/>
<path d="M101.278 126.62C101.138 126.62 101.001 126.579 100.885 126.502C100.768 126.425 100.677 126.316 100.622 126.187L77.1268 67.1143C77.0857 66.9979 77.0744 66.8731 77.0939 66.7513C77.1134 66.6295 77.1631 66.5144 77.2384 66.4167C77.3148 66.3194 77.4161 66.2447 77.5316 66.2005C77.647 66.1563 77.7723 66.1442 77.8941 66.1656L101.794 69.8908C101.959 69.9141 102.111 69.9959 102.221 70.1214C102.331 70.2468 102.392 70.4075 102.394 70.5744L101.975 125.936C101.972 126.096 101.913 126.251 101.808 126.373C101.704 126.495 101.561 126.577 101.403 126.606L101.278 126.62ZM78.9545 67.7282L100.664 122.35L101.041 71.1743L78.9545 67.7282Z" fill="#231F20"/>
<path d="M130.41 139.191C130.41 139.191 157.421 146.418 181.572 162.825C192.65 170.345 213.341 244.124 213.341 244.124C213.341 244.124 211.025 256.904 196.263 254.909L131.749 171.322C131.749 171.322 117.909 138.87 130.41 139.191Z" fill="#231F20"/>
<path d="M199.277 255.801C198.236 255.799 197.196 255.724 196.166 255.578C195.985 255.55 195.82 255.455 195.705 255.313L131.205 171.727C131.164 171.681 131.131 171.629 131.107 171.573C130.703 170.61 121.02 147.729 125.833 140.641C126.338 139.906 127.029 139.318 127.835 138.938C128.642 138.558 129.535 138.399 130.424 138.479H130.591C130.856 138.549 157.993 145.929 181.962 162.197C193.124 169.787 213.159 240.873 214.052 243.9C214.073 244.002 214.073 244.106 214.052 244.207C213.335 247.563 211.464 250.562 208.764 252.68C206.064 254.799 202.707 255.903 199.277 255.801ZM196.64 254.239C209.601 255.843 212.308 245.589 212.615 244.138C211.527 240.273 191.687 170.513 181.181 163.383C158.049 147.673 131.958 140.321 130.312 139.874H130.228C129.601 139.828 128.972 139.947 128.404 140.218C127.836 140.49 127.349 140.905 126.991 141.423C122.736 147.701 131.721 169.438 132.363 170.945L196.64 254.239Z" fill="#231F20"/>
<path d="M62.6726 169.773C62.6726 169.773 113.849 148.957 126.964 147.031C126.964 147.031 145.729 154.007 155.37 171.782C165.011 189.557 132.907 257.992 132.907 257.992C127.625 261.116 121.388 262.216 115.355 261.089L114.937 189.459C114.937 189.459 53.1154 195.584 62.6726 169.773Z" fill="#231F20"/>
<path d="M120.029 262.233C118.414 262.231 116.802 262.077 115.216 261.773C115.058 261.741 114.917 261.655 114.815 261.531C114.713 261.406 114.658 261.25 114.658 261.089L114.239 190.227C108.351 190.743 72.4529 193.338 63.1748 181.312C60.6913 178.117 60.3844 174.154 62.0168 169.536C62.0503 169.445 62.1023 169.362 62.1695 169.293C62.2368 169.223 62.3178 169.168 62.4074 169.131C64.5002 168.28 113.807 148.203 126.866 146.334C126.98 146.307 127.1 146.307 127.215 146.334C127.396 146.404 146.329 153.631 155.984 171.447C165.638 189.264 134.846 255.481 133.535 258.285C133.483 258.406 133.396 258.508 133.284 258.578C129.281 260.981 124.698 262.245 120.029 262.233ZM116.011 260.503C121.629 261.397 127.384 260.343 132.321 257.518C134.149 253.555 163.853 188.901 154.714 172.117C145.785 155.682 128.707 148.482 126.81 147.743C114.156 149.724 67.2906 168.671 63.1609 170.303C61.7656 174.322 62.1005 177.726 64.2073 180.46C73.6388 192.682 114.435 188.832 114.797 188.832C114.892 188.823 114.988 188.833 115.079 188.861C115.17 188.89 115.255 188.937 115.327 188.999C115.401 189.064 115.46 189.143 115.501 189.232C115.542 189.321 115.564 189.417 115.565 189.515L116.011 260.503Z" fill="#231F20"/>
<path d="M154.212 201.263H154.086C153.904 201.229 153.743 201.125 153.636 200.974C153.529 200.823 153.486 200.637 153.514 200.454C155.314 190.213 157.169 174.057 154.909 171.517C147.473 163.313 129 149.64 128.819 149.501C128.673 149.392 128.575 149.231 128.546 149.051C128.517 148.871 128.56 148.687 128.666 148.538C128.777 148.391 128.941 148.293 129.123 148.264C129.305 148.236 129.491 148.279 129.642 148.385C129.824 148.524 148.408 162.337 155.942 170.582C159.444 174.433 155.412 198.026 154.937 200.705C154.907 200.871 154.816 201.02 154.682 201.123C154.548 201.226 154.38 201.276 154.212 201.263Z" fill="white"/>
<path d="M120.197 67.8955C120.197 67.8955 129.056 84.917 134.274 93.6649C139.492 102.413 150.821 114.956 150.821 114.956C150.821 114.956 190.947 129.229 191.213 129.996C191.478 130.763 187.404 144.255 187.404 144.255C187.404 144.255 145.31 141.227 138.334 137.935C131.358 134.642 117.239 118.402 117.239 118.402L120.197 67.8955Z" fill="#143561"/>
<path d="M92.5856 76.6854L89.6278 81.3454L92.8647 83.2707L93.1856 105.594L101.278 125.922L101.682 107.115L94.9435 82.6289L96.9526 80.2711L92.5856 76.6854Z" fill="white"/>
<path d="M101.278 126.62C101.138 126.62 101.001 126.579 100.885 126.502C100.768 126.425 100.677 126.316 100.622 126.187L92.5438 105.859C92.5373 105.776 92.5373 105.692 92.5438 105.608L92.2368 83.6615L89.3209 81.9454C89.1615 81.8423 89.0469 81.6829 89 81.499C88.9778 81.4087 88.975 81.3148 88.9918 81.2234C89.0086 81.132 89.0447 81.0452 89.0976 80.9688L92.0555 76.3088C92.108 76.2254 92.1773 76.1538 92.2589 76.0985C92.3406 76.0433 92.4328 76.0056 92.5298 75.9879C92.6284 75.9738 92.7288 75.9802 92.8248 76.0066C92.9209 76.033 93.0104 76.0789 93.0879 76.1414L97.4549 79.7271C97.526 79.7862 97.5847 79.8589 97.6275 79.9409C97.6703 80.0229 97.6964 80.1126 97.7042 80.2048C97.7119 80.297 97.7013 80.3898 97.6729 80.4779C97.6445 80.5659 97.5988 80.6474 97.5386 80.7177L95.7249 82.7965L102.366 106.934C102.373 107.003 102.373 107.073 102.366 107.143L101.947 125.936C101.944 126.097 101.885 126.251 101.78 126.373C101.676 126.495 101.533 126.577 101.375 126.606L101.278 126.62ZM93.8832 105.469L100.664 122.476L100.999 107.213L94.2738 82.7965C94.2471 82.6859 94.2458 82.5708 94.27 82.4596C94.2941 82.3485 94.3432 82.2442 94.4134 82.1547L95.962 80.3409L92.7531 77.704L90.6045 81.0944L93.2274 82.657C93.3292 82.7173 93.4135 82.8031 93.4722 82.9058C93.5309 83.0085 93.5619 83.1247 93.5623 83.243L93.8832 105.469Z" fill="#231F20"/>
<path d="M76.3176 13.4129C77.1224 13.1059 77.9606 12.8952 78.815 12.7851C82.2193 12.3944 82.2751 13.1339 84.898 10.9295C88.8996 7.78132 93.7677 5.93143 98.8501 5.62768C108.616 4.98589 115.718 9.88305 113.486 20.5982C112.412 24.8422 110.464 28.8151 107.765 32.2621C102.185 39.9078 94.4691 46.828 85.0655 47.6093C82.2751 47.8186 77.0431 47.6093 75.02 45.3351C72.1459 42.0761 70.1588 38.1323 69.2498 33.8831C68.3408 29.6339 68.5406 25.2222 69.8299 21.0726C70.3446 19.2955 71.2025 17.6365 72.3552 16.1894C73.4258 14.9502 74.7873 13.9961 76.3176 13.4129Z" fill="white"/>
<path d="M83.3495 48.2931C80.866 48.2931 76.4711 47.9582 74.462 45.7259C71.5151 42.3845 69.4791 38.34 68.5504 33.9826C67.6218 29.6252 67.8318 25.102 69.1603 20.8494C69.7019 18.9877 70.6077 17.252 71.8251 15.743C73.6044 13.6883 76.0981 12.3867 78.8011 12.1015C79.505 12.0143 80.2128 11.9631 80.9218 11.9481C82.317 11.9481 82.7495 11.9481 84.5075 10.3994C88.5978 7.14023 93.6004 5.23378 98.8223 4.94414C104.584 4.56744 109.258 6.07426 111.979 9.12975C114.407 11.9202 115.174 15.9104 114.183 20.6681C113.116 25.0159 111.127 29.0839 108.352 32.5971C103.538 39.2661 95.6133 47.3862 85.1354 48.1675C84.8703 48.2512 84.2285 48.2931 83.3495 48.2931ZM100.483 6.26959C99.9524 6.26959 99.4083 6.26959 98.8502 6.26959C93.9142 6.58515 89.1924 8.40086 85.3167 11.4737C84.7567 12.0843 84.0719 12.5673 83.3088 12.8898C82.5457 13.2124 81.7221 13.3671 80.8939 13.3433C80.3777 13.3433 79.7359 13.3433 78.8709 13.4828C78.0729 13.5805 77.2902 13.7773 76.5409 14.0688C75.1232 14.6059 73.862 15.4883 72.8715 16.6359C71.7728 18.0131 70.953 19.5912 70.4578 21.282C69.2135 25.31 69.0284 29.5907 69.9204 33.7111C70.8125 37.8315 72.7515 41.6524 75.5503 44.8051C77.1408 46.577 81.5776 47.1211 85.0237 46.8421C94.9576 46.1026 102.575 38.2755 107.207 31.8576C109.859 28.4993 111.762 24.6128 112.788 20.4588C113.681 16.1337 113.025 12.562 110.891 10.1064C108.756 7.65084 105.045 6.26959 100.483 6.26959Z" fill="#231F20"/>
<path d="M101.696 55.8411V70.5744C101.696 70.5744 98.2362 78.6806 88.5954 76.239C78.9545 73.7974 77.7825 66.8493 77.7825 66.8493L78.2151 39.5451C78.2151 39.5451 85.4282 35.806 83.5029 20.2216C91.3814 23.7188 100.056 25.0297 108.617 24.0165C108.617 24.0165 111.574 41.052 110.542 48.5581C109.495 55.869 101.822 55.7434 101.696 55.8411Z" fill="white"/>
<path d="M92.0694 77.3969C90.84 77.3858 89.6168 77.2218 88.4279 76.9086C78.4662 74.3693 77.1407 67.2677 77.0989 66.9747L77.5174 39.5729C77.5214 39.4467 77.5582 39.3236 77.6242 39.216C77.6903 39.1083 77.7833 39.0197 77.8941 38.9591C77.8941 38.9591 84.6469 35.178 82.8192 20.347C82.799 20.2211 82.8159 20.092 82.8679 19.9755C82.92 19.859 83.0049 19.7603 83.1122 19.6913C83.2194 19.626 83.3425 19.5914 83.468 19.5914C83.5935 19.5914 83.7166 19.626 83.8238 19.6913C91.574 23.1029 100.093 24.3887 108.505 23.4165C108.681 23.3993 108.857 23.4484 108.999 23.5542C109.141 23.66 109.238 23.8148 109.272 23.9885C109.384 24.6861 112.23 41.2193 111.184 48.7534C110.584 53.2041 107.458 55.9526 102.394 56.5247V70.6301C102.408 70.7179 102.408 70.8075 102.394 70.8952C101.453 72.8355 99.9862 74.4732 98.1613 75.6224C96.3364 76.7716 94.226 77.3863 92.0694 77.3969ZM78.9126 39.9775L78.4801 66.8631C78.4801 67.0026 79.7219 73.2531 88.7767 75.5552C97.1479 77.7038 100.524 71.3696 100.999 70.4209V55.841C100.997 55.7373 101.019 55.6347 101.063 55.5406C101.106 55.4465 101.17 55.3632 101.25 55.2969C101.439 55.169 101.664 55.1054 101.892 55.1155C106.538 54.6969 109.272 52.4088 109.802 48.5022C110.695 42.0145 108.519 27.9928 108.003 24.7838C99.9366 25.6259 91.7877 24.4563 84.2842 21.3795C85.6096 34.4805 80.3916 38.973 78.9126 39.9775Z" fill="#231F20"/>
<path d="M83.9214 39.1825C83.6085 37.8487 82.8687 36.6534 81.8146 35.7782C80.8013 35.0096 79.6642 34.4197 78.4522 34.0342C77.8104 33.7549 77.1147 33.6215 76.4152 33.6436C75.9227 33.7137 75.4487 33.8796 75.02 34.1319C73.97 34.6277 73.1332 35.4843 72.6621 36.5456C72.3781 37.4479 72.3206 38.4062 72.4947 39.336C72.6043 40.3438 72.8434 41.3333 73.2062 42.2799C73.5853 43.2236 74.1489 44.0822 74.864 44.8054C75.5791 45.5286 76.4312 46.1019 77.3706 46.4917C78.31 46.8815 79.3177 47.0799 80.3347 47.0754C81.3517 47.0709 82.3576 46.8636 83.2935 46.4655" fill="white"/>
<path d="M80.2659 47.6793C78.614 47.6761 77 47.1842 75.6271 46.2656C74.2542 45.347 73.1837 44.0428 72.5505 42.5171C72.1547 41.5156 71.9011 40.4636 71.7971 39.3918C71.6067 38.359 71.6737 37.2952 71.9924 36.2945C72.5241 35.0747 73.4742 34.0851 74.6712 33.504C75.1713 33.2054 75.7265 33.0108 76.3036 32.932C77.1121 32.8967 77.9181 33.0446 78.6615 33.3645C79.948 33.7775 81.1556 34.4049 82.2332 35.2202C83.3971 36.1963 84.2144 37.5226 84.5632 39.0011C84.5859 39.0901 84.5905 39.1827 84.5767 39.2734C84.5628 39.3641 84.5309 39.4511 84.4827 39.5293C84.4345 39.6074 84.3711 39.675 84.2963 39.7281C84.2214 39.7812 84.1366 39.8186 84.0469 39.8383C83.8675 39.8802 83.6788 39.8495 83.5219 39.7528C83.3651 39.6561 83.2529 39.5012 83.2098 39.322C82.9271 38.1386 82.2717 37.0773 81.3403 36.2945C80.3828 35.5812 79.3121 35.0341 78.1731 34.676C77.6349 34.4298 77.0489 34.3059 76.457 34.3133C76.0614 34.3792 75.6823 34.5214 75.3409 34.7318C74.4461 35.152 73.7223 35.866 73.2899 36.7549C73.0702 37.5453 73.032 38.3752 73.1783 39.1825C73.2678 40.1398 73.4933 41.0793 73.848 41.9729C74.2002 42.8221 74.7168 43.5934 75.3681 44.2422C76.0194 44.8911 76.7925 45.4048 77.643 45.7539C79.3656 46.4513 81.2919 46.4513 83.0145 45.7539C83.0974 45.7152 83.1874 45.6939 83.2789 45.6913C83.3704 45.6888 83.4615 45.705 83.5465 45.739C83.6315 45.773 83.7086 45.824 83.7731 45.889C83.8375 45.954 83.888 46.0314 83.9214 46.1167C83.9583 46.2009 83.9782 46.2916 83.98 46.3836C83.9817 46.4756 83.9653 46.567 83.9316 46.6526C83.8979 46.7382 83.8475 46.8162 83.7835 46.8823C83.7195 46.9484 83.6431 47.0011 83.5586 47.0375C82.5156 47.4714 81.3956 47.6897 80.2659 47.6793Z" fill="#231F20"/>
<path d="M101.124 33.8527C101.124 33.8527 106.37 41.3031 105.198 42.6425C104.026 43.9819 100.636 43.1866 100.636 43.1866" fill="white"/>
<path d="M102.701 44.1214C101.955 44.1153 101.211 44.0311 100.483 43.8703C100.391 43.8501 100.304 43.8121 100.227 43.7585C100.15 43.7048 100.085 43.6365 100.034 43.5575C99.9838 43.4784 99.9494 43.3902 99.9329 43.2979C99.9165 43.2055 99.9184 43.1108 99.9386 43.0192C99.9587 42.9276 99.9967 42.8409 100.05 42.7639C100.104 42.687 100.172 42.6214 100.251 42.5709C100.33 42.5204 100.419 42.4859 100.511 42.4695C100.603 42.453 100.698 42.4549 100.79 42.4751C101.948 42.7402 104.027 42.8797 104.668 42.1402C104.961 41.4566 103.036 37.7454 100.483 34.2155C100.388 34.0636 100.356 33.8814 100.392 33.7063C100.428 33.5313 100.53 33.3768 100.677 33.2748C100.824 33.1728 101.004 33.131 101.181 33.1581C101.358 33.1851 101.517 33.279 101.627 33.4202C103.706 36.3641 106.984 41.5264 105.659 43.0611C105.263 43.4281 104.797 43.7113 104.288 43.8935C103.78 44.0757 103.24 44.1533 102.701 44.1214Z" fill="#231F20"/>
<path d="M98.2176 32.3107C98.2773 31.3416 97.7647 30.5214 97.0725 30.4787C96.3803 30.436 95.7707 31.187 95.711 32.156C95.6512 33.1251 96.1638 33.9453 96.856 33.988C97.5482 34.0307 98.1578 33.2797 98.2176 32.3107Z" fill="#231F20"/>
<path d="M107.85 34.0146C108.542 33.966 109.047 33.1414 108.979 32.1729C108.911 31.2044 108.295 30.4587 107.603 30.5073C106.912 30.5559 106.406 31.3805 106.474 32.349C106.542 33.3175 107.158 34.0632 107.85 34.0146Z" fill="#231F20"/>
<path d="M101.375 48.5862C98.4733 48.5862 94.6644 48.1397 92.153 46.1167C92.0083 45.9991 91.9156 45.8294 91.8947 45.6442C91.8739 45.459 91.9265 45.2729 92.0414 45.1261C92.0983 45.0544 92.169 44.9948 92.2493 44.9509C92.3296 44.907 92.418 44.8797 92.509 44.8706C92.6001 44.8615 92.6921 44.8708 92.7795 44.8979C92.867 44.925 92.9481 44.9694 93.018 45.0284C96.9943 48.2234 105.17 46.9259 105.254 46.9119C105.439 46.8823 105.628 46.9275 105.78 47.0373C105.932 47.1472 106.034 47.3129 106.063 47.4979C106.093 47.6829 106.048 47.8721 105.938 48.0239C105.828 48.1757 105.662 48.2775 105.477 48.3071C104.119 48.5032 102.748 48.5965 101.375 48.5862Z" fill="#231F20"/>
<path d="M110.821 41.61C109.448 41.6142 108.092 41.3175 106.846 40.7407C105.601 40.1639 104.497 39.3211 103.612 38.2716C102.728 37.2222 102.084 35.9915 101.726 34.6664C101.369 33.3412 101.306 31.9538 101.543 30.6018C101.978 28.1527 103.367 25.976 105.404 24.5483C107.441 23.1205 109.961 22.558 112.411 22.984C114.739 23.3685 116.836 24.6165 118.285 26.479C119.733 28.3414 120.426 30.6814 120.225 33.0321C120.024 35.3829 118.945 37.5715 117.202 39.1615C115.459 40.7514 113.18 41.6257 110.821 41.61ZM102.924 30.853C102.649 32.4099 102.842 34.0136 103.48 35.4606C104.117 36.9075 105.17 38.1324 106.505 38.9799C107.84 39.8274 109.396 40.2594 110.977 40.2209C112.558 40.1824 114.091 39.6752 115.383 38.7638C116.245 38.1595 116.979 37.3913 117.543 36.5032C118.108 35.6151 118.492 34.6244 118.673 33.5878C118.854 32.5512 118.83 31.489 118.6 30.4619C118.371 29.4349 117.942 28.4631 117.336 27.6021C116.427 26.3098 115.155 25.316 113.681 24.7463C112.206 24.1766 110.596 24.0567 109.054 24.4016C107.512 24.7465 106.106 25.5407 105.015 26.684C103.924 27.8273 103.196 29.2683 102.924 30.8251V30.853Z" fill="#231F20"/>
<path d="M92.5996 40.9404C92.0524 40.9425 91.5061 40.8958 90.9672 40.8009C89.7182 40.6275 88.5168 40.2043 87.4349 39.5565C86.353 38.9086 85.4126 38.0496 84.67 37.0304C83.9273 36.0113 83.3975 34.853 83.1122 33.6246C82.8269 32.3963 82.792 31.1231 83.0095 29.8809C83.227 28.6388 83.6924 27.4532 84.3781 26.3949C85.0638 25.3365 85.9556 24.4272 87.0004 23.721C88.0451 23.0148 89.2214 22.5264 90.4591 22.2847C91.6968 22.0431 92.9704 22.0532 94.2041 22.3145C96.0312 22.6359 97.7221 23.4913 99.0635 24.7728C100.405 26.0543 101.337 27.7044 101.741 29.5149C102.146 31.3254 102.005 33.2151 101.336 34.9456C100.668 36.6761 99.5017 38.1699 97.9851 39.2383C96.4068 40.3441 94.5268 40.9383 92.5996 40.9404ZM92.5996 23.5702C91.1425 23.5766 89.7148 23.9811 88.471 24.7401C87.2271 25.499 86.2143 26.5835 85.542 27.8763C84.8698 29.1691 84.5636 30.621 84.6567 32.0752C84.7498 33.5294 85.2385 34.9304 86.0701 36.127C86.673 36.9904 87.4408 37.726 88.3294 38.2913C89.2179 38.8565 90.2095 39.2404 91.2471 39.4207C92.2846 39.6009 93.3476 39.5741 94.3747 39.3416C95.4019 39.1092 96.3728 38.6758 97.2317 38.0663C98.0932 37.462 98.8272 36.6939 99.3918 35.8057C99.9563 34.9176 100.34 33.9269 100.522 32.8903C100.703 31.8537 100.678 30.7915 100.449 29.7645C100.22 28.7374 99.7901 27.7656 99.185 26.9047C98.4508 25.8482 97.4696 24.987 96.3268 24.3961C95.1839 23.8052 93.914 23.5025 92.6275 23.5143L92.5996 23.5702Z" fill="#231F20"/>
<path d="M101.696 55.8412C101.696 55.8412 92.5297 57.9619 87.1303 54.8925C87.1303 54.8925 93.1018 67.24 101.696 65.9565V55.8412Z" fill="#231F20"/>
<path d="M100.413 66.7378C92.181 66.7378 86.7397 55.6738 86.4606 55.1855C86.3899 55.0534 86.3666 54.901 86.3945 54.7538C86.4224 54.6066 86.4999 54.4733 86.6141 54.3763C86.7195 54.2733 86.8559 54.2078 87.0022 54.1902C87.1485 54.1725 87.2965 54.2036 87.4233 54.2786C92.5298 57.1946 101.375 55.1855 101.487 55.1716C101.589 55.1463 101.696 55.1445 101.799 55.1662C101.902 55.188 101.998 55.2327 102.081 55.2972C102.165 55.3616 102.232 55.444 102.279 55.5382C102.326 55.6324 102.351 55.736 102.352 55.8413V65.9425C102.35 66.1094 102.289 66.2701 102.179 66.3956C102.069 66.521 101.917 66.6028 101.752 66.6262C101.309 66.6954 100.861 66.7327 100.413 66.7378ZM88.7627 56.3714C90.6881 59.5246 95.2504 65.7333 100.999 65.3147V56.7063C98.864 57.097 93.2413 57.8922 88.7627 56.3714Z" fill="#231F20"/>
<path d="M51.8317 64.6587C44.3395 66.0539 13.9938 136.149 24.3881 144.185C40.6003 156.742 97.0083 144.046 97.0083 144.046L92.4181 122.281C92.4181 122.281 56.1429 123.299 55.6266 115.849C55.1104 108.398 76.7221 73.9926 73.8898 68.7746C71.0576 63.5565 51.8317 64.6587 51.8317 64.6587Z" fill="#143561"/>
<path d="M69.5091 151.231C69.4174 151.239 69.3251 151.23 69.2373 151.202C69.1495 151.175 69.068 151.13 68.9974 151.071C68.9268 151.012 68.8685 150.94 68.8258 150.859C68.7831 150.777 68.7569 150.688 68.7487 150.596C68.7404 150.505 68.7503 150.412 68.7777 150.325C68.8052 150.237 68.8496 150.155 68.9086 150.085C68.9675 150.014 69.0398 149.956 69.1213 149.913C69.2028 149.87 69.2919 149.844 69.3835 149.836L86.4468 146.906L86.977 127.024L54.8873 123.718C54.7867 123.711 54.6891 123.681 54.6019 123.63C54.5148 123.579 54.4406 123.509 54.3851 123.425C54.3257 123.341 54.2862 123.244 54.2692 123.143C54.2523 123.042 54.2585 122.938 54.2874 122.839L68.5743 73.8533C68.6261 73.6757 68.7463 73.5259 68.9085 73.437C69.0708 73.348 69.2617 73.3271 69.4393 73.3789C69.6148 73.4338 69.7623 73.5546 69.8507 73.7159C69.9392 73.8771 69.9617 74.0664 69.9137 74.2439L55.9616 122.434L87.7862 125.713C87.9613 125.731 88.1233 125.814 88.2398 125.946C88.3562 126.078 88.4184 126.249 88.4141 126.425L87.856 147.52C87.8516 147.682 87.7906 147.838 87.6836 147.96C87.5766 148.083 87.4304 148.164 87.27 148.19L69.6486 151.231H69.5091Z" fill="#231F20"/>
<path d="M88.4557 129.55C94.4878 129.914 100.542 129.619 106.51 128.671C110.916 127.601 115.439 127.081 119.973 127.122C125.957 127.411 131.843 128.757 137.358 131.098C137.586 131.171 137.788 131.307 137.944 131.489C138.474 132.229 137.204 132.884 136.297 132.982C133.898 133.037 131.504 132.732 129.196 132.075C134.901 134.192 140.297 137.064 145.24 140.614C145.813 141.018 146.426 141.646 146.147 142.288C145.868 142.93 144.752 142.804 143.985 142.469L131.009 136.54C134.372 137.876 137.488 139.762 140.232 142.121C140.622 142.469 141.041 142.916 140.929 143.432C140.748 144.297 139.45 144.13 138.641 143.739C134.697 141.774 130.93 139.473 127.382 136.861L135.39 142.986C135.488 143.641 134.804 144.199 134.135 144.227C133.472 144.181 132.836 143.954 132.293 143.572L123.364 138.409L128.945 142.316C129.824 142.93 130.814 143.92 130.34 144.897C129.865 145.874 128.121 145.692 126.963 145.176C122.365 143.18 117.56 141.701 112.635 140.767C110.911 140.2 109.127 139.839 107.319 139.693C104.56 140.037 101.837 140.63 99.1849 141.465C95.1527 142.372 91.1206 143.306 87.0884 144.255" fill="white"/>
<path d="M128.973 146.32C128.201 146.282 127.443 146.097 126.74 145.776C122.189 143.791 117.429 142.322 112.551 141.395C111.937 141.283 111.337 141.102 110.737 140.935C109.66 140.56 108.529 140.362 107.389 140.349C105.526 140.506 103.687 140.871 101.906 141.437C101.041 141.674 100.19 141.911 99.3664 142.093C95.3343 143.014 91.3022 143.934 87.27 144.883C87.1057 144.917 86.9346 144.887 86.7918 144.799C86.649 144.711 86.5456 144.571 86.5027 144.409C86.482 144.327 86.478 144.242 86.4908 144.159C86.5036 144.076 86.533 143.996 86.5773 143.925C86.6215 143.853 86.6797 143.791 86.7484 143.742C86.8171 143.694 86.8948 143.659 86.977 143.641C91.0092 142.693 95.0552 141.772 99.0874 140.851C99.8826 140.67 100.72 140.446 101.571 140.209C103.447 139.61 105.384 139.226 107.347 139.065C108.618 139.097 109.877 139.313 111.086 139.707C111.658 139.874 112.216 140.042 112.802 140.153C117.776 141.091 122.629 142.584 127.27 144.604C127.937 144.973 128.711 145.101 129.461 144.967C129.536 144.944 129.605 144.904 129.663 144.851C129.721 144.798 129.766 144.733 129.796 144.66C130.089 143.99 128.931 143.111 128.568 142.846L122.987 138.953C122.851 138.857 122.756 138.713 122.723 138.55C122.689 138.387 122.719 138.217 122.806 138.074C122.897 137.937 123.038 137.84 123.199 137.803C123.36 137.767 123.529 137.794 123.671 137.879L132.6 143.041C133.039 143.368 133.562 143.561 134.107 143.6C134.214 143.593 134.319 143.565 134.415 143.517C134.51 143.469 134.596 143.402 134.665 143.32L126.95 137.419C126.872 137.373 126.804 137.311 126.752 137.237C126.699 137.164 126.663 137.08 126.645 136.991C126.628 136.902 126.629 136.811 126.649 136.723C126.669 136.634 126.708 136.552 126.762 136.479C126.817 136.407 126.886 136.347 126.965 136.303C127.044 136.26 127.132 136.233 127.222 136.226C127.312 136.218 127.403 136.23 127.488 136.26C127.573 136.29 127.651 136.338 127.717 136.4C131.233 138.993 134.968 141.276 138.879 143.223C139.276 143.448 139.744 143.518 140.19 143.418C140.274 143.279 140.19 143.083 139.758 142.665C137.881 141.036 135.821 139.631 133.619 138.479L130.689 137.084C130.552 137.006 130.449 136.88 130.399 136.731C130.349 136.581 130.356 136.419 130.418 136.274C130.48 136.129 130.593 136.013 130.735 135.946C130.878 135.879 131.04 135.867 131.191 135.912C132.209 136.317 133.2 136.777 134.177 137.307L144.194 141.897C144.57 142.098 145.001 142.172 145.422 142.107C145.589 141.855 145.296 141.465 144.822 141.13C139.922 137.613 134.573 134.77 128.917 132.675C128.762 132.618 128.636 132.503 128.566 132.354C128.495 132.206 128.486 132.035 128.54 131.88C128.592 131.723 128.701 131.592 128.847 131.514C128.992 131.436 129.162 131.417 129.321 131.461C131.56 132.107 133.885 132.404 136.214 132.34C136.432 132.34 136.648 132.294 136.847 132.205C137.047 132.116 137.225 131.986 137.372 131.824L137.051 131.684C131.609 129.366 125.798 128.034 119.89 127.75C115.961 127.684 112.039 128.101 108.212 128.992L106.566 129.299C100.569 130.247 94.4884 130.546 88.428 130.192C88.3437 130.188 88.2609 130.168 88.1844 130.132C88.1079 130.097 88.0392 130.046 87.9822 129.984C87.9252 129.922 87.881 129.849 87.8522 129.77C87.8233 129.69 87.8104 129.606 87.8141 129.522C87.8139 129.438 87.8311 129.354 87.8645 129.277C87.898 129.2 87.947 129.13 88.0085 129.072C88.07 129.015 88.1427 128.97 88.2221 128.942C88.3015 128.914 88.3858 128.902 88.4699 128.908C94.4505 129.263 100.452 128.973 106.37 128.043L108.017 127.736C111.939 126.823 115.961 126.401 119.988 126.48C126.049 126.775 132.01 128.14 137.595 130.512C137.93 130.626 138.226 130.835 138.446 131.112C138.582 131.295 138.664 131.512 138.684 131.738C138.703 131.965 138.66 132.193 138.558 132.396C138.305 132.764 137.969 133.067 137.575 133.278C137.182 133.489 136.744 133.603 136.297 133.61C135.684 133.61 135.07 133.61 134.47 133.61C138.386 135.423 142.123 137.599 145.631 140.111C146.692 140.865 147.096 141.758 146.747 142.553C146.673 142.73 146.562 142.889 146.423 143.021C146.284 143.153 146.119 143.255 145.938 143.32C145.197 143.508 144.414 143.419 143.734 143.069L140.623 141.674C140.927 141.886 141.17 142.174 141.329 142.51C141.488 142.845 141.557 143.216 141.529 143.586C141.485 143.793 141.394 143.987 141.264 144.154C141.133 144.321 140.966 144.455 140.776 144.548C140.376 144.686 139.952 144.737 139.531 144.699C139.11 144.66 138.702 144.533 138.334 144.325C137.553 143.948 136.786 143.544 136.004 143.125C136.009 143.504 135.875 143.871 135.628 144.158C135.442 144.375 135.214 144.551 134.957 144.676C134.7 144.801 134.42 144.871 134.135 144.883C133.35 144.856 132.59 144.604 131.944 144.158L130.87 143.53C130.994 143.787 131.058 144.068 131.058 144.353C131.058 144.638 130.994 144.919 130.87 145.176C130.775 145.403 130.634 145.608 130.457 145.778C130.279 145.949 130.068 146.081 129.838 146.167C129.56 146.265 129.267 146.317 128.973 146.32Z" fill="#231F20"/>
<path d="M112.551 76.6994C112.551 76.6994 119.192 103.78 125.108 123.048L112.551 76.6994Z" fill="white"/>
<path d="M125.164 123.676C125.029 123.676 124.898 123.632 124.79 123.552C124.682 123.471 124.603 123.358 124.564 123.229C118.648 104.185 112.007 77.1877 111.923 76.8528C111.902 76.7704 111.898 76.6846 111.911 76.6005C111.923 76.5164 111.953 76.4356 111.997 76.3629C112.041 76.2902 112.099 76.227 112.168 76.177C112.237 76.127 112.315 76.0911 112.398 76.0715C112.562 76.0337 112.735 76.0623 112.879 76.1511C113.022 76.2399 113.125 76.3818 113.165 76.5459C113.235 76.811 119.876 103.836 125.722 122.853C125.77 123.014 125.753 123.187 125.675 123.336C125.597 123.484 125.463 123.597 125.303 123.648C125.258 123.664 125.211 123.674 125.164 123.676Z" fill="#231F20"/>
<path d="M192.203 155.724L191.854 159.519L106.51 171.992L107.361 168.016L192.203 155.724Z" fill="white"/>
<path d="M106.51 172.689C106.413 172.688 106.318 172.668 106.229 172.63C106.14 172.591 106.06 172.536 105.993 172.466C105.917 172.386 105.861 172.287 105.832 172.18C105.803 172.073 105.801 171.96 105.826 171.852L106.677 167.862C106.712 167.724 106.786 167.6 106.89 167.504C106.994 167.407 107.123 167.343 107.263 167.318L192.105 155.04C192.208 155.027 192.313 155.036 192.411 155.067C192.51 155.099 192.601 155.151 192.677 155.221C192.753 155.295 192.813 155.384 192.851 155.483C192.89 155.582 192.907 155.688 192.901 155.793L192.552 159.574C192.538 159.729 192.473 159.875 192.367 159.989C192.261 160.103 192.119 160.178 191.966 160.202L106.607 172.759L106.51 172.689ZM107.905 168.629L107.361 171.154L191.171 158.905L191.38 156.547L107.905 168.629Z" fill="#231F20"/>
<path d="M192.203 155.724C192.203 155.724 172.768 139.065 172.126 139.218C171.484 139.372 84.2285 149.836 84.2285 149.836L107.403 167.974L192.203 155.724Z" fill="white"/>
<path d="M107.361 168.713C107.208 168.713 107.059 168.659 106.942 168.559L83.7541 150.422C83.6454 150.337 83.5645 150.221 83.5215 150.09C83.4786 149.958 83.4756 149.817 83.513 149.684C83.5504 149.551 83.6264 149.432 83.7314 149.343C83.8364 149.253 83.9657 149.196 84.1029 149.18C84.9679 149.082 170.605 138.814 172.001 138.577C172.391 138.493 172.963 138.339 192.664 155.235C192.766 155.323 192.841 155.437 192.88 155.566C192.92 155.694 192.922 155.831 192.887 155.961C192.847 156.089 192.773 156.204 192.672 156.293C192.571 156.382 192.447 156.441 192.315 156.463L107.487 168.741L107.361 168.713ZM85.9446 150.324L107.556 167.276L190.585 155.263C183.609 149.334 173.535 140.823 172.029 139.916C167.48 140.558 103.133 148.259 85.9446 150.324Z" fill="#231F20"/>
<path d="M106.51 171.992L83.8378 153.617L84.1866 149.836L107.361 168.015L106.51 171.992Z" fill="white"/>
<path d="M106.51 172.689C106.348 172.689 106.191 172.635 106.063 172.536L83.4053 154.161C83.3171 154.089 83.2472 153.997 83.2011 153.893C83.1551 153.789 83.1342 153.675 83.1402 153.561L83.489 149.766C83.5037 149.642 83.5506 149.525 83.6251 149.425C83.6995 149.325 83.799 149.246 83.9134 149.197C84.0279 149.147 84.1533 149.129 84.2772 149.143C84.401 149.157 84.519 149.204 84.6192 149.278L107.793 167.416C107.895 167.497 107.973 167.606 108.017 167.729C108.061 167.852 108.071 167.985 108.045 168.113L107.194 172.103C107.166 172.219 107.109 172.327 107.029 172.415C106.948 172.503 106.846 172.568 106.733 172.606C106.665 172.648 106.589 172.676 106.51 172.689ZM84.5633 153.31L106.063 170.694L106.594 168.253L84.7587 151.161L84.5633 153.31Z" fill="#231F20"/>
<path d="M192.203 155.724L208.597 100.767L118.634 116.1L107.361 168.015L192.203 155.724Z" fill="white"/>
<path d="M107.361 168.713C107.266 168.712 107.173 168.691 107.087 168.653C107 168.614 106.923 168.559 106.858 168.49C106.782 168.406 106.726 168.306 106.695 168.197C106.663 168.088 106.657 167.973 106.677 167.862L117.95 115.96C117.977 115.823 118.044 115.698 118.144 115.601C118.244 115.504 118.371 115.439 118.508 115.416L208.485 100.069C208.601 100.046 208.722 100.054 208.834 100.092C208.947 100.131 209.047 100.197 209.126 100.286C209.205 100.375 209.259 100.482 209.284 100.598C209.308 100.714 209.302 100.835 209.266 100.948L192.873 155.919C192.83 156.044 192.754 156.155 192.653 156.241C192.553 156.327 192.431 156.384 192.301 156.407L107.472 168.685L107.361 168.713ZM119.22 116.714L108.268 167.178L191.659 155.096L207.606 101.645L119.22 116.714Z" fill="#231F20"/>
<path d="M240.435 73.2254C240.265 73.2262 240.101 73.1639 239.975 73.0504C239.849 72.9369 239.769 72.7804 239.752 72.6115C239.277 67.9934 242.723 62.3149 242.877 62.0777C242.924 61.9986 242.987 61.9296 243.061 61.8748C243.135 61.8199 243.219 61.7804 243.309 61.7583C243.398 61.7363 243.491 61.7322 243.582 61.7463C243.673 61.7604 243.761 61.7924 243.84 61.8405C243.994 61.9408 244.104 62.0972 244.146 62.2768C244.187 62.4564 244.157 62.6451 244.063 62.8032C244.063 62.8032 240.714 68.384 241.133 72.458C241.142 72.5497 241.134 72.6424 241.107 72.7307C241.081 72.8191 241.037 72.9013 240.979 72.9726C240.921 73.044 240.849 73.1031 240.767 73.1464C240.686 73.1898 240.597 73.2166 240.505 73.2254H240.435Z" fill="#231F20"/>
<path d="M297.485 146.599C297.352 146.597 297.221 146.558 297.108 146.488L281.524 136.47C281.367 136.37 281.255 136.212 281.215 136.03C281.174 135.848 281.208 135.658 281.308 135.5C281.407 135.343 281.566 135.232 281.748 135.191C281.929 135.151 282.12 135.184 282.277 135.284L297.862 145.302C298.018 145.404 298.127 145.564 298.166 145.747C298.206 145.93 298.171 146.121 298.071 146.278C298.005 146.374 297.918 146.453 297.816 146.509C297.714 146.564 297.601 146.595 297.485 146.599Z" fill="#D1D3D4"/>
<path d="M303.122 144.088C302.99 144.091 302.859 144.058 302.745 143.99L287.942 134.419C287.787 134.317 287.678 134.158 287.64 133.976C287.602 133.794 287.638 133.605 287.74 133.449C287.842 133.294 288.001 133.185 288.183 133.147C288.365 133.109 288.554 133.145 288.709 133.247L303.499 142.748C303.655 142.851 303.764 143.011 303.803 143.194C303.842 143.376 303.808 143.567 303.708 143.725C303.648 143.829 303.563 143.917 303.461 143.98C303.358 144.044 303.242 144.081 303.122 144.088Z" fill="#D1D3D4"/>
<path d="M308.549 142.232C308.416 142.227 308.286 142.189 308.172 142.12L293.202 132.521C293.046 132.42 292.938 132.26 292.9 132.078C292.862 131.896 292.898 131.707 292.999 131.552C293.101 131.396 293.26 131.288 293.442 131.25C293.624 131.212 293.814 131.248 293.969 131.349L308.884 140.948C309.039 141.048 309.148 141.206 309.187 141.386C309.227 141.567 309.193 141.755 309.093 141.911C309.036 142.005 308.956 142.084 308.861 142.14C308.766 142.196 308.659 142.227 308.549 142.232Z" fill="#D1D3D4"/>
<path d="M315.371 140.39C315.248 140.393 315.127 140.359 315.023 140.293L298.964 130.833C298.875 130.793 298.795 130.735 298.73 130.662C298.666 130.589 298.617 130.503 298.587 130.41C298.557 130.317 298.547 130.219 298.558 130.122C298.568 130.025 298.599 129.931 298.648 129.847C298.697 129.763 298.763 129.69 298.842 129.632C298.922 129.575 299.012 129.535 299.107 129.515C299.203 129.495 299.302 129.495 299.397 129.515C299.492 129.536 299.583 129.576 299.661 129.633L315.72 139.093C315.851 139.171 315.953 139.289 316.01 139.43C316.068 139.571 316.078 139.727 316.038 139.874C315.999 140.021 315.912 140.151 315.792 140.244C315.671 140.338 315.524 140.389 315.371 140.39Z" fill="#D1D3D4"/>
<path d="M320.241 138.73C320.113 138.733 319.987 138.699 319.878 138.632L303.819 129.173C303.662 129.075 303.55 128.919 303.506 128.74C303.461 128.56 303.489 128.37 303.582 128.21C303.627 128.13 303.687 128.06 303.76 128.004C303.833 127.948 303.916 127.908 304.005 127.886C304.094 127.864 304.187 127.86 304.277 127.875C304.368 127.89 304.454 127.923 304.531 127.973L320.59 137.432C320.721 137.51 320.823 137.628 320.88 137.769C320.937 137.911 320.947 138.066 320.907 138.213C320.868 138.36 320.781 138.491 320.661 138.584C320.541 138.677 320.393 138.728 320.241 138.73Z" fill="#D1D3D4"/>
</svg>
