<svg width="249" height="210" viewBox="0 0 249 210" fill="none" xmlns="http://www.w3.org/2000/svg">
<path d="M161.354 58.6123C161.354 58.6123 172.31 59.1128 188.327 72.265C204.344 85.4172 210.198 94.4863 210.198 94.4863V42.4665C210.198 42.4665 189.863 19.4305 163.001 10.6656L161.354 58.6123Z" fill="#E6E7E8"/>
<path d="M210.198 94.977C210.114 94.9787 210.03 94.9588 209.956 94.9192C209.882 94.8796 209.82 94.8217 209.776 94.7512C209.716 94.6629 203.751 85.5742 188.005 72.6379C172.259 59.7016 161.434 59.1029 161.324 59.1029C161.193 59.0929 161.072 59.0344 160.984 58.9395C160.896 58.8446 160.849 58.7204 160.852 58.5925L162.448 10.6852C162.452 10.6088 162.473 10.5342 162.512 10.4677C162.55 10.4011 162.604 10.3444 162.669 10.3024C162.731 10.2561 162.804 10.2256 162.881 10.2136C162.959 10.2016 163.038 10.2085 163.111 10.2337C189.843 18.9397 210.369 41.956 210.58 42.1915C210.659 42.2778 210.702 42.3899 210.7 42.5056V94.5255C210.7 94.6317 210.665 94.735 210.6 94.8199C210.534 94.9049 210.443 94.9669 210.339 94.9966L210.198 94.977ZM161.866 58.1607C164.206 58.4159 174.388 60.1237 188.648 71.9018C201.08 82.1094 207.477 89.9615 209.736 92.9453V42.6921C208.019 40.7978 188.558 19.7936 163.473 11.3722L161.866 58.1607Z" fill="#231F20"/>
<path d="M46.0724 76.7702V30.4627C64.4749 24.216 83.9738 21.6459 103.412 22.9051V67.3281C103.412 67.3281 68.3153 68.2703 46.0724 76.7702Z" fill="#E6E7E8"/>
<path d="M46.0826 77.2609C45.9802 77.2593 45.88 77.2323 45.7913 77.1823C45.7262 77.1341 45.6732 77.0718 45.6366 77.0003C45.6001 76.9288 45.5808 76.85 45.5805 76.7701V30.4626C45.5796 30.3654 45.6089 30.2703 45.6645 30.1897C45.72 30.1091 45.7993 30.0468 45.8918 30.0111C64.3822 23.767 83.9599 21.1844 103.482 22.4143C103.608 22.4242 103.726 22.4802 103.812 22.5712C103.897 22.6622 103.945 22.7814 103.944 22.905V67.3182C103.947 67.3817 103.937 67.4451 103.913 67.5045C103.89 67.564 103.855 67.6182 103.81 67.6641C103.765 67.7099 103.711 67.7464 103.651 67.7713C103.592 67.7962 103.527 67.809 103.462 67.809C103.111 67.809 68.1648 68.8592 46.2231 77.2314C46.1777 77.247 46.1305 77.2569 46.0826 77.2609ZM46.5847 30.8062V76.0634C67.2409 68.388 98.6522 67.0041 102.94 66.8471V23.3663C83.8383 22.2314 64.6939 24.7588 46.5847 30.8062Z" fill="#231F20"/>
<path d="M52.901 69.1439C52.792 69.1461 52.6856 69.1115 52.5997 69.0457C52.5362 69.0011 52.4847 68.9421 52.4497 68.8737C52.4147 68.8053 52.3973 68.7296 52.3989 68.6531V35.7432C52.3989 35.613 52.4518 35.4882 52.546 35.3962C52.6401 35.3041 52.7678 35.2524 52.901 35.2524C53.0334 35.255 53.1596 35.3075 53.2532 35.399C53.3468 35.4905 53.4005 35.6138 53.4031 35.7432V67.9857C57.9521 66.5919 83.6495 58.9558 93.2395 60.8992C93.3055 60.9121 93.3681 60.9376 93.424 60.9741C93.4799 61.0107 93.5278 61.0577 93.5651 61.1124C93.6024 61.167 93.6284 61.2284 93.6414 61.2928C93.6545 61.3573 93.6544 61.4237 93.6412 61.4881C93.628 61.5526 93.602 61.6138 93.5645 61.6684C93.5271 61.7231 93.4791 61.7699 93.4231 61.8064C93.3672 61.8428 93.3044 61.8682 93.2385 61.8809C93.1725 61.8937 93.1046 61.8936 93.0387 61.8807C82.9967 59.849 53.3529 69.0457 53.0516 69.1439H52.901Z" fill="#231F20"/>
<path d="M24.0806 102.515C24.0806 102.515 7.0093 109.444 0.55234 129.919V88.9702C0.55234 88.9702 0.180789 69.1241 24.0806 56.5216V102.515Z" fill="#E6E7E8"/>
<path d="M0.502111 130.41H0.431818C0.312019 130.395 0.201838 130.338 0.122221 130.249C0.0426039 130.161 -0.000893988 130.047 1.39313e-05 129.929V88.9703C1.39313e-05 88.774 1.53228e-05 68.6826 23.7894 56.0898C23.8663 56.0486 23.9527 56.027 24.0404 56.027C24.1282 56.027 24.2145 56.0486 24.2915 56.0898C24.3655 56.1339 24.4266 56.1959 24.4688 56.2698C24.511 56.3438 24.533 56.4272 24.5325 56.5119V102.505C24.532 102.602 24.5022 102.697 24.4468 102.777C24.3914 102.857 24.3129 102.92 24.2212 102.957C18.658 105.683 13.7258 109.496 9.7291 114.158C5.73243 118.821 2.75617 124.235 0.984127 130.066C0.95192 130.166 0.887727 130.253 0.800974 130.315C0.714222 130.377 0.609475 130.41 0.502111 130.41ZM23.5283 57.356C0.984123 69.6444 0.984127 88.7642 0.984127 88.9605V126.964C5.04891 116.241 13.0884 107.402 23.5082 102.201L23.5283 57.356Z" fill="#231F20"/>
<path d="M0.502075 88.9702C0.502075 88.9702 4.68957 106.775 20.8069 112.674V160.591C20.8069 160.591 2.44017 148.165 0.502075 129.919V88.9702Z" fill="white"/>
<path d="M20.8059 161.082C20.7049 161.082 20.6063 161.051 20.5247 160.993C20.3339 160.866 1.93706 148.234 0.00901154 129.968V88.9703C-0.00563654 88.8402 0.0332181 88.7096 0.117022 88.6075C0.200825 88.5053 0.322713 88.4399 0.455877 88.4256C0.589042 88.4113 0.722576 88.4492 0.827095 88.5311C0.931614 88.613 0.998557 88.7322 1.01321 88.8623C1.01321 89.0292 5.34128 106.48 21.0067 112.222C21.1003 112.257 21.1809 112.319 21.2382 112.4C21.2954 112.48 21.3267 112.576 21.328 112.674V160.591C21.3273 160.68 21.3017 160.768 21.2539 160.844C21.2061 160.92 21.138 160.982 21.0569 161.023C20.9807 161.065 20.8936 161.086 20.8059 161.082ZM0.983081 92.1504V129.919C2.64 145.544 16.769 156.999 20.2837 159.619V113.017C8.45428 108.512 2.99147 97.5389 0.983081 92.1504Z" fill="#231F20"/>
<path d="M217.358 127.455C215.47 127.818 133.668 164.752 133.668 164.752C133.668 164.752 101.655 153.338 100.911 153.701C100.168 154.064 181.548 120.909 181.548 120.909L217.358 127.455Z" fill="white"/>
<path d="M133.668 165.233C133.612 165.243 133.554 165.243 133.498 165.233C121.136 160.826 102.267 154.25 100.972 154.201V154.152C100.59 154.231 100.55 154.152 100.45 153.926C100.398 153.81 100.394 153.679 100.439 153.56C100.484 153.441 100.574 153.344 100.691 153.288H100.751C101.855 152.896 180.554 120.83 181.347 120.506C181.442 120.477 181.544 120.477 181.639 120.506L217.448 127.053C217.562 127.077 217.664 127.137 217.738 127.224C217.813 127.311 217.856 127.42 217.86 127.534C217.862 127.647 217.823 127.758 217.749 127.846C217.676 127.934 217.572 127.994 217.458 128.015C215.641 128.466 161.997 152.552 133.879 165.312C133.804 165.301 133.732 165.274 133.668 165.233ZM102.538 153.583C105.43 154.378 113.052 156.861 133.668 164.213C142.164 160.375 204.404 132.294 215.59 127.622L181.619 121.409L141.451 137.771L113.735 149.048L104.597 152.758L102.538 153.583Z" fill="#231F20"/>
<path d="M133.668 160.188H133.518L111.757 153.681C111.658 153.652 111.572 153.594 111.509 153.515C111.445 153.436 111.409 153.34 111.405 153.239C111.4 153.139 111.426 153.039 111.48 152.953C111.534 152.868 111.613 152.8 111.707 152.758L173.244 127.553C173.357 127.506 173.483 127.501 173.6 127.539C173.717 127.577 173.815 127.655 173.876 127.759L180.283 138.811C180.31 138.873 180.324 138.94 180.324 139.008C180.324 139.075 180.31 139.142 180.283 139.204C180.264 139.27 180.23 139.331 180.183 139.382C180.136 139.434 180.077 139.473 180.012 139.498L133.819 160.198C133.768 160.202 133.718 160.199 133.668 160.188ZM113.373 153.122L133.638 159.177L179.138 138.782L173.223 128.535L113.373 153.122Z" fill="#D1D3D4"/>
<path d="M99.0136 0.615003C96.4518 1.1876 94.0513 2.3071 91.9842 3.89323C89.9758 5.3066 87.9675 7.50518 88.6403 9.78227C88.9114 10.6558 89.5441 11.657 88.9817 12.3833C88.6001 12.8642 87.8871 12.9035 87.2746 12.9918C86.09 13.1643 84.9769 13.6524 84.0576 14.4027C83.1383 15.153 82.4482 16.1363 82.0633 17.2448C81.6783 18.3533 81.6133 19.544 81.8754 20.6863C82.1375 21.8285 82.7166 22.878 83.549 23.7197C82.4722 23.779 81.4193 24.0537 80.4555 24.5268C79.4916 24.9998 78.6373 25.6612 77.9455 26.4699C77.2537 27.2785 76.739 28.2174 76.4332 29.2283C76.1275 30.2393 76.0373 31.3007 76.1682 32.3471C76.3938 33.4534 76.7757 34.5237 77.3029 35.5272C78.1364 37.2252 79.1406 39.0017 78.8494 40.8568C76.841 40.4544 74.9732 42.5253 75.0836 44.5276C75.2165 45.523 75.5961 46.4715 76.1894 47.2909C76.7826 48.1102 77.5717 48.7755 78.4879 49.229C76.4795 49.5627 75.2644 51.8496 75.5958 53.8127C76.0794 55.7746 77.3351 57.471 79.0904 58.5337C81.119 59.9044 83.4546 60.7794 85.9009 61.0851C88.3472 61.3908 90.8328 61.1184 93.1491 60.2906C93.35 61.2128 93.7912 62.0687 94.4298 62.7754C95.0684 63.4822 95.8828 64.0158 96.7943 64.3246C98.6289 64.9128 100.561 65.1559 102.488 65.0411C106.083 65.0411 109.999 64.727 112.661 62.3616C113.263 61.8316 113.805 60.9777 113.404 60.2906C112.912 59.4465 111.325 59.4367 111.235 58.4748C113.928 58.3084 116.511 57.3733 118.666 55.7855C119.449 55.2799 120.116 54.6196 120.622 53.8471C121.129 53.0745 121.465 52.2069 121.608 51.3C121.65 50.5701 121.503 49.8417 121.182 49.1815C120.861 48.5213 120.376 47.9504 119.77 47.5212C121.267 46.2354 122.923 44.3706 122.13 42.6137C121.487 41.1807 119.479 40.1992 119.901 38.776C120.99 38.3217 121.947 37.6109 122.686 36.707C123.426 35.8031 123.925 34.7343 124.138 33.596C124.352 32.4577 124.274 31.2854 123.912 30.1837C123.549 29.082 122.913 28.0853 122.06 27.2825C123.451 26.7823 124.649 25.8723 125.489 24.6782C126.328 23.484 126.768 22.0646 126.747 20.6159C126.726 19.1671 126.246 17.7604 125.372 16.5899C124.498 15.4195 123.274 14.5429 121.869 14.0813C122.354 13.3046 122.618 12.4152 122.634 11.5052C122.649 10.5953 122.415 9.69785 121.956 8.90596C121.497 8.11407 120.83 7.45651 120.024 7.0014C119.218 6.54629 118.301 6.31019 117.37 6.31756C117.759 5.68078 117.88 4.92206 117.71 4.19971C117.54 3.47735 117.091 2.84715 116.456 2.44061C115.137 1.68336 113.574 1.43816 112.078 1.75355C109.588 2.1069 107.901 2.79395 105.651 1.75355C103.402 0.713157 101.524 0.153694 99.0136 0.615003Z" fill="white"/>
<path d="M102.006 65.5319C100.173 65.6155 98.3394 65.3591 96.6035 64.7762C95.7081 64.4629 94.8973 63.9546 94.2327 63.2897C93.568 62.6248 93.067 61.8207 92.7675 60.9385C90.4423 61.6883 87.9709 61.9012 85.5474 61.5607C83.1238 61.2201 80.814 60.3352 78.7991 58.9754C76.9421 57.8329 75.6158 56.0258 75.1037 53.9403C74.9449 53.0083 75.0753 52.0513 75.478 51.1923C75.8807 50.3334 76.5372 49.612 77.3631 49.1211C76.588 48.6128 75.937 47.9439 75.4562 47.1618C74.9755 46.3798 74.6768 45.5039 74.5815 44.5964C74.5549 43.9503 74.6795 43.3068 74.9457 42.7149C75.212 42.123 75.6129 41.5983 76.118 41.1807C76.4209 40.897 76.7783 40.6747 77.1695 40.5264C77.5607 40.3782 77.978 40.307 78.3975 40.317C78.2942 38.8675 77.8435 37.4621 77.082 36.2143L76.851 35.7432C76.3039 34.6994 75.9085 33.5861 75.6761 32.4355C75.5101 31.3197 75.5939 30.1819 75.9215 29.1008C76.2492 28.0197 76.813 27.0209 77.574 26.1735C78.8367 24.6599 80.6229 23.6509 82.595 23.3369C81.894 22.3814 81.4556 21.266 81.3218 20.0975C81.1881 18.929 81.3633 17.7464 81.8309 16.6631C82.2984 15.5797 83.0426 14.6318 83.9922 13.9099C84.9418 13.1881 86.0651 12.7165 87.2545 12.5404H87.4553C87.9473 12.4717 88.4595 12.4128 88.6302 12.1379C88.8009 11.8631 88.7206 11.3331 88.4394 10.6166C88.3591 10.4007 88.2787 10.1946 88.2084 9.97862C87.3448 7.15188 90.0461 4.71775 91.7432 3.52031C93.8612 1.88521 96.3291 0.737848 98.9634 0.163557C101.504 -0.297751 103.432 0.251892 105.902 1.37081C107.539 2.09712 108.865 1.86156 110.562 1.54748C111.034 1.45915 111.516 1.37081 112.038 1.29229C113.661 0.946087 115.358 1.22374 116.778 2.06768C117.188 2.35295 117.536 2.71506 117.801 3.13295C118.067 3.55083 118.244 4.01615 118.324 4.50182C118.381 4.95539 118.33 5.41576 118.174 5.84648C119.066 5.96399 119.918 6.2857 120.659 6.78547C121.401 7.28524 122.011 7.94896 122.44 8.72268C122.87 9.49639 123.107 10.3583 123.131 11.2382C123.156 12.1182 122.968 12.9914 122.582 13.7869C123.945 14.3446 125.113 15.2761 125.946 16.4688C126.779 17.6616 127.241 19.0645 127.276 20.5082C127.311 21.952 126.918 23.3747 126.144 24.6047C125.37 25.8347 124.248 26.8193 122.913 27.4396C123.681 28.3173 124.231 29.3562 124.522 30.4756C124.812 31.5949 124.834 32.7646 124.586 33.8937C124.338 35.0227 123.827 36.0807 123.093 36.9854C122.359 37.89 121.421 38.617 120.353 39.1097C120.353 39.6201 120.734 40.0913 121.357 40.7881C121.842 41.25 122.246 41.7873 122.552 42.3782C123.235 43.8995 122.552 45.6171 120.543 47.4918C121.078 47.9772 121.497 48.572 121.769 49.2336C122.042 49.8953 122.162 50.6076 122.12 51.3197C121.972 52.2978 121.616 53.2348 121.075 54.07C120.533 54.9052 119.819 55.62 118.977 56.1683C116.994 57.6264 114.659 58.5594 112.199 58.8773L112.55 59.0441C113.077 59.235 113.532 59.5772 113.856 60.0257C114.045 60.4998 114.064 61.0225 113.911 61.5089C113.758 61.9953 113.441 62.4168 113.012 62.7052C110.281 65.1295 106.344 65.4828 102.498 65.5123L102.006 65.5319ZM93.139 59.8294C93.2609 59.8282 93.379 59.8703 93.4714 59.948C93.5637 60.0256 93.6241 60.1335 93.6411 60.2514C93.8221 61.089 94.2241 61.8657 94.8072 62.5045C95.3903 63.1433 96.1342 63.6219 96.965 63.8928C98.7387 64.4583 100.606 64.6914 102.468 64.5798C106.113 64.5798 109.829 64.2265 112.319 62.0279C112.791 61.6059 113.203 60.9679 112.962 60.5557C112.727 60.2891 112.426 60.0863 112.088 59.9668C111.516 59.7018 110.803 59.3582 110.722 58.5534C110.714 58.4218 110.757 58.292 110.843 58.1902C110.886 58.1391 110.94 58.097 111 58.0667C111.061 58.0363 111.127 58.0182 111.194 58.0136C113.789 57.8543 116.279 56.9533 118.354 55.4224C119.359 54.7059 120.955 53.2238 121.096 51.2902C121.133 50.6452 121.004 50.0014 120.719 49.4182C120.435 48.835 120.005 48.3311 119.469 47.9531C119.407 47.911 119.356 47.8554 119.319 47.7907C119.282 47.726 119.262 47.654 119.258 47.5801C119.253 47.5062 119.266 47.4321 119.295 47.3639C119.325 47.2957 119.371 47.2352 119.429 47.1875C121.437 45.4699 122.19 43.9977 121.658 42.81C121.393 42.3219 121.054 41.8753 120.654 41.485C119.931 40.7194 119.107 39.8459 119.429 38.6779C119.449 38.6058 119.486 38.5391 119.536 38.483C119.587 38.4269 119.649 38.3827 119.72 38.354C120.733 37.9316 121.623 37.2706 122.311 36.43C122.998 35.5894 123.462 34.5955 123.661 33.5369C123.86 32.4783 123.788 31.3881 123.451 30.3635C123.113 29.3389 122.522 28.412 121.728 27.6654C121.666 27.6067 121.62 27.5338 121.594 27.4533C121.567 27.3728 121.562 27.2871 121.578 27.2041C121.598 27.1242 121.638 27.0504 121.694 26.9888C121.75 26.9273 121.82 26.8799 121.899 26.8507C123.194 26.3869 124.31 25.5413 125.092 24.431C125.874 23.3206 126.284 22.0002 126.265 20.6523C126.247 19.3043 125.8 17.9953 124.987 16.9061C124.175 15.817 123.036 15.0014 121.728 14.5721C121.657 14.5495 121.592 14.5112 121.538 14.4601C121.484 14.4091 121.443 14.3467 121.417 14.2776C121.383 14.2124 121.365 14.14 121.365 14.0666C121.365 13.9932 121.383 13.9209 121.417 13.8556C121.85 13.1565 122.086 12.3576 122.101 11.5404C122.115 10.7232 121.908 9.91687 121.499 9.20357C121.091 8.49027 120.497 7.89553 119.777 7.47994C119.056 7.06435 118.237 6.84278 117.4 6.8378C117.306 6.83687 117.215 6.81074 117.135 6.76227C117.055 6.71381 116.991 6.64487 116.948 6.56298C116.909 6.47965 116.893 6.38764 116.902 6.29627C116.911 6.20491 116.944 6.11746 116.999 6.04278C117.147 5.84431 117.252 5.61822 117.307 5.37849C117.363 5.13875 117.367 4.89049 117.32 4.64904C117.198 3.93563 116.794 3.29763 116.195 2.87252C114.984 2.17846 113.547 1.96422 112.179 2.2738C111.666 2.3425 111.174 2.43084 110.743 2.50936C108.945 2.84307 107.399 3.12771 105.471 2.25417C103.191 1.22359 101.454 0.7132 99.1341 1.12543C96.6477 1.68236 94.3188 2.77187 92.3156 4.31533C91.1306 5.15943 88.4494 7.36782 89.1624 9.7038C89.2227 9.89029 89.293 10.0768 89.3733 10.2731C89.5887 10.6466 89.7002 11.0689 89.6967 11.4977C89.6932 11.9265 89.5748 12.3469 89.3532 12.717C89.1174 12.9595 88.834 13.1531 88.5201 13.2864C88.2061 13.4196 87.8679 13.4896 87.5256 13.4924H87.3247C86.2333 13.6552 85.2087 14.1079 84.3626 14.8012C83.5166 15.4945 82.8817 16.4017 82.5273 17.4236C82.1728 18.4456 82.1126 19.5431 82.3529 20.5964C82.5933 21.6496 83.1252 22.618 83.8904 23.3958C83.9594 23.4643 84.0058 23.5513 84.0237 23.6458C84.0416 23.7403 84.0302 23.8378 83.9908 23.9258C83.9506 24.0129 83.8857 24.0869 83.8039 24.139C83.722 24.1912 83.6266 24.2194 83.5289 24.2203C82.527 24.2793 81.5479 24.5371 80.6513 24.9781C79.7546 25.4191 78.9593 26.034 78.3138 26.7852C77.6683 27.5365 77.1861 28.4084 76.8966 29.3477C76.6071 30.2871 76.5164 31.2743 76.6301 32.249C76.86 33.309 77.2385 34.3329 77.7548 35.2917L77.9857 35.753C78.7991 37.3823 79.6427 39.0705 79.3514 40.9059C79.3421 40.9715 79.3185 41.0344 79.2821 41.0903C79.2457 41.1462 79.1975 41.1938 79.1406 41.2298C79.0845 41.2689 79.0207 41.2962 78.9533 41.3097C78.8858 41.3232 78.8162 41.3227 78.7489 41.3083C78.3912 41.2473 78.0238 41.2678 77.6754 41.3682C77.3271 41.4687 77.0071 41.6463 76.7405 41.8874C76.36 42.2052 76.0563 42.6016 75.8514 43.048C75.6465 43.4944 75.5455 43.9796 75.5556 44.4688C75.6793 45.3834 76.0318 46.2542 76.5817 47.004C77.1317 47.7538 77.8622 48.3596 78.7088 48.7678C78.7998 48.8179 78.8726 48.8945 78.917 48.987C78.9614 49.0795 78.9752 49.1832 78.9564 49.2837C78.9376 49.3841 78.8872 49.4764 78.8122 49.5475C78.7372 49.6187 78.6414 49.6652 78.538 49.6806C76.7807 49.975 75.7866 52.046 76.0677 53.7048C76.5338 55.5329 77.7121 57.1108 79.3514 58.1019C81.3084 59.4419 83.5682 60.2989 85.9377 60.5997C88.3072 60.9006 90.716 60.6362 92.9583 59.8294C93.0181 59.82 93.0792 59.82 93.139 59.8294Z" fill="#231F20"/>
<path d="M126.307 62.3125C126.307 62.3125 155.198 98.6282 156.915 98.8344C156.915 98.8344 187.413 94.6433 189.311 91.7086C191.209 88.7739 193.327 89.5886 193.327 89.5886C193.327 89.5886 195.195 86.0552 197.545 85.6625C199.895 85.2699 207.246 89.5886 202.968 92.3859C198.69 95.1832 160.731 118.553 155.58 119.083C139.262 120.732 123.646 82.4825 125.454 77.4081L126.307 62.3125Z" fill="white"/>
<path d="M154.626 119.584C149.766 119.584 144.524 116.266 139.382 109.916C130.485 98.9327 123.787 81.1674 125.012 77.2806L125.826 62.2832C125.83 62.1829 125.866 62.0865 125.929 62.0073C125.992 61.9281 126.079 61.8701 126.177 61.8415C126.274 61.8125 126.378 61.8129 126.475 61.8427C126.572 61.8725 126.657 61.9303 126.719 62.0084C137.876 76.0341 154.997 97.0776 157.006 98.3241C168.715 96.7145 187.614 93.4166 188.909 91.4536C190.506 88.9802 192.313 88.9017 193.127 89.0391C193.689 88.0576 195.386 85.5449 197.515 85.113C199.443 84.7499 203.661 86.9779 204.625 89.3041C204.895 89.9297 204.909 90.6329 204.664 91.2685C204.42 91.9041 203.934 92.4236 203.309 92.7197C200.036 94.83 161.133 118.946 155.69 119.495C155.338 119.544 154.982 119.574 154.626 119.584ZM126.76 63.6377L126.016 77.3788C126.026 77.4208 126.026 77.4643 126.016 77.5064C124.912 80.6079 131.037 98.0002 140.196 109.288C143.891 113.842 149.565 119.103 155.61 118.533C160.521 118.033 197.284 95.4679 202.807 91.9149C203.811 91.2769 204.103 90.5408 203.741 89.6771C202.928 87.714 199.162 85.8394 197.716 86.0847C195.979 86.4086 194.332 88.8722 193.84 89.7948C193.783 89.904 193.687 89.9881 193.569 90.0301C193.452 90.072 193.322 90.0686 193.207 90.0206C193.147 90.0206 191.41 89.412 189.773 91.9836C187.764 95.0263 160.159 98.8541 157.016 99.3253C156.973 99.3349 156.928 99.3349 156.885 99.3253C155.178 99.0897 135.868 75.1115 126.739 63.6475L126.76 63.6377Z" fill="#231F20"/>
<path d="M104.898 52.5173C104.898 52.5173 91.8435 47.3545 75.8969 60.7325C68.717 66.7 67.2609 73.227 64.2483 79.9209C66.6684 102.299 75.0434 141.01 75.0434 141.01H129.671C129.671 141.01 134.08 108.551 135.697 88.99C136.701 76.8194 131.007 67.711 128.055 62.882C122.994 54.5097 104.898 52.5173 104.898 52.5173Z" fill="#143561"/>
<path d="M96.3826 55.4028C97.3868 57.2775 114.026 99.8945 114.026 99.8945V60.0355L96.3826 55.4028Z" fill="#231F20"/>
<path d="M114.036 100.385C113.934 100.386 113.835 100.356 113.75 100.3C113.666 100.244 113.601 100.164 113.564 100.071C113.404 99.6491 96.9148 57.4541 95.9407 55.6285C95.896 55.5436 95.8777 55.4477 95.8879 55.3527C95.8981 55.2576 95.9365 55.1676 95.9984 55.0936C96.0602 55.0196 96.1428 54.9649 96.236 54.9361C96.3293 54.9073 96.429 54.9058 96.5231 54.9317L114.167 59.5546C114.275 59.5829 114.37 59.6456 114.437 59.7327C114.504 59.8198 114.54 59.9264 114.538 60.0355V99.8945C114.54 100.01 114.499 100.121 114.424 100.21C114.348 100.298 114.243 100.357 114.127 100.375L114.036 100.385ZM97.2663 56.1487C99.6362 61.7629 110.22 88.774 113.534 97.2346V60.4085L97.2663 56.1487Z" fill="#231F20"/>
<path d="M120.574 19.9311L121.397 22.6401C121.758 23.8473 122.823 24.2694 123.275 25.2705C123.727 26.2716 123.566 28.4408 123.626 29.6677C123.861 32.6498 123.644 35.6495 122.984 38.5699C122.527 40.4692 121.513 42.197 120.067 43.5412C118.62 44.8855 116.803 45.7878 114.84 46.1373L114.458 58.2393C114.458 58.2393 114.317 64.4326 106.585 63.2352C104.344 62.8824 102.233 61.9759 100.451 60.6017C98.6685 59.2275 97.2752 57.4312 96.4026 55.3831L96.2921 39.679C96.2921 38.0006 95.6093 34.85 96.2921 33.26C96.975 31.6699 99.9374 30.6884 101.243 29.1867C102.985 27.2053 103.996 24.71 104.115 22.1002C105.517 22.1618 106.909 21.8375 108.132 21.1643C109.355 20.4911 110.36 19.4959 111.034 18.292C112.154 19.6264 113.762 20.4815 115.517 20.6758C117.272 20.87 119.036 20.3881 120.433 19.3324L120.574 19.9311Z" fill="white"/>
<path d="M108.433 63.8829C107.76 63.8802 107.088 63.8244 106.425 63.7161C104.095 63.364 101.897 62.43 100.045 61.0046C98.1921 59.5791 96.7475 57.7105 95.8504 55.5794C95.8409 55.5242 95.8409 55.4678 95.8504 55.4125L95.74 39.6495C95.74 39.1588 95.6697 38.511 95.6094 37.8239C95.4387 36.1554 95.2479 34.2611 95.7299 33.0538C96.1617 32.0036 97.3868 31.2282 98.5718 30.4921C99.3809 30.0428 100.121 29.4844 100.771 28.8333C102.445 26.941 103.415 24.5506 103.522 22.0511C103.525 21.9863 103.54 21.9226 103.568 21.8636C103.595 21.8047 103.634 21.7516 103.683 21.7076C103.73 21.6591 103.789 21.6222 103.853 21.6C103.918 21.5778 103.987 21.5709 104.055 21.58C105.361 21.6374 106.657 21.3347 107.795 20.7064C108.933 20.0781 109.868 19.1496 110.492 18.0269C110.532 17.9531 110.591 17.8908 110.663 17.846C110.735 17.8013 110.818 17.7757 110.903 17.7718C110.988 17.7662 111.072 17.7812 111.15 17.8155C111.227 17.8498 111.294 17.9022 111.345 17.9681C112.381 19.1966 113.863 19.9853 115.481 20.1683C117.099 20.3513 118.726 19.9145 120.021 18.9496C120.085 18.8958 120.162 18.8586 120.244 18.8414C120.327 18.8243 120.413 18.8277 120.493 18.8514C120.572 18.8767 120.643 18.9202 120.701 18.9784C120.759 19.0365 120.801 19.1074 120.825 19.1851L121.016 19.8035L121.839 22.5124C122.027 23.0157 122.337 23.467 122.743 23.8276C123.153 24.1834 123.493 24.6091 123.747 25.084C124.107 26.2064 124.236 27.3871 124.129 28.5585C124.129 28.9609 124.129 29.3339 124.129 29.6578C124.372 32.6892 124.152 35.7392 123.476 38.7073C122.999 40.6251 121.986 42.3754 120.55 43.7623C119.113 45.1491 117.31 46.1176 115.342 46.5593L114.96 58.2687C114.915 59.0784 114.705 59.8711 114.343 60.6007C113.981 61.3304 113.474 61.9823 112.851 62.5186C111.595 63.4782 110.026 63.9626 108.433 63.8829ZM96.8948 55.3144C97.7556 57.2523 99.1003 58.9481 100.806 60.2462C102.511 61.5443 104.522 62.4033 106.656 62.7444C109.056 63.1272 110.923 62.7444 112.189 61.7629C113.223 60.8536 113.853 59.586 113.946 58.2295L114.338 46.0882C114.343 45.9705 114.39 45.8583 114.471 45.7707C114.551 45.683 114.66 45.6253 114.779 45.6073C116.639 45.2804 118.36 44.4288 119.731 43.1573C121.101 41.8859 122.061 40.2503 122.492 38.4521C123.145 35.5771 123.355 32.6229 123.114 29.6872C123.114 29.3535 123.114 28.9609 123.114 28.5389C123.208 27.5093 123.109 26.4717 122.823 25.4766C122.626 25.1102 122.368 24.7785 122.06 24.4951C121.54 24.027 121.146 23.4402 120.915 22.7873L120.102 20.1176C118.7 20.9653 117.048 21.3293 115.41 21.1514C113.771 20.9734 112.241 20.2639 111.064 19.136C110.33 20.1676 109.355 21.0136 108.22 21.6041C107.085 22.1946 105.822 22.5127 104.537 22.5321C104.295 25.0744 103.241 27.478 101.524 29.4026C100.837 30.1673 100.039 30.8288 99.1542 31.3656C98.15 32.0232 97.0153 32.7005 96.704 33.466C96.4076 34.8859 96.3871 36.3476 96.6437 37.7749C96.714 38.4815 96.7843 39.1588 96.7843 39.7379L96.8948 55.3144Z" fill="#231F20"/>
<path d="M100.58 33.4367C100.58 33.4367 97.0252 24.9172 92.5465 30.0799C88.0678 35.2426 94.1633 41.2495 97.9993 40.8765" fill="white"/>
<path d="M97.6379 41.377C95.3383 41.377 92.6169 39.5711 91.2813 37.0878C90.6157 35.9334 90.3426 34.602 90.5015 33.286C90.6603 31.9699 91.2428 30.7372 92.165 29.7658C93.3801 28.3721 94.6655 27.8028 95.991 27.9696C99.0036 28.4408 100.962 33.0538 101.012 33.2501C101.045 33.3106 101.064 33.3771 101.069 33.4453C101.074 33.5135 101.065 33.5821 101.041 33.6464C101.017 33.7108 100.98 33.7696 100.932 33.8191C100.883 33.8686 100.825 33.9076 100.76 33.9337C100.695 33.9598 100.626 33.9725 100.556 33.9707C100.486 33.969 100.417 33.953 100.354 33.9238C100.291 33.8945 100.234 33.8527 100.188 33.8009C100.143 33.7491 100.109 33.6886 100.088 33.6231C100.088 33.6231 98.2605 29.3241 95.8002 28.9413C94.8462 28.7941 93.8722 29.2849 92.8981 30.4038C92.1113 31.2296 91.6141 32.279 91.4786 33.3997C91.3432 34.5204 91.5766 35.6541 92.1449 36.6364C93.36 38.8938 95.9408 40.5624 97.9191 40.3857C98.0522 40.3727 98.1852 40.4119 98.2888 40.4947C98.3924 40.5776 98.458 40.6972 98.4714 40.8274C98.4847 40.9575 98.4445 41.0875 98.3598 41.1888C98.2751 41.29 98.1526 41.3542 98.0195 41.3672C97.8927 41.3789 97.7652 41.3821 97.6379 41.377Z" fill="#231F20"/>
<path d="M116.768 38.7563C115.881 38.7371 115 38.6085 114.147 38.3735C114.014 38.3358 113.901 38.2479 113.834 38.1292C113.767 38.0104 113.752 37.8706 113.79 37.7405C113.829 37.6103 113.919 37.5005 114.04 37.4351C114.162 37.3698 114.305 37.3543 114.438 37.392C115.101 37.5883 117.039 37.9908 118.033 37.5196C118.264 37.0289 116.717 34.0942 114.679 31.2871C114.604 31.1797 114.574 31.0479 114.597 30.9197C114.619 30.7914 114.692 30.6768 114.799 30.6C114.853 30.5624 114.914 30.5355 114.979 30.521C115.044 30.5066 115.111 30.5048 115.176 30.5157C115.241 30.5267 115.304 30.5502 115.36 30.5848C115.416 30.6195 115.464 30.6647 115.502 30.7178C116.416 31.9937 119.388 36.2535 118.977 37.7846C118.941 37.9161 118.879 38.0389 118.792 38.1453C118.706 38.2518 118.598 38.3395 118.475 38.403C117.939 38.6416 117.356 38.7622 116.768 38.7563Z" fill="#231F20"/>
<path d="M113.695 42.4272C112.973 42.4283 112.253 42.3358 111.556 42.1524C109.453 41.5655 107.633 40.2637 106.425 38.4816C106.398 38.4217 106.385 38.3573 106.384 38.2922C106.383 38.227 106.396 38.1624 106.421 38.1021C106.447 38.0418 106.484 37.9871 106.531 37.941C106.578 37.8949 106.634 37.8585 106.696 37.8338C106.819 37.7875 106.955 37.7892 107.076 37.8386C107.198 37.8879 107.295 37.9811 107.348 38.0988C108.472 39.6472 110.119 40.7592 111.998 41.2396C114.418 41.8285 116.949 41.1513 119.509 39.2766C119.615 39.2065 119.744 39.1784 119.87 39.1982C119.997 39.2179 120.11 39.284 120.188 39.3828C120.267 39.4817 120.303 39.606 120.291 39.7303C120.278 39.8546 120.218 39.9697 120.122 40.052C118.31 41.5216 116.048 42.3575 113.695 42.4272Z" fill="#231F20"/>
<path d="M114.84 46.1373C114.84 46.1373 108.202 46.7459 104.436 45.676C104.436 45.676 108.272 55.3439 114.558 55.4911L114.84 46.1373Z" fill="#231F20"/>
<path d="M114.558 55.9818C108.011 55.8248 104.135 46.2649 103.974 45.8527C103.94 45.7686 103.931 45.6767 103.949 45.588C103.967 45.4992 104.01 45.4173 104.075 45.3521C104.139 45.2848 104.22 45.2356 104.31 45.2097C104.4 45.1838 104.496 45.1821 104.587 45.2049C108.212 46.2355 114.739 45.6564 114.809 45.6466C114.879 45.6416 114.95 45.6512 115.015 45.6749C115.081 45.6986 115.141 45.7358 115.191 45.784C115.246 45.8291 115.29 45.8865 115.318 45.9514C115.346 46.0163 115.357 46.0868 115.352 46.157L115.071 55.5009C115.069 55.5653 115.055 55.6289 115.028 55.688C115.002 55.747 114.964 55.8004 114.916 55.8451C114.869 55.8897 114.813 55.9248 114.751 55.9482C114.69 55.9717 114.624 55.9831 114.558 55.9818ZM105.3 46.3827C106.374 48.6402 109.557 54.4605 114.076 54.9611L114.327 46.6673C111.317 46.9262 108.286 46.8307 105.3 46.3827Z" fill="#231F20"/>
<path d="M110.711 31.7798C111.249 31.7693 111.669 31.0139 111.651 30.0926C111.632 29.1712 111.18 28.4329 110.643 28.4434C110.105 28.4539 109.684 29.2093 109.703 30.1306C109.722 31.052 110.173 31.7903 110.711 31.7798Z" fill="#231F20"/>
<path d="M119.664 31.6047C120.202 31.5941 120.623 30.8387 120.604 29.9174C120.585 28.996 120.134 28.2577 119.596 28.2682C119.058 28.2787 118.637 29.0341 118.656 29.9555C118.675 30.8768 119.126 31.6152 119.664 31.6047Z" fill="#231F20"/>
<path d="M108.433 33.4071C105.511 33.4071 105.36 33.2108 105.23 33.0537C105.099 32.8967 104.848 32.563 104.758 27.3119C104.757 27.1851 104.808 27.0631 104.897 26.9717C104.987 26.8802 105.11 26.8262 105.24 26.8212C115.04 26.35 115.342 26.4384 115.442 26.4678C115.549 26.5021 115.641 26.5696 115.704 26.6601C115.768 26.7505 115.799 26.8588 115.794 26.9684L115.392 32.7887C115.382 32.9086 115.328 33.0209 115.239 33.1041C115.15 33.1873 115.033 33.2358 114.91 33.2402C111.847 33.3285 109.789 33.4071 108.433 33.4071ZM105.983 32.347C106.927 32.4648 110.763 32.4059 114.368 32.2685L114.709 27.361C113.253 27.361 108.835 27.5671 105.722 27.7143C105.727 29.2619 105.814 30.8082 105.983 32.347Z" fill="#231F20"/>
<path d="M126.85 33.2404H117.591C117.526 33.2417 117.461 33.2302 117.4 33.2066C117.339 33.183 117.283 33.1478 117.237 33.103C117.19 33.0582 117.153 33.0048 117.127 32.9458C117.102 32.8868 117.089 32.8234 117.089 32.7594L117.039 26.9293C117.039 26.8008 117.09 26.6775 117.182 26.5857C117.274 26.494 117.399 26.4411 117.531 26.4386C127.021 26.3502 127.302 26.4386 127.402 26.4386C127.509 26.4728 127.601 26.5404 127.664 26.6308C127.728 26.7212 127.759 26.8296 127.754 26.9391L127.352 32.7594C127.352 32.8234 127.339 32.8868 127.314 32.9458C127.288 33.0048 127.251 33.0582 127.204 33.103C127.158 33.1478 127.102 33.183 127.041 33.2066C126.98 33.2302 126.915 33.2417 126.85 33.2404ZM118.093 32.2589H126.388L126.719 27.3514C125.313 27.3514 121.056 27.3514 118.043 27.3514L118.093 32.2589Z" fill="#231F20"/>
<path d="M117.541 29.9228H115.241C115.108 29.9228 114.98 29.8711 114.886 29.7791C114.792 29.687 114.739 29.5622 114.739 29.432C114.739 29.3019 114.792 29.1771 114.886 29.085C114.98 28.993 115.108 28.9413 115.241 28.9413H117.541C117.674 28.9413 117.802 28.993 117.896 29.085C117.99 29.1771 118.043 29.3019 118.043 29.432C118.043 29.5622 117.99 29.687 117.896 29.7791C117.802 29.8711 117.674 29.9228 117.541 29.9228Z" fill="#231F20"/>
<path d="M87.395 88.9703C87.395 88.9703 84.6335 115.648 85.9791 122.057L131.78 128.358C131.78 128.358 143.519 127.907 149.173 129.879C152.637 131.087 158.924 136.377 157.789 138.036C156.654 139.695 153.551 141.766 150.76 140.98C147.968 140.195 140.115 137.751 140.115 137.751C140.115 137.751 146.231 143.159 142.555 142.796C138.88 142.433 134.813 139.91 134.813 139.91C134.813 139.91 109.367 144.632 93.0787 143.836C72.9949 142.855 64.4492 138.203 62.1797 126.591C59.9102 114.98 62.3102 84.6811 64.2985 79.9208" fill="white"/>
<path d="M97.0654 144.425C95.6696 144.425 94.3139 144.425 93.0486 144.327C72.4928 143.287 63.9973 138.507 61.6877 126.66C59.378 114.813 61.8785 84.3964 63.8366 79.7048C63.8608 79.6449 63.8971 79.5903 63.9433 79.5444C63.9895 79.4984 64.0447 79.462 64.1056 79.4372C64.1665 79.4125 64.2318 79.4 64.2977 79.4005C64.3637 79.4009 64.4288 79.4143 64.4894 79.4398C64.5507 79.4635 64.6065 79.499 64.6536 79.5441C64.7006 79.5893 64.7379 79.6432 64.7632 79.7027C64.7884 79.7622 64.8012 79.8261 64.8008 79.8905C64.8003 79.955 64.7866 80.0187 64.7605 80.0778C62.8425 84.7007 60.4224 114.911 62.6718 126.474C64.871 137.741 73.1154 142.305 93.0989 143.316C109.166 144.121 134.472 139.479 134.723 139.39C134.848 139.369 134.977 139.393 135.084 139.459C135.084 139.459 139.101 141.913 142.606 142.266C142.816 142.326 143.038 142.326 143.248 142.266C143.359 141.824 141.722 139.832 139.784 138.124C139.696 138.049 139.638 137.946 139.62 137.833C139.601 137.72 139.624 137.604 139.683 137.506C139.742 137.409 139.833 137.335 139.941 137.295C140.048 137.256 140.167 137.254 140.276 137.29C140.346 137.29 148.109 139.753 150.89 140.499C153.411 141.177 156.343 139.292 157.407 137.732C157.444 137.644 157.464 137.551 157.464 137.457C157.464 137.362 157.444 137.269 157.407 137.182C156.755 135.219 151.995 131.293 149.053 130.311C143.55 128.348 131.981 128.819 131.851 128.819L85.959 122.518C85.8557 122.504 85.7595 122.458 85.684 122.388C85.6084 122.317 85.5571 122.226 85.5373 122.126C84.1917 115.716 86.8327 89.9812 86.9432 88.8918C86.9497 88.8273 86.9693 88.7648 87.0006 88.7077C87.0319 88.6506 87.0744 88.6001 87.1257 88.5591C87.177 88.5181 87.236 88.4874 87.2995 88.4686C87.3629 88.4499 87.4295 88.4436 87.4954 88.4501C87.5614 88.4565 87.6254 88.4756 87.6838 88.5062C87.7422 88.5368 87.7938 88.5784 87.8358 88.6285C87.8777 88.6786 87.9092 88.7363 87.9283 88.7984C87.9475 88.8604 87.9539 88.9255 87.9473 88.9899C87.9473 89.2451 85.3063 114.774 86.4611 121.596L131.911 127.848C132.303 127.848 143.72 127.406 149.404 129.389C152.417 130.439 157.558 134.493 158.371 136.878C158.468 137.101 158.51 137.344 158.492 137.586C158.475 137.828 158.399 138.063 158.271 138.271C157.006 140.126 153.662 142.266 150.649 141.451C148.751 140.931 144.554 139.645 142.033 138.86C143.299 140.166 144.584 141.805 144.172 142.688C143.951 143.169 143.399 143.365 142.535 143.277C139.775 142.836 137.131 141.868 134.753 140.431C132.534 140.853 112.299 144.425 97.0654 144.425Z" fill="#231F20"/>
<path d="M87.3951 89.461H87.3449C87.214 89.437 87.0978 89.3642 87.0209 89.2579C86.9441 89.1516 86.9126 89.0203 86.9331 88.8917L90.5181 69.4186C90.5421 69.2884 90.6179 69.1729 90.7291 69.0975C90.8402 69.022 90.9774 68.9928 91.1106 69.0162C91.2437 69.0396 91.3619 69.1138 91.4391 69.2224C91.5163 69.331 91.5462 69.4651 91.5223 69.5953L87.9474 89.0684C87.9208 89.1887 87.8498 89.2954 87.7479 89.3678C87.646 89.4402 87.5204 89.4734 87.3951 89.461Z" fill="#231F20"/>
<path d="M160.149 158.706V87.9691C160.149 87.9691 222.65 85.6233 248.518 60.3298V133.442C248.518 133.442 222.65 154.054 160.149 158.706Z" fill="#143561"/>
<path d="M160.149 159.197C160.023 159.195 159.902 159.15 159.807 159.069C159.757 159.022 159.717 158.966 159.69 158.904C159.662 158.841 159.647 158.774 159.647 158.706V87.9691C159.647 87.8423 159.697 87.7204 159.787 87.6289C159.876 87.5374 159.999 87.4835 160.129 87.4784C160.751 87.4784 222.73 84.848 248.136 59.9962C248.209 59.9295 248.299 59.884 248.397 59.865C248.494 59.8459 248.595 59.8539 248.689 59.8882C248.782 59.9257 248.861 59.9897 248.917 60.072C248.973 60.1543 249.001 60.251 249 60.3496V133.442C249.001 133.516 248.984 133.589 248.951 133.656C248.918 133.722 248.869 133.78 248.809 133.825C248.558 134.031 222.128 154.594 160.189 159.236L160.149 159.197ZM160.651 88.4305V158.176C219.195 153.681 245.556 134.983 248.016 133.168V61.5175C223.041 84.7204 166.475 88.1458 160.651 88.4305Z" fill="#231F20"/>
<path d="M30.899 184.893V136.387C30.899 136.387 58.665 154.319 100.188 150.324V197.653C100.188 197.653 72.9948 205.691 30.899 184.893Z" fill="white"/>
<path d="M85.7079 199.606C73.5371 199.606 54.3972 197.054 30.6681 185.335C30.5869 185.291 30.519 185.227 30.4713 185.15C30.4237 185.072 30.398 184.983 30.397 184.893V136.387C30.3978 136.299 30.4223 136.212 30.4682 136.137C30.514 136.061 30.5795 135.998 30.6581 135.955C30.7352 135.909 30.8238 135.885 30.9141 135.885C31.0045 135.885 31.0931 135.909 31.1702 135.955C31.4514 136.132 59.2876 153.75 100.128 149.814C100.197 149.807 100.266 149.815 100.331 149.835C100.397 149.855 100.457 149.888 100.51 149.932C100.56 149.979 100.6 150.035 100.628 150.097C100.655 150.16 100.67 150.227 100.67 150.295V197.623C100.671 197.728 100.637 197.83 100.574 197.915C100.511 198 100.421 198.063 100.319 198.094C100.198 198.133 94.9766 199.606 85.7079 199.606ZM31.4012 184.598C70.0927 203.62 96.3423 198.075 99.6863 197.25V150.835C62.5914 154.24 36.2012 140.038 31.4012 137.241V184.598Z" fill="#231F20"/>
<path d="M174.71 145.662C174.584 145.662 174.462 145.617 174.368 145.535C174.318 145.488 174.278 145.431 174.25 145.369C174.223 145.306 174.208 145.239 174.207 145.171V94.7809C174.207 94.6588 174.253 94.5408 174.336 94.4501C174.42 94.3593 174.535 94.3023 174.659 94.2901C177.883 93.9858 190.345 92.5234 190.475 92.5136C190.545 92.5058 190.616 92.5122 190.684 92.5325C190.751 92.5528 190.814 92.5864 190.867 92.6313C190.921 92.676 190.964 92.7316 190.994 92.7944C191.023 92.8571 191.038 92.9254 191.038 92.9945V142.423C191.037 142.52 191.007 142.615 190.952 142.695C190.897 142.775 190.818 142.838 190.726 142.875C186.087 144.838 175.202 145.633 174.74 145.662H174.71ZM175.212 95.2225V144.641C177.441 144.455 185.977 143.66 190.034 142.099V93.554C187.634 93.8288 178.495 94.8888 175.181 95.2225H175.212Z" fill="#231F20"/>
<path d="M200.307 140.509C200.188 140.509 200.074 140.467 199.985 140.391C199.931 140.345 199.886 140.287 199.855 140.223C199.824 140.159 199.807 140.089 199.804 140.018V100.905C199.805 100.789 199.848 100.677 199.925 100.589C200.003 100.501 200.109 100.443 200.226 100.424C205.601 99.478 210.866 98.0083 215.942 96.0371C216.014 95.9984 216.095 95.9781 216.178 95.9781C216.26 95.9781 216.341 95.9984 216.414 96.0371C216.482 96.0832 216.538 96.1448 216.576 96.2166C216.615 96.2884 216.635 96.3682 216.635 96.4493V134.728C216.634 134.817 216.608 134.905 216.561 134.981C216.513 135.057 216.445 135.119 216.364 135.16C211.327 137.68 205.946 139.481 200.387 140.509H200.307ZM200.809 101.318V139.429C205.955 138.412 210.94 136.729 215.63 134.424V97.2247C210.834 99.0344 205.875 100.405 200.819 101.318H200.809Z" fill="#231F20"/>
<path d="M225.181 131.725C225.069 131.727 224.959 131.692 224.869 131.627C224.809 131.579 224.761 131.519 224.728 131.452C224.695 131.384 224.678 131.309 224.678 131.234V103.457C224.68 103.349 224.718 103.243 224.787 103.158C224.856 103.073 224.952 103.012 225.06 102.986C230.049 101.758 234.798 99.7392 239.119 97.0088C239.198 96.963 239.288 96.9388 239.38 96.9388C239.472 96.9388 239.562 96.963 239.641 97.0088C239.723 97.0506 239.793 97.1141 239.84 97.1921C239.888 97.27 239.913 97.3595 239.912 97.4505V125.541C239.912 125.623 239.891 125.704 239.85 125.776C239.81 125.848 239.752 125.909 239.681 125.953C235.195 128.548 230.353 130.501 225.301 131.754L225.181 131.725ZM225.683 103.84V130.606C230.316 129.4 234.764 127.595 238.908 125.237V98.3142C234.799 100.778 230.344 102.64 225.683 103.84Z" fill="#231F20"/>
<path d="M220.22 85.4761C220.086 85.4917 219.952 85.4549 219.847 85.374C219.741 85.293 219.673 85.1743 219.657 85.0442C219.641 84.914 219.679 84.783 219.762 84.6799C219.845 84.5768 219.966 84.5102 220.099 84.4945C220.21 84.4945 231.617 81.55 240.183 75.2291C240.291 75.1535 240.424 75.1215 240.555 75.1398C240.686 75.1581 240.805 75.2253 240.886 75.3273C240.966 75.4314 241 75.5623 240.981 75.6911C240.963 75.82 240.892 75.9362 240.786 76.0143C232.029 82.4923 220.441 85.4172 220.33 85.4466L220.22 85.4761Z" fill="white"/>
<path d="M228.866 88.0379C228.733 88.0639 228.594 88.0372 228.481 87.9635C228.368 87.8899 228.29 87.7754 228.263 87.6453C228.237 87.5151 228.264 87.3799 228.339 87.2695C228.415 87.1591 228.532 87.0824 228.665 87.0564L230.422 86.2908C233.933 84.9721 237.222 83.1493 240.183 80.8827C240.286 80.816 240.41 80.7885 240.532 80.8056C240.654 80.8227 240.766 80.8831 240.845 80.9753C240.925 81.0675 240.966 81.1851 240.963 81.3056C240.959 81.426 240.911 81.541 240.826 81.6286C237.793 83.9531 234.426 85.8282 230.834 87.1938L229.077 87.9495C229.014 87.9933 228.942 88.0235 228.866 88.0379Z" fill="white"/>
<path d="M16.4286 121.39C16.3293 121.389 16.2321 121.362 16.1475 121.311C11.111 117.864 6.67012 113.652 2.99254 108.836C2.91684 108.731 2.88601 108.602 2.90665 108.475C2.9273 108.349 2.99777 108.235 3.103 108.159C3.21164 108.084 3.34565 108.054 3.47678 108.074C3.60792 108.094 3.72592 108.163 3.80593 108.267C7.41182 112.984 11.7644 117.109 16.6998 120.487C16.8105 120.56 16.8873 120.674 16.9136 120.802C16.9399 120.93 16.9136 121.064 16.8404 121.174C16.7948 121.24 16.7335 121.294 16.6618 121.331C16.5901 121.369 16.51 121.389 16.4286 121.39Z" fill="#D1D3D4"/>
<path d="M16.4286 130.41C16.3293 130.409 16.2321 130.382 16.1475 130.331C11.111 126.884 6.67012 122.672 2.99254 117.856C2.91684 117.751 2.88601 117.622 2.90665 117.495C2.9273 117.369 2.99777 117.255 3.103 117.179C3.21164 117.104 3.34565 117.074 3.47678 117.094C3.60792 117.114 3.72592 117.183 3.80593 117.287C7.411 122.008 11.7637 126.136 16.6998 129.516C16.8105 129.59 16.8873 129.703 16.9136 129.832C16.9399 129.96 16.9136 130.094 16.8404 130.203C16.7937 130.268 16.7319 130.32 16.6602 130.356C16.5886 130.391 16.5092 130.41 16.4286 130.41Z" fill="#D1D3D4"/>
<path d="M16.4286 139.43C16.3293 139.429 16.2321 139.402 16.1475 139.351C11.111 135.904 6.67012 131.692 2.99254 126.876C2.91684 126.771 2.88601 126.642 2.90665 126.515C2.9273 126.389 2.99777 126.275 3.103 126.199C3.21164 126.124 3.34565 126.094 3.47678 126.114C3.60792 126.134 3.72592 126.203 3.80593 126.307C7.40575 131.023 11.7515 135.148 16.6797 138.527C16.7904 138.6 16.8672 138.714 16.8935 138.842C16.9198 138.97 16.8935 139.104 16.8203 139.214C16.7767 139.277 16.7186 139.329 16.6506 139.367C16.5826 139.404 16.5066 139.426 16.4286 139.43Z" fill="#D1D3D4"/>
<path d="M201.903 77.2609C201.831 77.2629 201.759 77.2489 201.693 77.22C201.627 77.1912 201.568 77.1481 201.522 77.0941C190.958 65.2277 170.462 53.1355 170.261 53.0177C170.188 52.973 170.127 52.9108 170.085 52.837C170.043 52.7632 170.021 52.6802 170.02 52.5957V20.5691C170.02 20.439 170.073 20.3141 170.167 20.2221C170.261 20.1301 170.389 20.0784 170.522 20.0784C170.655 20.0809 170.781 20.1334 170.874 20.2249C170.968 20.3164 171.022 20.4398 171.024 20.5691V52.3209C173.384 53.7342 192.233 65.1688 202.285 76.4561C202.377 76.5478 202.428 76.6712 202.428 76.7996C202.428 76.9281 202.377 77.0514 202.285 77.1432C202.178 77.2285 202.041 77.2707 201.903 77.2609Z" fill="#231F20"/>
<path d="M190.837 56.3155C190.488 56.3164 190.144 56.2356 189.833 56.0799C188.045 55.2064 187.543 52.0165 187.011 48.6401C186.63 46.1961 186.228 43.6737 185.344 42.1818C185.269 42.0089 185.145 41.8606 184.987 41.7545C184.829 41.6484 184.642 41.5889 184.45 41.5831C181.659 41.4849 175.804 48.9346 173.766 51.8104C173.685 51.9008 173.573 51.9592 173.451 51.9744C173.329 51.9896 173.206 51.9606 173.104 51.8929C173.003 51.8251 172.93 51.7234 172.901 51.6069C172.871 51.4904 172.886 51.3672 172.942 51.2607C173.716 50.1614 180.594 40.6016 184.4 40.6016H184.491C184.851 40.6133 185.202 40.7198 185.506 40.9097C185.81 41.0997 186.056 41.3662 186.218 41.6812C187.222 43.3302 187.604 45.9508 188.005 48.4831C188.477 51.4276 188.959 54.539 190.285 55.1966C190.578 55.3019 190.894 55.3354 191.203 55.2944C191.513 55.2533 191.808 55.1389 192.062 54.961C194.215 53.7973 196.129 52.2531 197.706 50.4068C199.507 48.3322 201.669 46.5845 204.092 45.2441C204.208 45.1805 204.345 45.1644 204.473 45.1994C204.601 45.2344 204.71 45.3175 204.775 45.4306C204.837 45.5456 204.85 45.6794 204.813 45.804C204.775 45.9285 204.69 46.0339 204.574 46.098C202.25 47.3929 200.176 49.0773 198.449 51.0742C196.79 52.9993 194.785 54.6125 192.534 55.8346C192.017 56.1274 191.434 56.2925 190.837 56.3155Z" fill="#231F20"/>
<path d="M62.1496 66.4938C62.0164 66.4938 61.8887 66.4421 61.7945 66.3501C61.7004 66.258 61.6475 66.1332 61.6475 66.003V38.2951C61.6468 38.1902 61.6806 38.0878 61.7438 38.003C61.8071 37.9182 61.8965 37.8555 61.9989 37.824C63.9048 37.2415 65.856 36.8115 67.8333 36.5382C67.9026 36.5291 67.9732 36.5359 68.0394 36.5581C68.1057 36.5802 68.1657 36.6171 68.2149 36.6658C68.2693 36.7099 68.313 36.7655 68.3425 36.8284C68.3721 36.8912 68.3868 36.9598 68.3856 37.029V64.1774C68.383 64.3068 68.3293 64.4302 68.2357 64.5217C68.1421 64.6132 68.0158 64.6657 67.8835 64.6682C67.7503 64.6682 67.6226 64.6165 67.5284 64.5245C67.4343 64.4324 67.3814 64.3076 67.3814 64.1774V37.5786C65.7822 37.8363 64.2022 38.1969 62.6517 38.6583V66.003C62.6517 66.1332 62.5988 66.258 62.5046 66.3501C62.4104 66.4421 62.2827 66.4938 62.1496 66.4938Z" fill="#231F20"/>
<path d="M85.9089 190.37C85.8095 190.365 85.7138 190.331 85.6336 190.274C85.5533 190.216 85.492 190.137 85.457 190.046L74.4108 159.933L62.24 183.097C62.2 183.169 62.1425 183.231 62.0725 183.278C62.0026 183.324 61.9222 183.353 61.8383 183.362C61.7536 183.369 61.6684 183.355 61.5909 183.321C61.5135 183.286 61.4465 183.233 61.3965 183.166L49.3462 167.766L41.7344 179.573C41.6639 179.681 41.5539 179.758 41.4269 179.789C41.2999 179.82 41.1656 179.803 41.0515 179.74L34.5745 175.922C34.5179 175.89 34.4684 175.847 34.4291 175.795C34.3897 175.744 34.3613 175.686 34.3454 175.623C34.3295 175.561 34.3264 175.497 34.3365 175.433C34.3465 175.37 34.3694 175.309 34.4038 175.255C34.4378 175.199 34.4828 175.15 34.5362 175.112C34.5895 175.073 34.6502 175.045 34.7146 175.03C34.779 175.014 34.846 175.012 34.9116 175.021C34.9771 175.031 35.04 175.054 35.0967 175.088L41.1218 178.641L48.8039 166.608C48.8475 166.54 48.9065 166.484 48.9762 166.443C49.0459 166.402 49.1245 166.378 49.2056 166.372C49.2871 166.367 49.3686 166.382 49.4424 166.417C49.5162 166.451 49.5798 166.503 49.6273 166.568L61.6777 181.919L74.0293 158.441C74.0747 158.358 74.1438 158.289 74.2283 158.243C74.3128 158.197 74.4091 158.176 74.5056 158.182C74.6022 158.188 74.6948 158.222 74.7724 158.278C74.85 158.335 74.9093 158.412 74.9431 158.5L85.9892 188.564L91.3014 177.571C91.3266 177.508 91.3648 177.451 91.4135 177.404C91.4622 177.356 91.5205 177.318 91.5846 177.294C91.6488 177.269 91.7175 177.258 91.7864 177.26C91.8553 177.262 91.923 177.278 91.9852 177.308C92.0474 177.337 92.1028 177.378 92.148 177.429C92.1932 177.48 92.2272 177.539 92.2478 177.603C92.2685 177.668 92.2753 177.736 92.268 177.803C92.2606 177.87 92.2393 177.934 92.2052 177.993L86.3407 190.095C86.2992 190.173 86.2376 190.24 86.1619 190.288C86.0862 190.336 85.999 190.364 85.9089 190.37Z" fill="#D1D3D4"/>
<path d="M41.3124 180.829C42.161 180.829 42.8489 180.157 42.8489 179.328C42.8489 178.498 42.161 177.826 41.3124 177.826C40.4639 177.826 39.776 178.498 39.776 179.328C39.776 180.157 40.4639 180.829 41.3124 180.829Z" fill="white"/>
<path d="M41.3126 181.32C40.9154 181.32 40.5271 181.205 40.1968 180.989C39.8665 180.774 39.6091 180.467 39.4571 180.108C39.3051 179.75 39.2653 179.355 39.3428 178.974C39.4203 178.593 39.6116 178.244 39.8924 177.969C40.1733 177.695 40.5312 177.508 40.9208 177.432C41.3104 177.356 41.7142 177.395 42.0812 177.544C42.4482 177.692 42.7618 177.944 42.9825 178.267C43.2032 178.589 43.321 178.969 43.321 179.357C43.321 179.878 43.1094 180.377 42.7327 180.745C42.3561 181.113 41.8453 181.32 41.3126 181.32ZM41.3126 178.317C41.114 178.317 40.9198 178.374 40.7547 178.482C40.5896 178.59 40.4608 178.743 40.3848 178.923C40.3088 179.102 40.2889 179.299 40.3277 179.49C40.3664 179.68 40.4621 179.855 40.6025 179.992C40.743 180.13 40.9219 180.223 41.1167 180.261C41.3115 180.299 41.5134 180.279 41.6969 180.205C41.8804 180.131 42.0372 180.005 42.1475 179.844C42.2579 179.682 42.3168 179.492 42.3168 179.298C42.3168 179.038 42.211 178.788 42.0227 178.604C41.8343 178.42 41.5789 178.317 41.3126 178.317Z" fill="#D1D3D4"/>
<path d="M49.2558 168.404C50.1043 168.404 50.7922 167.731 50.7922 166.902C50.7922 166.073 50.1043 165.4 49.2558 165.4C48.4072 165.4 47.7194 166.073 47.7194 166.902C47.7194 167.731 48.4072 168.404 49.2558 168.404Z" fill="white"/>
<path d="M49.2556 168.894C48.8584 168.894 48.4701 168.779 48.1398 168.564C47.8095 168.348 47.5521 168.041 47.4001 167.683C47.2481 167.324 47.2083 166.929 47.2858 166.548C47.3633 166.168 47.5546 165.818 47.8354 165.543C48.1163 165.269 48.4742 165.082 48.8638 165.006C49.2534 164.93 49.6572 164.969 50.0242 165.118C50.3912 165.266 50.7048 165.518 50.9255 165.841C51.1462 166.164 51.264 166.543 51.264 166.931C51.264 167.452 51.0524 167.951 50.6757 168.319C50.2991 168.688 49.7883 168.894 49.2556 168.894ZM49.2556 165.891C49.057 165.891 48.8628 165.949 48.6977 166.056C48.5325 166.164 48.4038 166.318 48.3278 166.497C48.2518 166.676 48.2319 166.874 48.2707 167.064C48.3094 167.254 48.4051 167.429 48.5455 167.567C48.686 167.704 48.8649 167.797 49.0597 167.835C49.2545 167.873 49.4564 167.854 49.6399 167.779C49.8234 167.705 49.9802 167.579 50.0906 167.418C50.2009 167.256 50.2598 167.067 50.2598 166.872C50.2598 166.612 50.154 166.363 49.9657 166.178C49.7773 165.994 49.5219 165.891 49.2556 165.891Z" fill="#D1D3D4"/>
<path d="M74.461 160.208C75.3095 160.208 75.9974 159.536 75.9974 158.706C75.9974 157.877 75.3095 157.205 74.461 157.205C73.6124 157.205 72.9246 157.877 72.9246 158.706C72.9246 159.536 73.6124 160.208 74.461 160.208Z" fill="white"/>
<path d="M74.461 160.699C74.0638 160.699 73.6755 160.584 73.3452 160.368C73.0149 160.152 72.7575 159.846 72.6055 159.487C72.4535 159.128 72.4137 158.734 72.4912 158.353C72.5687 157.972 72.76 157.622 73.0409 157.348C73.3217 157.073 73.6796 156.886 74.0692 156.81C74.4588 156.735 74.8626 156.774 75.2296 156.922C75.5966 157.071 75.9102 157.322 76.1309 157.645C76.3516 157.968 76.4694 158.347 76.4694 158.736C76.4694 159.256 76.2578 159.756 75.8811 160.124C75.5045 160.492 74.9937 160.699 74.461 160.699ZM74.461 157.695C74.2624 157.695 74.0682 157.753 73.9031 157.861C73.738 157.969 73.6093 158.122 73.5333 158.301C73.4573 158.481 73.4374 158.678 73.4761 158.868C73.5149 159.059 73.6105 159.234 73.7509 159.371C73.8914 159.508 74.0703 159.602 74.2651 159.639C74.4599 159.677 74.6618 159.658 74.8453 159.584C75.0288 159.509 75.1856 159.384 75.296 159.222C75.4063 159.061 75.4652 158.871 75.4652 158.677C75.4652 158.417 75.3594 158.167 75.1711 157.983C74.9828 157.799 74.7273 157.695 74.461 157.695Z" fill="#D1D3D4"/>
<path d="M85.9089 191.381C86.7574 191.381 87.4453 190.708 87.4453 189.879C87.4453 189.05 86.7574 188.377 85.9089 188.377C85.0603 188.377 84.3724 189.05 84.3724 189.879C84.3724 190.708 85.0603 191.381 85.9089 191.381Z" fill="white"/>
<path d="M85.9088 191.871C85.5116 191.871 85.1233 191.756 84.793 191.541C84.4627 191.325 84.2053 191.018 84.0533 190.66C83.9013 190.301 83.8615 189.906 83.939 189.525C84.0165 189.145 84.2078 188.795 84.4886 188.52C84.7695 188.246 85.1274 188.059 85.517 187.983C85.9066 187.907 86.3104 187.946 86.6774 188.095C87.0444 188.243 87.358 188.495 87.5787 188.818C87.7994 189.141 87.9172 189.52 87.9172 189.908C87.9172 190.429 87.7056 190.928 87.3289 191.296C86.9523 191.665 86.4415 191.871 85.9088 191.871ZM85.9088 188.868C85.6345 188.868 85.3714 188.975 85.1774 189.164C84.9834 189.354 84.8745 189.611 84.8745 189.879C84.8745 190.147 84.9834 190.404 85.1774 190.594C85.3714 190.783 85.6345 190.89 85.9088 190.89C86.1831 190.89 86.4462 190.783 86.6402 190.594C86.8341 190.404 86.9431 190.147 86.9431 189.879C86.9431 189.611 86.8341 189.354 86.6402 189.164C86.4462 188.975 86.1831 188.868 85.9088 188.868Z" fill="#D1D3D4"/>
<path d="M61.748 184.373C62.5965 184.373 63.2844 183.7 63.2844 182.871C63.2844 182.042 62.5965 181.369 61.748 181.369C60.8994 181.369 60.2115 182.042 60.2115 182.871C60.2115 183.7 60.8994 184.373 61.748 184.373Z" fill="white"/>
<path d="M61.7479 184.863C61.3507 184.863 60.9624 184.748 60.6321 184.533C60.3018 184.317 60.0444 184.01 59.8924 183.652C59.7404 183.293 59.7006 182.898 59.7781 182.517C59.8556 182.137 60.0469 181.787 60.3277 181.512C60.6086 181.238 60.9665 181.051 61.3561 180.975C61.7457 180.899 62.1495 180.938 62.5165 181.087C62.8834 181.235 63.1971 181.487 63.4178 181.81C63.6385 182.133 63.7563 182.512 63.7563 182.9C63.7563 183.421 63.5447 183.92 63.168 184.288C62.7914 184.657 62.2805 184.863 61.7479 184.863ZM61.7479 181.86C61.5493 181.86 61.3551 181.918 61.19 182.025C61.0249 182.133 60.8961 182.287 60.8201 182.466C60.7441 182.645 60.7242 182.843 60.763 183.033C60.8017 183.223 60.8974 183.398 61.0378 183.536C61.1782 183.673 61.3572 183.766 61.552 183.804C61.7468 183.842 61.9487 183.823 62.1322 183.748C62.3157 183.674 62.4725 183.548 62.5828 183.387C62.6932 183.225 62.7521 183.036 62.7521 182.842C62.7521 182.581 62.6463 182.332 62.458 182.147C62.2696 181.963 62.0142 181.86 61.7479 181.86Z" fill="#D1D3D4"/>
<path d="M167.389 167.265C146.873 177.188 124.5 177.355 124.5 177.355V209.46C139.345 209.918 154.077 206.79 167.389 200.352V167.265Z" fill="white"/>
<path d="M127.141 210C126.257 210 125.384 210 124.49 210C124.359 209.995 124.236 209.941 124.144 209.85C124.053 209.759 124 209.637 123.998 209.509V177.355C123.998 177.225 124.051 177.1 124.145 177.008C124.239 176.916 124.367 176.864 124.5 176.864C124.721 176.864 146.994 176.58 167.168 166.823C167.244 166.785 167.329 166.764 167.414 166.764C167.5 166.764 167.584 166.785 167.66 166.823C167.731 166.868 167.789 166.929 167.83 167.001C167.87 167.073 167.891 167.154 167.891 167.236V200.322C167.894 200.413 167.869 200.503 167.821 200.582C167.773 200.66 167.703 200.723 167.62 200.764C155.039 206.861 141.183 210.022 127.141 210ZM125.002 209.018C139.496 209.389 153.866 206.328 166.887 200.096V168.05C148.39 176.776 128.386 177.728 125.002 177.865V209.018Z" fill="#231F20"/>
<path d="M134.542 190.88C134.495 192.463 134.774 194.038 135.361 195.514C135.949 196.989 136.833 198.334 137.962 199.47C139.09 200.605 140.441 201.508 141.933 202.124C143.425 202.74 145.028 203.058 146.648 203.058C148.267 203.058 149.871 202.74 151.363 202.124C152.854 201.508 154.205 200.605 155.333 199.47C156.462 198.334 157.346 196.989 157.934 195.514C158.521 194.038 158.8 192.463 158.753 190.88H146.592V179.053C143.393 179.069 140.329 180.321 138.071 182.537C135.813 184.753 134.545 187.753 134.542 190.88Z" fill="#143561"/>
<path d="M148.601 177.306V189.143H160.651C160.651 186.014 159.383 183.012 157.125 180.794C154.867 178.575 151.802 177.321 148.601 177.306Z" fill="#E6E7E8"/>
<path d="M187.764 168.256C187.646 168.258 187.532 168.218 187.442 168.144C187.351 168.071 187.291 167.968 187.272 167.854C187.248 167.725 187.277 167.593 187.352 167.485C187.427 167.376 187.543 167.301 187.674 167.275C187.915 167.275 211.503 162.956 224.939 155.624C224.997 155.584 225.063 155.557 225.132 155.543C225.201 155.53 225.273 155.531 225.342 155.546C225.411 155.562 225.476 155.591 225.532 155.633C225.589 155.674 225.635 155.727 225.67 155.788C225.704 155.848 225.724 155.915 225.73 155.984C225.736 156.053 225.727 156.122 225.704 156.187C225.68 156.252 225.643 156.312 225.594 156.362C225.546 156.412 225.487 156.452 225.421 156.478C211.845 163.889 188.095 168.207 187.854 168.256H187.764Z" fill="#D1D3D4"/>
<path d="M187.764 176.952C187.631 176.964 187.499 176.924 187.396 176.84C187.293 176.756 187.229 176.636 187.217 176.506C187.205 176.376 187.246 176.246 187.332 176.146C187.418 176.046 187.541 175.983 187.674 175.971C187.915 175.922 211.503 171.642 224.939 164.311C224.997 164.271 225.063 164.243 225.132 164.23C225.202 164.216 225.273 164.217 225.342 164.232C225.411 164.248 225.476 164.277 225.532 164.319C225.589 164.36 225.636 164.413 225.67 164.474C225.704 164.534 225.725 164.601 225.73 164.67C225.736 164.739 225.727 164.808 225.704 164.873C225.68 164.939 225.643 164.998 225.594 165.048C225.546 165.099 225.487 165.138 225.422 165.165C211.845 172.585 188.096 176.894 187.855 176.943L187.764 176.952Z" fill="#D1D3D4"/>
<path d="M187.764 185.649C187.631 185.66 187.499 185.62 187.396 185.536C187.293 185.452 187.229 185.332 187.217 185.202C187.205 185.072 187.246 184.942 187.332 184.842C187.418 184.742 187.541 184.679 187.674 184.667C187.915 184.667 211.503 180.339 224.94 173.007C225.056 172.946 225.192 172.931 225.319 172.966C225.447 173.001 225.555 173.082 225.622 173.193C225.654 173.25 225.674 173.312 225.681 173.377C225.688 173.441 225.683 173.506 225.664 173.568C225.645 173.63 225.614 173.688 225.573 173.738C225.531 173.788 225.48 173.83 225.422 173.861C211.845 181.281 188.096 185.59 187.855 185.639L187.764 185.649Z" fill="#D1D3D4"/>
<path d="M187.764 194.345C187.631 194.357 187.499 194.316 187.396 194.232C187.293 194.149 187.229 194.028 187.217 193.898C187.205 193.768 187.246 193.639 187.332 193.538C187.418 193.438 187.541 193.375 187.674 193.363C194.53 192.064 201.312 190.409 207.989 188.407C208.117 188.37 208.254 188.383 208.372 188.443C208.491 188.504 208.58 188.607 208.621 188.731C208.659 188.854 208.645 188.987 208.583 189.101C208.521 189.215 208.416 189.301 208.29 189.339C201.573 191.344 194.751 192.999 187.855 194.296L187.764 194.345Z" fill="#D1D3D4"/>
<path d="M34.8355 93.4852C34.7487 93.4866 34.663 93.4656 34.5872 93.4242C34.5113 93.3829 34.448 93.3226 34.4037 93.2496C34.3374 93.136 34.3191 93.0016 34.3529 92.875C34.3867 92.7484 34.4698 92.6398 34.5845 92.5724C41.3929 88.6463 55.311 85.7705 55.9035 85.6527C55.9675 85.6384 56.0338 85.6366 56.0985 85.6477C56.1632 85.6587 56.225 85.6824 56.2802 85.7171C56.3354 85.7519 56.383 85.7971 56.42 85.8501C56.4571 85.9031 56.4829 85.9628 56.496 86.0257C56.5108 86.0889 56.5127 86.1543 56.5015 86.2182C56.4903 86.2821 56.4662 86.3431 56.4308 86.3979C56.3953 86.4526 56.3491 86.5 56.2948 86.5372C56.2405 86.5744 56.1791 86.6007 56.1144 86.6146C55.9638 86.6146 41.7544 89.5591 35.0866 93.4263C35.0086 93.4643 34.9227 93.4845 34.8355 93.4852Z" fill="#D1D3D4"/>
<path d="M34.8355 98.4123C34.7259 98.4112 34.6197 98.3751 34.5331 98.3095C34.4464 98.2439 34.3842 98.1524 34.3557 98.0489C34.3273 97.9455 34.3342 97.8358 34.3755 97.7366C34.4168 97.6374 34.4902 97.5541 34.5844 97.4995C41.3929 93.5735 55.311 90.6976 55.9035 90.6289C56.0366 90.6016 56.1755 90.6271 56.2894 90.6998C56.4033 90.7725 56.483 90.8865 56.511 91.0166C56.539 91.1468 56.5129 91.2825 56.4385 91.3938C56.3641 91.5052 56.2475 91.5831 56.1143 91.6104C55.9637 91.6104 41.7544 94.555 35.0865 98.4221C35.0035 98.4411 34.9167 98.4377 34.8355 98.4123Z" fill="#D1D3D4"/>
<path d="M34.8355 103.339C34.7479 103.339 34.662 103.316 34.5862 103.273C34.5105 103.23 34.4475 103.168 34.4037 103.094C34.3374 102.981 34.3191 102.846 34.3529 102.719C34.3867 102.593 34.4698 102.484 34.5845 102.417C41.3929 98.4908 55.311 95.615 55.9035 95.5463C56.0337 95.5229 56.1682 95.5496 56.2787 95.621C56.3891 95.6924 56.467 95.8028 56.496 95.9291C56.5107 95.9917 56.5125 96.0565 56.5012 96.1197C56.4898 96.1829 56.4657 96.2433 56.4301 96.2973C56.3946 96.3513 56.3483 96.3977 56.2941 96.4339C56.2399 96.4702 56.1788 96.4954 56.1144 96.5082C55.9638 96.5082 41.7544 99.4527 35.0866 103.32C35.0053 103.344 34.9197 103.351 34.8355 103.339Z" fill="#D1D3D4"/>
<path d="M34.8355 108.257C34.7259 108.256 34.6197 108.22 34.5331 108.154C34.4464 108.088 34.3842 107.997 34.3557 107.894C34.3273 107.79 34.3342 107.68 34.3755 107.581C34.4168 107.482 34.4902 107.399 34.5844 107.344C38.5787 105.28 42.8045 103.676 47.177 102.564C47.3102 102.528 47.4527 102.544 47.5732 102.611C47.6938 102.677 47.7824 102.787 47.8197 102.917C47.857 103.048 47.8398 103.187 47.772 103.305C47.7042 103.423 47.5913 103.509 47.4582 103.546C43.1805 104.63 39.0433 106.187 35.1267 108.188C35.0398 108.241 34.9376 108.265 34.8355 108.257Z" fill="#D1D3D4"/>
</svg>
