<svg width="350" height="302" viewBox="0 0 468 449" fill="none" xmlns="http://www.w3.org/2000/svg">
<path d="M253.975 439.126C311.248 439.126 357.676 434.174 357.676 428.066C357.676 421.958 311.248 417.006 253.975 417.006C196.702 417.006 150.274 421.958 150.274 428.066C150.274 434.174 196.702 439.126 253.975 439.126Z" fill="#D1D3D4"/>
<path d="M221.69 392.428H286.26L293.992 357.838H213.94L221.69 392.428Z" fill="white"/>
<path d="M286.26 393.435H221.727C221.524 393.434 221.328 393.358 221.168 393.22C221.008 393.082 220.893 392.888 220.841 392.67L213.109 358.08C213.072 357.931 213.068 357.775 213.096 357.625C213.124 357.474 213.185 357.333 213.272 357.213C213.355 357.094 213.462 356.997 213.584 356.93C213.706 356.864 213.84 356.83 213.976 356.831H293.992C294.131 356.83 294.268 356.864 294.393 356.93C294.518 356.996 294.628 357.093 294.715 357.213C294.798 357.335 294.856 357.476 294.884 357.626C294.912 357.776 294.91 357.931 294.878 358.08L287.127 392.67C287.082 392.888 286.972 393.083 286.814 393.222C286.656 393.361 286.461 393.437 286.26 393.435ZM222.395 391.421H285.628L292.854 358.845H215.168L222.395 391.421Z" fill="#231F20"/>
<path d="M326.349 249.877C326.349 249.877 360.17 273.467 371.931 312.772C383.692 352.076 356.882 428.006 356.882 428.006L295.329 353.587L326.349 249.877Z" fill="white"/>
<path d="M356.881 429.074C356.757 429.072 356.635 429.04 356.523 428.981C356.411 428.922 356.311 428.837 356.231 428.731L294.661 354.333C294.555 354.196 294.482 354.033 294.447 353.857C294.413 353.681 294.418 353.499 294.462 353.326L325.482 249.575C325.527 249.428 325.6 249.294 325.697 249.182C325.794 249.071 325.912 248.985 326.042 248.93C326.163 248.866 326.296 248.832 326.43 248.832C326.565 248.832 326.698 248.866 326.819 248.93C327.162 249.172 361.145 273.105 372.78 312.349C377.712 328.828 376.664 353.366 369.691 385.297C366.477 399.894 362.483 414.263 357.731 428.328C357.677 428.488 357.587 428.629 357.47 428.739C357.353 428.848 357.212 428.922 357.062 428.953L356.881 429.074ZM296.359 353.467L356.556 426.233C360.17 415.354 381.669 348.611 371.009 313.155C360.621 278.363 332.365 255.719 326.765 251.509L296.359 353.467Z" fill="#231F20"/>
<path d="M180.029 249.877C180.029 249.877 146.191 273.467 134.447 312.772C122.704 352.076 149.461 428.006 149.461 428.006L211.031 353.587L180.029 249.877Z" fill="white"/>
<path d="M149.461 429.073H149.298C149.148 429.043 149.007 428.969 148.89 428.859C148.773 428.75 148.683 428.609 148.63 428.449C143.877 414.384 139.883 400.015 136.67 385.418C129.678 353.486 128.648 329.009 133.581 312.47C145.288 273.286 179.198 249.293 179.542 249.051C179.663 248.986 179.796 248.953 179.93 248.953C180.064 248.953 180.197 248.986 180.318 249.051C180.449 249.105 180.567 249.191 180.663 249.303C180.76 249.414 180.834 249.548 180.878 249.695L211.88 353.446C211.932 353.617 211.943 353.8 211.911 353.977C211.879 354.154 211.806 354.318 211.7 354.453L150.129 428.852C150.038 428.938 149.931 429.003 149.816 429.041C149.701 429.079 149.58 429.09 149.461 429.073ZM179.523 251.448C173.941 255.659 145.685 278.302 135.279 313.094C124.674 348.551 146.119 415.294 149.732 426.172L210.02 353.466L179.523 251.448Z" fill="#231F20"/>
<path d="M198.674 370.933C181.836 326.048 171.267 260.978 171.267 188.574C171.267 78.8598 225.466 21.7263 246.152 3.97791C248.389 2.04865 251.138 1.00195 253.966 1.00195C256.794 1.00195 259.542 2.04865 261.78 3.97791C282.411 21.7263 336.683 78.8598 336.683 188.574C336.683 260.978 326.096 326.048 309.276 370.933C309.276 370.933 292.511 380.361 253.975 380.361C215.439 380.361 198.674 370.933 198.674 370.933Z" fill="white"/>
<path d="M253.975 381.368C215.656 381.368 198.963 372.222 198.258 371.839C198.068 371.735 197.92 371.555 197.843 371.336C180.372 324.738 170.364 258.116 170.364 188.573C170.364 79.6852 222.973 22.6525 245.592 3.23199C247.994 1.17524 250.938 0.0603027 253.966 0.0603027C256.994 0.0603027 259.938 1.17524 262.34 3.23199C284.959 22.713 337.586 79.7859 337.586 188.573C337.586 258.116 327.56 324.738 310.107 371.336C310.023 371.557 309.868 371.736 309.674 371.839C308.987 372.222 292.276 381.368 253.975 381.368ZM199.378 370.187C201.763 371.396 218.854 379.354 253.975 379.354C289.096 379.354 306.187 371.396 308.572 370.187C325.861 323.852 335.78 257.693 335.78 188.573C335.78 80.5918 283.64 24.0627 261.238 4.78321C259.165 3.00906 256.624 2.04741 254.011 2.04741C251.398 2.04741 248.858 3.00906 246.785 4.78321C224.364 24.0627 172.242 80.5716 172.242 188.573C172.17 257.693 182.071 323.852 199.378 370.187Z" fill="#231F20"/>
<path d="M261.78 3.97791C287.074 26.4598 306.857 55.7126 319.285 89.0132H188.629C201.063 55.7104 220.851 26.4573 246.152 3.97791C248.39 2.04865 251.138 1.00195 253.966 1.00195C256.794 1.00195 259.543 2.04865 261.78 3.97791Z" fill="white"/>
<path d="M319.285 90.0201H188.629C188.478 90.0198 188.329 89.9773 188.196 89.8963C188.064 89.8154 187.952 89.6986 187.87 89.5568C187.799 89.4116 187.762 89.2488 187.762 89.0833C187.762 88.9179 187.799 88.7551 187.87 88.6099C205.467 42.4156 231.645 15.2591 245.683 3.17168C248.084 1.11493 251.028 0 254.056 0C257.085 0 260.028 1.11493 262.43 3.17168C276.468 15.2591 302.646 42.4156 320.243 88.6099C320.314 88.7551 320.351 88.9179 320.351 89.0833C320.351 89.2488 320.314 89.4116 320.243 89.5568C320.146 89.735 320.002 89.8753 319.83 89.9583C319.659 90.0413 319.468 90.0629 319.285 90.0201ZM189.966 88.0056H317.912C300.478 43.0805 274.95 16.6089 261.202 4.78334C259.129 3.0092 256.588 2.04754 253.975 2.04754C251.362 2.04754 248.822 3.0092 246.749 4.78334C232.946 16.6089 207.418 43.0805 190.002 88.0056H189.966Z" fill="#231F20"/>
<path d="M230.525 211.882H270.958V250.159C270.958 251.975 270.311 253.718 269.159 255.002C268.007 256.287 266.444 257.008 264.815 257.008H236.668C235.039 257.008 233.476 256.287 232.324 255.002C231.172 253.718 230.525 251.975 230.525 250.159V211.882Z" fill="white"/>
<path d="M264.797 257.976H236.667C234.797 257.97 233.005 257.138 231.684 255.662C230.363 254.185 229.621 252.184 229.621 250.099V211.822C229.621 211.555 229.717 211.298 229.886 211.109C230.055 210.921 230.285 210.814 230.525 210.814H270.957C271.197 210.814 271.427 210.921 271.596 211.109C271.766 211.298 271.861 211.555 271.861 211.822V250.099C271.861 252.188 271.117 254.191 269.792 255.669C268.467 257.146 266.67 257.976 264.797 257.976ZM231.428 212.889V250.099C231.428 251.65 231.98 253.138 232.962 254.237C233.944 255.336 235.276 255.956 236.667 255.961H264.797C266.19 255.956 267.524 255.336 268.509 254.238C269.494 253.14 270.049 251.652 270.054 250.099V212.889H231.428Z" fill="#231F20"/>
<path d="M250.741 226.83C278.599 226.83 301.183 201.648 301.183 170.583C301.183 139.519 278.599 114.336 250.741 114.336C222.883 114.336 200.3 139.519 200.3 170.583C200.3 201.648 222.883 226.83 250.741 226.83Z" fill="white"/>
<path d="M250.741 227.837C240.582 227.841 230.65 224.486 222.201 218.195C213.752 211.904 207.166 202.96 203.275 192.495C199.385 182.03 198.365 170.513 200.345 159.401C202.325 148.29 207.215 138.083 214.398 130.071C221.58 122.059 230.732 116.602 240.696 114.39C250.66 112.179 260.988 113.312 270.375 117.646C279.761 121.981 287.784 129.322 293.429 138.741C299.073 148.16 302.086 159.234 302.086 170.563C302.072 185.745 296.658 200.3 287.033 211.037C277.407 221.774 264.356 227.816 250.741 227.837ZM250.741 115.323C240.938 115.319 231.355 118.557 223.203 124.628C215.05 130.698 208.696 139.328 204.943 149.427C201.19 159.525 200.207 170.637 202.118 181.359C204.03 192.08 208.75 201.928 215.682 209.658C222.613 217.387 231.445 222.65 241.06 224.782C250.674 226.914 260.64 225.818 269.696 221.633C278.752 217.448 286.491 210.362 291.935 201.271C297.379 192.181 300.283 181.494 300.279 170.563C300.26 155.919 295.035 141.881 285.749 131.526C276.463 121.171 263.874 115.344 250.741 115.323Z" fill="#231F20"/>
<path d="M250.741 205.294C267.933 205.294 281.87 189.754 281.87 170.583C281.87 151.413 267.933 135.872 250.741 135.872C233.549 135.872 219.613 151.413 219.613 170.583C219.613 189.754 233.549 205.294 250.741 205.294Z" fill="#231F20"/>
<path d="M250.741 206.282C244.405 206.286 238.21 204.194 232.94 200.272C227.67 196.349 223.562 190.772 221.135 184.246C218.707 177.72 218.071 170.537 219.304 163.607C220.538 156.677 223.588 150.311 228.067 145.314C232.546 140.316 238.253 136.912 244.467 135.533C250.681 134.153 257.123 134.859 262.977 137.562C268.831 140.265 273.835 144.843 277.355 150.717C280.876 156.591 282.755 163.498 282.755 170.563C282.745 180.03 279.37 189.105 273.369 195.801C267.368 202.497 259.23 206.266 250.741 206.282ZM250.741 136.879C244.762 136.875 238.915 138.849 233.942 142.551C228.969 146.253 225.092 151.517 222.802 157.676C220.512 163.836 219.912 170.614 221.078 177.154C222.243 183.693 225.122 189.701 229.351 194.416C233.579 199.13 238.966 202.341 244.831 203.641C250.696 204.94 256.774 204.271 262.298 201.718C267.822 199.164 272.542 194.841 275.862 189.296C279.182 183.75 280.952 177.231 280.948 170.563C280.939 161.633 277.753 153.072 272.09 146.757C266.427 140.442 258.749 136.89 250.741 136.879Z" fill="#231F20"/>
<path d="M226.044 168.368H225.918C225.801 168.35 225.689 168.307 225.587 168.241C225.485 168.175 225.397 168.086 225.326 167.981C225.255 167.876 225.204 167.757 225.175 167.629C225.147 167.502 225.141 167.369 225.159 167.24C228.646 140.526 250.633 141.936 250.795 141.936C251.035 141.955 251.258 142.079 251.416 142.281C251.573 142.483 251.652 142.747 251.635 143.014C251.619 143.281 251.507 143.53 251.326 143.706C251.145 143.882 250.908 143.97 250.669 143.951C249.838 143.951 230.182 142.742 226.93 167.582C226.884 167.806 226.772 168.006 226.611 168.149C226.45 168.291 226.25 168.369 226.044 168.368Z" fill="white"/>
<path d="M261.707 147.214C261.504 147.211 261.307 147.133 261.147 146.992C259.758 145.879 258.156 145.141 256.468 144.837C256.231 144.802 256.016 144.663 255.87 144.452C255.725 144.24 255.66 143.973 255.691 143.709C255.727 143.447 255.852 143.21 256.041 143.049C256.229 142.887 256.466 142.813 256.703 142.842C258.707 143.194 260.608 144.071 262.249 145.401C262.438 145.564 262.561 145.804 262.592 146.069C262.622 146.333 262.557 146.6 262.412 146.811C262.329 146.934 262.223 147.033 262.101 147.103C261.979 147.173 261.844 147.211 261.707 147.214Z" fill="white"/>
<path d="M204.78 355.32C204.592 355.321 204.408 355.256 204.255 355.132C204.102 355.009 203.989 354.835 203.931 354.635C195.159 323.654 188.082 292.108 182.739 260.171C182.697 259.91 182.749 259.64 182.884 259.421C183.02 259.202 183.227 259.052 183.462 259.003C183.578 258.977 183.698 258.977 183.814 259.004C183.931 259.03 184.041 259.083 184.139 259.158C184.237 259.233 184.32 259.329 184.384 259.441C184.447 259.553 184.49 259.678 184.51 259.809C189.839 291.649 196.891 323.1 205.629 353.99C205.704 354.241 205.687 354.515 205.583 354.753C205.478 354.99 205.293 355.172 205.069 355.259L204.78 355.32Z" fill="white"/>
<path d="M230.525 244.68C230.525 243.753 270.958 244.68 270.958 244.68H230.525Z" fill="white"/>
<path d="M270.957 245.768C256.613 245.445 233.379 245.103 231.012 245.627C230.821 245.787 230.58 245.856 230.343 245.818C230.105 245.78 229.891 245.639 229.748 245.425C229.604 245.211 229.542 244.943 229.576 244.678C229.61 244.414 229.737 244.175 229.928 244.015C230.272 243.632 230.994 242.846 270.993 243.753C271.233 243.753 271.463 243.859 271.632 244.048C271.802 244.237 271.897 244.493 271.897 244.76C271.897 245.027 271.802 245.284 271.632 245.473C271.463 245.661 271.233 245.768 270.993 245.768H270.957Z" fill="#231F20"/>
<path d="M230.525 234.607C230.525 233.68 270.958 234.607 270.958 234.607H230.525Z" fill="white"/>
<path d="M270.957 235.634C256.613 235.311 233.379 234.989 231.012 235.492C230.821 235.653 230.58 235.722 230.343 235.684C230.105 235.646 229.891 235.505 229.748 235.291C229.604 235.077 229.542 234.809 229.576 234.544C229.61 234.28 229.737 234.041 229.928 233.881C230.272 233.498 230.994 232.712 270.993 233.619C271.23 233.634 271.453 233.748 271.617 233.939C271.781 234.13 271.874 234.382 271.879 234.646C271.869 234.912 271.768 235.163 271.596 235.347C271.425 235.531 271.196 235.634 270.957 235.634Z" fill="#231F20"/>
<path d="M234.373 256.465H266.405C266.405 258.479 265.687 260.411 264.41 261.835C263.133 263.26 261.4 264.06 259.594 264.06H241.184C239.378 264.06 237.646 263.26 236.368 261.835C235.091 260.411 234.373 258.479 234.373 256.465Z" fill="#231F20"/>
<path d="M259.666 265.066H241.184C239.138 265.066 237.176 264.16 235.729 262.547C234.283 260.934 233.47 258.746 233.47 256.464C233.47 256.197 233.565 255.941 233.734 255.752C233.904 255.563 234.134 255.457 234.373 255.457H266.405C266.645 255.457 266.874 255.563 267.044 255.752C267.213 255.941 267.308 256.197 267.308 256.464C267.308 258.732 266.506 260.907 265.074 262.518C263.643 264.129 261.7 265.045 259.666 265.066ZM235.421 257.471C235.637 259.025 236.343 260.441 237.414 261.465C238.484 262.488 239.847 263.051 241.257 263.052H259.666C261.076 263.051 262.439 262.488 263.509 261.465C264.579 260.441 265.286 259.025 265.502 257.471H235.421Z" fill="#231F20"/>
<path d="M200.968 334.912C200.968 334.912 224.671 338.559 233.108 337.35L234.481 358.302C234.481 358.302 208.61 357.919 202.07 354.272L200.968 334.912Z" fill="white"/>
<path d="M234.481 359.329C233.416 359.329 208.321 358.906 201.673 355.3C201.523 355.223 201.395 355.101 201.302 354.949C201.21 354.796 201.157 354.618 201.149 354.434L200.065 335.034C200.057 334.881 200.079 334.728 200.129 334.586C200.179 334.443 200.255 334.314 200.354 334.208C200.455 334.104 200.575 334.026 200.707 333.981C200.838 333.935 200.977 333.923 201.113 333.946C201.366 333.946 224.78 337.552 233.018 336.363C233.144 336.347 233.272 336.36 233.393 336.402C233.514 336.444 233.626 336.513 233.723 336.605C233.821 336.694 233.902 336.804 233.961 336.929C234.02 337.053 234.055 337.19 234.066 337.33L235.421 358.282C235.43 358.425 235.413 358.569 235.369 358.705C235.326 358.84 235.257 358.964 235.168 359.067C235.075 359.16 234.966 359.23 234.848 359.275C234.73 359.32 234.606 359.339 234.481 359.329ZM202.956 353.628C209.134 356.489 228.772 357.113 233.47 357.234L232.259 338.478C224.202 339.244 206.641 336.806 201.98 336.101L202.956 353.628Z" fill="#D1D3D4"/>
<path d="M22.6706 360.377C24.7795 364.564 28.0693 367.857 32.029 369.745C35.3893 371.316 39.2555 370.893 42.7424 371.759C52.7331 373.995 62.8503 372.424 72.552 369.281C82.2536 366.138 92.8044 360.78 97.8449 350.626C99.7694 346.597 100.735 342.085 100.65 337.521C100.564 332.957 99.4307 328.494 97.3572 324.558C95.7854 321.657 93.7439 319.138 92.0637 316.318C89.5638 311.722 87.6371 306.767 86.3366 301.591C83.7351 292.445 81.7297 282.272 77.3034 273.951C76.3547 272.364 75.1334 271.002 73.7101 269.944C72.2868 268.886 70.6897 268.153 69.0109 267.787C68.0354 267.505 58.4421 267.948 58.8937 268.613C56.9064 265.671 52.7692 266.598 49.8605 268.23C41.3324 272.991 34.8383 281.319 31.7941 291.398C29.1745 300.181 29.3732 309.71 27.4582 318.715C25.9587 325.746 23.2126 332.354 21.5866 339.345C19.9606 346.335 19.5812 354.031 22.6706 360.377Z" fill="white"/>
<path d="M52.5162 373.753C49.1926 373.761 45.8764 373.403 42.6158 372.686C41.2964 372.412 39.9629 372.23 38.6231 372.142C36.2723 372.071 33.9475 371.574 31.7398 370.671C27.564 368.716 24.0926 365.264 21.8755 360.86C19.0752 355.119 18.6958 347.765 20.7192 339.022C21.5142 335.678 22.5259 332.394 23.5557 329.191C24.7496 325.663 25.7689 322.065 26.6089 318.413C27.3665 314.563 27.9275 310.669 28.2891 306.749C28.7019 301.418 29.5915 296.148 30.9449 291.015C34.0452 280.696 40.6746 272.159 49.3907 267.263C52.4439 265.571 56.6173 264.644 59.1104 267.263C62.4576 266.699 65.8462 266.504 69.2276 266.679C71.0232 267.074 72.7298 267.866 74.2469 269.008C75.7641 270.15 77.0613 271.618 78.0621 273.327C81.298 280.087 83.7737 287.266 85.4332 294.701C86.0113 296.877 86.5714 299.053 87.2399 301.168C88.5166 306.258 90.4067 311.13 92.8585 315.653C93.5812 316.862 94.4122 318.071 95.1891 319.219C96.2582 320.722 97.2533 322.289 98.1701 323.913C100.331 327.998 101.512 332.635 101.601 337.377C101.689 342.119 100.682 346.806 98.6759 350.989C94.4303 359.631 86.0294 365.897 72.9132 370.127C66.302 372.405 59.4347 373.625 52.5162 373.753ZM54.9551 267.626C53.2961 267.706 51.6735 268.194 50.2037 269.056C41.9122 273.716 35.6073 281.84 32.6612 291.659C31.3435 296.662 30.4721 301.797 30.0596 306.99C29.6892 310.984 29.1222 314.952 28.3614 318.876C27.5061 322.601 26.4749 326.273 25.272 329.876C24.2603 333.019 23.2305 336.262 22.4717 339.526C21.1528 345.187 20.2676 353.305 23.4654 359.913C25.5013 363.922 28.681 367.056 32.4986 368.818C34.5365 369.63 36.6766 370.079 38.8399 370.147C40.2462 370.237 41.6462 370.425 43.0313 370.711C51.6851 372.726 61.2965 371.84 72.4073 368.254C85.0538 364.224 93.0934 358.181 97.1041 350.122C98.9613 346.251 99.892 341.91 99.8066 337.52C99.7211 333.131 98.6224 328.839 96.6163 325.061C95.7393 323.5 94.7864 321.994 93.7618 320.548C92.9489 319.36 92.1178 318.131 91.359 316.862C88.8098 312.183 86.8408 307.141 85.5055 301.873C84.9093 299.738 84.3312 297.562 83.6988 295.366C82.0687 288.092 79.6416 281.068 76.4723 274.455C75.5895 272.976 74.4509 271.708 73.1231 270.725C71.7954 269.743 70.3052 269.066 68.7398 268.734C65.6548 268.622 62.5668 268.797 59.5079 269.257C59.4804 269.313 59.4354 269.356 59.3814 269.378C59.192 269.541 58.9525 269.613 58.7155 269.579C58.4785 269.545 58.2632 269.407 58.1168 269.197C57.7403 268.673 57.2569 268.257 56.7069 267.983C56.157 267.71 55.5563 267.587 54.9551 267.626Z" fill="#231F20"/>
<path d="M101.187 429.658C102.994 429.658 116.273 431.269 122.487 434.714C128.702 438.159 130.057 438.421 128.793 443.075C127.528 447.728 116.58 448.877 108.233 447.104C102.863 445.879 97.6826 443.782 92.8585 440.879L101.187 429.658Z" fill="white"/>
<path d="M115.911 448.796C113.289 448.8 110.671 448.544 108.089 448.031C102.622 446.783 97.3505 444.645 92.4431 441.685C92.3395 441.617 92.2504 441.524 92.182 441.414C92.1136 441.303 92.0675 441.178 92.0468 441.046C92.0262 440.913 92.0316 440.778 92.0626 440.648C92.0935 440.518 92.1494 440.398 92.2263 440.295L100.555 429.073C100.626 428.967 100.719 428.88 100.825 428.82C100.932 428.761 101.05 428.73 101.169 428.731C103.102 428.731 116.49 430.363 122.849 433.888L124.258 434.654C129.262 437.394 130.943 438.32 129.588 443.357C128.54 447.265 122.253 448.796 115.911 448.796ZM94.1413 440.617C98.6427 443.197 103.438 445.081 108.396 446.218C117.321 448.091 127.04 446.419 128.016 442.813C128.991 439.207 128.558 439.066 123.535 436.306L122.126 435.54C116.417 432.377 104.349 430.705 101.567 430.584L94.1413 440.617Z" fill="#231F20"/>
<path d="M102.976 429.617C104.151 429.93 105.176 430.727 105.847 431.848C106.517 432.969 106.782 434.331 106.589 435.661C105.993 440.597 96.6348 440.798 96.0928 440.818C95.5508 440.838 102.976 429.617 102.976 429.617Z" fill="white"/>
<path d="M96.0748 441.745C95.9176 441.743 95.764 441.693 95.6303 441.6C95.4967 441.508 95.388 441.377 95.316 441.221C95.0269 440.617 94.8824 440.274 102.308 429.134C102.402 428.988 102.533 428.876 102.684 428.812C102.835 428.747 102.999 428.733 103.157 428.771C104.536 429.129 105.741 430.059 106.527 431.373C107.312 432.687 107.619 434.285 107.384 435.842C106.734 441.282 97.8633 441.765 96.0928 441.886L96.0748 441.745ZM103.301 430.685C100.989 434.19 98.6041 437.917 97.484 439.831C100.899 439.529 105.433 438.401 105.758 435.54C105.933 434.535 105.78 433.493 105.326 432.602C104.872 431.712 104.148 431.032 103.283 430.685H103.301Z" fill="#231F20"/>
<path d="M33.5465 440.919C33.2574 441.08 30.7281 444.767 19.6173 446.257C8.50642 447.748 4.38729 450.387 1.91219 443.88C-0.562912 437.373 1.13533 433.183 6.60945 431.329C12.0836 429.476 27.169 427.925 30.0958 431.027C33.0226 434.13 33.5465 440.919 33.5465 440.919Z" fill="white"/>
<path d="M7.38628 448.977C6.01841 449.103 4.65342 448.701 3.5191 447.839C2.38478 446.978 1.54976 445.708 1.15337 444.243C0.501176 442.876 0.11571 441.37 0.0222996 439.825C-0.0711107 438.28 0.129642 436.731 0.611369 435.278C1.20653 434.06 2.02885 432.998 3.02297 432.164C4.0171 431.33 5.15996 430.743 6.37456 430.443C11.7945 428.63 27.3497 426.857 30.692 430.443C34.0343 434.029 34.3053 440.637 34.3053 440.939C34.3166 441.098 34.291 441.258 34.2309 441.402C34.1707 441.547 34.0781 441.672 33.962 441.765C30.5655 445.19 24.3326 446.62 19.6534 447.245C17.2686 447.567 15.2271 447.93 13.4205 448.252C11.4283 448.663 9.4112 448.906 7.38628 448.977ZM21.8394 430.161C16.78 430.146 11.738 430.823 6.82623 432.176C5.84021 432.42 4.91113 432.893 4.09895 433.563C3.28676 434.232 2.60952 435.084 2.11089 436.064C1.72864 437.284 1.58095 438.58 1.67745 439.867C1.77394 441.155 2.11244 442.406 2.67094 443.538C4.29692 447.769 6.28423 447.567 13.2037 446.358C15.0103 446.036 17.106 445.653 19.5269 445.331C23.8809 444.747 29.6622 443.457 32.6793 440.536C32.5167 439.025 31.8302 434.09 29.5538 431.712C28.5059 430.604 25.4708 430.161 21.8575 430.161H21.8394Z" fill="#231F20"/>
<path d="M37.0875 438.26C37.0875 438.26 32.047 442.954 28.6866 442.41C25.3263 441.866 20.6832 439.811 22.5621 435.762C24.441 431.713 36.4552 429.295 36.4552 429.295L37.0875 438.26Z" fill="white"/>
<path d="M29.2467 443.357C29.0182 443.377 28.7887 443.377 28.5602 443.357C27.2955 443.136 23.0138 442.229 21.6769 439.328C21.3918 438.698 21.2555 437.998 21.2808 437.293C21.3061 436.588 21.4922 435.901 21.8214 435.299C23.8268 430.968 35.046 428.59 36.2746 428.349C36.3876 428.329 36.503 428.335 36.614 428.366C36.7249 428.397 36.8291 428.453 36.9202 428.53C37.0113 428.607 37.0875 428.704 37.1442 428.815C37.2009 428.926 37.2369 429.048 37.2501 429.175L37.8644 438.16C37.8793 438.304 37.8605 438.451 37.8099 438.585C37.7593 438.719 37.6785 438.836 37.5753 438.925C37.4489 439.167 32.8419 443.357 29.2467 443.357ZM35.6422 430.383C31.9205 431.23 24.4953 433.425 23.2125 436.185C23.022 436.523 22.9106 436.908 22.8885 437.306C22.8664 437.703 22.9343 438.101 23.0861 438.462C23.8629 440.134 26.6994 441.141 28.7409 441.484C30.7824 441.826 34.5944 439.227 36.1481 437.858L35.6422 430.383Z" fill="#231F20"/>
<path d="M97.6099 398.875C97.6099 398.875 92.2984 421.962 72.9131 426.394C53.5278 430.826 43.501 429.637 36.6357 415.052C29.7705 400.466 34.3052 391.522 34.3052 391.522L95.4781 390.172L97.6099 398.875Z" fill="#231F20"/>
<path d="M56.8702 429.677C47.3131 429.677 40.7369 425.95 35.8228 415.575C28.8131 400.667 33.3297 391.4 33.5284 391.098C33.6019 390.944 33.7109 390.814 33.8443 390.722C33.9776 390.63 34.1304 390.579 34.2872 390.574L95.4601 389.225C95.6606 389.233 95.8541 389.308 96.0154 389.441C96.1766 389.574 96.2979 389.759 96.3634 389.97L98.4772 398.673C98.5132 398.838 98.5132 399.011 98.4772 399.177C98.4772 399.418 92.8044 422.949 73.1842 427.381C67.8266 428.739 62.3625 429.508 56.8702 429.677ZM34.8834 392.529C34.1246 394.543 31.794 402.601 37.4307 414.568C44.2418 429.053 54.2506 429.617 72.7326 425.406C90.257 421.377 96.0202 401.231 96.6706 398.874L94.8639 391.199L34.8834 392.529Z" fill="#231F20"/>
<path d="M29.6984 399.077C29.6984 399.077 19.6716 362.955 20.9904 340.332C22.3093 317.708 35.6423 316.016 40.1408 315.593C44.6394 315.17 69.0472 310.999 78.1888 322.966C87.3304 334.933 103.355 390.978 103.355 390.978L29.6984 399.077Z" fill="#143561"/>
<path d="M65.9032 315.653L64.3134 327.74C63.2385 329.555 61.6062 330.87 59.7233 331.438C57.8403 332.005 55.8363 331.787 54.0878 330.823C47.2406 327.66 47.1141 321.838 47.1141 321.838L50.3661 299.496C55.4487 293.695 58.9885 286.435 60.5917 278.524C60.5917 278.524 66.6259 290.269 75.37 292.908C75.055 298.231 74.3358 303.515 73.2201 308.703C71.7748 314.545 66.0116 315.592 65.9032 315.653Z" fill="white"/>
<path d="M57.7917 332.736C56.391 332.715 55.0085 332.379 53.7268 331.749C46.5002 328.385 46.2292 322.119 46.2111 321.858L49.4631 299.335C49.5044 299.112 49.6052 298.908 49.7521 298.75C54.6911 293.075 58.1349 285.994 59.7067 278.282C59.7498 278.086 59.8456 277.91 59.9813 277.777C60.1169 277.643 60.2859 277.56 60.4655 277.537C60.6421 277.509 60.8221 277.54 60.9828 277.626C61.1436 277.712 61.2779 277.849 61.3688 278.02C61.3688 278.141 67.3308 289.443 75.6052 291.921C75.8068 291.985 75.983 292.123 76.1045 292.314C76.226 292.504 76.2857 292.735 76.2736 292.968C75.9566 298.367 75.2253 303.725 74.0876 308.984C73.5528 310.84 72.5906 312.507 71.2971 313.819C70.0037 315.131 68.4242 316.041 66.7165 316.458L65.217 327.901C65.202 328.032 65.1586 328.156 65.0905 328.264C64.285 329.608 63.2013 330.716 61.9309 331.494C60.6605 332.272 59.2408 332.698 57.7917 332.736ZM51.1975 299.999L48.0178 321.999C48.0178 321.999 48.2707 327.055 54.4313 329.896C55.9565 330.76 57.7102 330.981 59.3698 330.518C61.0295 330.056 62.4835 328.94 63.4645 327.377L65.0002 315.512C65.0269 315.363 65.0807 315.221 65.1584 315.097C65.2361 314.972 65.336 314.866 65.4518 314.786L65.8132 314.645C67.3029 314.355 68.6955 313.624 69.8458 312.529C70.9961 311.434 71.862 310.015 72.3532 308.42C73.4083 303.564 74.0972 298.618 74.4128 293.633C67.9089 291.296 63.031 284.406 60.9352 281.002C59.155 288.138 55.8083 294.667 51.1975 299.999Z" fill="#231F20"/>
<path d="M54.5757 299.838C54.4883 298.71 54.0764 297.643 53.4013 296.796C52.7356 296.044 51.9597 295.424 51.1069 294.963C50.6614 294.659 50.1621 294.467 49.6435 294.399C49.2773 294.399 48.9149 294.482 48.5776 294.641C47.7557 294.923 47.051 295.523 46.5903 296.333C46.2887 297.036 46.1461 297.811 46.1748 298.589C46.1405 299.428 46.2074 300.268 46.3735 301.087C46.5587 301.903 46.887 302.67 47.3396 303.343C47.7921 304.017 48.3599 304.583 49.0101 305.01C49.6603 305.437 50.3799 305.717 51.1275 305.832C51.875 305.947 52.6356 305.895 53.3652 305.681" fill="white"/>
<path d="M51.9019 306.89C50.4289 306.898 48.9961 306.354 47.8331 305.346C46.6702 304.338 45.8445 302.923 45.4883 301.33C45.2986 300.426 45.2196 299.497 45.2535 298.57C45.2306 297.629 45.4103 296.697 45.7774 295.85C46.3472 294.81 47.2417 294.043 48.2887 293.694C48.7366 293.494 49.2151 293.391 49.6978 293.392C50.3368 293.475 50.9526 293.708 51.5045 294.077C52.442 294.587 53.2968 295.268 54.0338 296.092C54.8465 297.096 55.3415 298.37 55.443 299.718C55.4525 299.85 55.4385 299.983 55.4019 300.109C55.3652 300.236 55.3067 300.353 55.2295 300.454C55.1523 300.555 55.0581 300.638 54.9521 300.698C54.8461 300.759 54.7305 300.795 54.6119 300.806C54.4933 300.816 54.3739 300.801 54.2607 300.76C54.1475 300.719 54.0426 300.654 53.952 300.568C53.8614 300.482 53.7869 300.377 53.7327 300.258C53.6786 300.14 53.6458 300.011 53.6363 299.879C53.5619 298.972 53.2259 298.117 52.6788 297.441C52.0814 296.77 51.3847 296.218 50.6192 295.81C50.2938 295.585 49.9314 295.434 49.5533 295.366C49.3025 295.357 49.0536 295.419 48.8307 295.548C48.2164 295.747 47.6852 296.182 47.3311 296.777C47.1071 297.34 47.002 297.954 47.024 298.57C46.9904 299.321 47.0512 300.073 47.2047 300.806C47.5341 302.186 48.3306 303.37 49.4268 304.11C50.5217 304.809 51.8181 305.004 53.0401 304.654C53.2723 304.592 53.5169 304.633 53.7225 304.768C53.928 304.903 54.0785 305.122 54.1422 305.379C54.1749 305.506 54.1844 305.639 54.1701 305.77C54.1558 305.901 54.1181 306.028 54.0591 306.142C54.0002 306.257 53.9211 306.357 53.8268 306.437C53.7324 306.517 53.6247 306.575 53.5099 306.608C52.9862 306.774 52.4462 306.869 51.9019 306.89Z" fill="#231F20"/>
<path d="M64.368 296.394C64.368 296.394 67.4393 303.122 66.4276 304.089C65.4158 305.056 63.013 304.089 63.013 304.089" fill="white"/>
<path d="M65.1625 305.5C64.3138 305.479 63.4755 305.288 62.6874 304.936C62.5685 304.895 62.4584 304.828 62.3638 304.738C62.2693 304.648 62.1924 304.537 62.138 304.413C62.0836 304.288 62.0528 304.153 62.0476 304.014C62.0424 303.876 62.0629 303.737 62.1077 303.608C62.1526 303.479 62.2209 303.362 62.3083 303.263C62.3958 303.165 62.5005 303.087 62.616 303.036C62.7314 302.985 62.8551 302.961 62.9793 302.965C63.1035 302.97 63.2256 303.003 63.3378 303.062C64.0871 303.428 64.9146 303.547 65.7225 303.405C65.3259 301.108 64.6 298.897 63.5727 296.857C63.5086 296.738 63.4672 296.606 63.451 296.469C63.4349 296.332 63.4442 296.192 63.4786 296.059C63.513 295.926 63.5717 295.802 63.6509 295.695C63.7301 295.589 63.8282 295.501 63.9391 295.439C64.0499 295.376 64.1711 295.34 64.2952 295.332C64.4192 295.324 64.5433 295.345 64.6598 295.393C64.7763 295.441 64.8827 295.515 64.9723 295.611C65.0619 295.707 65.1328 295.823 65.1806 295.951C68.5589 303.384 67.4027 304.492 66.9872 304.855C66.4665 305.304 65.8199 305.532 65.1625 305.5Z" fill="#231F20"/>
<path d="M60.5699 294.891C60.6291 294.081 60.2579 293.387 59.7408 293.34C59.2236 293.293 58.7564 293.911 58.6972 294.721C58.6381 295.53 59.0093 296.224 59.5265 296.271C60.0436 296.318 60.5108 295.7 60.5699 294.891Z" fill="#231F20"/>
<path d="M70.2308 296.347C70.2849 295.537 69.9093 294.845 69.3919 294.802C68.8745 294.759 68.4112 295.381 68.3571 296.191C68.303 297.001 68.6785 297.693 69.1959 297.736C69.7133 297.779 70.1767 297.157 70.2308 296.347Z" fill="#231F20"/>
<path d="M63.5732 310.878C62.3219 310.894 61.0847 310.583 59.9599 309.972C58.9038 309.287 58.008 308.333 57.3455 307.188C56.683 306.043 56.2726 304.74 56.1479 303.384C56.1277 303.252 56.1311 303.116 56.1579 302.986C56.1847 302.855 56.2343 302.731 56.3039 302.622C56.3735 302.512 56.4618 302.419 56.5637 302.348C56.6656 302.276 56.779 302.228 56.8977 302.206C57.0163 302.183 57.1377 302.187 57.255 302.217C57.3724 302.247 57.4832 302.302 57.5814 302.38C57.6795 302.457 57.763 302.556 57.827 302.669C57.8911 302.783 57.9344 302.909 57.9546 303.042C58.0388 304.089 58.3426 305.1 58.8416 305.992C59.3406 306.884 60.0207 307.634 60.8271 308.179C63.8623 309.952 68.2524 307.756 68.2885 307.736C68.5098 307.631 68.7586 307.625 68.9837 307.719C69.2089 307.812 69.3933 307.999 69.499 308.239C69.592 308.483 69.5969 308.757 69.5127 309.005C69.4286 309.253 69.2618 309.455 69.0473 309.569C67.3178 310.403 65.4574 310.848 63.5732 310.878Z" fill="#231F20"/>
<path d="M65.9033 315.653C65.9033 315.653 58.9297 316.298 55.2802 313.115C55.2802 313.115 58.3515 323.973 64.8193 323.953L65.9033 315.653Z" fill="#231F20"/>
<path d="M64.7833 324.96C57.7735 324.96 54.5577 313.9 54.4131 313.416C54.3627 313.21 54.3703 312.991 54.4349 312.789C54.4995 312.587 54.618 312.413 54.7745 312.288C54.9292 312.162 55.1158 312.094 55.3074 312.094C55.499 312.094 55.6857 312.162 55.8404 312.288C59.1646 315.189 65.7589 314.625 65.8311 314.605C65.9652 314.598 66.0991 314.623 66.2238 314.679C66.3484 314.734 66.461 314.819 66.5538 314.927C66.6517 315.032 66.7244 315.163 66.7654 315.307C66.8065 315.451 66.8144 315.605 66.7886 315.753L65.7047 324.053C65.6862 324.308 65.5798 324.545 65.408 324.714C65.2362 324.883 65.0122 324.971 64.7833 324.96ZM57.087 315.391C58.2794 318.191 60.6099 322.341 64.0426 322.885L64.8555 316.72C62.2146 316.815 59.5808 316.364 57.087 315.391Z" fill="#231F20"/>
<path d="M27.2592 321.414C21.7128 322.643 4.58581 383.705 12.4266 390.172C24.6757 400.245 62.037 386.485 62.037 386.485L58.2973 368.515C58.2973 368.515 31.3241 369.946 30.8363 363.781C30.3485 357.616 45.9037 328.667 43.7177 324.436C41.5316 320.206 27.2592 321.414 27.2592 321.414Z" fill="#143561"/>
<path d="M55.5151 374.619C60.003 374.819 64.4972 374.481 68.9204 373.612C72.1868 372.643 75.5494 372.135 78.9293 372.101C83.3785 372.236 87.7707 373.253 91.901 375.102C92.0756 375.161 92.232 375.272 92.3526 375.425C92.7501 376.029 91.8287 376.654 91.1422 376.674C89.3594 376.768 87.5743 376.557 85.8487 376.049C90.1222 377.718 94.1799 380.008 97.9171 382.858C98.3507 383.181 98.8204 383.705 98.6217 384.249C98.4229 384.792 97.5738 384.692 97.0138 384.43L87.2579 379.655C89.7744 380.721 92.1177 382.239 94.1954 384.148C94.4845 384.43 94.8097 384.792 94.7374 385.216C94.6109 385.961 93.6353 385.84 93.0391 385.518C90.0697 383.957 87.2285 382.11 84.5479 379.998L90.6002 384.954C90.6002 385.498 90.1846 385.961 89.6968 386.001C89.2015 385.973 88.7216 385.799 88.3057 385.498L81.585 381.348L85.7945 384.51C86.463 384.994 87.2037 385.8 86.8966 386.626C86.5894 387.452 85.2706 387.311 84.4034 386.908C80.9514 385.325 77.352 384.177 73.6719 383.483C72.3869 383.038 71.0585 382.768 69.7154 382.677C67.6659 383.018 65.6469 383.558 63.6812 384.289C60.7002 385.095 57.7012 385.941 54.6479 386.787" fill="white"/>
<path d="M85.8308 388.258C85.2086 388.242 84.5951 388.091 84.0242 387.815C80.6297 386.262 77.0911 385.133 73.4734 384.45C73.0037 384.45 72.552 384.209 72.1003 384.088C71.3247 383.805 70.5135 383.662 69.6975 383.665C68.3414 383.811 67.0065 384.143 65.7229 384.652C65.0725 384.853 64.4402 385.075 63.8259 385.236L54.9372 387.714C54.8316 387.747 54.7211 387.756 54.6123 387.74C54.5035 387.725 54.3986 387.685 54.3041 387.622C54.2096 387.56 54.1273 387.477 54.0622 387.379C53.9972 387.28 53.9507 387.168 53.9255 387.049C53.876 386.814 53.9105 386.567 54.0219 386.36C54.1332 386.153 54.3125 386.003 54.5217 385.941L63.5549 383.423C64.1511 383.262 64.7473 383.06 65.3616 382.859C66.7705 382.318 68.2321 381.967 69.7156 381.811C70.7013 381.788 71.6839 381.944 72.6243 382.275C73.0386 382.42 73.4611 382.534 73.8889 382.617C77.6072 383.326 81.243 384.494 84.7287 386.102C85.1542 386.336 85.631 386.426 86.1018 386.364C86.1018 386.203 85.9934 385.8 85.3249 385.297L81.1335 382.154C80.9787 382.013 80.8746 381.814 80.8405 381.594C80.8063 381.375 80.8443 381.149 80.9475 380.958C81.0506 380.767 81.2121 380.624 81.4023 380.555C81.5924 380.486 81.7985 380.496 81.9827 380.582L88.7034 384.732C88.8767 384.843 89.058 384.937 89.2453 385.014L84.0603 380.784C83.8876 380.636 83.7726 380.419 83.739 380.179C83.7053 379.939 83.7557 379.694 83.8796 379.495C84.0096 379.298 84.204 379.166 84.4206 379.128C84.6371 379.091 84.8583 379.15 85.0359 379.293C87.6739 381.368 90.4663 383.188 93.3826 384.732H93.5452C92.168 383.485 90.6714 382.411 89.0828 381.529L86.9328 380.482C86.8343 380.435 86.7449 380.368 86.6698 380.283C86.5947 380.198 86.5353 380.098 86.495 379.988C86.4548 379.877 86.4344 379.759 86.4351 379.64C86.4359 379.521 86.4576 379.403 86.4993 379.293C86.5799 379.072 86.7338 378.894 86.929 378.797C87.1242 378.699 87.3456 378.689 87.5471 378.769C88.3059 379.092 89.0647 379.454 89.7873 379.857L97.321 383.504H97.4656C93.7967 380.689 89.8042 378.439 85.5959 376.815C85.3851 376.743 85.2086 376.58 85.1053 376.363C85.0019 376.146 84.9802 375.892 85.0449 375.657C85.1096 375.422 85.2554 375.225 85.4502 375.11C85.645 374.994 85.8729 374.97 86.0837 375.042C87.7272 375.525 89.4264 375.728 91.1243 375.647C87.188 373.978 83.03 373.052 78.821 372.907C75.9321 372.903 73.0545 373.309 70.2576 374.116L69.029 374.398C64.5768 375.345 60.0464 375.757 55.5154 375.627C55.4079 375.627 55.3015 375.602 55.2026 375.555C55.1037 375.508 55.0144 375.439 54.9401 375.353C54.8658 375.266 54.808 375.164 54.7703 375.051C54.7325 374.939 54.7156 374.82 54.7204 374.7C54.7252 374.458 54.8148 374.227 54.9702 374.058C55.1255 373.888 55.3342 373.793 55.5515 373.793C59.9792 373.977 64.4119 373.639 68.7761 372.786L70.0046 372.504C72.9577 371.672 75.992 371.252 79.0378 371.255C83.5932 371.394 88.0898 372.438 92.3166 374.337C92.6278 374.46 92.9027 374.676 93.1116 374.962C93.2549 375.165 93.343 375.409 93.3654 375.666C93.3879 375.923 93.3436 376.182 93.238 376.412C93.0508 376.769 92.7883 377.069 92.4735 377.286C92.1587 377.504 91.8009 377.633 91.4314 377.661C93.8738 378.971 96.2232 380.486 98.4592 382.194C99.8142 383.221 99.5974 384.209 99.4529 384.672C99.3838 384.868 99.2792 385.046 99.1455 385.196C99.0118 385.345 98.852 385.461 98.676 385.538C98.0396 385.745 97.3571 385.68 96.761 385.357L95.6047 384.793C95.6505 385.039 95.6505 385.292 95.6047 385.538C95.5652 385.771 95.4777 385.991 95.3492 386.179C95.2206 386.368 95.0546 386.521 94.864 386.626C94.5204 386.775 94.1522 386.839 93.7843 386.815C93.4164 386.79 93.0576 386.678 92.7322 386.485C92.2986 386.264 91.8469 386.022 91.4133 385.76C91.3551 385.953 91.263 386.131 91.1423 386.284C90.9799 386.513 90.7745 386.701 90.5405 386.833C90.3065 386.965 90.0495 387.039 89.7873 387.049C89.1469 387.036 88.5221 386.827 87.9807 386.445H87.8723C87.8708 386.7 87.8279 386.952 87.7458 387.19C87.6593 387.429 87.5296 387.645 87.3649 387.825C87.2002 388.005 87.0039 388.146 86.7883 388.238C86.4748 388.327 86.1471 388.334 85.8308 388.258Z" fill="#231F20"/>
<path d="M75.3887 328.143C76.9062 329.795 81.1338 356.166 82.7236 368.636L75.3887 328.143Z" fill="white"/>
<path d="M82.7054 369.583C82.5073 369.585 82.3154 369.506 82.1657 369.361C82.016 369.217 81.9188 369.016 81.8924 368.797C80.0858 355.017 76.075 330.52 74.7923 328.828C74.7131 328.743 74.65 328.642 74.6069 328.529C74.5638 328.417 74.5416 328.296 74.5416 328.173C74.5416 328.051 74.5638 327.93 74.6069 327.817C74.65 327.705 74.7131 327.603 74.7923 327.518C74.9481 327.345 75.1593 327.248 75.3795 327.248C75.5996 327.248 75.8108 327.345 75.9666 327.518C77.972 329.694 82.5609 360.779 83.5365 368.535C83.5545 368.654 83.5508 368.777 83.5259 368.894C83.5009 369.012 83.4551 369.123 83.3911 369.22C83.3272 369.318 83.2463 369.4 83.1534 369.463C83.0605 369.525 82.9573 369.566 82.85 369.583H82.7054Z" fill="#231F20"/>
<path d="M41.7125 393.355C41.5042 393.355 41.3024 393.275 41.1411 393.128C40.9797 392.981 40.8689 392.777 40.8272 392.549C40.8037 392.418 40.8038 392.283 40.8275 392.152C40.8512 392.021 40.898 391.897 40.9653 391.786C41.0325 391.676 41.1189 391.581 41.2192 391.508C41.3196 391.435 41.432 391.385 41.5499 391.361L53.8712 388.722L53.9796 372.968L30.4932 370.792C30.3599 370.776 30.2312 370.728 30.1159 370.651C30.0006 370.575 29.9014 370.472 29.8248 370.349C29.7518 370.229 29.7027 370.094 29.6809 369.951C29.659 369.809 29.665 369.662 29.6983 369.523L39.5445 328.647C39.6079 328.391 39.7592 328.174 39.9656 328.042C40.1719 327.91 40.4166 327.874 40.6466 327.942C40.7627 327.972 40.8721 328.028 40.9678 328.108C41.0635 328.187 41.1436 328.287 41.2029 328.403C41.2623 328.518 41.2996 328.646 41.3127 328.778C41.3258 328.91 41.3143 329.044 41.2789 329.171L31.7217 368.878L54.9913 371.034C55.2182 371.054 55.4298 371.169 55.5838 371.356C55.7379 371.542 55.8231 371.787 55.8224 372.041L55.714 389.548C55.7132 389.783 55.6387 390.01 55.5034 390.19C55.3682 390.371 55.1806 390.492 54.9732 390.535L41.9293 393.335L41.7125 393.355Z" fill="#231F20"/>
<path d="M114.376 397.586L125.739 363.681L79.3268 364.708L68.9205 403.388L114.376 397.586Z" fill="white"/>
<path d="M68.9203 404.375C68.7889 404.375 68.6591 404.342 68.5403 404.28C68.4216 404.217 68.3169 404.125 68.2337 404.012C68.1391 403.885 68.0732 403.735 68.0418 403.573C68.0103 403.412 68.0142 403.245 68.0531 403.085L78.4593 364.426C78.5156 364.221 78.6277 364.041 78.7799 363.911C78.9321 363.781 79.1168 363.708 79.3084 363.7L125.721 362.673C125.868 362.672 126.014 362.71 126.146 362.783C126.278 362.857 126.392 362.964 126.48 363.096C126.559 363.235 126.61 363.392 126.628 363.556C126.647 363.72 126.633 363.886 126.588 364.043L115.225 397.948C115.161 398.121 115.057 398.272 114.924 398.386C114.791 398.499 114.632 398.571 114.466 398.593L69.0287 404.375H68.9203ZM80.013 365.695L70.1849 402.199L113.725 396.659L124.42 364.708L80.013 365.695Z" fill="#231F20"/>
<path d="M111.9 397.908C111.9 397.908 124.547 409.31 120.03 419.766C115.514 430.222 35.2083 442.108 35.2083 442.108L31.595 428.449C31.595 428.449 94.683 392.569 111.9 397.908Z" fill="#231F20"/>
<path d="M35.2085 443.176C35.013 443.176 34.8228 443.105 34.6665 442.974C34.5101 442.843 34.396 442.66 34.3413 442.45L30.728 428.792C30.6701 428.566 30.6833 428.325 30.7655 428.108C30.8477 427.892 30.9939 427.714 31.1797 427.603C33.7812 426.132 94.7916 391.562 112.153 396.941C112.272 396.977 112.382 397.038 112.479 397.122C113.021 397.606 125.577 409.21 120.861 420.189C116.327 430.846 43.6274 441.927 35.3349 443.156L35.2085 443.176ZM32.6611 429.074L35.8589 441.161C67.9629 436.346 116.128 426.676 119.217 419.444C123.066 410.398 112.822 400.205 111.467 398.915C95.4781 394.242 39.436 425.226 32.6611 429.013V429.074Z" fill="#231F20"/>
<path d="M27.4039 392.67C27.4039 392.67 89.8776 420.874 105.379 428.268L96.3454 443.8C96.3454 443.8 38.6593 442.551 22.1104 426.374C5.56157 410.197 6.73589 383.302 27.4039 392.67Z" fill="#231F20"/>
<path d="M96.3635 444.807C93.9968 444.807 38.1534 443.356 21.5504 427.139C10.7105 416.462 7.53083 401.634 11.4874 394.463C14.3238 389.346 20.2677 388.419 27.7472 391.723C28.3614 392.005 90.4016 419.927 105.722 427.34C105.844 427.398 105.953 427.483 106.044 427.59C106.134 427.698 106.203 427.826 106.246 427.965C106.282 428.107 106.291 428.255 106.273 428.401C106.254 428.547 106.208 428.686 106.137 428.811L97.1042 444.343C97.0243 444.482 96.9149 444.597 96.7857 444.678C96.6566 444.759 96.5116 444.803 96.3635 444.807ZM19.7437 391.743C18.4214 391.64 17.0987 391.938 15.9156 392.604C14.7325 393.271 13.7331 394.282 13.023 395.53C9.40975 401.977 12.4991 415.676 22.7247 425.628C38.027 440.576 90.1848 442.611 95.8757 442.772L104.042 428.67C87.2219 420.612 27.6749 393.838 27.0607 393.556C24.7479 392.436 22.2641 391.821 19.7437 391.743Z" fill="#231F20"/>
<path d="M114.592 384.048C114.663 384.451 114.818 384.831 115.044 385.156L116.254 387.17C116.21 386.961 116.124 386.766 116.005 386.598C115.885 386.43 115.734 386.293 115.562 386.197C115.389 386.101 115.201 386.048 115.008 386.042C114.816 386.036 114.624 386.078 114.448 386.163C114.107 386.373 113.824 386.683 113.629 387.059C113.435 387.435 113.337 387.864 113.346 388.298C113.371 389.177 113.555 390.04 113.888 390.837C114.737 393.335 116.706 397.001 119.524 395.108C121.44 393.818 121.982 389.285 122.253 387.049C122.776 382.597 121.566 376.976 116.435 377.762C116.573 379.969 117.311 382.077 118.549 383.806C117.718 382.819 114.357 381.429 114.592 384.048Z" fill="white"/>
<path d="M117.989 396.538C117.626 396.542 117.265 396.473 116.923 396.337C116.011 395.8 115.204 395.065 114.549 394.176C113.894 393.287 113.406 392.262 113.111 391.159C112.747 390.251 112.544 389.272 112.515 388.278C112.503 387.665 112.647 387.061 112.932 386.536C113.217 386.012 113.63 385.589 114.123 385.317C113.914 384.967 113.784 384.566 113.743 384.148C113.646 383.696 113.692 383.221 113.873 382.802C114.054 382.384 114.359 382.048 114.737 381.852C115.281 381.603 115.88 381.547 116.453 381.691C115.958 380.463 115.664 379.146 115.586 377.802C115.566 377.573 115.626 377.344 115.754 377.164C115.882 376.983 116.068 376.866 116.273 376.835C117.125 376.633 118.008 376.663 118.848 376.923C119.688 377.182 120.459 377.664 121.096 378.326C123.048 380.462 123.373 384.37 123.03 387.15C122.686 389.93 122.144 394.382 119.922 395.893C119.339 396.293 118.673 396.515 117.989 396.538ZM114.972 386.969H114.791C114.591 387.105 114.427 387.298 114.316 387.528C114.205 387.758 114.15 388.017 114.159 388.278C114.207 389.036 114.372 389.779 114.647 390.474C115.078 392.176 116.09 393.622 117.465 394.503C117.741 394.604 118.034 394.629 118.32 394.576C118.606 394.524 118.877 394.395 119.109 394.201C120.663 393.174 121.187 388.762 121.422 386.888C121.654 385.618 121.646 384.307 121.397 383.041C121.148 381.775 120.664 380.58 119.976 379.535C119.625 379.172 119.212 378.891 118.763 378.708C118.313 378.525 117.835 378.443 117.357 378.467C117.602 380.144 118.223 381.724 119.163 383.06C119.286 383.251 119.343 383.484 119.323 383.718C119.303 383.951 119.208 384.169 119.055 384.33C118.902 384.485 118.702 384.572 118.495 384.572C118.288 384.572 118.088 384.485 117.935 384.33C117.24 383.684 116.343 383.372 115.442 383.463C115.351 383.463 115.442 383.786 115.442 383.907C115.507 384.151 115.618 384.377 115.767 384.571L116.363 385.579C116.573 385.743 116.75 385.956 116.881 386.203C117.012 386.449 117.094 386.724 117.122 387.009C117.138 387.214 117.094 387.419 116.996 387.594C116.898 387.768 116.752 387.902 116.58 387.976C116.404 388.046 116.213 388.049 116.036 387.983C115.859 387.917 115.707 387.787 115.604 387.613L115.207 386.949L114.972 386.969Z" fill="#231F20"/>
<path d="M97.0681 425.65C96.9543 425.669 96.8386 425.669 96.7248 425.65C95.3698 425.045 63.1212 411.124 55.8224 406.148C55.7016 406.087 55.5939 405.997 55.5065 405.885C55.419 405.774 55.3538 405.643 55.3152 405.501C55.2765 405.359 55.2653 405.21 55.2822 405.063C55.2991 404.916 55.3438 404.775 55.4133 404.648C55.4828 404.522 55.5755 404.414 55.6854 404.33C55.7952 404.247 55.9197 404.19 56.0506 404.165C56.1815 404.139 56.3157 404.144 56.4446 404.181C56.5734 404.217 56.6938 404.284 56.7979 404.376C64.0245 409.271 97.0681 423.554 97.4114 423.695C97.6372 423.803 97.8175 424.002 97.915 424.254C98.0125 424.505 98.0197 424.788 97.9353 425.045C97.8624 425.232 97.7406 425.39 97.5858 425.497C97.431 425.605 97.2505 425.658 97.0681 425.65Z" fill="white"/>
<path d="M448.948 445.594C448.354 445.595 447.776 445.38 447.302 444.979C446.829 444.579 446.487 444.016 446.328 443.378L357.984 89.6981C357.792 88.9234 357.884 88.0955 358.24 87.3966C358.596 86.6976 359.186 86.1849 359.88 85.9712C360.575 85.7575 361.318 85.8603 361.945 86.257C362.571 86.6536 363.031 87.3117 363.223 88.0865L451.55 441.766C451.752 442.527 451.675 443.347 451.337 444.045C450.998 444.744 450.425 445.264 449.743 445.493C449.483 445.562 449.216 445.596 448.948 445.594Z" fill="#231F20"/>
<path d="M385.173 445.593C384.581 445.597 384.004 445.382 383.533 444.981C383.062 444.58 382.724 444.016 382.572 443.377L294.227 89.6977C294.059 88.9344 294.165 88.1282 294.521 87.4501C294.877 86.772 295.457 86.2755 296.136 86.0658C296.815 85.8562 297.541 85.9498 298.159 86.327C298.778 86.7042 299.24 87.3351 299.448 88.086L387.793 441.765C387.982 442.54 387.888 443.366 387.533 444.065C387.178 444.763 386.589 445.276 385.896 445.492C385.659 445.555 385.417 445.589 385.173 445.593Z" fill="#231F20"/>
<path d="M366.041 118.184H303.405C302.686 118.184 301.997 117.865 301.489 117.299C300.981 116.732 300.695 115.963 300.695 115.162C300.695 114.361 300.981 113.592 301.489 113.025C301.997 112.459 302.686 112.14 303.405 112.14H366.041C366.76 112.14 367.449 112.459 367.958 113.025C368.466 113.592 368.751 114.361 368.751 115.162C368.751 115.963 368.466 116.732 367.958 117.299C367.449 117.865 366.76 118.184 366.041 118.184Z" fill="#231F20"/>
<path d="M375.508 156.038H312.872C312.153 156.038 311.464 155.719 310.956 155.153C310.448 154.586 310.162 153.817 310.162 153.016C310.162 152.215 310.448 151.446 310.956 150.879C311.464 150.313 312.153 149.994 312.872 149.994H375.508C376.227 149.994 376.916 150.313 377.424 150.879C377.933 151.446 378.218 152.215 378.218 153.016C378.218 153.817 377.933 154.586 377.424 155.153C376.916 155.719 376.227 156.038 375.508 156.038Z" fill="#231F20"/>
<path d="M384.975 193.992H322.339C321.62 193.992 320.93 193.674 320.422 193.107C319.914 192.54 319.629 191.772 319.629 190.97C319.629 190.169 319.914 189.4 320.422 188.834C320.93 188.267 321.62 187.948 322.339 187.948H384.975C385.694 187.948 386.383 188.267 386.891 188.834C387.399 189.4 387.685 190.169 387.685 190.97C387.685 191.772 387.399 192.54 386.891 193.107C386.383 193.674 385.694 193.992 384.975 193.992Z" fill="#231F20"/>
<path d="M394.442 231.907H331.805C331.087 231.907 330.397 231.589 329.889 231.022C329.381 230.455 329.095 229.687 329.095 228.885C329.095 228.084 329.381 227.315 329.889 226.748C330.397 226.182 331.087 225.863 331.805 225.863H394.442C395.16 225.863 395.85 226.182 396.358 226.748C396.866 227.315 397.152 228.084 397.152 228.885C397.152 229.687 396.866 230.455 396.358 231.022C395.85 231.589 395.16 231.907 394.442 231.907Z" fill="#231F20"/>
<path d="M403.908 269.801H341.272C340.553 269.801 339.864 269.483 339.356 268.916C338.848 268.349 338.562 267.581 338.562 266.779C338.562 265.978 338.848 265.209 339.356 264.642C339.864 264.076 340.553 263.757 341.272 263.757H403.908C404.627 263.757 405.317 264.076 405.825 264.642C406.333 265.209 406.618 265.978 406.618 266.779C406.618 267.581 406.333 268.349 405.825 268.916C405.317 269.483 404.627 269.801 403.908 269.801Z" fill="#231F20"/>
<path d="M413.375 307.715H350.739C350.02 307.715 349.331 307.397 348.823 306.83C348.314 306.264 348.029 305.495 348.029 304.694C348.029 303.892 348.314 303.123 348.823 302.557C349.331 301.99 350.02 301.672 350.739 301.672H413.375C414.094 301.672 414.783 301.99 415.292 302.557C415.8 303.123 416.085 303.892 416.085 304.694C416.085 305.495 415.8 306.264 415.292 306.83C414.783 307.397 414.094 307.715 413.375 307.715Z" fill="#231F20"/>
<path d="M422.842 345.63H360.206C359.487 345.63 358.798 345.311 358.289 344.745C357.781 344.178 357.496 343.409 357.496 342.608C357.496 341.806 357.781 341.038 358.289 340.471C358.798 339.904 359.487 339.586 360.206 339.586H422.842C423.561 339.586 424.25 339.904 424.758 340.471C425.266 341.038 425.552 341.806 425.552 342.608C425.552 343.409 425.266 344.178 424.758 344.745C424.25 345.311 423.561 345.63 422.842 345.63Z" fill="#231F20"/>
<path d="M432.309 383.524H369.672C368.954 383.524 368.264 383.205 367.756 382.639C367.248 382.072 366.963 381.303 366.963 380.502C366.963 379.7 367.248 378.932 367.756 378.365C368.264 377.798 368.954 377.48 369.672 377.48H432.309C433.027 377.48 433.717 377.798 434.225 378.365C434.733 378.932 435.019 379.7 435.019 380.502C435.019 381.303 434.733 382.072 434.225 382.639C433.717 383.205 433.027 383.524 432.309 383.524Z" fill="#231F20"/>
<path d="M441.775 421.438H379.139C378.42 421.438 377.731 421.12 377.223 420.553C376.715 419.986 376.429 419.218 376.429 418.416C376.429 417.615 376.715 416.846 377.223 416.279C377.731 415.713 378.42 415.394 379.139 415.394H441.775C442.494 415.394 443.184 415.713 443.692 416.279C444.2 416.846 444.485 417.615 444.485 418.416C444.485 419.218 444.2 419.986 443.692 420.553C443.184 421.12 442.494 421.438 441.775 421.438Z" fill="#231F20"/>
<path d="M403.276 132.75C403.276 132.75 392.562 116.895 396.935 106.399C396.935 106.399 392.924 105.009 396.736 99.5495C399.696 95.6613 403.76 93.0195 408.253 92.063C412.745 91.1064 417.396 91.8928 421.433 94.2914L417.819 96.306C420.911 95.2317 424.242 95.3921 427.239 96.7599C430.236 98.1276 432.712 100.617 434.242 103.8L430.231 105.432L427.882 127.331L403.276 132.75Z" fill="white"/>
<path d="M403.276 133.677C403.148 133.676 403.022 133.641 402.909 133.574C402.795 133.508 402.698 133.411 402.626 133.294C402.174 132.649 392.183 117.661 395.869 106.842C395.19 106.38 394.679 105.667 394.423 104.828C394.261 103.78 394.328 102.704 394.617 101.69C394.906 100.677 395.41 99.7563 396.085 99.0057C399.172 94.9679 403.399 92.2216 408.072 91.2184C412.744 90.2152 417.583 91.0148 421.794 93.4858C421.933 93.5555 422.052 93.6686 422.135 93.8115C422.219 93.9545 422.263 94.1211 422.264 94.2916C422.265 94.454 422.227 94.6138 422.155 94.755C424.803 94.7355 427.405 95.5275 429.676 97.0445C431.948 98.5615 433.802 100.745 435.037 103.357C435.086 103.477 435.111 103.608 435.111 103.74C435.111 103.872 435.086 104.003 435.037 104.123C434.993 104.252 434.926 104.368 434.838 104.466C434.751 104.563 434.646 104.638 434.531 104.687L431.008 106.117L428.713 127.472C428.691 127.662 428.617 127.839 428.5 127.98C428.384 128.12 428.231 128.217 428.063 128.257L403.366 133.677H403.276ZM411.857 92.6598C409.105 92.6436 406.384 93.3029 403.886 94.5912C401.388 95.8794 399.175 97.7648 397.404 100.114C396.212 101.826 395.724 103.236 395.995 104.244C396.099 104.538 396.257 104.806 396.459 105.028C396.662 105.25 396.904 105.422 397.169 105.533C397.282 105.57 397.385 105.635 397.473 105.722C397.56 105.809 397.63 105.916 397.675 106.037C397.721 106.154 397.744 106.281 397.744 106.409C397.744 106.537 397.721 106.664 397.675 106.782C393.972 115.707 401.957 129.083 403.637 131.722L427.232 126.565L429.49 105.311C429.507 105.142 429.567 104.982 429.663 104.85C429.759 104.718 429.887 104.619 430.032 104.566L433.086 103.317C431.556 100.612 429.264 98.5505 426.569 97.4565C423.874 96.3625 420.93 96.298 418.199 97.2732C417.999 97.3542 417.78 97.3472 417.585 97.2536C417.39 97.16 417.235 96.9868 417.151 96.7696C417.073 96.557 417.069 96.3198 417.139 96.1039C417.209 95.888 417.349 95.7088 417.53 95.6011L419.518 94.4528C417.09 93.3151 414.49 92.7065 411.857 92.6598Z" fill="#231F20"/>
<path d="M442.287 323.735L442.573 323.784C444.417 324.099 446.141 322.687 446.424 320.63L453.359 270.15C453.642 268.093 452.376 266.171 450.532 265.856L450.246 265.807C448.401 265.492 446.677 266.903 446.395 268.96L439.459 319.441C439.177 321.497 440.443 323.42 442.287 323.735Z" fill="white"/>
<path d="M443.113 324.739H442.462H442.155C441.059 324.55 440.074 323.884 439.417 322.887C438.76 321.89 438.484 320.644 438.65 319.42L445.588 268.855C445.671 268.25 445.861 267.67 446.146 267.148C446.431 266.626 446.806 266.172 447.25 265.813C448.147 265.073 449.272 264.762 450.375 264.946H450.682C451.779 265.135 452.764 265.801 453.421 266.798C454.078 267.795 454.353 269.041 454.187 270.265L447.25 320.79C447.169 321.398 446.98 321.982 446.695 322.508C446.409 323.033 446.033 323.491 445.588 323.853C444.867 324.431 444.001 324.741 443.113 324.739ZM442.408 322.724H442.715C443.383 322.835 444.063 322.647 444.607 322.202C445.152 321.757 445.517 321.09 445.624 320.347L452.561 269.842C452.614 269.472 452.599 269.094 452.519 268.731C452.438 268.368 452.293 268.026 452.092 267.726C451.692 267.122 451.095 266.716 450.429 266.598H450.122C449.792 266.539 449.454 266.553 449.129 266.64C448.803 266.726 448.496 266.883 448.225 267.102C447.957 267.32 447.73 267.597 447.559 267.916C447.389 268.234 447.277 268.588 447.232 268.955L440.33 319.561C440.232 320.306 440.4 321.064 440.799 321.671C441.198 322.279 441.796 322.686 442.462 322.805L442.408 322.724Z" fill="#231F20"/>
<path d="M448.948 241.677C448.948 241.677 440.746 275.26 444.269 273.568C448.243 271.553 450.393 261.481 450.393 261.481C450.393 261.481 453.374 267.142 453.374 270.184C453.374 273.226 449.58 283.721 452.579 284.406C455.578 285.091 462.932 267.484 462.1 263.415C461.296 260.128 460.207 256.937 458.849 253.886L460.204 244.478" fill="white"/>
<path d="M452.76 285.273C452.646 285.294 452.53 285.294 452.417 285.273C452.141 285.227 451.878 285.11 451.649 284.932C451.42 284.754 451.231 284.519 451.098 284.246C450.104 282.513 450.736 279.108 451.766 274.515C452.138 273.086 452.398 271.623 452.543 270.144C452.266 267.954 451.622 265.843 450.646 263.918C449.725 267.162 447.719 272.944 444.594 274.455C444.371 274.569 444.124 274.61 443.881 274.575C443.638 274.539 443.409 274.428 443.221 274.253C441.053 272.239 445.371 252.818 448.153 241.476C448.18 241.359 448.228 241.249 448.294 241.153C448.36 241.056 448.442 240.976 448.537 240.916C448.631 240.856 448.735 240.817 448.843 240.803C448.951 240.788 449.06 240.798 449.165 240.831C449.374 240.897 449.553 241.053 449.661 241.264C449.769 241.475 449.798 241.725 449.743 241.96C446.509 255.175 443.691 269.761 444.323 272.581C447.105 270.828 449.11 263.878 449.743 261.259C449.777 261.08 449.86 260.917 449.979 260.791C450.098 260.665 450.249 260.583 450.411 260.554C450.576 260.527 450.745 260.554 450.896 260.633C451.047 260.712 451.173 260.839 451.26 260.997C451.387 261.239 454.35 266.9 454.35 270.144C454.21 271.774 453.932 273.386 453.519 274.958C452.886 277.779 451.929 282.05 452.633 283.279C452.659 283.331 452.696 283.376 452.739 283.411C452.783 283.446 452.833 283.47 452.886 283.48C452.886 283.48 453.23 283.48 454.006 282.614C457.511 278.585 462.01 266.497 461.45 263.596C460.65 260.388 459.579 257.272 458.252 254.289C458.201 254.105 458.201 253.908 458.252 253.725L459.625 244.296C459.665 244.061 459.785 243.852 459.96 243.713C460.135 243.574 460.352 243.516 460.565 243.551C460.672 243.568 460.775 243.609 460.868 243.671C460.961 243.734 461.042 243.816 461.106 243.914C461.17 244.011 461.216 244.122 461.24 244.24C461.265 244.357 461.269 244.479 461.251 244.599L459.932 253.725C461.276 256.758 462.353 259.929 463.148 263.193C463.925 267.041 458.65 280.075 455.271 283.903C454.964 284.318 454.582 284.655 454.149 284.891C453.715 285.128 453.242 285.258 452.76 285.273Z" fill="#231F20"/>
<path d="M375.707 284.366L382.265 302.497C382.265 302.497 363.06 310.878 357.857 312.107C352.654 313.336 352.437 310.697 359.483 303.505C364.903 297.884 367.017 297.139 367.017 297.139L363.512 290.108L375.707 284.366Z" fill="white"/>
<path d="M355.798 313.356C355.348 313.421 354.892 313.344 354.48 313.134C354.068 312.924 353.717 312.589 353.467 312.168C352.925 310.999 353.051 308.904 358.887 302.86C360.991 300.556 363.325 298.529 365.842 296.817L362.753 290.652C362.663 290.407 362.663 290.132 362.753 289.887C362.789 289.765 362.848 289.653 362.926 289.559C363.003 289.465 363.099 289.392 363.205 289.343L375.4 283.581C375.604 283.501 375.827 283.501 376.032 283.581C376.134 283.625 376.227 283.693 376.305 283.78C376.383 283.867 376.444 283.97 376.484 284.085L383.06 302.216C383.141 302.442 383.141 302.695 383.06 302.921C382.968 303.143 382.808 303.322 382.608 303.425C381.813 303.767 363.277 311.845 358.074 313.074C357.326 313.255 356.563 313.35 355.798 313.356ZM364.686 290.592L367.739 296.635C367.792 296.758 367.82 296.892 367.82 297.028C367.82 297.164 367.792 297.298 367.739 297.421C367.694 297.55 367.623 297.665 367.533 297.759C367.442 297.853 367.334 297.924 367.216 297.965C367.216 297.965 365.138 298.811 359.989 304.13C354.443 309.831 354.858 311.221 354.876 311.241C354.894 311.261 355.292 311.704 357.64 311.241C362.121 310.173 377.513 303.586 381.127 301.994L375.291 285.595L364.686 290.592Z" fill="#231F20"/>
<path d="M407.251 359.268C407.493 362.889 407.244 366.529 406.51 370.067C405.138 374.757 404.526 379.682 404.703 384.612C405.155 388.5 408.877 393.174 412.562 391.28C416.248 389.386 417.693 377.561 417.567 374.378C417.233 369.1 417.342 363.799 417.892 358.543L407.251 359.268Z" fill="white"/>
<path d="M410.719 392.629C409.793 392.617 408.885 392.339 408.082 391.824C406.945 391.064 405.973 390.035 405.233 388.81C404.493 387.584 404.004 386.192 403.8 384.732C403.222 379.756 405.119 372.04 405.715 369.804C406.419 366.371 406.662 362.841 406.438 359.328C406.429 359.208 406.442 359.087 406.476 358.973C406.51 358.859 406.565 358.754 406.636 358.664C406.706 358.567 406.794 358.488 406.894 358.432C406.994 358.377 407.103 358.346 407.215 358.341L417.747 357.636C417.874 357.623 418.002 357.646 418.118 357.702C418.235 357.758 418.337 357.847 418.416 357.958C418.498 358.065 418.558 358.191 418.589 358.328C418.621 358.464 418.623 358.607 418.596 358.744C418.067 363.806 417.965 368.912 418.289 373.995V374.337C418.38 376.815 417.205 389.829 412.869 392.106C412.195 392.452 411.462 392.631 410.719 392.629ZM408.136 360.114C408.312 363.546 408.032 366.988 407.305 370.328C405.967 374.874 405.355 379.648 405.498 384.43C405.656 385.607 406.046 386.731 406.639 387.72C407.233 388.709 408.015 389.54 408.931 390.151C409.411 390.486 409.958 390.681 410.523 390.72C411.087 390.759 411.652 390.639 412.165 390.373C415.236 388.782 416.844 377.802 416.717 374.256V373.934C416.428 369.129 416.47 364.307 416.844 359.51L408.136 360.114Z" fill="#231F20"/>
<path d="M436.32 204.166C434.387 202.816 391.009 213.413 391.009 213.413C391.009 213.413 338.436 224.009 339.827 238.716C341.218 253.422 362.645 293.029 362.645 293.029L378.814 288.093L364.578 249.816H396.718C396.718 249.816 407.811 337.35 404.649 363.277L420.403 366.017L436.32 204.166Z" fill="#231F20"/>
<path d="M420.457 366.904H420.331L404.595 364.164C404.493 364.149 404.394 364.112 404.305 364.054C404.215 363.996 404.137 363.919 404.075 363.827C404.013 363.735 403.967 363.63 403.942 363.519C403.917 363.407 403.911 363.291 403.927 363.177C406.799 338.861 397.17 259.466 396.104 250.784H365.788L379.573 287.751C379.617 287.869 379.64 287.996 379.64 288.124C379.64 288.252 379.617 288.378 379.573 288.497C379.464 288.717 379.283 288.883 379.067 288.96L362.898 293.875C362.73 293.928 362.552 293.919 362.389 293.85C362.227 293.781 362.088 293.656 361.994 293.493C361.127 291.861 340.459 253.564 339.068 238.857C337.605 223.506 388.697 213.03 390.883 212.668C403.981 209.465 434.748 202.132 436.753 203.542C436.878 203.631 436.979 203.758 437.042 203.907C437.106 204.057 437.131 204.223 437.115 204.388L421.216 366.219C421.181 366.46 421.072 366.681 420.909 366.843C420.766 366.91 420.61 366.931 420.457 366.904ZM405.589 362.532L419.753 364.99L435.489 204.912C431.099 204.912 406.582 210.532 391.226 214.279C376.773 217.201 339.592 227.233 340.64 238.616C341.923 251.992 360.423 286.965 363.06 291.941L377.766 287.469L363.873 250.179C363.816 250.051 363.786 249.91 363.786 249.766C363.786 249.623 363.816 249.482 363.873 249.353C363.948 249.232 364.048 249.132 364.164 249.062C364.28 248.992 364.41 248.953 364.542 248.95H396.7C396.889 248.957 397.07 249.037 397.212 249.177C397.354 249.317 397.448 249.507 397.477 249.716C397.983 253.302 408.281 335.738 405.534 362.532H405.589Z" fill="#231F20"/>
<path d="M434.802 249.413L374.785 215.165C374.785 215.165 390.738 156.017 398.073 147.274C405.408 138.531 435.163 142.983 439.517 151.565C443.871 160.147 438.777 216.576 434.802 249.413Z" fill="#143561"/>
<path d="M407.612 138.35L406.889 149.732C406.994 150.606 407.27 151.444 407.697 152.186C408.123 152.929 408.69 153.559 409.358 154.031C410.026 154.503 410.779 154.807 411.563 154.92C412.348 155.034 413.145 154.954 413.899 154.688C415.767 154.221 417.518 153.297 419.027 151.984C420.536 150.67 421.765 149 422.625 147.093C422.625 147.093 424.196 119.775 424.72 112.563C420.175 111.956 415.793 110.295 411.857 107.688C411.274 107.18 410.629 106.766 409.942 106.459C408.678 106.237 408.84 107.043 408.262 108.252C407.258 110.444 405.623 112.196 403.619 113.228C403.366 113.329 403.142 113.502 402.969 113.731C402.874 113.923 402.825 114.138 402.824 114.356C402.174 120.863 401.017 127.35 401.812 133.897C402.499 139.317 407.612 138.35 407.612 138.35Z" fill="white"/>
<path d="M412.092 155.836C410.834 155.873 409.598 155.456 408.569 154.648C407.216 153.466 406.324 151.749 406.076 149.853L406.727 139.337C405.44 139.355 404.179 138.933 403.113 138.128C402.549 137.641 402.077 137.034 401.723 136.343C401.37 135.651 401.142 134.889 401.054 134.099C400.605 128.897 400.793 123.652 401.614 118.506C401.776 117.116 401.939 115.726 402.065 114.336C402.095 113.99 402.187 113.654 402.336 113.349C402.577 112.951 402.925 112.647 403.33 112.483C405.173 111.531 406.68 109.922 407.612 107.91C407.715 107.681 407.806 107.446 407.883 107.205C407.929 106.93 408.025 106.67 408.166 106.439C408.307 106.209 408.49 106.013 408.702 105.866C408.915 105.718 409.152 105.621 409.4 105.581C409.647 105.541 409.9 105.559 410.141 105.633C410.755 105.813 411.328 106.135 411.821 106.58L412.327 106.963C416.138 109.504 420.385 111.124 424.793 111.717C425.01 111.741 425.21 111.856 425.353 112.04C425.425 112.13 425.48 112.235 425.514 112.349C425.548 112.463 425.561 112.584 425.552 112.704C425.028 119.856 423.456 146.952 423.438 147.234C423.463 147.333 423.463 147.438 423.438 147.536C422.531 149.574 421.223 151.357 419.612 152.752C418.001 154.147 416.129 155.119 414.134 155.595C413.463 155.755 412.778 155.836 412.092 155.836ZM407.72 149.793C407.955 151.113 408.594 152.302 409.527 153.157C410.142 153.587 410.833 153.865 411.553 153.973C412.273 154.08 413.005 154.015 413.7 153.782C415.419 153.349 417.033 152.506 418.431 151.309C419.828 150.113 420.976 148.592 421.794 146.851C421.92 144.595 423.275 121.307 423.817 113.389C419.444 112.644 415.237 110.976 411.424 108.474L410.755 107.99C410.462 107.732 410.14 107.515 409.798 107.346C409.684 107.327 409.568 107.327 409.455 107.346C409.416 107.497 409.368 107.645 409.31 107.789C409.22 108.051 409.111 108.353 408.967 108.675C407.873 111.046 406.098 112.94 403.926 114.054C403.816 114.106 403.713 114.174 403.619 114.256C403.626 114.323 403.626 114.39 403.619 114.457C403.475 115.867 403.312 117.257 403.149 118.668C402.355 123.646 402.173 128.723 402.607 133.757C402.643 134.322 402.786 134.873 403.025 135.373C403.265 135.873 403.597 136.31 403.999 136.658C405.027 137.372 406.25 137.658 407.449 137.464C407.571 137.438 407.697 137.445 407.816 137.483C407.935 137.522 408.045 137.591 408.136 137.685C408.23 137.777 408.304 137.892 408.351 138.022C408.398 138.151 408.417 138.291 408.407 138.431L407.81 149.793H407.72Z" fill="#231F20"/>
<path d="M407.341 143.95C409.86 144.171 412.36 143.314 414.332 141.553C415.133 140.814 415.781 139.892 416.234 138.849C416.686 137.806 416.931 136.667 416.952 135.509C414.092 137.284 410.885 138.253 407.612 138.329L407.341 143.95Z" fill="#231F20"/>
<path d="M408.082 144.877C407.612 144.877 407.305 144.877 407.269 144.877C407.066 144.851 406.879 144.742 406.745 144.571C406.612 144.399 406.54 144.177 406.546 143.95L406.817 138.349C406.831 138.12 406.923 137.904 407.074 137.747C407.225 137.59 407.424 137.503 407.63 137.503C410.756 137.409 413.815 136.484 416.555 134.804C416.671 134.729 416.801 134.687 416.935 134.683C417.069 134.679 417.201 134.713 417.32 134.781C417.439 134.85 417.54 134.95 417.615 135.074C417.69 135.198 417.735 135.34 417.747 135.489C417.737 136.781 417.473 138.055 416.973 139.221C416.474 140.387 415.751 141.416 414.857 142.238C412.959 144.001 410.552 144.938 408.082 144.877ZM408.353 139.236L408.19 143.084C410.232 143.116 412.217 142.338 413.791 140.888C414.833 139.872 415.592 138.543 415.977 137.06C413.594 138.355 411 139.095 408.353 139.236Z" fill="#231F20"/>
<path d="M412.635 120.44C412.635 120.44 409.021 125.698 409.78 126.685C410.539 127.673 412.725 127.229 412.725 127.229" fill="white"/>
<path d="M411.586 128.236C411.14 128.282 410.69 128.217 410.268 128.046C409.847 127.876 409.464 127.604 409.147 127.249C408.876 126.867 408.027 125.698 412.002 119.896C412.141 119.741 412.326 119.647 412.522 119.632C412.719 119.616 412.913 119.681 413.07 119.814C413.227 119.947 413.335 120.139 413.374 120.354C413.414 120.569 413.382 120.793 413.285 120.984C412.103 122.549 411.157 124.318 410.484 126.222C411.158 126.483 411.885 126.525 412.58 126.343C412.682 126.32 412.788 126.319 412.89 126.343C412.992 126.366 413.089 126.412 413.175 126.477C413.261 126.543 413.334 126.628 413.39 126.726C413.446 126.824 413.484 126.933 413.501 127.048C413.522 127.163 413.523 127.282 413.502 127.397C413.482 127.512 413.441 127.622 413.382 127.719C413.323 127.817 413.247 127.9 413.159 127.965C413.071 128.029 412.973 128.074 412.869 128.095C412.446 128.187 412.017 128.235 411.586 128.236Z" fill="#231F20"/>
<path d="M408.975 118.505C409.035 117.852 408.834 117.294 408.527 117.259C408.219 117.224 407.921 117.724 407.86 118.377C407.8 119.03 408.001 119.588 408.309 119.624C408.616 119.659 408.915 119.158 408.975 118.505Z" fill="#231F20"/>
<path d="M418.447 118.804C418.467 118.148 418.232 117.606 417.923 117.595C417.614 117.583 417.348 118.106 417.328 118.762C417.308 119.418 417.543 119.959 417.852 119.971C418.161 119.982 418.428 119.46 418.447 118.804Z" fill="#231F20"/>
<path d="M422.517 123.16C423.709 121.528 425.57 118.546 427.774 119.654C428.36 119.961 428.865 120.433 429.237 121.024C429.957 122.255 430.329 123.697 430.306 125.166C430.284 126.634 429.868 128.062 429.111 129.264C427.937 131.46 424.504 134.683 422.444 131.681" fill="white"/>
<path d="M424.504 133.878C423.969 133.873 423.442 133.726 422.968 133.449C422.494 133.172 422.085 132.774 421.776 132.286C421.673 132.09 421.637 131.859 421.677 131.636C421.717 131.413 421.829 131.214 421.992 131.077C422.155 130.94 422.358 130.875 422.561 130.893C422.764 130.912 422.954 131.014 423.095 131.178C423.254 131.462 423.479 131.693 423.746 131.845C424.014 131.998 424.313 132.067 424.612 132.045C425.549 131.752 426.414 131.228 427.144 130.512C427.874 129.795 428.45 128.905 428.83 127.907C429.21 126.909 429.384 125.828 429.339 124.745C429.293 123.662 429.03 122.604 428.569 121.65C428.286 121.181 427.9 120.799 427.449 120.541C426.112 119.877 424.793 121.508 423.456 123.382L423.167 123.785C423.107 123.899 423.025 123.998 422.927 124.074C422.829 124.15 422.718 124.202 422.601 124.226C422.483 124.25 422.363 124.245 422.247 124.213C422.132 124.18 422.024 124.12 421.931 124.037C421.838 123.954 421.762 123.849 421.709 123.731C421.655 123.612 421.625 123.482 421.621 123.349C421.616 123.216 421.637 123.084 421.683 122.961C421.728 122.838 421.797 122.727 421.884 122.637L422.155 122.234C423.402 120.481 425.498 117.58 428.117 118.869C428.843 119.236 429.467 119.814 429.924 120.541C430.764 121.905 431.214 123.521 431.214 125.175C431.214 126.83 430.764 128.445 429.924 129.809C429.38 130.845 428.644 131.74 427.766 132.435C426.887 133.129 425.886 133.608 424.829 133.838L424.504 133.878Z" fill="#231F20"/>
<path d="M411.821 133.635C410.925 133.603 410.045 133.36 409.239 132.922C408.433 132.485 407.718 131.863 407.142 131.097C407.052 131.015 406.978 130.913 406.926 130.798C406.874 130.682 406.845 130.555 406.84 130.425C406.836 130.296 406.857 130.167 406.901 130.047C406.945 129.927 407.012 129.819 407.096 129.73C407.181 129.641 407.282 129.574 407.392 129.533C407.502 129.491 407.619 129.476 407.735 129.489C407.85 129.502 407.962 129.543 408.062 129.608C408.163 129.674 408.249 129.762 408.317 129.868C408.758 130.498 409.323 131.008 409.968 131.357C410.613 131.706 411.321 131.886 412.038 131.883C414.025 131.486 415.805 130.27 417.025 128.478C417.088 128.385 417.168 128.307 417.259 128.248C417.35 128.19 417.45 128.152 417.554 128.137C417.659 128.122 417.764 128.13 417.866 128.161C417.967 128.192 418.062 128.245 418.145 128.317C418.23 128.386 418.302 128.474 418.356 128.576C418.41 128.677 418.445 128.79 418.458 128.907C418.472 129.023 418.464 129.142 418.435 129.256C418.406 129.369 418.356 129.474 418.289 129.566C416.773 131.747 414.559 133.191 412.111 133.595L411.821 133.635Z" fill="#231F20"/>
<path d="M439.517 151.505C439.517 151.505 457.782 164.962 466.743 195.946C471.097 211.016 462.245 251.347 462.245 251.347L445.461 243.752C445.461 243.752 449.941 212.768 449.074 208.638C448.207 204.508 425.227 176.002 425.227 176.002L439.517 151.505Z" fill="#143561"/>
<path d="M346.512 155.756C346.512 155.756 331.155 139.941 329.728 140.344C328.301 140.747 321.67 145.582 321.815 146.992C321.959 148.403 322.05 149.853 322.05 149.853C323.179 149.511 324.352 149.389 325.518 149.49C326.815 151.021 328.022 152.642 329.132 154.346C329.981 155.554 325.229 156.783 325.229 156.783C327.106 157.495 329.034 158.027 330.992 158.375C333.416 159.031 335.772 159.97 338.02 161.175L346.512 155.756Z" fill="white"/>
<path d="M337.93 162.081C337.804 162.076 337.681 162.042 337.568 161.98C335.416 160.808 333.156 159.896 330.829 159.261C328.804 158.917 326.809 158.378 324.867 157.649C324.698 157.581 324.552 157.454 324.452 157.288C324.351 157.121 324.301 156.923 324.307 156.722C324.318 156.524 324.385 156.335 324.499 156.183C324.612 156.031 324.767 155.923 324.94 155.876C326.065 155.612 327.153 155.179 328.174 154.587L327.921 154.204C327.306 153.298 325.482 150.598 325.066 150.175C324.11 150.259 323.162 150.427 322.23 150.679C322.113 150.705 321.992 150.703 321.876 150.673C321.759 150.644 321.65 150.587 321.554 150.507C321.459 150.428 321.38 150.326 321.322 150.21C321.264 150.094 321.228 149.965 321.218 149.832C321.218 149.832 321.218 148.402 321.001 147.032C320.73 144.615 328.535 139.659 329.529 139.377C329.998 139.256 331.335 138.853 347.071 154.99C347.168 155.088 347.243 155.21 347.29 155.347C347.337 155.484 347.354 155.631 347.339 155.776C347.325 155.922 347.281 156.061 347.209 156.184C347.137 156.306 347.04 156.408 346.927 156.481L338.327 162.081C338.196 162.117 338.06 162.117 337.93 162.081ZM327.975 156.742C328.948 157.069 329.946 157.298 330.956 157.427C333.35 158.017 335.673 158.924 337.875 160.127L345.102 155.554C338.472 148.765 331.227 141.855 329.782 141.271C328.228 141.855 322.952 145.924 322.555 147.012C322.555 147.596 322.681 148.201 322.718 148.704C325.157 148.201 325.699 148.563 325.879 148.704C327.118 150.035 328.22 151.515 329.167 153.116L329.619 153.781C329.751 153.966 329.839 154.184 329.877 154.415C329.915 154.647 329.901 154.886 329.836 155.111C329.421 155.9 328.758 156.488 327.975 156.763V156.742Z" fill="#231F20"/>
<path d="M400.458 145.824C400.458 145.824 371.696 165.869 367.414 164.741C363.132 163.613 343.729 151.525 343.729 151.525L335.437 162.082C335.437 162.082 355.454 187.284 365.156 184.524C374.858 181.764 400.205 165.506 400.205 165.506L400.458 145.824Z" fill="#143561"/>
<path d="M398.669 150.76C398.669 150.76 383.873 185.451 377.875 204.045L398.669 150.76Z" fill="white"/>
<path d="M377.874 204.972C377.785 204.991 377.693 204.991 377.603 204.972C377.399 204.89 377.231 204.722 377.136 204.503C377.042 204.285 377.028 204.034 377.098 203.804C383.041 185.37 397.766 150.78 397.928 150.417C398.039 150.229 398.208 150.093 398.403 150.034C398.597 149.974 398.805 149.996 398.986 150.095C399.168 150.193 399.311 150.362 399.389 150.57C399.467 150.778 399.474 151.01 399.41 151.223C399.265 151.566 384.577 186.075 378.651 204.408C378.587 204.577 378.478 204.722 378.34 204.822C378.202 204.923 378.039 204.975 377.874 204.972Z" fill="#231F20"/>
<path d="M448.984 208.639C448.984 208.639 432.291 184.041 425.136 176.002L448.984 208.639Z" fill="white"/>
<path d="M448.984 209.565C448.854 209.563 448.726 209.527 448.61 209.461C448.494 209.395 448.393 209.299 448.316 209.183C448.153 208.941 431.586 184.544 424.558 176.667C424.413 176.491 424.334 176.26 424.339 176.02C424.343 175.781 424.43 175.553 424.582 175.384C424.734 175.215 424.938 175.118 425.153 175.113C425.367 175.108 425.575 175.196 425.733 175.358C432.833 183.416 448.948 207.067 449.635 208.075C449.765 208.27 449.821 208.515 449.79 208.757C449.76 208.998 449.646 209.216 449.472 209.364C449.337 209.495 449.163 209.566 448.984 209.565Z" fill="#231F20"/>
<path d="M173.724 431.894C169.517 432.061 165.376 430.696 161.926 428.006C157.536 424.359 154.826 418.155 153.869 409.512C152.369 395.914 148.088 386.062 141.222 380.24C135.837 375.884 129.192 373.917 122.578 374.72C122.461 374.743 122.342 374.74 122.227 374.711C122.111 374.681 122.003 374.627 121.907 374.55C121.811 374.473 121.729 374.375 121.668 374.262C121.606 374.15 121.565 374.025 121.548 373.894C121.511 373.63 121.568 373.361 121.706 373.143C121.844 372.925 122.053 372.775 122.289 372.726C129.367 371.809 136.495 373.918 142.234 378.629C149.605 384.793 154.14 395.108 155.694 409.29C156.597 417.349 159.054 423.11 163.028 426.414C168.99 431.35 177.138 429.799 181.51 428.973C182.323 428.812 183.028 428.671 183.57 428.61C199.523 426.596 202.829 391.3 205.503 362.915C206.135 356.186 206.731 349.84 207.454 344.32C207.472 344.188 207.513 344.061 207.574 343.946C207.636 343.832 207.718 343.732 207.814 343.652C207.911 343.573 208.02 343.515 208.137 343.483C208.253 343.451 208.374 343.444 208.493 343.464C208.611 343.484 208.725 343.53 208.828 343.599C208.931 343.668 209.02 343.758 209.092 343.866C209.163 343.974 209.215 344.096 209.244 344.226C209.273 344.355 209.278 344.49 209.26 344.623C208.538 350.102 207.942 356.428 207.309 363.116C204.581 392.227 201.185 428.449 183.823 430.605L181.872 430.947C179.186 431.532 176.46 431.848 173.724 431.894Z" fill="#231F20"/>
<path d="M151.719 81.3975H7.36816V204.267H151.719V81.3975Z" fill="white"/>
<path d="M151.719 205.315H7.36805C7.12368 205.315 6.88932 205.207 6.71652 205.014C6.54373 204.821 6.44666 204.56 6.44666 204.287V81.4988C6.44666 81.3639 6.4705 81.2303 6.5168 81.1056C6.5631 80.981 6.63097 80.8677 6.71652 80.7723C6.80208 80.6769 6.90366 80.6012 7.01545 80.5496C7.12724 80.498 7.24705 80.4714 7.36805 80.4714H151.719C151.841 80.4687 151.963 80.4933 152.077 80.5437C152.191 80.5942 152.295 80.6694 152.382 80.7651C152.47 80.8608 152.539 80.9749 152.587 81.1009C152.634 81.2269 152.658 81.3622 152.658 81.4988V204.388C152.636 204.646 152.526 204.885 152.352 205.057C152.178 205.229 151.951 205.321 151.719 205.315ZM8.30751 203.3H150.798V82.4255H8.30751V203.3Z" fill="#D1D3D4"/>
<path d="M221.112 351.653C223.237 351.653 224.96 349.732 224.96 347.362C224.96 344.992 223.237 343.071 221.112 343.071C218.987 343.071 217.264 344.992 217.264 347.362C217.264 349.732 218.987 351.653 221.112 351.653Z" fill="#143561"/>
<path d="M134.104 183.134H28.7045C28.582 183.137 28.4602 183.112 28.3463 183.062C28.2324 183.011 28.1287 182.936 28.0412 182.84C27.9538 182.744 27.8843 182.63 27.8368 182.504C27.7894 182.378 27.765 182.243 27.765 182.106V98.6022C27.7251 98.4463 27.7181 98.2821 27.7447 98.1227C27.7713 97.9633 27.8308 97.813 27.9183 97.6836C28.0059 97.5541 28.1192 97.4491 28.2494 97.3768C28.3795 97.3045 28.5229 97.2668 28.6683 97.2668C28.8137 97.2668 28.9572 97.3045 29.0873 97.3768C29.2175 97.4491 29.3308 97.5541 29.4183 97.6836C29.5059 97.813 29.5653 97.9633 29.5919 98.1227C29.6185 98.2821 29.6116 98.4463 29.5717 98.6022V181.059H134.104C134.3 181.121 134.473 181.254 134.596 181.435C134.719 181.617 134.785 181.838 134.785 182.066C134.785 182.294 134.719 182.515 134.596 182.697C134.473 182.879 134.3 183.011 134.104 183.073V183.134Z" fill="#D1D3D4"/>
<path d="M28.7046 183.135C28.5612 183.163 28.4144 183.163 28.271 183.135C28.051 183.006 27.8857 182.785 27.8112 182.521C27.7367 182.257 27.7591 181.97 27.8735 181.725C28.4155 180.214 43.0313 148.786 57.3218 154.024C61.0089 155.552 64.3911 157.872 67.2764 160.853C72.8409 166.051 76.2012 169.194 88.7213 156.301C98.2965 146.429 102.867 134.704 106.535 125.276C110.202 115.848 113.219 108.092 119.669 105.614C119.788 105.569 119.913 105.55 120.038 105.559C120.163 105.568 120.285 105.605 120.398 105.667C120.51 105.728 120.611 105.814 120.693 105.919C120.776 106.024 120.839 106.146 120.88 106.279C120.92 106.411 120.936 106.551 120.928 106.69C120.92 106.83 120.888 106.966 120.832 107.091C120.777 107.216 120.7 107.328 120.606 107.421C120.511 107.513 120.402 107.583 120.283 107.628C114.611 109.824 111.81 117.036 108.251 126.162C104.511 135.772 99.8502 147.718 89.9859 157.872C76.9239 171.349 72.3892 168.408 66.084 162.505C63.3706 159.698 60.1916 157.508 56.7256 156.059C44.0791 151.264 29.7524 182.248 29.626 182.55C29.545 182.742 29.4131 182.901 29.2482 183.005C29.0833 183.11 28.8934 183.155 28.7046 183.135Z" fill="#D1D3D4"/>
<path d="M189.641 220.867H117.845V277.98H189.641V220.867Z" fill="white"/>
<path d="M189.64 278.927H117.844C117.6 278.927 117.366 278.819 117.193 278.626C117.02 278.433 116.923 278.172 116.923 277.899V220.867C116.921 220.73 116.943 220.594 116.988 220.467C117.033 220.34 117.101 220.225 117.186 220.127C117.272 220.03 117.375 219.952 117.488 219.899C117.6 219.846 117.722 219.819 117.844 219.819H189.64C189.89 219.819 190.128 219.929 190.305 220.126C190.481 220.322 190.58 220.589 190.58 220.867V277.98C190.561 278.242 190.454 278.486 190.279 278.662C190.104 278.838 189.876 278.933 189.64 278.927ZM118.748 276.912H188.683V221.894H118.748V276.912Z" fill="#D1D3D4"/>
<path d="M144.185 268.572C141.865 268.691 139.547 268.284 137.372 267.376C135.197 266.467 133.21 265.077 131.53 263.288C129.851 261.499 128.514 259.349 127.601 256.968C126.687 254.587 126.216 252.024 126.216 249.434C126.216 246.844 126.687 244.281 127.601 241.9C128.514 239.518 129.851 237.368 131.53 235.58C133.21 233.791 135.197 232.4 137.372 231.492C139.547 230.584 141.865 230.177 144.185 230.295C147.659 230.29 151.051 231.471 153.905 233.68C154.006 233.755 154.093 233.852 154.16 233.964C154.228 234.077 154.275 234.203 154.298 234.336C154.322 234.469 154.321 234.606 154.297 234.739C154.273 234.872 154.226 234.998 154.158 235.11L145.956 248.427H160.409C160.531 248.424 160.653 248.448 160.767 248.499C160.881 248.549 160.985 248.625 161.072 248.72C161.16 248.816 161.229 248.93 161.276 249.056C161.324 249.182 161.348 249.317 161.348 249.454C161.334 254.523 159.521 259.38 156.304 262.962C153.088 266.545 148.731 268.562 144.185 268.572ZM144.185 232.31C141.195 232.308 138.269 233.283 135.77 235.113C133.27 236.943 131.305 239.549 130.117 242.609C128.93 245.669 128.571 249.05 129.086 252.335C129.601 255.62 130.967 258.665 133.015 261.094C135.063 263.524 137.704 265.232 140.612 266.008C143.521 266.784 146.569 266.594 149.382 265.461C152.194 264.329 154.648 262.303 156.441 259.634C158.233 256.965 159.286 253.769 159.469 250.441H144.185C144.014 250.441 143.846 250.388 143.699 250.288C143.553 250.189 143.433 250.047 143.354 249.877C143.266 249.716 143.22 249.531 143.22 249.343C143.22 249.155 143.266 248.97 143.354 248.809L152.026 234.707C149.655 233.135 146.944 232.313 144.185 232.33V232.31Z" fill="#D1D3D4"/>
<path d="M160.427 232.31L151.954 244.679H166.244C166.23 242.249 165.694 239.859 164.682 237.707C163.67 235.555 162.211 233.704 160.427 232.31Z" fill="#D1D3D4"/>
<path d="M182.45 254.873H166.19C165.994 254.81 165.821 254.678 165.698 254.496C165.575 254.315 165.509 254.093 165.509 253.865C165.509 253.638 165.575 253.416 165.698 253.235C165.821 253.053 165.994 252.921 166.19 252.858H182.45C182.59 252.814 182.737 252.806 182.88 252.836C183.023 252.865 183.158 252.931 183.274 253.029C183.39 253.127 183.484 253.253 183.549 253.398C183.614 253.543 183.647 253.703 183.647 253.865C183.647 254.028 183.614 254.187 183.549 254.333C183.484 254.478 183.39 254.604 183.274 254.702C183.158 254.799 183.023 254.866 182.88 254.895C182.737 254.925 182.59 254.917 182.45 254.873Z" fill="#D1D3D4"/>
<path d="M176.94 262.146H166.244C166.048 262.083 165.875 261.951 165.752 261.769C165.629 261.588 165.563 261.366 165.563 261.138C165.563 260.911 165.629 260.689 165.752 260.508C165.875 260.326 166.048 260.194 166.244 260.131H176.94C177.079 260.087 177.227 260.079 177.37 260.109C177.513 260.138 177.647 260.204 177.763 260.302C177.88 260.4 177.974 260.526 178.039 260.671C178.103 260.816 178.137 260.976 178.137 261.138C178.137 261.301 178.103 261.46 178.039 261.606C177.974 261.751 177.88 261.877 177.763 261.975C177.647 262.072 177.513 262.139 177.37 262.168C177.227 262.198 177.079 262.19 176.94 262.146Z" fill="#D1D3D4"/>
</svg>
