<svg width="229" height="223" viewBox="0 0 229 223" fill="none" xmlns="http://www.w3.org/2000/svg">
<path d="M204.689 10.3988L203.5 18.6639L176.244 206.958H43.757L71.0126 18.6639L72.2117 10.3988C72.6573 7.70088 74.0488 5.23951 76.1466 3.43836C78.2444 1.63721 80.9174 0.608953 83.7054 0.530565H196.051C197.322 0.495342 198.585 0.73884 199.748 1.24327C200.911 1.7477 201.944 2.50031 202.772 3.44612C203.6 4.39192 204.202 5.50702 204.533 6.70993C204.865 7.91284 204.918 9.17317 204.689 10.3988Z" fill="white"/>
<path d="M176.244 207.456H43.7569C43.6839 207.456 43.6116 207.442 43.545 207.412C43.4784 207.383 43.4189 207.34 43.3707 207.286C43.3234 207.232 43.2881 207.168 43.2672 207.1C43.2462 207.031 43.2399 206.959 43.2488 206.888L71.7036 10.3292C72.1676 7.50951 73.6195 4.93623 75.8098 3.05171C78.0001 1.16719 80.7919 0.0891571 83.7054 0.00290659H196.051C197.377 -0.0302001 198.695 0.219851 199.913 0.735709C201.131 1.25157 202.22 2.02088 203.104 2.99028C203.981 4.0018 204.623 5.18869 204.985 6.46823C205.346 7.74776 205.419 9.08916 205.197 10.3989L204.008 18.664L176.742 207.028C176.725 207.145 176.666 207.254 176.574 207.332C176.483 207.411 176.366 207.455 176.244 207.456ZM44.3362 206.46H175.797L204.191 10.2894C204.392 9.12181 204.33 7.92536 204.011 6.78343C203.691 5.6415 203.122 4.58153 202.342 3.67737C201.556 2.8069 200.587 2.11521 199.5 1.65076C198.413 1.18632 197.236 0.960367 196.051 0.98874H83.7054C81.0395 1.06773 78.4845 2.05275 76.4785 3.77502C74.4724 5.49729 73.14 7.84959 72.7097 10.4288L71.5207 18.6939L44.3362 206.46Z" fill="#231F20"/>
<path d="M128.928 98.2277H70.7992C70.653 98.222 70.5147 98.1613 70.413 98.0584C70.3675 98.0031 70.334 97.9392 70.3148 97.8706C70.2956 97.8021 70.291 97.7304 70.3012 97.6601L78.9291 38.4504C78.9484 38.3317 79.01 38.2234 79.103 38.145C79.1961 38.0666 79.3145 38.0231 79.4372 38.0222H137.546C137.619 38.0215 137.692 38.0363 137.758 38.0656C137.825 38.0948 137.885 38.1379 137.933 38.1918C137.981 38.2457 138.017 38.3091 138.038 38.3778C138.059 38.4465 138.064 38.5189 138.054 38.5898L129.487 97.7995C129.467 97.9271 129.398 98.0424 129.294 98.122C129.19 98.2015 129.06 98.2393 128.928 98.2277ZM71.3988 97.2319H128.491L136.916 39.018H79.8234L71.3988 97.2319Z" fill="#D1D3D4"/>
<path d="M184.131 39.0181H153.115C152.98 39.0181 152.851 38.9657 152.756 38.8723C152.66 38.7789 152.607 38.6523 152.607 38.5202C152.607 38.3882 152.66 38.2615 152.756 38.1682C152.851 38.0748 152.98 38.0223 153.115 38.0223H184.141C184.276 38.0223 184.405 38.0748 184.5 38.1682C184.595 38.2615 184.649 38.3882 184.649 38.5202C184.649 38.5865 184.635 38.652 184.609 38.7131C184.583 38.7742 184.545 38.8295 184.497 38.8759C184.448 38.9222 184.391 38.9587 184.328 38.9831C184.265 39.0076 184.198 39.0195 184.131 39.0181Z" fill="#D1D3D4"/>
<path d="M182.992 46.8946H151.966C151.832 46.8946 151.702 46.8421 151.607 46.7488C151.512 46.6554 151.458 46.5287 151.458 46.3967C151.458 46.2646 151.512 46.138 151.607 46.0446C151.702 45.9513 151.832 45.8988 151.966 45.8988H182.992C183.127 45.8988 183.256 45.9513 183.352 46.0446C183.447 46.138 183.5 46.2646 183.5 46.3967C183.5 46.5287 183.447 46.6554 183.352 46.7488C183.256 46.8421 183.127 46.8946 182.992 46.8946Z" fill="#D1D3D4"/>
<path d="M181.854 54.7713H150.818C150.684 54.7688 150.556 54.7155 150.462 54.6227C150.367 54.5298 150.313 54.4047 150.31 54.2734C150.31 54.1414 150.364 54.0147 150.459 53.9213C150.554 53.828 150.683 53.7755 150.818 53.7755H181.854C181.989 53.7755 182.118 53.828 182.214 53.9213C182.309 54.0147 182.362 54.1414 182.362 54.2734C182.362 54.4055 182.309 54.5321 182.214 54.6255C182.118 54.7189 181.989 54.7713 181.854 54.7713Z" fill="#D1D3D4"/>
<path d="M180.716 62.6578H149.68C149.545 62.6578 149.416 62.6053 149.321 62.512C149.225 62.4186 149.172 62.2919 149.172 62.1599C149.172 62.0278 149.225 61.9012 149.321 61.8078C149.416 61.7144 149.545 61.662 149.68 61.662H180.716C180.851 61.662 180.98 61.7144 181.075 61.8078C181.171 61.9012 181.224 62.0278 181.224 62.1599C181.224 62.2919 181.171 62.4186 181.075 62.512C180.98 62.6053 180.851 62.6578 180.716 62.6578Z" fill="#D1D3D4"/>
<path d="M179.537 70.5346H148.542C148.407 70.5346 148.278 70.4822 148.183 70.3888C148.087 70.2954 148.034 70.1688 148.034 70.0367C148.034 69.9047 148.087 69.778 148.183 69.6846C148.278 69.5913 148.407 69.5388 148.542 69.5388H179.537C179.672 69.5388 179.801 69.5913 179.896 69.6846C179.992 69.778 180.045 69.9047 180.045 70.0367C180.045 70.1688 179.992 70.2954 179.896 70.3888C179.801 70.4822 179.672 70.5346 179.537 70.5346Z" fill="#D1D3D4"/>
<path d="M169.456 78.4213H147.393C147.259 78.4188 147.132 78.3655 147.037 78.2727C146.942 78.1799 146.888 78.0547 146.885 77.9234C146.885 77.7914 146.939 77.6647 147.034 77.5714C147.129 77.478 147.259 77.4255 147.393 77.4255H169.456C169.591 77.4255 169.72 77.478 169.815 77.5714C169.911 77.6647 169.964 77.7914 169.964 77.9234C169.964 78.0555 169.911 78.1821 169.815 78.2755C169.72 78.3689 169.591 78.4213 169.456 78.4213Z" fill="#D1D3D4"/>
<path d="M173.785 97.7296H146.347C145.627 97.7484 144.913 97.6098 144.255 97.3238C143.598 97.0379 143.014 96.6118 142.545 96.0766C142.077 95.5415 141.737 94.9107 141.549 94.2302C141.36 93.5498 141.33 92.8368 141.458 92.1433C141.712 90.6172 142.5 89.2252 143.687 88.206C144.874 87.1868 146.385 86.6038 147.962 86.5569H175.401C176.121 86.5366 176.836 86.6741 177.495 86.9594C178.154 87.2447 178.74 87.6706 179.209 88.2059C179.678 88.7413 180.02 89.3726 180.209 90.0538C180.397 90.735 180.428 91.4489 180.299 92.1433C180.045 93.671 179.255 95.0642 178.067 96.0836C176.878 97.1031 175.364 97.6851 173.785 97.7296Z" fill="#D1D3D4"/>
<path d="M96.4592 175.591H69.0207C68.3009 175.611 67.5856 175.474 66.9271 175.188C66.2686 174.903 65.6836 174.477 65.2149 173.941C64.7463 173.406 64.4058 172.774 64.2185 172.093C64.0312 171.412 64.0019 170.698 64.1325 170.004C64.3865 168.478 65.1744 167.086 66.361 166.067C67.5477 165.048 69.0592 164.465 70.6365 164.418H98.075C98.7947 164.397 99.5101 164.535 100.169 164.82C100.827 165.105 101.412 165.531 101.881 166.067C102.349 166.603 102.69 167.234 102.877 167.915C103.064 168.597 103.094 169.31 102.963 170.004C102.711 171.531 101.924 172.924 100.737 173.944C99.5496 174.963 98.0371 175.546 96.4592 175.591Z" fill="#D1D3D4"/>
<path d="M158.775 175.591H131.337C130.617 175.611 129.902 175.474 129.243 175.188C128.585 174.903 128 174.477 127.531 173.941C127.062 173.406 126.722 172.774 126.535 172.093C126.347 171.412 126.318 170.698 126.449 170.004C126.701 168.477 127.488 167.084 128.675 166.065C129.862 165.045 131.375 164.463 132.953 164.418H160.391C161.111 164.397 161.826 164.535 162.485 164.82C163.143 165.105 163.728 165.531 164.197 166.067C164.665 166.603 165.006 167.234 165.193 167.915C165.38 168.597 165.41 169.31 165.279 170.004C165.027 171.531 164.24 172.924 163.053 173.944C161.866 174.963 160.353 175.546 158.775 175.591Z" fill="#D1D3D4"/>
<path d="M108.624 157.278H62.2627C62.1893 157.276 62.1171 157.258 62.0507 157.228C61.9843 157.197 61.925 157.153 61.8765 157.099C61.8289 157.047 61.794 156.985 61.7746 156.917C61.7553 156.85 61.7519 156.779 61.7647 156.71L67.8622 114.34C67.8814 114.221 67.9431 114.113 68.0361 114.034C68.1292 113.956 68.2476 113.912 68.3703 113.911H114.721C114.794 113.91 114.867 113.925 114.933 113.954C115 113.983 115.06 114.026 115.107 114.081C115.156 114.134 115.193 114.198 115.214 114.266C115.235 114.335 115.24 114.408 115.229 114.479L109.132 156.85C109.113 156.969 109.051 157.077 108.958 157.155C108.865 157.234 108.746 157.277 108.624 157.278ZM62.8928 156.282H108.227L114.213 114.907H68.8378L62.8928 156.282Z" fill="#D1D3D4"/>
<path d="M170.94 157.278H124.579C124.505 157.277 124.433 157.26 124.366 157.229C124.299 157.198 124.24 157.154 124.193 157.099C124.146 157.046 124.11 156.984 124.089 156.917C124.068 156.85 124.062 156.78 124.071 156.71L130.168 114.34C130.185 114.222 130.245 114.114 130.336 114.035C130.427 113.956 130.545 113.913 130.666 113.911H177.027C177.1 113.91 177.173 113.925 177.239 113.954C177.306 113.983 177.365 114.026 177.413 114.081C177.462 114.134 177.499 114.198 177.52 114.266C177.541 114.335 177.546 114.408 177.535 114.479L171.438 156.85C171.421 156.968 171.361 157.076 171.27 157.154C171.178 157.233 171.061 157.277 170.94 157.278ZM125.209 156.282H170.533L176.529 114.907H131.154L125.209 156.282Z" fill="#D1D3D4"/>
<path d="M98.2884 192.678C97.9812 192.683 97.6766 192.622 97.3958 192.5C97.115 192.378 96.8647 192.198 96.6624 191.971C96.4597 191.739 96.311 191.467 96.2268 191.172C96.1425 190.878 96.1247 190.57 96.1746 190.268C96.2749 189.646 96.5958 189.078 97.0809 188.665C97.5659 188.252 98.1842 188.019 98.827 188.008C99.1331 188.004 99.4366 188.064 99.7171 188.184C99.9975 188.304 100.248 188.482 100.453 188.705C100.656 188.937 100.804 189.21 100.886 189.504C100.969 189.798 100.984 190.107 100.931 190.408C100.835 191.031 100.517 191.601 100.033 192.016C99.5496 192.432 98.9315 192.666 98.2884 192.678ZM98.827 189.004C98.4307 189.02 98.0519 189.168 97.7527 189.423C97.4536 189.678 97.2518 190.025 97.1807 190.408C97.1524 190.569 97.1604 190.735 97.2043 190.893C97.2482 191.052 97.3268 191.198 97.4348 191.324C97.5421 191.441 97.674 191.533 97.8214 191.595C97.9688 191.657 98.1281 191.687 98.2884 191.682C98.6855 191.667 99.065 191.518 99.3631 191.26C99.6611 191.003 99.8594 190.652 99.9246 190.268C99.9541 190.109 99.9476 189.945 99.9055 189.789C99.8633 189.632 99.7866 189.486 99.6807 189.362C99.5733 189.245 99.4414 189.153 99.294 189.091C99.1466 189.029 98.9873 188.999 98.827 189.004Z" fill="#D1D3D4"/>
<path d="M109.372 191.605C110.185 190.863 110.311 189.7 109.653 189.008C108.995 188.316 107.802 188.357 106.989 189.099C106.176 189.841 106.05 191.004 106.708 191.696C107.366 192.388 108.558 192.348 109.372 191.605Z" fill="#D1D3D4"/>
<path d="M118.28 191.537C119.091 190.797 119.217 189.637 118.56 188.946C117.904 188.256 116.714 188.296 115.903 189.037C115.092 189.777 114.966 190.937 115.623 191.628C116.279 192.318 117.469 192.278 118.28 191.537Z" fill="#D1D3D4"/>
<path d="M128.643 191.602C129.456 190.86 129.582 189.697 128.924 189.005C128.266 188.313 127.073 188.353 126.26 189.095C125.447 189.838 125.321 191 125.979 191.693C126.637 192.385 127.83 192.344 128.643 191.602Z" fill="#D1D3D4"/>
<path d="M91.3374 24.5888H83.6647C83.53 24.5888 83.4007 24.5363 83.3054 24.443C83.2101 24.3496 83.1566 24.223 83.1566 24.0909C83.1566 23.9589 83.2101 23.8322 83.3054 23.7388C83.4007 23.6455 83.53 23.593 83.6647 23.593H91.3374C91.4721 23.593 91.6014 23.6455 91.6967 23.7388C91.7919 23.8322 91.8455 23.9589 91.8455 24.0909C91.8455 24.223 91.7919 24.3496 91.6967 24.443C91.6014 24.5363 91.4721 24.5888 91.3374 24.5888Z" fill="#D1D3D4"/>
<path d="M90.8496 27.9746H83.1668C83.0329 27.972 82.9051 27.9187 82.8104 27.8259C82.7157 27.7331 82.6613 27.6079 82.6587 27.4767C82.6587 27.3446 82.7122 27.218 82.8075 27.1246C82.9028 27.0312 83.0321 26.9788 83.1668 26.9788H90.8496C90.9844 26.9788 91.1136 27.0312 91.2089 27.1246C91.3042 27.218 91.3577 27.3446 91.3577 27.4767C91.3551 27.6079 91.3008 27.7331 91.206 27.8259C91.1113 27.9187 90.9836 27.972 90.8496 27.9746Z" fill="#D1D3D4"/>
<path d="M90.3516 31.3504H82.679C82.5443 31.3504 82.415 31.2979 82.3197 31.2046C82.2244 31.1112 82.1709 30.9846 82.1709 30.8525C82.1735 30.7213 82.2279 30.5961 82.3226 30.5033C82.4173 30.4104 82.5451 30.3572 82.679 30.3546H90.3516C90.4864 30.3546 90.6156 30.4071 90.7109 30.5004C90.8062 30.5938 90.8598 30.7205 90.8598 30.8525C90.8598 30.9846 90.8062 31.1112 90.7109 31.2046C90.6156 31.2979 90.4864 31.3504 90.3516 31.3504Z" fill="#D1D3D4"/>
<path d="M204.689 10.3988L203.5 18.6639H71.0126L72.2117 10.3988C72.6573 7.70088 74.0488 5.23951 76.1466 3.43836C78.2444 1.63721 80.9174 0.608953 83.7054 0.530565H196.051C197.322 0.495342 198.585 0.73884 199.748 1.24327C200.911 1.7477 201.944 2.50031 202.772 3.44612C203.6 4.39192 204.202 5.50702 204.533 6.70993C204.865 7.91284 204.918 9.17318 204.689 10.3988Z" fill="#231F20"/>
<path d="M141.621 10.1002H127.028C126.893 10.1002 126.764 10.0477 126.669 9.95433C126.573 9.86096 126.52 9.73431 126.52 9.60226C126.52 9.47021 126.573 9.34357 126.669 9.2502C126.764 9.15683 126.893 9.10437 127.028 9.10437H141.621C141.756 9.10437 141.885 9.15683 141.98 9.2502C142.076 9.34357 142.129 9.47021 142.129 9.60226C142.129 9.73431 142.076 9.86096 141.98 9.95433C141.885 10.0477 141.756 10.1002 141.621 10.1002Z" fill="#D1D3D4"/>
<path d="M149.05 10.1002H146.469C146.335 10.0976 146.207 10.0443 146.112 9.95151C146.017 9.85868 145.963 9.73352 145.96 9.60226C145.96 9.47021 146.014 9.34357 146.109 9.2502C146.205 9.15683 146.334 9.10437 146.469 9.10437H149.05C149.185 9.10437 149.314 9.15683 149.409 9.2502C149.504 9.34357 149.558 9.47021 149.558 9.60226C149.558 9.73431 149.504 9.86096 149.409 9.95433C149.314 10.0477 149.185 10.1002 149.05 10.1002Z" fill="#D1D3D4"/>
<path d="M69.4781 75.1451L78.9495 84.7246C78.9495 84.7246 96.0427 66.4319 96.2256 64.1416C96.758 60.031 97.9301 56.0245 99.7011 52.2618C99.7781 52.0215 99.9451 51.8187 100.169 51.6942C100.707 51.4951 101.093 52.232 101.185 52.7896C101.356 54.1498 101.339 55.5265 101.134 56.8823C102.831 54.582 104.559 52.3116 106.337 50.0711C106.402 49.9581 106.491 49.8604 106.598 49.7847C106.705 49.709 106.827 49.6572 106.957 49.6329C107.155 49.6451 107.343 49.7263 107.486 49.862C108.606 50.7996 109.446 52.0181 109.914 53.3871C110.218 54.1128 110.393 54.884 110.433 55.6674C110.504 60.0688 106.479 67.2186 102.303 69.021C102.303 69.021 82.8518 101.683 79.356 101.304C75.8601 100.926 62.0798 85.6805 62.0798 85.6805L69.4781 75.1451Z" fill="white"/>
<path d="M79.366 101.802H79.2847C75.6974 101.404 63.0858 87.5826 61.6529 86.0092C61.582 85.9213 61.5435 85.8126 61.5435 85.7005C61.5435 85.5885 61.582 85.4797 61.6529 85.3918L69.0918 74.8664C69.1354 74.807 69.1916 74.7576 69.2565 74.7215C69.3214 74.6854 69.3935 74.6635 69.4678 74.6572C69.5427 74.6504 69.6181 74.6604 69.6885 74.6862C69.7589 74.7121 69.8224 74.7533 69.8743 74.8066L78.9697 83.9977C85.5448 76.9376 95.636 65.6155 95.7783 64.0819C96.309 59.9262 97.4809 55.8736 99.2539 52.0628C99.317 51.883 99.4161 51.7174 99.5452 51.5755C99.6743 51.4336 99.8309 51.3183 100.006 51.2363C100.149 51.1816 100.303 51.1595 100.456 51.1716C100.609 51.1837 100.758 51.2296 100.89 51.306C101.125 51.48 101.318 51.7019 101.457 51.9564C101.595 52.2108 101.676 52.4918 101.693 52.7797C101.786 53.5796 101.823 54.3847 101.805 55.1895C103.156 53.3772 104.538 51.5748 105.941 49.8123C106.05 49.639 106.199 49.4925 106.375 49.3838C106.551 49.2752 106.75 49.2071 106.957 49.1849C107.276 49.1982 107.581 49.3176 107.821 49.5235C109.012 50.5008 109.914 51.7731 110.433 53.2079C110.754 53.9887 110.939 54.8167 110.981 55.6576C111.052 60.0689 107.181 67.3481 102.689 69.4094C99.2539 75.175 83.1363 101.802 79.366 101.802ZM62.6691 85.6408C68.1873 91.7052 76.9982 100.578 79.3863 100.807C81.4798 100.807 92.3841 84.5753 101.805 68.7622C101.859 68.6707 101.94 68.5977 102.038 68.553C106.154 66.7805 109.945 59.7901 109.874 55.6675C109.841 54.9388 109.679 54.2212 109.396 53.5465C108.951 52.2683 108.165 51.1301 107.12 50.2504C106.987 50.1409 106.937 50.121 106.916 50.121C106.833 50.1919 106.758 50.2721 106.693 50.36C104.925 52.5905 103.177 54.8809 101.49 57.1712C101.423 57.2622 101.327 57.3286 101.217 57.3595C101.107 57.3903 100.989 57.384 100.884 57.3413C100.778 57.2987 100.69 57.2223 100.634 57.1246C100.578 57.0268 100.557 56.9134 100.575 56.8027C100.777 55.4834 100.794 54.1434 100.626 52.8196C100.611 52.5604 100.498 52.3157 100.311 52.1325C100.232 52.2229 100.174 52.3279 100.138 52.4412C98.3894 56.1533 97.231 60.1059 96.7031 64.1616C96.4897 66.5017 82.1505 81.9564 79.2745 85.0732C79.1786 85.1713 79.0472 85.2285 78.9087 85.2325C78.7703 85.2233 78.6386 85.171 78.5327 85.0832L69.4983 75.9418L62.6691 85.6408Z" fill="#231F20"/>
<path d="M2.71099 212.474C2.71099 212.474 -0.591796 221.337 0.871593 222.193C2.33498 223.05 31.5011 222.193 29.743 220.481C27.9849 218.768 20.2208 213.052 20.2208 213.052" fill="white"/>
<path d="M7.55843 223C3.82882 223 1.02399 222.871 0.597172 222.622C-0.988166 221.696 0.942693 215.761 2.22316 212.305C2.27326 212.182 2.36972 212.082 2.49262 212.027C2.61553 211.971 2.75552 211.964 2.88372 212.007C3.00851 212.053 3.10941 212.147 3.16457 212.266C3.21974 212.385 3.22472 212.521 3.17843 212.644C1.55244 217.035 0.58701 221.297 1.14594 221.775C3.17843 222.661 25.9931 221.616 29.1028 220.56C26.9585 218.619 19.9566 213.5 19.9566 213.45C19.9032 213.411 19.8582 213.362 19.8242 213.306C19.7902 213.25 19.7679 213.187 19.7584 213.123C19.7394 212.992 19.7741 212.859 19.855 212.753C19.9358 212.648 20.0562 212.578 20.1896 212.559C20.323 212.541 20.4585 212.575 20.5663 212.654C20.8814 212.883 28.3914 218.409 30.1495 220.132C30.2767 220.248 30.3547 220.407 30.3679 220.577C30.3811 220.746 30.3285 220.915 30.2206 221.048C29.1333 222.353 15.9831 223 7.55843 223Z" fill="#231F20"/>
<path d="M32.1819 43.2698C30.7998 43.2101 29.4177 42.9811 27.8222 42.8417C26.2267 42.7022 24.4178 42.1745 24.3873 40.7206C24.3873 39.4659 25.8913 38.4303 25.556 37.2254C25.438 36.9002 25.2587 36.5996 25.0275 36.3392C22.9013 33.543 21.9615 30.0493 22.4047 26.5895C22.848 23.1297 24.64 19.972 27.4055 17.7776C26.9889 17.917 26.5417 17.5088 26.5011 17.0806C26.4983 16.643 26.6696 16.2215 26.9787 15.9056C28.0995 14.6987 29.5542 13.8373 31.1656 13.426C36.2076 11.9024 41.601 11.9024 46.643 13.426C50.5047 14.5314 55.1489 17.5486 54.6408 22.1193C54.5786 22.9481 54.2277 23.7308 53.6468 24.3363C53.0658 24.9418 52.2902 25.3333 51.4498 25.4452C50.586 30.3445 47.9641 33.6904 44.6715 37.2354C42.4586 39.6701 39.6658 41.531 36.5415 42.6525C35.1458 43.1446 33.6627 43.3546 32.1819 43.2698Z" fill="white"/>
<path d="M32.812 43.8176H32.1819C31.3588 43.8176 30.556 43.6882 29.6921 43.5886C29.0926 43.5189 28.4727 43.4492 27.8019 43.3894C25.3934 43.1903 23.9402 42.2144 23.9097 40.7805C23.9482 40.0945 24.1882 39.434 24.6008 38.8785C24.9361 38.3308 25.2207 37.8827 25.0987 37.4047C25.0066 37.1678 24.8724 36.9486 24.7024 36.7575C22.5424 33.9721 21.5231 30.4961 21.8447 27.0121C22.1662 23.528 23.8053 20.2876 26.4402 17.9271C26.2076 17.7033 26.0605 17.408 26.0235 17.0906C26.0117 16.8078 26.0577 16.5256 26.159 16.2605C26.2602 15.9954 26.4146 15.7529 26.6129 15.5472C27.7906 14.2899 29.3102 13.3882 30.9929 12.9481C36.1314 11.3985 41.6266 11.3985 46.765 12.9481C51.2975 14.2427 55.6368 17.5985 55.1185 22.1791C55.0393 23.0543 54.6834 23.8834 54.1005 24.551C53.5176 25.2185 52.7367 25.6913 51.8665 25.9034C50.8503 30.9421 47.9439 34.4273 45.0272 37.574C42.7642 40.0694 39.9043 41.9753 36.7042 43.1206C35.4578 43.572 34.1408 43.8079 32.812 43.8176ZM27.3548 17.2898C27.453 17.2886 27.5499 17.3129 27.6355 17.3601C27.7211 17.4073 27.7926 17.4758 27.8426 17.5587C27.9048 17.6589 27.9297 17.7771 27.913 17.8933C27.8963 18.0095 27.8391 18.1164 27.7511 18.196C25.0932 20.3128 23.3718 23.3533 22.9458 26.6834C22.5198 30.0135 23.4221 33.3762 25.4646 36.0704C25.7393 36.3777 25.9469 36.7369 26.0743 37.1259C26.1408 37.5197 26.1217 37.9228 26.0184 38.3088C25.9151 38.6949 25.7298 39.0553 25.4747 39.3664C25.1734 39.7702 24.9843 40.2437 24.926 40.7406C24.926 42.065 27.4056 42.3339 27.8934 42.3837C28.5641 42.3837 29.2043 42.5131 29.8141 42.5828C30.6474 42.6824 31.4401 42.772 32.2327 42.8019C33.6372 42.8862 35.0444 42.6897 36.3689 42.2244C39.4098 41.1389 42.1269 39.3285 44.2752 36.9566C47.893 33.0631 50.1389 29.9264 50.9316 25.4154C50.9501 25.3026 51.0077 25.1994 51.0947 25.1233C51.1817 25.0471 51.2927 25.0026 51.4092 24.9972C52.1251 24.8867 52.7818 24.5423 53.2726 24.0198C53.7633 23.4973 54.0593 22.8276 54.1124 22.1194C54.6206 17.5487 49.5495 14.8302 46.4805 13.9539C41.5372 12.4645 36.2513 12.4645 31.308 13.9539C29.8029 14.3296 28.4451 15.1334 27.4056 16.2641C27.1795 16.48 27.0452 16.7717 27.0296 17.0807C27.0383 17.1307 27.0571 17.1786 27.0851 17.2213C27.113 17.2641 27.1494 17.3009 27.1922 17.3296L27.3548 17.2898Z" fill="#231F20"/>
<path d="M11.4304 72.6955C11.4304 72.6955 0.678554 94.1448 1.51187 100.717C2.34519 107.289 24.5603 104.7 24.5603 104.7L23.3916 72.1179L11.4304 72.6955Z" fill="white"/>
<path d="M15.3937 105.716C14.7229 105.716 14.0319 105.716 13.3612 105.716C5.57675 105.477 1.42032 103.824 1.02398 100.817C0.13985 94.1748 10.5462 73.4026 10.9832 72.5263C11.0252 72.4468 11.0875 72.3793 11.1641 72.3304C11.2407 72.2816 11.3289 72.253 11.4201 72.2475L23.3813 71.6799C23.448 71.6763 23.5148 71.686 23.5777 71.7082C23.6405 71.7304 23.6982 71.7649 23.7472 71.8094C23.7983 71.8525 23.8394 71.906 23.8674 71.9662C23.8955 72.0263 23.91 72.0918 23.9098 72.1579L25.0683 104.7C25.072 104.825 25.0284 104.948 24.9459 105.043C24.8633 105.139 24.7477 105.201 24.6211 105.218C21.5558 105.536 18.4761 105.703 15.3937 105.716ZM11.7555 73.1935C10.536 75.6531 1.22723 94.6926 2.0199 100.657C2.71095 105.557 17.7005 104.959 24.052 104.272L22.9037 72.6956L11.7555 73.1935Z" fill="#231F20"/>
<path d="M54.3157 208.282L54.8949 222.223C54.8949 222.223 81.5408 222.412 79.986 220.511C78.4311 218.609 66.3683 210.224 66.3683 210.224L64.4273 199.928L54.3157 208.282Z" fill="white"/>
<path d="M58.3197 222.711H54.895C54.7637 222.711 54.6374 222.662 54.5427 222.573C54.448 222.483 54.3921 222.362 54.3869 222.233L53.8076 208.292C53.8047 208.217 53.8187 208.143 53.8485 208.074C53.8784 208.005 53.9234 207.944 53.9804 207.894L64.1428 199.509C64.2111 199.454 64.2927 199.417 64.3799 199.401C64.467 199.385 64.5569 199.392 64.6408 199.42C64.7229 199.451 64.7957 199.502 64.8525 199.568C64.9093 199.635 64.9483 199.714 64.966 199.798L66.8765 209.895C68.4009 210.961 78.919 218.32 80.423 220.162C80.5119 220.268 80.5685 220.395 80.5865 220.531C80.6045 220.667 80.583 220.805 80.5247 220.929C79.7523 222.422 67.5066 222.711 58.3197 222.711ZM55.3828 221.715C66.0838 221.775 77.4861 221.377 79.3966 220.59C77.6893 218.838 70.0472 213.371 66.0737 210.632C66.0203 210.597 65.9748 210.551 65.9398 210.498C65.9049 210.445 65.8813 210.386 65.8704 210.324L64.0818 200.874L54.834 208.551L55.3828 221.715Z" fill="#231F20"/>
<path d="M59.143 110.535L69.4781 212.106L52.3646 212.484L32.9239 140.728L22.1517 213.102L2.3147 212.106C2.3147 212.106 5.76992 171.707 7.56867 156.342C9.36742 140.977 12.1519 114.379 12.1519 114.379L59.143 110.535Z" fill="#231F20"/>
<path d="M52.7712 32.5852C52.7712 32.5852 56.3382 38.3508 55.5049 39.486C54.6715 40.6212 52.1005 39.7449 52.1005 39.7449" fill="white"/>
<path d="M53.96 40.5614C53.2682 40.5491 52.5825 40.4315 51.9275 40.2129C51.8154 40.1602 51.7268 40.0691 51.6786 39.9568C51.6304 39.8445 51.626 39.7187 51.666 39.6034C51.7061 39.488 51.7879 39.3911 51.8961 39.3309C52.0042 39.2707 52.1311 39.2515 52.2527 39.2768C52.9844 39.5158 54.6206 39.8145 55.0779 39.1872C55.5352 38.5598 54.1125 35.7318 52.3239 32.844C52.2788 32.7885 52.2463 32.7243 52.2286 32.6555C52.2109 32.5867 52.2084 32.515 52.2213 32.4452C52.2341 32.3754 52.2621 32.3091 52.3032 32.2508C52.3444 32.1924 52.3978 32.1433 52.4598 32.1068C52.5219 32.0703 52.5912 32.0473 52.6632 32.0392C52.7351 32.031 52.8079 32.0381 52.8768 32.0598C52.9457 32.0815 53.0091 32.1174 53.0627 32.1651C53.1163 32.2127 53.1589 32.2711 53.1877 32.3362C54.3157 34.1485 56.836 38.5101 55.9112 39.7747C55.6727 40.0478 55.3715 40.2615 55.0323 40.3983C54.6931 40.5351 54.3256 40.591 53.96 40.5614Z" fill="#231F20"/>
<path d="M52.2527 25.1366C54.5901 27.1282 53.7262 31.211 53.6043 33.8598C53.4214 37.584 53.1572 41.3083 52.8116 45.0325C52.5881 47.3826 46.3382 47.2033 45.2609 46.4565L45.8809 55.8269L32.9441 50.3998L33.7876 39.6353C33.7876 39.6353 37.9135 39.8146 40.5456 35.0945C43.1777 30.3745 43.3606 22.9658 43.3606 22.9658C43.3606 22.9658 49.9763 23.165 52.2527 25.1366Z" fill="white"/>
<path d="M45.8809 56.3248C45.814 56.3397 45.7445 56.3397 45.6776 56.3248L32.751 50.8977C32.6533 50.8556 32.571 50.7855 32.5147 50.6966C32.4585 50.6077 32.4311 50.5043 32.436 50.3998L33.2795 39.6353C33.2899 39.5068 33.3508 39.3872 33.4493 39.3018C33.5479 39.2163 33.6764 39.1717 33.8079 39.1773C33.9604 39.1773 37.6595 39.2669 40.0985 34.8954C42.6391 30.3347 42.8525 23.0654 42.8525 22.9459C42.8536 22.88 42.8686 22.8149 42.8966 22.755C42.9246 22.695 42.9649 22.6413 43.0151 22.5974C43.0622 22.5502 43.1195 22.514 43.1829 22.4916C43.2462 22.4692 43.3139 22.4611 43.3809 22.4679C43.6553 22.4679 50.1999 22.6969 52.5881 24.7682C54.7222 26.6104 54.4376 29.8467 54.2141 32.4557C54.2141 32.9536 54.1328 33.4515 54.1124 33.8797C53.9295 37.594 53.6653 41.358 53.3198 45.0723C53.258 45.468 53.0858 45.8393 52.8222 46.1451C52.5585 46.4509 52.2137 46.6792 51.8259 46.805C49.9009 47.4888 47.8153 47.6133 45.8199 47.1635L46.4093 55.7671C46.4134 55.8341 46.4037 55.9013 46.3807 55.9645C46.3576 56.0278 46.3217 56.0858 46.2752 56.1351C46.2287 56.1844 46.1725 56.224 46.11 56.2514C46.0474 56.2789 45.9799 56.2937 45.9114 56.2949L45.8809 56.3248ZM33.4827 50.0812L45.3118 55.0601L44.763 46.4963C44.7521 46.4023 44.7705 46.3072 44.8159 46.2237C44.8612 46.1401 44.9314 46.072 45.0171 46.0283C45.0974 45.9777 45.1909 45.9508 45.2864 45.9508C45.3819 45.9508 45.4754 45.9777 45.5557 46.0283C47.4652 46.6099 49.5159 46.568 51.3991 45.9088C51.9682 45.6599 52.273 45.3412 52.3035 44.913C52.6592 41.2186 52.9234 37.4645 53.0962 33.7701C53.0962 33.3121 53.1572 32.7743 53.1978 32.2964C53.4112 29.9164 53.6653 26.9589 51.9174 25.4453C50.1491 23.9118 45.4032 23.5135 43.8484 23.4537C43.7569 25.2362 43.2793 31.191 40.9927 35.3036C38.7062 39.4163 35.4949 39.9839 34.2551 40.0834L33.4827 50.0812Z" fill="#231F20"/>
<path d="M72.1001 75.9717C72.1001 75.9717 56.8056 60.1386 50.759 54.1838C45.1392 48.6671 28.798 43.6483 21.3591 51.5549C21.3591 51.5549 9.16417 68.2742 6.776 77.9931L13.8897 82.285C12.3325 93.802 11.4165 105.394 11.1458 117.008C24.6415 127.464 59.143 110.535 59.143 110.535L56.0231 86.6366L61.6023 92.1134L72.1001 75.9717Z" fill="#143561"/>
<path d="M52.8321 42.2443C52.8321 42.2443 49.7833 43.9072 48.3606 40.8601L52.8321 42.2443Z" fill="white"/>
<path d="M51.0129 43.2003C50.6687 43.198 50.3265 43.1477 49.9967 43.0509C49.522 42.884 49.0889 42.6202 48.7263 42.2768C48.3636 41.9335 48.0796 41.5184 47.8931 41.0593C47.865 40.9998 47.8492 40.9355 47.8466 40.87C47.8439 40.8045 47.8545 40.7392 47.8776 40.6777C47.9007 40.6162 47.936 40.5598 47.9813 40.5116C48.0267 40.4635 48.0813 40.4246 48.142 40.3971C48.2028 40.3697 48.2684 40.3542 48.3352 40.3516C48.4021 40.349 48.4688 40.3593 48.5315 40.382C48.5943 40.4046 48.6518 40.4392 48.701 40.4836C48.7501 40.5281 48.7898 40.5816 48.8178 40.6411C48.9492 40.9696 49.149 41.2676 49.4045 41.5162C49.6599 41.7648 49.9655 41.9585 50.3016 42.085C51.0707 42.2668 51.8814 42.164 52.5779 41.7962C52.697 41.7351 52.8356 41.7218 52.9645 41.7589C53.0935 41.7961 53.2026 41.8809 53.269 41.9954C53.3028 42.0512 53.3246 42.1131 53.3331 42.1775C53.3417 42.2418 53.3368 42.3072 53.3187 42.3696C53.3007 42.432 53.2698 42.4902 53.2281 42.5406C53.1863 42.5909 53.1345 42.6324 53.0759 42.6625C52.4425 43.002 51.7347 43.1865 51.0129 43.2003Z" fill="#231F20"/>
<path d="M45.3931 34.7062C45.3229 33.769 44.9887 32.8693 44.4277 32.1072C44.086 31.4629 43.6436 30.875 43.1167 30.3645C42.8528 30.1067 42.5331 29.9102 42.1813 29.7896C41.8296 29.6689 41.4547 29.6272 41.0842 29.6675C40.7622 29.7357 40.4584 29.8694 40.1923 30.0598C39.9263 30.2501 39.7039 30.493 39.5395 30.7728C39.2247 31.3379 39.0375 31.9628 38.9908 32.605C38.8773 34.0034 39.1394 35.4064 39.7509 36.6747C40.3624 37.943 41.3021 39.0324 42.4765 39.8345L42.2732 39.6054" fill="white"/>
<path d="M42.4765 40.3424C42.3744 40.3431 42.2746 40.3117 42.192 40.2528C40.941 39.3994 39.9402 38.2396 39.2894 36.8889C38.6385 35.5383 38.3604 34.0441 38.4827 32.5553C38.5378 31.855 38.7494 31.1751 39.1026 30.5638C39.2985 30.2211 39.5681 29.9242 39.8928 29.6938C40.2174 29.4634 40.5893 29.3049 40.9827 29.2294C41.4289 29.1739 41.8822 29.2186 42.3083 29.3601C42.7344 29.5016 43.122 29.7361 43.442 30.0459C44.0022 30.5792 44.4752 31.1938 44.8444 31.8682C45.4532 32.7108 45.8055 33.7052 45.8606 34.7361C45.8606 34.8682 45.8071 34.9948 45.7118 35.0882C45.6165 35.1816 45.4873 35.234 45.3525 35.234C45.2177 35.234 45.0885 35.1816 44.9932 35.0882C44.8979 34.9948 44.8444 34.8682 44.8444 34.7361C44.775 33.8896 44.4652 33.079 43.9501 32.396C43.6329 31.7982 43.2252 31.251 42.7408 30.7729C42.5311 30.5698 42.2789 30.4139 42.0017 30.3159C41.7244 30.2179 41.4287 30.1801 41.1351 30.2053C40.8855 30.2587 40.6503 30.3635 40.4453 30.5129C40.2403 30.6623 40.0701 30.8527 39.9461 31.0716C39.6668 31.568 39.5037 32.119 39.4685 32.6848C39.3701 33.9081 39.5769 35.1364 40.0708 36.264C40.5647 37.3916 41.3311 38.3846 42.3038 39.1574C42.4333 39.1706 42.553 39.231 42.6391 39.3267L42.8424 39.5557C42.9239 39.6466 42.9688 39.7634 42.9688 39.8844C42.9688 40.0053 42.9239 40.1221 42.8424 40.213C42.7931 40.257 42.7354 40.2911 42.6726 40.3133C42.6098 40.3356 42.5432 40.3454 42.4765 40.3424Z" fill="#231F20"/>
<path d="M45.261 46.4565C43.4269 45.7988 41.8251 44.6371 40.6472 43.1106C40.6472 43.1106 40.6472 48.7966 45.5353 50.6288L45.261 46.4565Z" fill="#231F20"/>
<path d="M45.5355 51.1267H45.3525C40.19 49.1948 40.1392 43.1604 40.1392 43.1604C40.1375 43.0522 40.1725 42.9466 40.2387 42.8601C40.305 42.7736 40.3987 42.7111 40.5051 42.6824C40.6113 42.6534 40.7243 42.6591 40.827 42.6987C40.9297 42.7382 41.0164 42.8094 41.0742 42.9015C42.188 44.3066 43.6856 45.3735 45.3932 45.9784C45.4867 46.0114 45.5683 46.0704 45.6279 46.1483C45.6875 46.2262 45.7225 46.3194 45.7285 46.4166L46.0029 50.5989C46.007 50.6811 45.9906 50.763 45.9552 50.8376C45.9198 50.9122 45.8664 50.9772 45.7997 51.0271C45.7239 51.0857 45.6318 51.1204 45.5355 51.1267ZM41.3282 44.6939C41.5095 45.7566 41.9313 46.7661 42.5626 47.6483C43.1939 48.5306 44.0187 49.2631 44.9765 49.7923L44.7834 46.805C43.5156 46.3026 42.3465 45.5883 41.3282 44.6939Z" fill="#231F20"/>
<path d="M56.4498 88.3195C56.3125 88.3191 56.1809 88.2654 56.084 88.1701C52.2046 84.2437 48.5442 80.1151 45.1187 75.8024C45.0404 75.6958 45.0073 75.5637 45.0262 75.4338C45.0452 75.3038 45.1147 75.1861 45.2203 75.1053C45.3281 75.0261 45.4636 74.9921 45.5971 75.0107C45.7305 75.0294 45.8508 75.0993 45.9317 75.2049C49.3312 79.4868 52.9645 83.5855 56.8156 87.483C56.863 87.5284 56.9006 87.5826 56.9262 87.6425C56.9519 87.7023 56.9651 87.7666 56.9651 87.8315C56.9651 87.8964 56.9519 87.9607 56.9262 88.0205C56.9006 88.0804 56.863 88.1346 56.8156 88.18C56.7682 88.2273 56.7111 88.2642 56.648 88.2883C56.5849 88.3123 56.5174 88.3229 56.4498 88.3195Z" fill="#231F20"/>
<path d="M32.6393 139.214C32.5207 139.22 32.4044 139.18 32.3141 139.105C32.0499 138.896 26.0033 133.847 25.9728 125.881C25.9728 125.75 26.0249 125.625 26.118 125.532C26.2111 125.439 26.3377 125.385 26.4707 125.383C26.537 125.383 26.6026 125.396 26.6637 125.421C26.7248 125.446 26.7801 125.483 26.8265 125.529C26.8729 125.576 26.9093 125.631 26.9337 125.691C26.9582 125.751 26.9701 125.816 26.9687 125.881C26.9687 133.379 32.8934 138.298 32.9544 138.338C33.0567 138.425 33.1204 138.547 33.1317 138.679C33.1431 138.811 33.1014 138.943 33.0153 139.045C32.9675 139.097 32.9095 139.138 32.8449 139.167C32.7803 139.196 32.7104 139.212 32.6393 139.214Z" fill="white"/>
<path d="M51.2291 30.0365C51.383 29.3152 51.2718 28.682 50.9806 28.6224C50.6894 28.5627 50.3286 29.0991 50.1747 29.8205C50.0208 30.5418 50.132 31.1749 50.4232 31.2346C50.7144 31.2943 51.0752 30.7579 51.2291 30.0365Z" fill="#231F20"/>
<path d="M13.7677 79.3475H13.6864C13.554 79.3232 13.4364 79.2493 13.3586 79.1415C13.2808 79.0336 13.249 78.9004 13.2698 78.7699C13.3815 78.043 16.2372 60.8955 19.4485 55.1697C19.4803 55.1119 19.5236 55.061 19.5759 55.02C19.6282 54.979 19.6885 54.9487 19.753 54.9311C19.8175 54.9134 19.885 54.9087 19.9514 54.9172C20.0178 54.9257 20.0818 54.9472 20.1396 54.9805C20.1982 55.0106 20.25 55.0522 20.2917 55.1025C20.3335 55.1529 20.3643 55.211 20.3824 55.2735C20.4005 55.3359 20.4054 55.4013 20.3968 55.4656C20.3883 55.5299 20.3664 55.5919 20.3326 55.6477C17.2128 61.2241 14.2962 78.75 14.2352 78.9292C14.2188 79.0413 14.1633 79.1442 14.078 79.2205C13.9927 79.2968 13.883 79.3417 13.7677 79.3475Z" fill="#231F20"/>
<path d="M205.106 156.342C205.234 154.461 204.826 152.581 203.927 150.915C203.185 149.71 202.047 148.754 201.437 147.479C200.421 145.269 201.122 142.67 200.878 140.25C200.658 138.219 199.745 136.321 198.287 134.863C196.996 133.588 195.329 132.702 194.09 131.367C192.057 129.177 191.488 126.1 190.34 123.401C188.692 119.534 185.849 116.271 182.21 114.07C184.415 118.422 179.385 123.959 181.671 128.27C182.393 129.645 183.765 130.64 184.303 132.094C185.574 135.59 181.315 139.383 182.677 142.859C183.358 144.591 185.259 145.597 186.143 147.24C187.332 149.451 186.397 152.149 186.488 154.649C186.62 158.104 188.765 161.191 191.315 163.611C192.901 165.095 194.669 166.389 196.397 167.734C198.429 169.347 199.313 171.03 201.112 168.451C203.618 164.881 205.006 160.673 205.106 156.342Z" fill="#231F20"/>
<path d="M207.392 158.333C206.732 155.665 206.264 152.757 207.392 150.238C208.642 147.39 211.782 145.368 212.148 142.271C212.392 140.28 211.345 138.199 211.752 136.207C212.158 134.215 213.784 132.851 215.197 131.377C218.355 127.976 220.234 123.62 220.522 119.03C222.641 121.493 224.356 124.264 225.603 127.245C226.681 130.282 226.701 133.847 224.861 136.516C224.337 137.136 223.905 137.827 223.581 138.567C222.961 140.559 224.679 142.371 225.563 144.243C226.089 145.309 226.309 146.494 226.2 147.673C226.091 148.852 225.656 149.979 224.943 150.935C223.134 153.135 219.668 153.992 218.774 156.671C218.555 157.672 218.453 158.694 218.469 159.718C218.278 161.491 217.55 163.167 216.381 164.533C215.211 165.899 213.653 166.892 211.904 167.385C209.78 167.893 209.821 167.067 209.435 165.304C208.896 162.954 207.992 160.674 207.392 158.333Z" fill="#231F20"/>
<path d="M200.604 139.105C199.09 133.977 198.49 128.609 196.895 123.501C195.536 119.509 193.879 115.622 191.935 111.87L198.429 114.549C200.512 115.415 202.768 116.431 203.754 118.422C205.461 121.898 202.392 126.389 204.191 129.784C204.969 130.899 205.829 131.957 206.762 132.951C208.673 135.58 208.378 139.204 207.331 142.261C206.874 143.576 204.913 150.387 203.155 148.495C202.443 147.738 202.382 144.92 202.088 143.885C201.63 142.281 201.081 140.708 200.604 139.105Z" fill="#231F20"/>
<path d="M204.212 207.286C202.911 198.892 198.846 169.287 198.846 169.028L199.862 168.899C199.862 169.197 203.927 198.772 205.258 207.137L204.212 207.286Z" fill="#231F20"/>
<path d="M205.624 215.213H204.608C204.689 205.255 208.917 167.216 211.356 164.607L212.108 165.284C210.482 167.007 205.726 201.571 205.624 215.213Z" fill="#231F20"/>
<path d="M207.829 213.311H206.813C207.829 191.832 203.134 146.723 203.083 146.274L204.1 146.165C204.151 146.583 208.805 191.762 207.829 213.311Z" fill="#231F20"/>
<path d="M193.023 183.228H217.209L215.522 210.114C215.228 214.775 211.701 218.389 207.453 218.389H202.779C198.531 218.389 195.014 214.775 194.72 210.114L193.023 183.228Z" fill="white"/>
<path d="M207.453 218.947H202.779C198.277 218.947 194.506 215.103 194.191 210.194L192.504 183.308C192.499 183.238 192.508 183.167 192.532 183.101C192.555 183.035 192.592 182.974 192.641 182.923C192.69 182.871 192.749 182.83 192.814 182.802C192.88 182.774 192.951 182.76 193.023 182.76H217.209C217.354 182.762 217.493 182.819 217.595 182.919C217.691 183.027 217.742 183.165 217.738 183.308L216.041 210.194C215.736 215.093 211.965 218.947 207.453 218.947ZM193.582 183.766L195.238 210.114C195.512 214.486 198.825 217.901 202.779 217.901H207.453C211.406 217.901 214.719 214.486 214.994 210.114L216.65 183.746L193.582 183.766Z" fill="#231F20"/>
<path d="M217.301 90.092H167.586L178.795 8.18835H228.51L217.301 90.092Z" fill="white"/>
<path d="M217.301 90.6197H167.586C167.515 90.6202 167.444 90.6053 167.379 90.576C167.314 90.5468 167.256 90.5039 167.21 90.4504C167.161 90.3992 167.124 90.3376 167.103 90.2702C167.082 90.2028 167.077 90.1316 167.088 90.062L178.267 8.1484C178.286 8.02964 178.348 7.92142 178.441 7.84301C178.534 7.7646 178.652 7.72108 178.775 7.72021H228.49C228.562 7.72085 228.634 7.73621 228.701 7.76534C228.767 7.79447 228.827 7.83674 228.876 7.8895C228.967 8.0019 229.011 8.1446 228.998 8.28781L217.819 90.1915C217.8 90.312 217.736 90.4215 217.641 90.5001C217.546 90.5788 217.425 90.6212 217.301 90.6197ZM168.165 89.6239H216.854L227.931 8.716H179.242L168.165 89.6239Z" fill="#231F20"/>
<path d="M208.896 77.9334H180.34C179.866 77.9444 179.396 77.8526 178.963 77.6645C178.53 77.4764 178.144 77.1967 177.834 76.8455C177.525 76.4943 177.298 76.0802 177.171 75.633C177.043 75.1858 177.019 74.7166 177.098 74.2589L177.484 71.401C177.645 70.398 178.159 69.4816 178.936 68.8106C179.714 68.1395 180.707 67.7561 181.742 67.7265H210.289C210.763 67.7137 211.234 67.8043 211.668 67.9918C212.102 68.1793 212.488 68.459 212.799 68.8107C213.109 69.1623 213.335 69.5771 213.462 70.0251C213.589 70.4731 213.612 70.9431 213.53 71.401L213.144 74.2589C212.988 75.2619 212.476 76.1792 211.7 76.8507C210.924 77.5223 209.931 77.9054 208.896 77.9334Z" fill="#143561"/>
<path d="M210.949 62.887H182.403C181.929 62.8999 181.458 62.8092 181.023 62.6217C180.589 62.4342 180.203 62.1545 179.893 61.8029C179.583 61.4512 179.356 61.0364 179.23 60.5884C179.103 60.1405 179.08 59.6705 179.161 59.2126L179.547 56.3547C179.704 55.35 180.217 54.4315 180.995 53.7597C181.774 53.088 182.768 52.7059 183.805 52.6802H212.352C212.825 52.6692 213.296 52.761 213.729 52.9491C214.162 53.1372 214.547 53.4169 214.857 53.7681C215.167 54.1193 215.394 54.5334 215.521 54.9806C215.648 55.4277 215.673 55.897 215.593 56.3547L215.207 59.2126C215.046 60.2156 214.533 61.132 213.755 61.803C212.977 62.474 211.985 62.8575 210.949 62.887Z" fill="white"/>
<path d="M210.949 63.385H182.403C181.861 63.3944 181.324 63.2889 180.827 63.0758C180.331 62.8627 179.887 62.5469 179.527 62.1502C179.171 61.7429 178.909 61.2653 178.758 60.7498C178.607 60.2343 178.571 59.693 178.653 59.1628L179.049 56.3049C179.227 55.1839 179.801 54.1596 180.67 53.41C181.539 52.6604 182.648 52.233 183.805 52.2022H212.352C212.894 52.1928 213.431 52.2983 213.928 52.5114C214.424 52.7245 214.867 53.0403 215.228 53.437C215.583 53.845 215.844 54.3226 215.995 54.8379C216.146 55.3532 216.182 55.8942 216.102 56.4244L215.705 59.2823C215.527 60.4032 214.954 61.4276 214.085 62.1772C213.216 62.9268 212.107 63.3542 210.949 63.385ZM183.805 53.1781C182.893 53.2025 182.018 53.5397 181.333 54.131C180.647 54.7223 180.196 55.5303 180.056 56.4144L179.659 59.2723C179.597 59.6651 179.62 60.0664 179.729 60.4494C179.838 60.8324 180.029 61.1882 180.289 61.493C180.555 61.7825 180.882 62.0124 181.246 62.1671C181.611 62.3217 182.006 62.3975 182.403 62.3892H210.949C211.864 62.3644 212.74 62.0258 213.425 61.4325C214.111 60.8391 214.561 60.0288 214.699 59.1429L215.096 56.285C215.159 55.8915 215.134 55.4892 215.024 55.1059C214.913 54.7226 214.719 54.3673 214.455 54.0644C214.19 53.7774 213.865 53.5498 213.502 53.3969C213.139 53.2439 212.747 53.1693 212.352 53.1781H183.805Z" fill="#D1D3D4"/>
<path d="M213.012 47.8008H184.466C183.991 47.8133 183.52 47.7225 183.085 47.5351C182.651 47.3477 182.264 47.0682 181.953 46.7168C181.642 46.3654 181.415 45.9508 181.287 45.5029C181.159 45.0549 181.134 44.5848 181.214 44.1263L181.61 41.2684C181.765 40.2646 182.276 39.3462 183.052 38.6743C183.829 38.0024 184.822 37.6199 185.858 37.5939H214.404C214.879 37.5814 215.35 37.6721 215.785 37.8596C216.219 38.047 216.606 38.3265 216.917 38.6779C217.228 39.0293 217.455 39.4439 217.583 39.8918C217.711 40.3397 217.736 40.8099 217.656 41.2684L217.26 44.1263C217.105 45.1301 216.595 46.0485 215.818 46.7204C215.041 47.3922 214.048 47.7747 213.012 47.8008Z" fill="white"/>
<path d="M213.012 48.3285H184.466C183.919 48.342 183.375 48.2365 182.874 48.0198C182.373 47.803 181.928 47.4803 181.569 47.0747C181.211 46.6692 180.948 46.191 180.801 45.6743C180.653 45.1576 180.624 44.6154 180.716 44.0865L181.102 41.2286C181.282 40.1084 181.856 39.0851 182.724 38.3359C183.593 37.5866 184.701 37.1586 185.858 37.1259H214.404C214.952 37.1124 215.495 37.2179 215.996 37.4347C216.497 37.6514 216.943 37.9742 217.301 38.3797C217.66 38.7852 217.922 39.2635 218.07 39.7801C218.217 40.2968 218.246 40.839 218.154 41.368L217.768 44.2259C217.588 45.346 217.015 46.3693 216.146 47.1185C215.277 47.8678 214.169 48.2958 213.012 48.3285ZM185.858 38.1217C184.945 38.1484 184.069 38.4877 183.384 39.0806C182.699 39.6736 182.248 40.4829 182.108 41.368L181.722 44.2259C181.66 44.6171 181.685 45.0167 181.793 45.3979C181.902 45.7792 182.092 46.1333 182.352 46.4365C182.618 46.726 182.944 46.956 183.309 47.1106C183.674 47.2653 184.069 47.3411 184.466 47.3327H213.012C213.926 47.306 214.801 46.9668 215.486 46.3738C216.171 45.7808 216.622 44.9716 216.762 44.0865L217.138 41.2286C217.21 40.8408 217.192 40.4422 217.085 40.0621C216.979 39.6821 216.788 39.3301 216.524 39.0321C216.261 38.7342 215.933 38.4977 215.565 38.3402C215.196 38.1826 214.796 38.108 214.394 38.1217H185.858Z" fill="#D1D3D4"/>
<path d="M215.106 32.7743H186.549C186.076 32.7853 185.605 32.6935 185.172 32.5054C184.739 32.3173 184.354 32.0376 184.044 31.6864C183.734 31.3352 183.507 30.9212 183.38 30.474C183.253 30.0268 183.228 29.5575 183.307 29.0999L183.694 26.2419C183.852 25.2381 184.366 24.3207 185.144 23.6493C185.922 22.9779 186.915 22.5951 187.952 22.5675H216.498C216.972 22.5547 217.443 22.6453 217.877 22.8328C218.311 23.0203 218.697 23.3 219.008 23.6516C219.318 24.0033 219.545 24.4181 219.671 24.8661C219.798 25.3141 219.821 25.784 219.74 26.2419L219.353 29.0999C219.197 30.1029 218.686 31.0201 217.909 31.6917C217.133 32.3632 216.141 32.7464 215.106 32.7743Z" fill="white"/>
<path d="M215.106 33.2722H186.549C185.996 33.2918 185.444 33.1914 184.935 32.9779C184.425 32.7644 183.97 32.4433 183.602 32.0374C183.248 31.6291 182.987 31.1514 182.836 30.6362C182.685 30.121 182.648 29.5802 182.728 29.05L183.125 26.1921C183.3 25.0693 183.873 24.0426 184.742 23.291C185.611 22.5395 186.722 22.1107 187.881 22.0795H216.427C216.969 22.0687 217.507 22.1736 218.003 22.3868C218.5 22.6 218.943 22.9165 219.303 23.3143C219.659 23.7215 219.921 24.1991 220.072 24.7146C220.223 25.2301 220.258 25.7714 220.177 26.3016L219.791 29.1596C219.615 30.2701 219.053 31.2869 218.199 32.0367C217.344 32.7866 216.251 33.2232 215.106 33.2722ZM187.921 23.0653C187.008 23.092 186.132 23.4313 185.447 24.0243C184.762 24.6173 184.311 25.4265 184.171 26.3116L183.785 29.1695C183.714 29.5564 183.731 29.9541 183.837 30.3334C183.943 30.7127 184.134 31.0641 184.396 31.3619C184.658 31.6597 184.984 31.8964 185.352 32.0546C185.719 32.2128 186.118 32.2886 186.519 32.2764H215.106C216.017 32.2497 216.889 31.9115 217.572 31.3204C218.255 30.7292 218.706 29.9225 218.845 29.0401L219.242 26.1821C219.304 25.7894 219.281 25.388 219.172 25.0051C219.063 24.6221 218.872 24.2663 218.612 23.9615C218.346 23.672 218.019 23.4421 217.655 23.2874C217.29 23.1328 216.895 23.057 216.498 23.0653H187.921Z" fill="#D1D3D4"/>
<path d="M213.917 16.3638H192.027C191.892 16.3638 191.763 16.3114 191.667 16.218C191.572 16.1246 191.519 15.998 191.519 15.8659C191.521 15.7347 191.576 15.6095 191.67 15.5167C191.765 15.4239 191.893 15.3706 192.027 15.368H213.917C214.051 15.368 214.181 15.4205 214.276 15.5139C214.371 15.6072 214.425 15.7339 214.425 15.8659C214.425 15.9313 214.411 15.9961 214.386 16.0565C214.36 16.1169 214.323 16.1718 214.276 16.218C214.229 16.2642 214.173 16.3009 214.111 16.3259C214.049 16.351 213.983 16.3638 213.917 16.3638Z" fill="#D1D3D4"/>
</svg>
