<svg width="206" height="201" viewBox="0 0 206 201" fill="none" xmlns="http://www.w3.org/2000/svg">
<path d="M77.0381 200.17C119.585 200.17 154.076 197.22 154.076 193.582C154.076 189.943 119.585 186.994 77.0381 186.994C34.4911 186.994 0 189.943 0 193.582C0 197.22 34.4911 200.17 77.0381 200.17Z" fill="#E6E7E8"/>
<path d="M205.568 131.734H150.789V178.485H205.568V131.734Z" fill="white"/>
<path d="M205.568 178.946H150.789C150.674 178.946 150.564 178.899 150.483 178.814C150.402 178.729 150.356 178.613 150.356 178.493V131.733C150.356 131.613 150.402 131.498 150.483 131.413C150.564 131.328 150.674 131.28 150.789 131.28H205.568C205.682 131.282 205.79 131.331 205.871 131.415C205.952 131.5 205.998 131.614 206 131.733V178.493C205.998 178.613 205.952 178.727 205.871 178.811C205.79 178.896 205.682 178.944 205.568 178.946ZM151.221 178.04H205.135V132.186H151.23L151.221 178.04Z" fill="#D1D3D4"/>
<path d="M205.568 138.195H150.789C150.674 138.195 150.564 138.147 150.483 138.062C150.402 137.977 150.356 137.862 150.356 137.742C150.356 137.621 150.402 137.506 150.483 137.421C150.564 137.336 150.674 137.289 150.789 137.289H205.568C205.682 137.289 205.792 137.336 205.873 137.421C205.954 137.506 206 137.621 206 137.742C205.998 137.861 205.952 137.975 205.871 138.059C205.79 138.144 205.682 138.192 205.568 138.195Z" fill="#D1D3D4"/>
<path d="M54.6327 44.3843C53.4513 44.4675 52.2725 44.1861 51.2422 43.5749C50.2118 42.9636 49.3752 42.0494 48.8357 40.9452C48.2963 39.8411 48.0777 38.5955 48.207 37.3626C48.3363 36.1296 48.8078 34.9635 49.5632 34.0083C46.2585 32.4134 44.5109 28.3174 44.7532 24.5204C44.9954 20.7234 46.9073 17.2708 49.295 14.3528C51.2588 11.9695 53.7244 9.82177 56.6744 9.23274C57.2328 9.17447 57.7772 9.01502 58.2835 8.76152C58.6819 8.46798 59.0275 8.10288 59.3043 7.68313C61.4585 4.80141 64.1143 2.1553 67.4364 0.995361C70.7584 -0.164578 74.8244 0.496948 77.0478 3.33336C78.1591 2.32271 79.5373 1.68936 80.9998 1.51711C82.4623 1.34487 83.9403 1.64185 85.2382 2.36876C86.536 3.09566 87.5926 4.21824 88.2681 5.58793C88.9435 6.95762 89.206 8.50986 89.0209 10.0393C91.3614 10.4012 93.5561 11.4506 95.3506 13.0657C97.1451 14.6807 98.4659 16.7955 99.16 19.1647C100.397 23.9313 98.2949 29.5317 94.0991 31.7881C93.6146 32.0509 93.035 32.3953 93.0523 32.9571C93.1 33.2962 93.2448 33.6122 93.4675 33.8633C94.8171 35.8842 94.1423 38.8112 92.6024 40.6417C91.0625 42.4723 88.7613 43.4419 86.5467 44.3662C87.0393 44.8837 87.3676 45.5477 87.4868 46.2677C87.606 46.9877 87.5103 47.7288 87.2128 48.3898C86.571 49.713 85.5723 50.8096 84.3406 51.5433C79.5306 54.7966 73.5787 53.7817 68.189 53.8995C63.2146 54.0082 58.2749 50.6824 54.9788 46.9126C54.3386 46.1967 53.8282 44.8918 54.6327 44.3843Z" fill="white"/>
<path d="M74.1486 54.4166C73.2835 54.4166 72.4184 54.4166 71.6225 54.4166C70.4978 54.4166 69.3213 54.3623 68.2139 54.4166C63.698 54.4982 58.6977 51.843 54.6663 47.2848C54.3826 46.9868 54.1596 46.6315 54.0109 46.2405C53.8622 45.8496 53.7908 45.431 53.8012 45.0103C53.7963 44.9772 53.7963 44.9436 53.8012 44.9106C52.6364 44.852 51.5086 44.4639 50.5376 43.7876C49.5666 43.1113 48.7886 42.1721 48.2864 41.0698C47.7842 39.9674 47.5764 38.7431 47.6853 37.527C47.7942 36.3109 48.2155 35.1484 48.9046 34.163C45.92 32.4412 44.06 28.5536 44.3195 24.4939C44.5358 21.0231 46.1017 17.5161 48.9652 14.0544C51.4567 11.0458 53.9482 9.32403 56.5955 8.78937L56.8896 8.73499C57.3058 8.71786 57.7112 8.59094 58.0681 8.36599C58.425 8.14105 58.7219 7.82536 58.9313 7.44819C61.6477 3.82338 64.3728 1.59412 67.2969 0.570114C70.9044 -0.689507 74.858 0.189507 77.0986 2.69969C78.2778 1.74602 79.6956 1.17074 81.1804 1.04345C82.6652 0.916161 84.1535 1.24232 85.465 1.98245C86.7766 2.72259 87.8553 3.84499 88.5706 5.21386C89.2859 6.58273 89.6072 8.13942 89.4957 9.69557C91.8331 10.138 94.0098 11.2441 95.7885 12.8931C97.5671 14.5422 98.8796 16.671 99.5829 19.0476C100.898 24.1132 98.5707 29.922 94.297 32.1966C93.8645 32.4231 93.4752 32.6769 93.4838 32.9487C93.5268 33.1368 93.6129 33.311 93.7347 33.4562L93.8126 33.574C95.3525 35.8576 94.4787 39.0565 92.8782 40.9052C91.2952 42.5328 89.3862 43.771 87.2896 44.53C87.6684 45.1238 87.8972 45.8084 87.9547 46.52C88.0122 47.2316 87.8965 47.9468 87.6184 48.5988C86.9563 49.9959 85.911 51.154 84.6164 51.9246C81.4069 54.0995 77.7734 54.4166 74.1486 54.4166ZM69.1742 53.438C69.996 53.438 70.8266 53.438 71.6398 53.438C75.9653 53.5286 80.4206 53.6283 84.1147 51.1271C85.2787 50.4478 86.2218 49.4189 86.8225 48.1729C87.0909 47.5956 87.181 46.9451 87.0802 46.3117C86.9794 45.6784 86.6928 45.0936 86.2601 44.6387C86.2035 44.5883 86.1602 44.5235 86.1345 44.4505C86.1087 44.3775 86.1013 44.2987 86.1131 44.2219C86.1252 44.1439 86.1562 44.0704 86.2032 44.0085C86.2501 43.9467 86.3114 43.8984 86.3813 43.8685C88.4056 43.0166 90.7068 42.0561 92.2381 40.2436C93.6136 38.6578 94.3835 35.9392 93.1032 34.0362L93.0253 33.9365C92.7895 33.6516 92.6443 33.2969 92.6101 32.9215C92.6101 32.0153 93.4319 31.5804 93.8904 31.3357C97.818 29.2152 99.9462 23.9048 98.7351 19.2288C98.0507 16.9563 96.7691 14.9316 95.0371 13.3866C93.3051 11.8416 91.1928 10.8388 88.942 10.493C88.8301 10.4751 88.7293 10.4119 88.6614 10.317C88.5935 10.2221 88.5638 10.1031 88.5786 9.98555C88.7486 8.54998 88.5004 7.09411 87.8667 5.80884C87.233 4.52357 86.2433 3.46889 85.0274 2.78307C83.8115 2.09725 82.4261 1.81231 81.0529 1.96561C79.6797 2.11891 78.3828 2.70329 77.3322 3.64214C77.2888 3.68219 77.2379 3.7125 77.1829 3.73121C77.1278 3.74991 77.0697 3.7566 77.0121 3.75088C76.955 3.74641 76.8994 3.72961 76.8488 3.70154C76.7981 3.67347 76.7536 3.63473 76.718 3.58777C74.7715 1.10477 71.0082 0.198569 67.5824 1.40382C64.8227 2.36439 62.2273 4.50303 59.6493 7.93754C59.3439 8.4024 58.9598 8.80475 58.516 9.12466C58.0593 9.37935 57.5599 9.53935 57.0453 9.59589L56.7685 9.65026C54.3202 10.1487 51.9844 11.7708 49.6227 14.6162C46.8889 17.9239 45.4009 21.2587 45.1933 24.521C44.9424 28.4358 46.8111 32.1513 49.7524 33.5831C49.8122 33.6122 49.865 33.655 49.9069 33.7083C49.9489 33.7616 49.9788 33.8241 49.9947 33.8912C50.0085 33.9594 50.0071 34.0301 49.9906 34.0977C49.9741 34.1653 49.9429 34.2279 49.8995 34.2808C49.1861 35.1639 48.7381 36.2483 48.6117 37.3976C48.4854 38.5468 48.6864 39.7095 49.1896 40.7393C49.6927 41.7691 50.4754 42.62 51.4391 43.1849C52.4029 43.7497 53.5047 44.0034 54.6057 43.9138C54.7043 43.9032 54.8032 43.9292 54.8854 43.9872C54.9676 44.0451 55.0278 44.1313 55.0556 44.2309C55.085 44.3282 55.0822 44.433 55.0476 44.5284C55.0131 44.6238 54.9488 44.7042 54.8652 44.7565C54.8118 44.7876 54.7665 44.8319 54.7333 44.8857C54.7001 44.9394 54.6801 45.0009 54.6749 45.0646C54.6897 45.643 54.9194 46.1925 55.3151 46.5961C59.1389 50.964 63.9662 53.5195 68.1966 53.4289L69.1742 53.438Z" fill="#231F20"/>
<path d="M116.418 177.098C118.399 177.098 133.167 178.774 140.079 182.372C146.991 185.97 148.488 186.25 147.086 191.108C145.685 195.965 133.513 197.161 124.248 195.331C118.28 194.045 112.524 191.853 107.162 188.824L116.418 177.098Z" fill="white"/>
<path d="M132.984 196.627C130.028 196.615 127.079 196.312 124.177 195.721C118.169 194.426 112.373 192.222 106.97 189.178C106.92 189.146 106.877 189.104 106.842 189.055C106.808 189.005 106.784 188.948 106.771 188.888C106.761 188.829 106.764 188.768 106.779 188.71C106.794 188.652 106.821 188.599 106.858 188.553L116.115 176.827C116.149 176.779 116.193 176.74 116.244 176.713C116.295 176.686 116.352 176.672 116.409 176.673H116.495C118.909 176.673 133.33 178.394 140.251 181.992L141.808 182.798C147.354 185.644 148.85 186.423 147.466 191.226C146.592 194.271 140.9 196.627 132.984 196.627ZM107.775 188.698C112.984 191.579 118.556 193.675 124.324 194.923C133.624 196.736 145.424 195.449 146.713 190.991C147.899 186.858 147.042 186.414 141.462 183.551L139.905 182.744C133.304 179.31 119.186 177.561 116.599 177.506L107.775 188.698Z" fill="#231F20"/>
<path d="M118.399 177.053C119.705 177.388 120.842 178.228 121.582 179.404C122.322 180.581 122.609 182.007 122.387 183.396C121.738 188.552 111.331 188.77 110.734 188.833C110.137 188.897 118.399 177.053 118.399 177.053Z" fill="white"/>
<path d="M110.734 189.123C110.657 189.121 110.581 189.098 110.515 189.057C110.448 189.016 110.393 188.957 110.353 188.888C110.224 188.616 110.016 188.199 118.079 176.772C118.125 176.705 118.19 176.655 118.264 176.627C118.338 176.6 118.418 176.596 118.494 176.618C118.537 176.618 123.468 177.914 122.82 183.378C122.162 188.625 112.681 189.087 110.786 189.123H110.734ZM118.52 177.497C115.985 181.122 112.213 186.559 111.27 188.281C113.641 188.163 121.435 187.465 121.963 183.269C122.166 182.042 121.931 180.778 121.303 179.721C120.674 178.663 119.696 177.884 118.555 177.533L118.52 177.497Z" fill="#231F20"/>
<path d="M41.2657 188.86C40.9629 189.024 38.134 192.875 25.7975 194.415C13.461 195.956 8.88456 198.738 6.1335 191.951C3.38245 185.163 5.26839 180.777 11.3242 178.838C17.3799 176.899 34.1545 175.295 37.4419 178.539C40.7293 181.783 41.2657 188.86 41.2657 188.86Z" fill="white"/>
<path d="M12.2242 196.717C9.17033 196.717 7.20653 195.648 5.77045 192.114C4.33437 188.579 4.11809 185.544 5.16488 183.197C6.1338 181.022 8.17546 179.418 11.2206 178.448C16.9131 176.636 34.2066 174.769 37.719 178.24C41.0843 181.556 41.6206 188.534 41.6466 188.824C41.6506 188.901 41.6351 188.977 41.6016 189.046C41.5682 189.114 41.518 189.172 41.4563 189.214L41.3351 189.323C37.7795 192.712 30.9538 194.189 25.8324 194.823C23.1765 195.158 20.8926 195.548 18.9115 195.892C16.7049 196.34 14.4696 196.615 12.2242 196.717ZM28.1941 177.089C22.2681 177.089 15.0877 178.077 11.4715 179.237C8.63396 180.143 6.74802 181.593 5.88291 183.55C4.93129 185.671 5.13892 188.444 6.49714 191.787C8.53015 196.817 11.5321 196.318 18.7644 195.077C20.7888 194.733 23.09 194.343 25.7545 194.008C30.7548 193.382 37.4248 191.95 40.8247 188.706C40.7036 187.519 39.9596 181.656 37.1653 178.865C35.9196 177.578 32.3639 177.089 28.1941 177.089Z" fill="#231F20"/>
<path d="M45.2025 186.088C45.2025 186.088 39.6053 190.982 35.8767 190.402C32.148 189.822 26.992 187.683 29.0682 183.469C31.1445 179.255 44.5105 176.718 44.5105 176.718L45.2025 186.088Z" fill="white"/>
<path d="M36.5162 190.864C36.2816 190.864 36.0474 190.846 35.8154 190.809C33.0211 190.374 29.6472 189.124 28.5658 186.904C28.2988 186.335 28.1724 185.705 28.1981 185.072C28.2238 184.438 28.4008 183.822 28.7129 183.279C30.8583 178.911 43.8869 176.419 44.4406 176.31C44.4951 176.3 44.5509 176.303 44.6045 176.317C44.6581 176.331 44.7084 176.356 44.752 176.392C44.7959 176.428 44.8322 176.473 44.859 176.525C44.8857 176.576 44.9023 176.633 44.9078 176.691L45.5998 186.052C45.6046 186.118 45.5946 186.184 45.5706 186.246C45.5465 186.307 45.5092 186.362 45.4614 186.405C45.2365 186.596 40.314 190.864 36.5162 190.864ZM44.1551 177.216C41.8626 177.688 31.1784 180.071 29.4482 183.66C29.193 184.086 29.0449 184.573 29.0176 185.075C28.9904 185.577 29.085 186.078 29.2925 186.532C30.2441 188.462 33.3585 189.586 35.9625 189.994C39.1375 190.492 43.9042 186.668 44.8212 185.907L44.1551 177.216Z" fill="#231F20"/>
<path d="M112.438 144.982C112.438 144.982 106.538 169.087 85.0058 173.69C63.4731 178.294 52.3305 177.08 44.7002 161.855C37.07 146.631 42.1049 137.316 42.1049 137.316L110.059 135.902L112.438 144.982Z" fill="#231F20"/>
<path d="M67.2449 176.509C56.8636 176.509 49.6572 172.721 44.3108 162.065C36.6632 146.795 41.5338 137.479 41.7155 137.09C41.7532 137.021 41.8074 136.964 41.8727 136.924C41.9379 136.885 42.012 136.864 42.0875 136.863L110.042 135.449C110.14 135.444 110.237 135.475 110.315 135.536C110.394 135.597 110.451 135.685 110.474 135.785L112.828 144.847C112.845 144.924 112.845 145.005 112.828 145.082C112.767 145.327 106.616 169.55 85.0575 174.126C78.2491 175.603 72.3577 176.509 67.2449 176.509ZM42.3903 137.76C41.7155 139.255 38.3069 148.118 45.0808 161.648C52.8235 177.053 64.1132 177.706 84.8758 173.247C105.145 168.915 111.469 146.759 111.945 144.983L109.705 136.365L42.3903 137.76Z" fill="#231F20"/>
<path d="M37.036 145.199C37.036 145.199 25.9021 107.501 27.3641 83.8767C28.8261 60.2521 37.209 59.4093 48.6458 58.0772C53.724 57.4791 80.776 53.2834 90.9065 65.7708C101.037 78.2583 118.867 136.745 118.867 136.745L37.036 145.199Z" fill="#001A4B"/>
<path d="M77.2203 58.1406L75.49 70.7549C75.49 70.7549 71.7009 77.2705 64.1138 73.9719C56.5268 70.6734 56.3798 64.5928 56.3798 64.5928L59.9786 41.2852C59.9786 41.2852 67.9809 33.7637 71.3462 19.3914C71.3462 19.3914 78.0508 31.6432 87.7833 34.3981C87.7833 34.3981 87.1344 44.5747 85.3955 50.8819C83.6653 56.9806 77.3414 58.0681 77.2203 58.1406Z" fill="white"/>
<path d="M68.1789 75.3501C66.7075 75.3315 65.2545 75.0049 63.9053 74.3895C56.1193 71.0184 55.9117 64.8653 55.903 64.6025L59.5278 41.2134C59.5454 41.1098 59.5939 41.0146 59.6663 40.9416C59.7441 40.8691 67.608 33.3476 70.9127 19.2834C70.9364 19.197 70.9832 19.1195 71.0476 19.0601C71.112 19.0007 71.1913 18.9618 71.276 18.9481C71.3606 18.9355 71.4468 18.9495 71.5237 18.9882C71.6007 19.0269 71.665 19.0886 71.7086 19.1656C71.7778 19.2924 78.4478 31.2905 87.8689 33.9548C87.9663 33.9819 88.0516 34.0439 88.11 34.1299C88.1685 34.216 88.1964 34.3207 88.189 34.426C88.189 34.5257 87.5142 44.7295 85.784 51.0095C84.3565 56.1839 79.7282 57.9601 77.6173 58.5038L75.8871 70.8191C75.8791 70.8791 75.8615 70.9373 75.8352 70.9912C74.9826 72.304 73.8431 73.3844 72.5113 74.1426C71.1796 74.9007 69.6943 75.3147 68.1789 75.3501ZM60.3929 41.5034L56.8114 64.666C56.8114 64.811 57.0709 70.4113 64.2859 73.5558C71.0252 76.4828 74.6673 71.2722 75.0825 70.5925L76.8127 58.0779C76.8208 58.0092 76.8447 57.9436 76.8824 57.8867C76.92 57.8299 76.9704 57.7835 77.029 57.7516C77.1087 57.7032 77.197 57.6723 77.2886 57.661C79.1485 57.1989 83.6298 55.5949 84.9621 50.7558C86.4847 45.237 87.1768 36.6099 87.3065 34.7341C79.1745 32.233 73.2745 23.4519 71.5096 20.543C68.2222 33.3023 61.3273 40.5066 60.3929 41.5034Z" fill="#231F20"/>
<path d="M64.6407 41.6384C64.5436 40.4595 64.0819 39.3459 63.3258 38.4667C62.5906 37.6769 61.73 37.0268 60.7824 36.5456C60.2909 36.2272 59.7386 36.0261 59.1646 35.9565C58.7585 35.9607 58.3567 36.0437 57.9794 36.2012C57.0583 36.509 56.2727 37.1519 55.7647 38.0136C55.4303 38.7447 55.2728 39.5508 55.3062 40.3607C55.272 41.2372 55.3476 42.1146 55.5311 42.9705C55.7343 43.8252 56.0984 44.6287 56.6019 45.334C57.1055 46.0393 57.7384 46.6322 58.4637 47.0779C59.1889 47.5235 59.9917 47.813 60.8252 47.9293C61.6586 48.0457 62.5058 47.9865 63.3171 47.7553" fill="white"/>
<path d="M61.6741 48.3994C60.1687 48.4009 58.7059 47.8756 57.5179 46.907C56.3299 45.9384 55.4847 44.5819 55.1166 43.0528C54.916 42.1627 54.8344 41.2478 54.8743 40.3342C54.8438 39.4516 55.019 38.5745 55.3848 37.7787C55.936 36.8313 56.7919 36.1212 57.7984 35.776C58.2289 35.6008 58.6862 35.5087 59.148 35.5042C59.7889 35.5748 60.4067 35.7947 60.9561 36.1476C61.9452 36.6533 62.8436 37.3339 63.612 38.1593C64.4325 39.1141 64.9336 40.323 65.0394 41.6029C65.0467 41.7226 65.0092 41.8406 64.935 41.9319C64.8607 42.0232 64.7555 42.0807 64.6415 42.0922C64.5277 42.0976 64.4162 42.0576 64.3295 41.9802C64.2428 41.9028 64.1873 41.7939 64.1743 41.6754C64.0894 40.5972 63.6736 39.5767 62.9891 38.7665C62.2859 38.0184 61.4632 37.405 60.5581 36.9541C60.1266 36.6643 59.6391 36.4786 59.1307 36.4104C58.7802 36.4134 58.4336 36.4873 58.1099 36.6278C57.2927 36.8921 56.5891 37.4465 56.1201 38.1956C55.8263 38.8649 55.6899 39.5983 55.7222 40.3342C55.6807 41.1714 55.7535 42.0106 55.9384 42.8263C56.1288 43.6195 56.4677 44.3653 56.9357 45.0201C57.4036 45.6749 57.9911 46.2258 58.664 46.6406C59.337 47.0555 60.082 47.3261 60.8557 47.4367C61.6294 47.5473 62.4163 47.4956 63.1708 47.2848C63.2809 47.2542 63.3981 47.2704 63.4969 47.3298C63.5957 47.3891 63.6681 47.487 63.6985 47.602C63.7128 47.6597 63.7161 47.7198 63.7082 47.7788C63.7002 47.8379 63.6813 47.8947 63.6523 47.9461C63.6234 47.9974 63.5851 48.0423 63.5396 48.0781C63.494 48.1139 63.4422 48.14 63.3871 48.1547C62.8291 48.3162 62.253 48.3985 61.6741 48.3994Z" fill="#231F20"/>
<path d="M75.5163 38.0413C75.5163 38.0413 78.9162 45.0643 77.8002 46.0702C76.6842 47.0761 74.0024 45.9705 74.0024 45.9705" fill="white"/>
<path d="M76.4068 46.95C75.518 46.9213 74.6403 46.7343 73.8114 46.3972C73.7585 46.3752 73.7103 46.3425 73.6696 46.301C73.6288 46.2595 73.5962 46.21 73.5737 46.1553C73.5512 46.1006 73.5392 46.0418 73.5384 45.9822C73.5377 45.9226 73.5481 45.8635 73.5692 45.8082C73.6133 45.6979 73.6966 45.6098 73.8015 45.5625C73.9063 45.5152 74.0247 45.5123 74.1315 45.5544C74.763 45.8082 76.7269 46.3972 77.4795 45.7266C77.938 45.3279 76.7961 41.7574 75.1004 38.2414C75.0738 38.1886 75.0577 38.1308 75.0529 38.0714C75.0481 38.012 75.0548 37.9521 75.0725 37.8955C75.0903 37.8388 75.1188 37.7865 75.1563 37.7416C75.1938 37.6967 75.2395 37.6602 75.2908 37.6342C75.3933 37.5829 75.5108 37.5749 75.6188 37.6121C75.7268 37.6492 75.8169 37.7286 75.8704 37.8336C76.9345 40.0447 79.2876 45.3007 78.0505 46.4153C77.5766 46.7842 76.9968 46.9728 76.4068 46.95Z" fill="#231F20"/>
<path d="M71.2925 36.454C71.3577 35.6159 70.9473 34.897 70.3758 34.8482C69.8044 34.7995 69.2883 35.4393 69.2231 36.2773C69.1578 37.1153 69.5682 37.8342 70.1397 37.883C70.7111 37.9318 71.2272 37.292 71.2925 36.454Z" fill="#231F20"/>
<path d="M82.0099 38.005C82.0695 37.1665 81.6544 36.4507 81.0826 36.406C80.5109 36.3614 79.999 37.005 79.9394 37.8435C79.8798 38.682 80.2949 39.3979 80.8667 39.4425C81.4385 39.4871 81.9503 38.8435 82.0099 38.005Z" fill="#231F20"/>
<path d="M74.6324 52.5682C73.3096 52.5925 72.0007 52.2816 70.8173 51.662C68.7497 50.5292 67.426 48.3634 66.881 45.2279C66.8711 45.169 66.8724 45.1086 66.8849 45.0502C66.8974 44.9918 66.9208 44.9366 66.9538 44.8877C66.9868 44.8388 67.0287 44.7973 67.0771 44.7655C67.1254 44.7337 67.1794 44.7122 67.2357 44.7023C67.3478 44.6835 67.4625 44.7107 67.556 44.7782C67.6494 44.8458 67.7144 44.9484 67.7375 45.0648C68.2219 47.9103 69.3985 49.8586 71.1979 50.8555C74.8314 52.8491 79.9442 50.4386 79.9961 50.4114C80.1005 50.3624 80.2193 50.3587 80.3263 50.4012C80.4333 50.4436 80.5199 50.5288 80.5671 50.638C80.5915 50.6919 80.6052 50.7505 80.6075 50.8102C80.6098 50.8698 80.6005 50.9293 80.5803 50.9852C80.5601 51.041 80.5294 51.092 80.49 51.1351C80.4505 51.1782 80.4032 51.2126 80.3508 51.2361C78.544 52.0606 76.6025 52.5129 74.6324 52.5682Z" fill="#231F20"/>
<path d="M77.2194 58.1411C77.2194 58.1411 69.4334 58.8117 65.4193 55.495C65.4193 55.495 68.8365 66.8225 76.0169 66.7863L77.2194 58.1411Z" fill="#231F20"/>
<path d="M75.9653 67.2395C68.5772 67.2395 65.1341 56.1023 64.987 55.6311C64.9616 55.5381 64.9646 55.4392 64.9956 55.3482C65.0266 55.2571 65.0842 55.1786 65.16 55.1236C65.233 55.0641 65.3228 55.0317 65.4152 55.0317C65.5077 55.0317 65.5975 55.0641 65.6705 55.1236C69.5375 58.2862 77.0899 57.6791 77.1678 57.67C77.2322 57.6653 77.2968 57.6757 77.3569 57.7005C77.4169 57.7253 77.4709 57.7639 77.5149 57.8135C77.5589 57.863 77.5917 57.9222 77.611 57.9868C77.6302 58.0513 77.6355 58.1196 77.6263 58.1865L76.4238 66.8408C76.4052 66.9536 76.3488 67.0557 76.2648 67.1288C76.1807 67.2019 76.0745 67.2412 75.9653 67.2395ZM66.276 56.6369C67.3747 59.4734 70.4891 66.0433 75.6279 66.3242L76.692 58.6306C75.0309 58.7031 69.9095 58.7575 66.2933 56.6369H66.276Z" fill="#231F20"/>
<path d="M40.0727 60.1801C24.0941 58.0958 9.09311 129.151 17.8134 135.902C31.413 146.442 72.9209 132.051 72.9209 132.051L68.7684 113.302C68.7684 113.302 38.8096 114.797 38.2646 108.354C37.7196 101.911 55.0045 71.707 52.5822 67.3028C50.1599 62.8987 40.0727 60.1801 40.0727 60.1801Z" fill="#001A4B"/>
<path d="M95.8637 113.827C95.7683 113.83 95.6754 113.795 95.6033 113.73C95.5312 113.664 95.4852 113.573 95.4744 113.473C93.4154 98.3218 88.8995 72.9481 87.4375 71.4619C87.3664 71.384 87.3268 71.2802 87.3272 71.1724C87.3275 71.0645 87.3678 70.961 87.4394 70.8836C87.5111 70.8062 87.6086 70.7609 87.7115 70.7572C87.8144 70.7535 87.9146 70.7917 87.9912 70.8638C89.8685 72.7759 94.6958 101.883 96.253 113.356C96.2678 113.465 96.2406 113.576 96.1774 113.664C96.1141 113.753 96.02 113.811 95.9156 113.827H95.8637Z" fill="#231F20"/>
<path d="M80.5765 149.677L52.9968 141.584L103.649 131.607L131.064 143.641L80.5765 149.677Z" fill="white"/>
<path d="M80.5771 150.157C80.54 150.165 80.5016 150.165 80.4646 150.157L52.8849 142.001C52.7702 142.001 52.6601 141.953 52.579 141.868C52.4979 141.783 52.4523 141.668 52.4523 141.548C52.4523 141.427 52.4979 141.312 52.579 141.227C52.6601 141.142 52.7702 141.095 52.8849 141.095L103.537 131.126C103.616 131.099 103.701 131.099 103.779 131.126L131.195 143.161C131.282 143.2 131.355 143.268 131.402 143.355C131.449 143.442 131.467 143.542 131.454 143.641C131.441 143.741 131.397 143.834 131.328 143.904C131.259 143.975 131.169 144.019 131.074 144.031L80.629 150.157H80.5771ZM54.9006 141.702L80.6117 149.25L129.369 143.424L103.598 132.114L54.9006 141.702Z" fill="#231F20"/>
<path d="M64.3035 119.781C70.3592 120.479 75.9738 120.932 81.6057 123.406C84.8239 124.822 87.8632 126.648 90.6547 128.843C92.0771 129.9 93.4061 131.089 94.6256 132.395C95.5945 133.501 95.2831 134.579 93.6567 134.045C91.7654 133.424 89.9746 132.507 88.3449 131.326C92.2416 134.656 95.6952 138.518 98.6137 142.808C98.9425 143.297 99.2626 143.995 98.8733 144.43C98.484 144.865 97.6189 144.43 97.1431 143.977L88.5871 135.476C90.8521 137.523 92.7784 139.948 94.2882 142.653C94.5045 143.043 94.7121 143.56 94.4872 143.913C94.1065 144.575 93.1376 144.076 92.6185 143.523C90.0557 140.813 87.7254 137.871 85.6544 134.733L90.2741 141.983C90.2304 142.117 90.1618 142.24 90.0723 142.346C89.9828 142.451 89.8741 142.538 89.7527 142.599C89.6312 142.661 89.4993 142.696 89.3645 142.704C89.2298 142.712 89.095 142.692 88.9678 142.644C88.459 142.424 88.0187 142.06 87.696 141.593L82.0988 134.86L85.4035 139.627C85.9226 140.37 86.4416 141.439 85.8447 142.137C85.2478 142.835 83.8982 142.137 83.1369 141.43C80.0747 138.503 76.7119 135.941 73.1103 133.791C71.804 132.984 70.688 131.888 69.2432 131.426C67.167 130.755 64.5717 130.846 62.4089 130.592" fill="white"/>
<path d="M98.4578 145.045C97.8798 144.977 97.3419 144.702 96.9352 144.266L94.1669 141.548C94.3485 141.847 94.5302 142.155 94.6946 142.454C94.8697 142.69 94.9807 142.971 95.0157 143.268C95.0507 143.564 95.0085 143.866 94.8936 144.139C94.8161 144.279 94.7084 144.398 94.5792 144.486C94.4499 144.574 94.3028 144.629 94.1496 144.647C93.8224 144.642 93.4996 144.567 93.2018 144.425C92.9039 144.283 92.6375 144.078 92.4193 143.822C91.8484 143.224 91.2947 142.617 90.7497 142.01C90.7536 142.043 90.7536 142.076 90.7497 142.109C90.7169 142.277 90.6506 142.436 90.5552 142.575C90.4598 142.714 90.3374 142.83 90.196 142.916C90.0093 143.033 89.8016 143.108 89.5858 143.138C89.3701 143.168 89.1508 143.151 88.9416 143.088C88.3596 142.849 87.8552 142.44 87.4882 141.91L86.4674 140.687C86.5948 140.982 86.6396 141.309 86.5967 141.63C86.5539 141.95 86.425 142.252 86.2251 142.499C86.1006 142.645 85.9488 142.763 85.7793 142.846C85.6097 142.928 85.4258 142.974 85.2389 142.979C84.3355 142.876 83.4989 142.431 82.8858 141.729C79.8537 138.817 76.5161 136.276 72.937 134.153C72.4958 133.881 72.0719 133.573 71.6567 133.247C70.9009 132.629 70.0572 132.14 69.1565 131.797C67.6481 131.397 66.1011 131.178 64.5455 131.144C63.8015 131.099 63.0748 131.054 62.3913 130.981C62.2871 130.968 62.1923 130.911 62.1274 130.825C62.0626 130.738 62.0331 130.628 62.0453 130.519C62.0507 130.465 62.0662 130.413 62.0909 130.366C62.1156 130.319 62.149 130.277 62.1893 130.243C62.2295 130.209 62.2758 130.184 62.3253 130.17C62.3748 130.155 62.4267 130.15 62.4779 130.157C63.1526 130.229 63.862 130.274 64.5887 130.32C66.2088 130.352 67.8199 130.58 69.3901 130.999C70.3653 131.373 71.2811 131.898 72.1065 132.558C72.5045 132.857 72.9111 133.147 73.335 133.41C76.9631 135.569 80.3494 138.147 83.4308 141.094C83.8988 141.593 84.5037 141.925 85.1611 142.046C85.2415 142.043 85.3205 142.023 85.3933 141.987C85.4662 141.951 85.5314 141.9 85.585 141.837C86.0521 141.303 85.4119 140.261 85.1178 139.835L81.8131 135.077C81.7822 135.036 81.7595 134.988 81.7462 134.937C81.733 134.886 81.7294 134.833 81.7359 134.781C81.7423 134.729 81.7586 134.679 81.7837 134.633C81.8088 134.587 81.8423 134.547 81.8823 134.515C81.9551 134.441 82.0529 134.399 82.1548 134.399C82.2567 134.399 82.3545 134.441 82.4273 134.515L88.0332 141.248C88.3067 141.649 88.6811 141.963 89.1146 142.155C89.217 142.185 89.3241 142.193 89.4296 142.179C89.5351 142.165 89.6369 142.129 89.7288 142.073C89.784 142.043 89.8315 142 89.8673 141.946L85.36 134.851C85.3015 134.761 85.2796 134.65 85.2991 134.543C85.3185 134.436 85.3778 134.341 85.4638 134.28C85.5499 134.218 85.6556 134.196 85.7579 134.216C85.8601 134.236 85.9504 134.298 86.0089 134.389C88.0705 137.504 90.3861 140.427 92.9298 143.124C93.2114 143.448 93.5956 143.654 94.0111 143.704C94.0453 143.703 94.0787 143.693 94.1076 143.674C94.1365 143.654 94.16 143.627 94.1755 143.596C94.2707 143.441 94.1755 143.151 93.9765 142.753C92.9351 140.886 91.6896 139.152 90.2652 137.587L88.336 135.666C88.2736 135.589 88.2404 135.49 88.2427 135.388C88.245 135.287 88.2826 135.189 88.3485 135.115C88.4143 135.04 88.5039 134.993 88.6004 134.983C88.6968 134.973 88.7936 135 88.8724 135.059C89.5558 135.675 90.2047 136.319 90.8275 136.998L97.437 143.568C97.6938 143.874 98.0468 144.074 98.4319 144.13C98.4669 144.132 98.5017 144.124 98.5334 144.108C98.565 144.093 98.5925 144.069 98.6135 144.04C98.8125 143.822 98.6135 143.333 98.3281 142.934C95.4309 138.675 92.0036 134.842 88.137 131.534C88.0662 131.463 88.0226 131.368 88.0146 131.266C88.0065 131.164 88.0346 131.063 88.0933 130.981C88.1521 130.899 88.2376 130.843 88.3334 130.823C88.4292 130.803 88.5286 130.821 88.6128 130.872C90.2035 132.032 91.9539 132.931 93.8035 133.537C94.4091 133.736 94.7292 133.654 94.7897 133.537C94.8503 133.419 94.7897 133.02 94.3658 132.549C93.1654 131.259 91.8535 130.088 90.4469 129.051C87.6828 126.879 84.6723 125.074 81.4843 123.677C76.4061 121.457 71.3279 120.886 65.9124 120.279L64.2254 120.08C64.1741 120.074 64.1245 120.058 64.0792 120.032C64.034 120.006 63.9942 119.971 63.962 119.929C63.9298 119.887 63.9059 119.838 63.8917 119.786C63.8775 119.734 63.8733 119.68 63.8793 119.626C63.8847 119.573 63.9002 119.521 63.9249 119.473C63.9496 119.426 63.9831 119.384 64.0233 119.351C64.0636 119.317 64.1098 119.292 64.1593 119.277C64.2089 119.262 64.2607 119.258 64.3119 119.264L66.0421 119.454C71.4837 120.071 76.6138 120.65 81.7958 122.916C85.044 124.325 88.1127 126.152 90.9314 128.353C92.3774 129.431 93.7268 130.644 94.9628 131.978C95.5857 132.685 95.776 133.455 95.4645 133.972C95.2829 134.262 94.7984 134.697 93.5786 134.298C92.8746 134.073 92.1842 133.803 91.511 133.491C94.277 136.202 96.778 139.196 98.9769 142.427C99.5738 143.333 99.6517 144.067 99.2105 144.574C99.116 144.683 99.0013 144.771 98.8734 144.832C98.7454 144.892 98.6069 144.925 98.4665 144.928L98.4578 145.045Z" fill="#231F20"/>
<path d="M129.77 154.452L142.391 119.064L90.8396 120.134L79.2817 160.487L129.77 154.452Z" fill="white"/>
<path d="M80.5764 150.157C80.5133 150.158 80.451 150.143 80.394 150.115C80.3371 150.087 80.287 150.045 80.2476 149.994C80.2023 149.937 80.1708 149.869 80.1557 149.796C80.1406 149.724 80.1425 149.649 80.1611 149.577L91.719 109.224C91.747 109.132 91.801 109.052 91.8736 108.994C91.9463 108.936 92.0342 108.902 92.1256 108.898L143.678 107.828C143.748 107.827 143.818 107.844 143.881 107.877C143.945 107.91 143.999 107.959 144.041 108.018C144.079 108.08 144.103 108.149 144.112 108.221C144.121 108.293 144.114 108.366 144.093 108.435L131.471 143.777C131.443 143.857 131.394 143.928 131.33 143.981C131.265 144.033 131.189 144.066 131.107 144.076L80.6283 150.157H80.5764ZM92.463 109.795L81.2165 149.178L130.787 143.252L143.089 108.743L92.463 109.795Z" fill="#231F20"/>
<path d="M128.313 143.967C128.313 143.967 142.302 155.865 137.388 166.776C132.475 177.687 43.0914 190.156 43.0914 190.156L39.0687 175.893C39.0687 175.893 109.186 138.376 128.313 143.967Z" fill="#231F20"/>
<path d="M43.0909 190.61C42.9976 190.608 42.9072 190.576 42.8326 190.517C42.758 190.459 42.703 190.377 42.6756 190.284L38.6529 176.02C38.6221 175.92 38.6271 175.811 38.6668 175.715C38.7066 175.618 38.7785 175.54 38.8691 175.494C39.0422 175.395 56.6298 166.015 76.3371 157.425C102.853 145.871 120.371 141.195 128.399 143.533C128.46 143.55 128.516 143.581 128.564 143.623C131.005 145.796 133.173 148.283 135.018 151.027C138.876 156.845 139.81 162.354 137.717 166.976C132.716 177.977 46.8022 190.093 43.1514 190.601L43.0909 190.61ZM39.5785 176.111L43.4023 189.631C49.6484 188.725 132.292 176.781 136.938 166.568C141.506 156.491 129.152 145.282 128.079 144.366C109.895 139.283 44.8211 173.392 39.6304 176.129L39.5785 176.111Z" fill="#231F20"/>
<path d="M34.4396 138.503C34.4396 138.503 103.847 167.9 121.054 175.657L111.054 191.842C111.054 191.842 46.9664 190.528 28.5914 173.663C10.2165 156.799 11.4363 128.725 34.4396 138.503Z" fill="#231F20"/>
<path d="M111.054 192.313C110.899 192.313 94.799 191.96 76.6663 189.55C52.2701 186.296 36.0061 181.077 28.3152 174.017C18.6952 165.191 11.956 149.695 17.2505 140.696C18.9807 137.706 23.6004 133.401 34.6219 138.077C35.314 138.376 104.229 167.574 121.245 175.232C121.303 175.256 121.355 175.294 121.397 175.343C121.439 175.392 121.47 175.45 121.488 175.513C121.505 175.576 121.509 175.643 121.5 175.709C121.491 175.774 121.469 175.837 121.436 175.893L111.435 192.105C111.394 192.172 111.338 192.226 111.271 192.262C111.204 192.299 111.13 192.316 111.054 192.313ZM25.9189 136.926C22.3633 136.926 19.6382 138.358 17.9772 141.167C13.8938 148.118 17.2937 162.708 28.8776 173.338C46.3614 189.386 106.504 191.289 110.821 191.398L120.424 175.857C102.654 167.882 34.9766 139.21 34.2845 138.92C31.6423 137.705 28.803 137.028 25.9189 136.926Z" fill="#231F20"/>
<path d="M131.332 129.513C131.407 129.931 131.579 130.323 131.834 130.655L133.184 132.766C133.134 132.548 133.04 132.344 132.907 132.168C132.774 131.992 132.606 131.849 132.415 131.749C132.223 131.649 132.013 131.594 131.799 131.588C131.585 131.582 131.373 131.625 131.176 131.715C130.793 131.932 130.475 132.256 130.256 132.651C130.038 133.046 129.928 133.497 129.939 133.953C129.978 134.865 130.184 135.76 130.545 136.59C131.505 139.2 133.677 143.015 136.817 141.04C138.945 139.699 139.533 134.968 139.836 132.612C140.433 127.972 139.075 122.01 133.382 122.916C133.547 125.201 134.36 127.382 135.718 129.178C134.793 128.235 131.047 126.776 131.332 129.513Z" fill="white"/>
<path d="M135.079 142.001C134.731 142.004 134.386 141.943 134.058 141.82C132.008 141.086 130.728 138.322 130.148 136.736C129.771 135.856 129.556 134.909 129.517 133.945C129.502 133.409 129.634 132.88 129.896 132.42C130.158 131.959 130.539 131.586 130.996 131.344C131.208 131.243 131.438 131.191 131.671 131.19L131.48 130.891C131.185 130.502 130.989 130.04 130.909 129.55C130.84 129.19 130.888 128.817 131.045 128.488C131.202 128.16 131.458 127.896 131.774 127.738C132.662 127.451 133.619 127.525 134.456 127.946C133.625 126.425 133.129 124.728 133.003 122.98C132.997 122.876 133.029 122.773 133.091 122.691C133.153 122.609 133.242 122.554 133.34 122.536C134.206 122.338 135.105 122.363 135.959 122.609C136.814 122.855 137.599 123.315 138.246 123.95C140.279 126.052 140.616 129.84 140.244 132.695C139.907 135.304 139.301 139.99 137.034 141.421C136.448 141.804 135.77 142.005 135.079 142.001ZM131.723 132.033C131.583 132.031 131.445 132.059 131.316 132.115C131.001 132.299 130.741 132.571 130.564 132.9C130.387 133.23 130.3 133.604 130.312 133.981C130.347 134.84 130.541 135.684 130.883 136.464C131.316 137.624 132.51 140.406 134.344 141.059C134.722 141.186 135.123 141.22 135.516 141.158C135.909 141.097 136.284 140.942 136.61 140.705C138.557 139.482 139.145 134.879 139.431 132.667C139.785 129.949 139.5 126.415 137.701 124.512C137.19 124.008 136.576 123.634 135.905 123.419C135.235 123.204 134.526 123.153 133.833 123.27C134.056 125.333 134.826 127.289 136.057 128.916C136.12 128.997 136.151 129.101 136.143 129.206C136.135 129.31 136.088 129.408 136.014 129.478C135.94 129.55 135.842 129.591 135.741 129.591C135.64 129.591 135.542 129.55 135.469 129.478C134.889 128.879 132.977 128.028 132.121 128.463C131.93 128.553 131.688 128.762 131.749 129.469C131.824 129.818 131.972 130.146 132.181 130.429L132.908 131.553C133.098 131.682 133.259 131.854 133.379 132.056C133.498 132.258 133.574 132.486 133.6 132.722C133.609 132.814 133.589 132.907 133.542 132.986C133.495 133.065 133.424 133.125 133.34 133.157C133.258 133.188 133.167 133.189 133.084 133.159C133.001 133.129 132.929 133.071 132.882 132.994L132.345 132.16C132.152 132.062 131.937 132.018 131.723 132.033Z" fill="#231F20"/>
<path d="M111.842 172.305C111.787 172.313 111.732 172.313 111.677 172.305C110.163 171.688 74.3824 157.18 66.3196 152.006C66.2193 151.94 66.1477 151.836 66.1202 151.716C66.0926 151.595 66.1115 151.468 66.1725 151.362C66.2027 151.309 66.2427 151.263 66.2901 151.227C66.3375 151.19 66.3914 151.164 66.4487 151.15C66.5059 151.135 66.5653 151.133 66.6234 151.143C66.6814 151.153 66.737 151.175 66.7868 151.208C74.7804 156.337 111.625 171.281 111.997 171.426C112.109 171.47 112.198 171.559 112.247 171.673C112.296 171.787 112.299 171.916 112.257 172.033C112.221 172.116 112.163 172.186 112.089 172.235C112.015 172.283 111.929 172.307 111.842 172.305Z" fill="white"/>
<path d="M70.1087 113.129C77.997 113.129 84.3917 106.788 84.3917 98.9654C84.3917 91.1429 77.997 84.8015 70.1087 84.8015C62.2204 84.8015 55.8257 91.1429 55.8257 98.9654C55.8257 106.788 62.2204 113.129 70.1087 113.129Z" fill="#231F20"/>
<path d="M70.1079 113.573C61.9932 113.573 55.4011 107.022 55.4011 98.9654C55.4011 90.9093 62.0019 84.3484 70.1079 84.3484C78.214 84.3484 84.8148 90.9093 84.8148 98.9654C84.8148 107.022 78.2227 113.573 70.1079 113.573ZM70.1079 85.2546C62.469 85.2546 56.2662 91.4077 56.2662 98.9654C56.2662 106.523 62.4777 112.667 70.1079 112.667C77.7382 112.667 83.9497 106.523 83.9497 98.9654C83.9497 91.4077 77.7469 85.2546 70.1079 85.2546Z" fill="#231F20"/>
<path d="M62.5742 103.569L59.1138 101.448V98.6479L62.5742 96.5274C63.7277 95.8326 64.8812 95.1258 66.0347 94.4069V97.7961C65.4204 98.1948 64.8062 98.5844 64.192 98.956C63.5777 99.3275 62.9722 99.7081 62.3493 100.116L64.192 101.185L66.0347 102.264V105.689L62.5742 103.569Z" fill="white"/>
<path d="M67.0116 106.586L71.0863 90.3474L73.2145 91.3532L69.1225 107.565L67.0116 106.586Z" fill="white"/>
<path d="M77.6953 96.5274L81.1558 98.6479V101.448L77.6953 103.569L74.2349 105.689V102.264L76.0776 101.185L77.9202 100.116C77.306 99.7081 76.6918 99.3185 76.0776 98.956C75.4633 98.5935 74.8577 98.1948 74.2349 97.7961V94.4069L77.6953 96.5274Z" fill="white"/>
<path d="M40.4958 138.376C40.3811 138.384 40.2684 138.343 40.1824 138.263C40.0964 138.183 40.0442 138.071 40.0373 137.95C40.0304 137.83 40.0694 137.712 40.1457 137.622C40.2219 137.532 40.3292 137.477 40.4439 137.47L61.2066 134.833L64.5027 117.425L37.9005 115.069C37.8369 115.064 37.7751 115.045 37.7197 115.012C37.6643 114.979 37.6167 114.933 37.5804 114.879C37.5416 114.825 37.5151 114.763 37.5031 114.697C37.4911 114.631 37.4939 114.563 37.5112 114.498L48.4462 71.8521C48.476 71.7319 48.5502 71.6291 48.6524 71.5662C48.7546 71.5033 48.8765 71.4855 48.9912 71.5168C49.106 71.548 49.2041 71.6257 49.2642 71.7328C49.3242 71.8399 49.3411 71.9675 49.3113 72.0877L38.5061 114.217L65.039 116.519C65.0999 116.526 65.1588 116.545 65.2122 116.576C65.2657 116.608 65.3127 116.65 65.3505 116.7C65.3867 116.752 65.4123 116.81 65.4257 116.873C65.4391 116.935 65.44 117 65.4283 117.062L61.9679 135.286C61.9491 135.379 61.9033 135.464 61.8367 135.529C61.7701 135.594 61.686 135.636 61.5959 135.649L40.4958 138.322V138.376Z" fill="#231F20"/>
<path d="M154.829 15.3134H111.695V19.9894H154.829V15.3134Z" fill="#E6E7E8"/>
<path d="M202.982 15.3134H159.847V19.9894H202.982V15.3134Z" fill="#E6E7E8"/>
<path d="M152.491 23.3242H131.845C130.554 23.3242 129.507 24.371 129.507 25.6622C129.507 26.9535 130.554 28.0002 131.845 28.0002H152.491C153.782 28.0002 154.829 26.9535 154.829 25.6622C154.829 24.371 153.782 23.3242 152.491 23.3242Z" fill="#001A4B"/>
<path d="M198.163 23.3242H159.847V28.0002H198.163V23.3242Z" fill="#E6E7E8"/>
<path d="M152.491 31.3445H125.253C123.961 31.3445 122.915 32.3912 122.915 33.6825C122.915 34.9737 123.961 36.0205 125.253 36.0205H152.491C153.782 36.0205 154.829 34.9737 154.829 33.6825C154.829 32.3912 153.782 31.3445 152.491 31.3445Z" fill="#E6E7E8"/>
<path d="M177.842 31.3445H159.847V36.0205H177.842V31.3445Z" fill="#E6E7E8"/>
<path d="M154.838 39.3551H136.221V44.0311H154.838V39.3551Z" fill="#E6E7E8"/>
<path d="M192.754 39.3551H162.185C160.894 39.3551 159.847 40.4019 159.847 41.6931C159.847 42.9843 160.894 44.0311 162.185 44.0311H192.754C194.045 44.0311 195.092 42.9843 195.092 41.6931C195.092 40.4019 194.045 39.3551 192.754 39.3551Z" fill="#001A4B"/>
<path d="M152.49 47.3751H151.24C149.949 47.3751 148.902 48.4219 148.902 49.7131C148.902 51.0044 149.949 52.0511 151.24 52.0511H152.49C153.782 52.0511 154.828 51.0044 154.828 49.7131C154.828 48.4219 153.782 47.3751 152.49 47.3751Z" fill="#001A4B"/>
<path d="M181.187 47.3751H162.185C160.894 47.3751 159.847 48.4219 159.847 49.7131C159.847 51.0044 160.894 52.0511 162.185 52.0511H181.187C182.479 52.0511 183.525 51.0044 183.525 49.7131C183.525 48.4219 182.479 47.3751 181.187 47.3751Z" fill="#E6E7E8"/>
<path d="M151.407 80.3251H117.123C115.644 80.3251 114.445 81.524 114.445 83.0029C114.445 84.4818 115.644 85.6807 117.123 85.6807H151.407C152.885 85.6807 154.084 84.4818 154.084 83.0029C154.084 81.524 152.885 80.3251 151.407 80.3251Z" fill="#001A4B"/>
<path d="M182.119 80.3251H163.13C161.652 80.3251 160.453 81.524 160.453 83.0029C160.453 84.4818 161.652 85.6807 163.13 85.6807H182.119C183.598 85.6807 184.797 84.4818 184.797 83.0029C184.797 81.524 183.598 80.3251 182.119 80.3251Z" fill="#E6E7E8"/>
<path d="M151.399 89.4952H124.572C123.094 89.4952 121.895 90.6941 121.895 92.1731C121.895 93.652 123.094 94.8509 124.572 94.8509H151.399C152.878 94.8509 154.077 93.652 154.077 92.1731C154.077 90.6941 152.878 89.4952 151.399 89.4952Z" fill="#E6E7E8"/>
<path d="M193.218 89.4952H163.13C161.652 89.4952 160.453 90.6941 160.453 92.1731C160.453 93.652 161.652 94.8509 163.13 94.8509H193.218C194.697 94.8509 195.896 93.652 195.896 92.1731C195.896 90.6941 194.697 89.4952 193.218 89.4952Z" fill="#E6E7E8"/>
<path d="M151.398 98.6758H140.663C139.184 98.6758 137.985 99.8747 137.985 101.354C137.985 102.833 139.184 104.031 140.663 104.031H151.398C152.877 104.031 154.076 102.833 154.076 101.354C154.076 99.8747 152.877 98.6758 151.398 98.6758Z" fill="#E6E7E8"/>
<path d="M199.923 98.6758H163.13C161.652 98.6758 160.453 99.8747 160.453 101.354C160.453 102.833 161.652 104.031 163.13 104.031H199.923C201.402 104.031 202.601 102.833 202.601 101.354C202.601 99.8747 201.402 98.6758 199.923 98.6758Z" fill="#E6E7E8"/>
<path d="M151.398 107.855H150.724C149.245 107.855 148.046 109.054 148.046 110.533C148.046 112.012 149.245 113.211 150.724 113.211H151.398C152.877 113.211 154.076 112.012 154.076 110.533C154.076 109.054 152.877 107.855 151.398 107.855Z" fill="#E6E7E8"/>
<path d="M202.57 107.855H163.13C161.652 107.855 160.453 109.054 160.453 110.533C160.453 112.012 161.652 113.211 163.13 113.211H202.57C204.049 113.211 205.248 112.012 205.248 110.533C205.248 109.054 204.049 107.855 202.57 107.855Z" fill="#001A4B"/>
<path d="M190.541 117.026H160.453V122.382H190.541V117.026Z" fill="#E6E7E8"/>
<path d="M175.704 68.7071L172.451 67.3478V65.5354L175.704 64.1761L178.957 62.8168V64.9735C178.369 65.2363 177.789 65.481 177.227 65.7166C176.664 65.9522 176.067 66.1969 175.496 66.4597L177.227 67.1484L178.957 67.8371V70.0301L175.704 68.7071Z" fill="#E6E7E8"/>
<path d="M179.918 70.6383L183.776 60.2441L185.801 60.8785L181.916 71.3179L179.918 70.6383Z" fill="#E6E7E8"/>
<path d="M190.005 64.2034C191.086 64.6565 192.176 65.1096 193.257 65.5627V67.3751L190.005 68.7344L186.752 70.0937V67.8735L188.482 67.1848L190.212 66.4961C189.624 66.2333 189.044 65.9886 188.482 65.753C187.92 65.5174 187.323 65.2727 186.752 65.0099V62.8441L190.005 64.2034Z" fill="#E6E7E8"/>
<path d="M112.828 4.1682C112.827 3.95813 112.871 3.75051 112.957 3.56104C113.033 3.36802 113.148 3.19476 113.295 3.05357C113.439 2.9141 113.606 2.80352 113.788 2.72734C113.983 2.64355 114.192 2.60046 114.402 2.60046C114.601 2.60238 114.798 2.64549 114.982 2.72734C115.16 2.8057 115.324 2.9161 115.466 3.05357C115.605 3.20011 115.716 3.37215 115.795 3.56104C115.875 3.75249 115.916 3.95922 115.916 4.1682C115.916 4.38009 115.875 4.58977 115.795 4.78442C115.714 4.96384 115.602 5.12651 115.466 5.2647C115.177 5.54772 114.798 5.70904 114.402 5.7178C114.192 5.71781 113.983 5.67472 113.788 5.59093C113.604 5.51821 113.437 5.40723 113.295 5.2647C113.151 5.13175 113.036 4.96796 112.957 4.78442C112.871 4.59177 112.826 4.38119 112.828 4.1682ZM112.828 9.47854C112.832 9.27104 112.875 9.06647 112.955 8.87669C113.036 8.68691 113.151 8.51569 113.295 8.37298C113.436 8.22759 113.604 8.11354 113.788 8.03768C113.983 7.957 114.192 7.91699 114.402 7.91988C114.601 7.91868 114.798 7.95871 114.982 8.03768C115.162 8.11586 115.327 8.22969 115.466 8.37298C115.605 8.51615 115.716 8.68521 115.795 8.87139C115.875 9.0645 115.916 9.27267 115.916 9.48307C115.916 9.69348 115.875 9.90165 115.795 10.0948C115.716 10.2782 115.605 10.4443 115.466 10.5841C115.324 10.7216 115.16 10.832 114.982 10.9103C114.798 10.9893 114.601 11.0293 114.402 11.0282C114.192 11.031 113.983 10.991 113.788 10.9103C113.606 10.8342 113.439 10.7236 113.295 10.5841C113.149 10.4495 113.034 10.2823 112.957 10.0948C112.87 9.90243 112.825 9.69163 112.828 9.47854Z" fill="#E6E7E8"/>
<path d="M163.341 156.645C163.683 156.664 164.021 156.562 164.302 156.355C164.544 156.165 164.656 155.766 164.656 155.15V152.341C164.656 151.875 164.714 151.412 164.829 150.963C164.937 150.545 165.119 150.151 165.366 149.803C165.617 149.469 165.936 149.196 166.3 149.006C166.733 148.794 167.207 148.692 167.684 148.707H169.631V151.625H168.947C168.791 151.609 168.634 151.637 168.492 151.707C168.35 151.778 168.23 151.887 168.143 152.023C167.993 152.299 167.918 152.613 167.926 152.93V155.793C167.936 156.156 167.874 156.517 167.745 156.853C167.641 157.114 167.494 157.353 167.312 157.56C167.153 157.739 166.962 157.884 166.75 157.986C166.58 158.08 166.395 158.138 166.205 158.158C166.393 158.195 166.576 158.256 166.75 158.34C166.961 158.435 167.152 158.574 167.312 158.747C167.728 159.23 167.949 159.864 167.926 160.515V163.387C167.915 163.705 167.99 164.019 168.143 164.293C168.229 164.432 168.349 164.543 168.491 164.615C168.632 164.686 168.79 164.716 168.947 164.701H169.631V167.619H167.684C167.207 167.634 166.733 167.532 166.3 167.32C165.936 167.129 165.617 166.857 165.366 166.523C165.121 166.174 164.939 165.78 164.829 165.363C164.714 164.91 164.656 164.444 164.656 163.976V161.167C164.686 160.953 164.67 160.734 164.609 160.527C164.547 160.32 164.442 160.13 164.302 159.971C164.021 159.764 163.683 159.662 163.341 159.681V156.645Z" fill="#E6E7E8"/>
<path d="M193.222 159.663C192.878 159.644 192.537 159.746 192.254 159.953C192.114 160.113 192.01 160.303 191.949 160.509C191.888 160.716 191.871 160.934 191.899 161.149V163.958C191.899 164.426 191.841 164.892 191.726 165.345C191.62 165.764 191.438 166.158 191.189 166.505C190.942 166.843 190.622 167.117 190.255 167.302C189.822 167.513 189.348 167.616 188.871 167.601H186.924V164.656H187.617C187.772 164.669 187.928 164.639 188.068 164.567C188.208 164.495 188.327 164.385 188.412 164.248C188.565 163.973 188.64 163.659 188.629 163.342V160.469C188.62 160.109 188.682 159.752 188.81 159.418C188.916 159.154 189.066 158.912 189.252 158.702C189.409 158.529 189.597 158.391 189.805 158.294C189.982 158.212 190.168 158.151 190.359 158.113C190.166 158.092 189.978 158.034 189.805 157.941C189.595 157.839 189.407 157.694 189.252 157.515C189.064 157.31 188.914 157.071 188.81 156.808C188.681 156.472 188.619 156.111 188.629 155.748V152.875C188.637 152.558 188.562 152.245 188.412 151.969C188.326 151.834 188.207 151.726 188.067 151.655C187.927 151.585 187.771 151.556 187.617 151.57H186.924V148.707H188.871C189.348 148.692 189.822 148.794 190.255 149.006C190.622 149.191 190.942 149.464 191.189 149.803C191.439 150.149 191.622 150.543 191.726 150.963C191.841 151.412 191.899 151.875 191.899 152.341V155.15C191.87 155.366 191.887 155.586 191.948 155.794C192.009 156.002 192.114 156.194 192.254 156.355C192.537 156.562 192.878 156.664 193.222 156.645V159.663Z" fill="#E6E7E8"/>
</svg>
