<svg width="561" height="468" viewBox="0 0 561 468" fill="none" xmlns="http://www.w3.org/2000/svg">
<path d="M268.725 456.653C365.135 456.653 443.292 378.497 443.292 282.087C443.292 185.676 365.135 107.52 268.725 107.52C172.314 107.52 94.1583 185.676 94.1583 282.087C94.1583 378.497 172.314 456.653 268.725 456.653Z" fill="white"/>
<path d="M268.725 107.52C303.251 107.52 337.002 117.758 365.709 136.94C394.416 156.122 416.791 183.385 430.004 215.283C443.216 247.181 446.673 282.28 439.937 316.143C433.202 350.006 416.576 381.111 392.162 405.524C367.749 429.938 336.644 446.564 302.781 453.299C268.919 460.035 233.819 456.578 201.921 443.365C170.023 430.153 142.76 407.778 123.578 379.071C104.397 350.364 94.1584 316.613 94.1584 282.087C94.1556 259.162 98.669 236.46 107.441 215.28C116.213 194.099 129.071 174.854 145.282 158.643C161.492 142.433 180.737 129.574 201.918 120.803C223.099 112.031 245.8 107.517 268.725 107.52ZM268.725 105.587C233.817 105.587 199.692 115.939 170.667 135.333C141.642 154.727 119.019 182.292 105.661 214.543C92.3017 246.794 88.8064 282.283 95.6167 316.52C102.427 350.758 119.237 382.207 143.921 406.891C168.605 431.575 200.054 448.385 234.292 455.195C268.529 462.005 304.017 458.51 336.269 445.151C368.52 431.793 396.085 409.17 415.479 380.145C434.873 351.12 445.225 316.995 445.225 282.087C445.175 235.292 426.563 190.427 393.474 157.338C360.385 124.249 315.52 105.637 268.725 105.587Z" fill="#231F20"/>
<path d="M137.842 166.585C139.121 167.084 140.524 167.173 141.855 166.837L139.523 164.736C142.675 161.269 145.995 157.928 149.42 154.713C149.337 156.009 148.932 157.264 148.242 158.365C147.553 159.466 146.6 160.377 145.469 161.017C149.167 161.227 152.046 159.042 155.282 158.054C159.128 157.142 163.021 156.44 166.943 155.953L161.228 159.924C162.311 160.346 163.42 160.697 164.548 160.975C165.62 158.642 167.027 160.533 168.288 160.47C171.125 160.302 174.256 163.664 176.42 160.197C177.44 160.319 178.446 160.537 179.424 160.849C182.112 161.675 184.672 162.87 187.031 164.4C189.678 166.501 190.498 166.753 192.515 163.643L189.846 162.719V161.647L195.267 160.47C195.483 161.754 195.568 163.057 195.52 164.358C195.277 165.177 194.901 165.951 194.406 166.648C196.002 166.8 197.587 167.046 199.155 167.383C200.656 167.899 202.122 168.51 203.546 169.211L202.222 171.901L209.471 170.745L209.745 171.397L206.971 173.225C211.173 174.464 213.695 172.3 213.716 168.056L217.267 166.144C216.002 166.033 214.727 166.191 213.527 166.606C209.619 167.467 205.647 168.455 201.802 166.48C199.827 165.471 199.932 164.063 201.802 163.097C204.127 161.828 206.568 160.786 209.093 159.987C213.506 158.726 218.044 157.886 222.604 156.814L221.847 155.659C223.914 155.06 226.02 154.611 228.151 154.314C229.447 154.494 230.7 154.907 231.849 155.533L230.735 153.137C232.837 154.125 234.56 155.68 235.841 155.385C238.636 154.755 240.779 156.919 243.679 156.352C245.318 156.037 247.524 158.453 248.785 159.273C250.113 159.427 251.423 159.716 252.693 160.134C253.881 160.887 254.999 161.745 256.034 162.698L251.6 161.626C253.596 164.105 255.803 167.026 258.177 169.716C259.837 171.565 261.623 173.918 263.787 174.527C266.752 175.401 269.471 176.955 271.73 179.066C272.164 179.535 272.497 180.089 272.707 180.693C272.917 181.297 272.999 181.937 272.948 182.575C272.648 184.428 272.134 186.241 271.414 187.975C271.021 188.919 270.283 189.677 269.349 190.095C268.416 190.513 267.359 190.559 266.393 190.223C264.649 189.362 262.463 187.26 261.392 187.744C259.837 188.479 259.08 190.98 257.988 192.745C257.771 193.105 257.575 193.476 257.4 193.858C256.391 195.959 256.517 200.771 252.672 195.77C249.541 196.443 249.52 193.879 249.331 192.135C249.295 191.251 249.019 190.394 248.535 189.654C248.05 188.914 247.374 188.319 246.578 187.933C246.126 187.779 245.729 187.495 245.438 187.116C245.147 186.737 244.975 186.281 244.944 185.804C244.912 185.327 245.023 184.852 245.261 184.438C245.5 184.024 245.856 183.69 246.284 183.478C248.701 181.755 248.974 180.179 246.894 177.952C245.801 176.776 244.141 176.145 242.922 175.032C241.704 173.918 241.052 172.447 239.855 171.481C238.467 170.308 236.87 169.41 235.148 168.833C234.16 168.56 232.837 169.484 231.408 169.968C234.244 172.216 236.388 173.876 238.51 175.578C239.687 176.523 241.073 182.218 240.002 182.869C238.02 184.059 235.792 184.778 233.488 184.97C231.406 184.73 229.352 184.293 227.353 183.667C226.323 183.711 225.308 183.924 224.348 184.298V185.559L229.748 186.063C231.158 186.138 232.562 186.306 233.95 186.567C235.862 186.987 236.051 188.269 234.77 189.509C233.005 191.127 233.572 192.261 235.022 193.543C238.657 190.58 239.455 190.875 240.317 195.497C240.411 196.56 240.411 197.628 240.317 198.691C241.809 199.321 243.637 200.792 244.519 200.372C248.343 198.544 250.823 201.927 254.248 202.179C255.256 199.531 257.168 201.149 258.933 201.191C260.103 201.102 261.211 200.629 262.085 199.847C262.568 199.447 262.884 197.998 262.589 197.745C261.86 196.978 261.376 196.01 261.2 194.965C261.024 193.921 261.164 192.847 261.602 191.883C266.204 194.405 266.161 194.405 265.111 199.111C264.946 200.069 264.876 201.04 264.901 202.011L271.73 204.742C273.831 206.844 275.47 208.482 277.046 210.016C277.613 210.542 278.453 210.899 278.79 211.55C279.047 212.181 279.43 212.753 279.916 213.231C280.402 213.709 280.981 214.082 281.616 214.328C282.252 214.574 282.931 214.687 283.612 214.661C284.293 214.635 284.961 214.47 285.576 214.177C285.471 215.122 285.366 216.026 285.24 217.034L291.292 216.761C289.559 219 287.663 221.106 285.618 223.065C283.202 225.838 285.177 228.78 285.618 231.617C290.703 232.016 295.788 229.662 300.705 232.625C297.91 238.319 302.575 244.203 299.213 249.771L295.872 249.372L293.897 251.998C288.812 250.8 283.895 250.086 282.362 245.695C282.362 243.993 282.74 242.753 282.362 242.122C281.185 240.484 279.609 239.181 278.285 237.668C277.403 236.638 275.932 235.462 275.995 234.432C276.163 231.154 274.209 231.322 272.402 232.058C271.638 232.47 270.757 232.611 269.902 232.458C269.048 232.305 268.27 231.868 267.695 231.217C266.566 230.303 265.364 229.481 264.102 228.759C263.241 229.852 262.4 231.028 261.455 232.121C259.967 234.111 258.269 235.935 256.391 237.563C253.092 239.958 249.163 241.765 250.592 247.081L248.259 243.866C248.659 242.522 248.932 241.555 249.373 240.042L245.57 241.66C245.696 241.051 245.57 240.61 245.822 240.484C248.049 239.034 249.394 236.281 252.294 235.735C253.168 235.361 253.903 234.721 254.395 233.907C255.256 232.772 255.803 231.406 256.706 230.314C258.933 227.624 258.534 226.111 255.466 225.355C255.214 226.05 254.868 226.708 254.437 227.309C254.101 227.687 253.05 227.645 252.966 227.961C252.168 231.028 249.562 231.932 247.23 233.34C245.78 234.222 243.847 235.924 243.847 237.269C243.847 243.425 239.434 247.186 237.291 251.977C236.332 250.614 235.502 249.165 234.812 247.649C234.561 246.678 234.665 245.649 235.106 244.749C235.83 243.362 236.651 242.028 237.564 240.757C236.199 240.757 234.896 241.303 234.413 240.883C232.038 238.782 232.101 238.656 230.042 239.853C230.21 242.101 230.357 244.056 230.483 245.673C229.538 247.06 228.865 249.14 227.521 249.771C226.176 250.401 224.474 253.427 221.616 250.905C220.734 250.107 217.729 251.704 215.691 252.187C215.595 252.215 215.493 252.215 215.397 252.187L210.228 249.834C211.299 254.562 212.14 258.239 213.001 262.084C213.548 264.5 214.472 266.286 217.519 266.391C218.696 266.391 219.83 267.694 220.419 268.051L215.67 273.031L218.002 274.838L217.687 275.741L213.128 274.376C212.497 275.489 211.636 276.855 210.9 278.326C209.682 280.805 208.526 283.306 207.412 285.827C206.53 287.928 205.689 289.924 204.912 292.005C204.487 293.557 203.982 295.085 203.399 296.585C202.502 298.216 201.491 299.782 200.373 301.271C197.264 305.809 197.348 311.168 196.444 316.273C196.129 318.08 195.33 318.732 193.692 317.912C190.692 316.532 187.773 314.982 184.951 313.269C181.988 311.336 179.466 308.667 176.42 306.86C173.583 305.436 171.083 303.423 169.087 300.956C168.561 300.199 168.162 299.38 167.7 298.602C167.277 297.773 166.778 296.985 166.208 296.249C162.699 292.383 163.413 288.979 168.099 286.668C169.055 286.095 169.766 285.19 170.095 284.125C170.406 282.746 170.561 281.337 170.557 279.923C171.882 281.322 173.065 282.849 174.087 284.482C175.432 287.151 177.596 285.533 179.361 285.869L179.929 282.549C180.076 281.835 180.244 281.121 180.622 279.503C181.316 281.163 181.631 281.898 181.841 282.423L187.22 270.93C184.341 267.715 183.753 267.799 181.715 271.686C181.439 272.254 181.194 272.836 180.979 273.43C180.611 274.514 180.014 275.505 179.227 276.336C178.441 277.167 177.484 277.818 176.423 278.245C175.361 278.672 174.22 278.865 173.077 278.81C171.934 278.755 170.817 278.454 169.801 277.927C168.309 281.625 167.994 282.129 163.75 282.36C159.505 282.591 155.051 282.36 151.142 282.36L144.019 290.471L146.121 291.311L141.414 295.367L138.872 292.299C137.779 298.161 136.77 305.032 135.173 311.672C133.735 318.429 131.624 325.024 128.87 331.36C124.823 326.583 122.796 320.418 123.218 314.172C123.482 312.637 123.284 311.057 122.65 309.634C121.138 307.427 118.679 305.83 117.25 303.582C115.002 300.094 110.611 298.308 109.749 293.749C109.749 293.16 108.383 292.593 107.648 292.383C105.358 291.795 103.046 291.395 100.651 290.912C100.346 292.641 99.7788 294.313 98.97 295.871C97.5512 297.725 96.3722 299.751 95.461 301.901C94.7112 295.323 94.3324 288.708 94.3264 282.087C94.2281 239.562 109.708 198.473 137.842 166.585Z" fill="#D1D3D4"/>
<path d="M379.752 416.773C379.218 415.669 378.877 414.482 378.743 413.264C378.815 412.004 378.506 410.752 377.858 409.669C377.21 408.587 376.252 407.724 375.108 407.191C372.229 405.889 369.183 405.09 366.22 403.893C365.525 403.725 364.905 403.334 364.455 402.779C362.937 400.37 361.73 397.779 360.862 395.068C360.193 391.288 359.758 387.47 359.559 383.637C359.576 383.216 359.489 382.798 359.307 382.418C357.794 380.464 356.05 378.657 354.706 376.577C353.361 374.497 351.112 371.765 350.986 369.265C350.896 368.533 350.958 367.79 351.168 367.083C351.377 366.375 351.731 365.719 352.207 365.155C352.682 364.591 353.269 364.131 353.93 363.804C354.592 363.477 355.313 363.291 356.05 363.256C356.559 363.102 356.998 362.775 357.29 362.331C360.694 357.729 365.695 358.738 370.401 358.675C369.981 356.7 370.99 356.049 373.049 355.565C377.84 354.473 381.685 352.224 383.072 346.782C384.458 341.34 387.274 339.47 393.325 339.134C395.12 338.766 396.795 337.957 398.2 336.781C399.346 335.845 400.395 334.796 401.331 333.65C401.787 333.054 402.301 332.505 402.865 332.011C404.525 330.876 405.722 328.418 407.929 328.901C410.198 329.668 412.656 329.668 414.926 328.901C417.027 327.956 419.128 326.926 421.67 325.728L424.003 332.032C425.6 329.553 424.003 327.094 423.603 324.489C428.247 327.346 433.584 328.985 434.698 335.331L434.992 335.163C424.79 367.103 405.614 395.433 379.752 416.773Z" fill="#D1D3D4"/>
<path d="M414.82 225.313C408.958 226.636 404.588 223.695 399.902 221.426C399.48 221.2 399.116 220.88 398.839 220.49C398.562 220.099 398.379 219.65 398.305 219.177C398.377 218.612 398.563 218.067 398.852 217.576C399.141 217.084 399.527 216.657 399.986 216.32C401.294 215.783 402.675 215.443 404.083 215.311L402.276 214.134C404.654 212.953 406.913 211.546 409.021 209.932C410.03 209.008 409.694 206.759 410.471 205.393C411.795 203.103 413.539 201.023 415.178 198.733C416.753 200.96 417.174 204.931 420.998 203.965C421.587 203.835 422.144 203.589 422.638 203.243C423.132 202.897 423.553 202.457 423.877 201.948C434.645 222.775 441.078 245.57 442.787 268.954C442.169 268.311 441.461 267.759 440.686 267.315C435.895 264.584 435.622 263.722 436.862 258.217C437.033 256.421 437.033 254.613 436.862 252.817L435.664 257.419C434.53 255.318 432.912 253.784 432.744 252.019C432.449 248.888 430.894 248.174 428.247 248.132C427.196 248.011 426.16 247.779 425.158 247.438L426.041 247.039C425.873 245.484 426.272 243.089 425.431 242.542C422.106 240.545 418.661 238.756 415.115 237.184L417.363 242.017L416.585 242.206L405.617 236.365L406.101 235.525L407.466 236.302L406.71 233.739C406.949 233.743 407.183 233.809 407.389 233.93C407.596 234.052 407.767 234.225 407.887 234.432C409.988 237.374 410.933 237.605 413.875 235.483C416.081 233.907 416.88 232.1 414.547 229.872C414.337 229.683 414.883 228.065 415.178 228.044C416.41 227.913 417.655 228.005 418.855 228.317C420.45 228.878 422.014 229.524 423.54 230.251C421.082 227.855 418.582 224.451 414.82 225.313Z" fill="#D1D3D4"/>
<path d="M263.871 343.988C263.055 345.343 262.757 346.947 263.031 348.505C264.417 353.149 264.438 357.015 260.656 360.902C259.066 362.605 257.846 364.62 257.076 366.82C256.305 369.019 256.001 371.354 256.181 373.678C256.237 374.315 256.073 374.952 255.719 375.485C254.185 377.586 255.109 379.057 256.139 381.158C258.408 385.78 260.551 390.529 257.378 395.971C255.104 399.102 253.691 402.776 253.281 406.624C253.367 410.68 251.935 414.621 249.268 417.676C247.376 419.536 246.257 422.044 246.137 424.694C246.336 425.84 246.154 427.019 245.619 428.052C245.084 429.084 244.225 429.912 243.174 430.41C242.208 429.982 241.202 429.651 240.17 429.422C237.292 429.356 234.425 429.054 231.597 428.519C224.495 426.417 221.091 420.387 217.393 414.63C216.721 413.579 217.141 411.835 217.036 409.797C216.615 409.566 215.649 408.957 214.619 408.473C213.998 408.275 213.425 407.948 212.938 407.515C212.451 407.081 212.06 406.55 211.791 405.956C211.522 405.362 211.38 404.718 211.375 404.066C211.37 403.414 211.502 402.768 211.762 402.17C212.077 401.077 212.602 400.069 212.854 398.892C213.022 398.262 213.106 397.274 212.854 396.959C210.48 394.858 207.896 392.756 205.563 390.655C204.05 389.226 202.054 387.63 201.676 385.801C201.305 382.998 201.447 380.15 202.096 377.397C202.39 375.527 203.63 373.804 203.966 371.934C204.302 370.064 202.979 367.521 205.164 365.63C205.437 365.399 205.29 364.285 204.975 363.844C201.445 358.948 198.671 353.191 194.049 349.493C188.018 344.618 185.035 338.231 181.715 331.822C181.035 329.879 180.639 327.848 180.538 325.792C185.119 326.968 189.174 328.103 193.292 328.985C193.732 329.005 194.17 328.917 194.569 328.731C194.968 328.544 195.315 328.264 195.583 327.914C196.255 326.758 196.171 325.056 196.969 324.069C198.482 322.22 200.478 320.812 202.138 319.089C203.064 318.19 203.781 317.1 204.239 315.895C205.605 311.693 208.715 308.436 209.198 303.708C209.492 300.808 212.182 298.203 213.401 295.303C215.068 291.736 216.541 288.082 217.813 284.356C218.738 281.604 220.272 281.835 222.457 282.423C224.059 282.963 225.771 283.093 227.437 282.801C230.703 281.864 233.916 280.749 237.06 279.46C239.897 278.389 242.145 279.628 242.397 282.486C242.586 284.587 243.469 285.659 245.444 284.209C247.419 282.759 251.306 283.537 252.02 279.839C252.02 279.713 252.777 279.839 253.113 279.649C256.097 278.368 260.173 280.007 261.833 276.834C261.035 274.439 260.362 272.421 259.606 270.215C260.988 269.909 262.394 269.719 263.808 269.648C267.422 269.774 271.057 269.9 274.65 270.383C277.21 270.724 279.717 271.387 282.109 272.358C285.934 273.934 289.611 275.321 293.036 272.568C294.423 274.478 296.079 276.176 297.952 277.611C299.038 278.15 299.949 278.984 300.581 280.017C301.213 281.05 301.54 282.241 301.524 283.453C301.524 287.298 303.626 288.643 306.63 289.588C307.404 289.802 308.084 290.268 308.563 290.912C310.349 293.832 312.156 296.795 313.69 299.842C314.783 301.943 316.758 303.855 314.762 306.986C313.754 309.32 313.679 311.952 314.552 314.34C315.455 317.47 315.719 320.75 315.329 323.985C315.329 324.678 314.594 325.35 314.09 325.96C313.585 326.569 312.955 326.842 312.556 327.409C310.898 330.164 309.066 332.81 307.072 335.331C304.781 337.513 302.36 339.555 299.822 341.445C299.161 342.022 298.346 342.394 297.477 342.517C296.608 342.64 295.722 342.509 294.927 342.139C292.316 341.641 289.664 341.387 287.005 341.382C285.983 341.334 284.969 341.179 283.98 340.92C281.964 340.067 279.902 339.33 277.802 338.714C275.701 338.252 272.822 336.928 271.856 340.101C270.973 342.958 269.355 342.853 267.065 342.643C266.466 342.613 265.867 342.718 265.315 342.951C264.762 343.184 264.268 343.538 263.871 343.988Z" fill="#D1D3D4"/>
<path d="M395.952 162.571C395.339 162.38 394.753 162.112 394.208 161.773L389.081 165.345L395.637 164.399L395.784 165.387L389.48 167.719V170.829L396.981 174.653L393.535 177.385C393.708 178.287 393.708 179.214 393.535 180.116C391.161 184.991 388.745 189.845 386.16 194.593C385.443 195.815 384.413 196.823 383.177 197.514C381.406 198.456 379.574 199.277 377.693 199.972C376.306 200.603 374.982 201.296 374.562 198.859C374.141 196.421 373.532 194.236 372.965 191.925C372.86 191.505 372.713 190.916 372.398 190.769C369.813 189.424 369.351 187.26 369.372 184.466C369.372 183.583 367.859 181.881 367.166 181.944C362.081 182.427 358.887 179.843 356.134 176.04C355.378 174.989 354.033 173.686 353.004 173.623C346.343 173.203 340.733 170.219 334.807 166.816L342.771 165.996L340.67 163.391L334.366 166.038C334.183 165.453 334.119 164.838 334.178 164.228C334.237 163.618 334.418 163.026 334.71 162.487C335.002 161.948 335.399 161.474 335.878 161.091C336.356 160.708 336.907 160.426 337.497 160.26C340.228 159.209 340.501 157.738 339.094 155.847H331.782L333.883 153.473L329.197 152.801L331.298 150.699C327.642 148.22 332.433 146.98 332.139 145.11L327.6 144.816C328.441 143.555 328.903 142.043 329.827 141.643C331.31 141.271 332.844 141.15 334.366 141.286C330.164 134.983 322.999 132.881 316.443 129.835C318.201 128.884 320.145 128.326 322.14 128.199C324.136 128.072 326.134 128.379 327.999 129.099C331.392 130.042 334.846 130.744 338.337 131.2C338.022 130.717 337.392 129.688 336.74 128.637C338.085 128.784 339.43 128.973 340.775 129.078C341.51 129.078 342.266 129.078 343.023 129.078L343.128 127.797L334.912 126.41C337.707 125.653 340.375 124.582 343.065 124.056C362.959 133.454 380.902 146.521 395.952 162.571Z" fill="#D1D3D4"/>
<path d="M418.161 191.778L419.149 193.48C418.498 193.69 417.825 193.921 417.048 194.194L418.161 191.778Z" fill="#D1D3D4"/>
<path d="M408.622 177.847H408.727C409.259 178.548 409.764 179.248 410.24 179.948L408.622 177.847Z" fill="#D1D3D4"/>
<path d="M415.115 190.853C414.869 189.659 414.934 188.422 415.304 187.26C416.039 188.374 416.733 189.488 417.405 190.622L415.115 190.853Z" fill="#D1D3D4"/>
<path d="M195.499 400.047C196.612 402.443 196.297 407.023 194.385 408.662C193.952 409.051 193.429 409.327 192.864 409.465C192.298 409.603 191.707 409.599 191.143 409.454C190.58 409.308 190.061 409.025 189.633 408.631C189.205 408.236 188.881 407.742 188.691 407.191C186.863 401.182 185.266 395.131 183.585 389.079C183.459 388.617 183.585 388.029 183.27 387.671C182.55 386.558 182.261 385.219 182.458 383.907C182.656 382.596 183.325 381.401 184.341 380.548C187.85 383.175 188.229 388.953 194.532 388.659C194.532 390.76 194.406 392.609 194.532 394.5C194.537 396.391 194.864 398.267 195.499 400.047Z" fill="#D1D3D4"/>
<path d="M279.777 207.642C279.483 206.865 278.748 205.751 279.021 205.415C279.477 204.989 280.06 204.724 280.681 204.658C283.118 201.275 285.261 198.355 287.531 195.224C285.682 191.946 285.745 190.727 288.224 189.11C289.737 188.122 293.204 189.509 294.78 191.757C295.515 192.787 294.464 194.72 291.733 197.304L292.111 199.258C291.586 199.258 291.187 199.258 290.977 199.426C290.01 200.162 288.56 200.792 288.266 201.78C287.972 202.767 288.875 203.881 290.367 203.272C290.758 203.554 291.04 203.962 291.166 204.427C291.231 205.68 291.231 206.935 291.166 208.188L288.539 208.966L293.183 212.517L280.576 210.521C280.26 208.987 280.008 208.251 279.777 207.642Z" fill="#D1D3D4"/>
<path d="M173.058 144.669C175.411 147.223 177.938 149.61 180.622 151.813C177.281 155.049 173.016 155.49 167.826 155.301C169.255 154.293 170.431 153.809 170.978 152.948C171.524 152.086 171.944 150.384 171.482 149.796C169.184 147.022 166.318 144.772 163.077 143.198C164.17 142.358 165.178 141.517 166.418 140.719C168.996 141.295 171.322 142.679 173.058 144.669Z" fill="#D1D3D4"/>
<path d="M330.752 190.874C329.517 191.179 328.226 191.179 326.991 190.874C325.046 190.366 323.214 189.496 321.591 188.311C320.372 187.302 317.599 186.483 318.922 184.109C320.217 182.441 321.746 180.969 323.461 179.738L323.713 180.768L333.252 183.058L335.585 179.948L335.206 180.978L339.409 183.394L338.968 183.94H334.492L338.547 186.042L334.051 187.344L336.32 189.025C334.408 189.761 332.601 190.475 330.752 190.874Z" fill="#D1D3D4"/>
<path d="M248.869 138.156C246.768 136.517 245.129 135.067 243.322 133.827C242.996 133.663 242.636 133.577 242.271 133.577C241.906 133.577 241.546 133.663 241.22 133.827C240.695 134.185 240.59 135.13 240.212 135.928H234.118L233.992 134.794L251.159 127.944L250.108 130.276L260.32 129.394L260.551 130.465C259.263 131.696 257.77 132.691 256.139 133.407C254.452 133.513 252.761 133.292 251.159 132.756L251.054 133.533L254.941 134.941L254.794 135.466L251.726 135.76L253.828 136.832L248.869 138.156Z" fill="#D1D3D4"/>
<path d="M294.254 201.948C292.784 201.065 292.552 199.846 294.002 199.111C295.452 198.376 297.133 197.01 298.793 199.111C299.696 200.141 300.768 201.002 302.008 202.158V207.096L303.016 207.6C302.47 208.041 301.798 208.966 301.398 208.861C299.116 208.305 296.903 207.494 294.801 206.444C294.275 206.15 294.675 204.217 294.591 203.061C294.57 202.557 294.486 201.948 294.254 201.948Z" fill="#D1D3D4"/>
<path d="M440.938 301.544C441.36 301.334 441.804 301.172 442.262 301.061C442.262 301.803 442.178 302.538 442.01 303.267C440.755 303.694 439.533 304.214 438.354 304.822C437.093 305.452 436.253 306.923 435.055 308.52L429.277 307.847C433.479 305.578 437.135 303.435 440.938 301.544Z" fill="#D1D3D4"/>
<path d="M418.203 312.134C417.951 309.318 423.015 307.532 427.554 308.772L425.137 311.546L429.907 311.125C426.167 313.731 422.112 311.819 418.203 312.134Z" fill="#D1D3D4"/>
<path d="M228.928 128.217H245.045C242.948 129.336 240.685 130.11 238.342 130.507C235.198 130.548 232.055 130.401 228.928 130.066V128.217Z" fill="#D1D3D4"/>
<path d="M121.6 339.05C120.696 338.693 119.499 336.949 119.688 336.319C120.57 334.317 121.639 332.404 122.882 330.603L123.848 331.024C123.848 332.957 123.848 334.89 123.848 336.802C123.848 338.714 123.407 339.722 121.6 339.05Z" fill="#D1D3D4"/>
<path d="M263.388 237.899L265.489 238.739V244.139C261.917 243.95 263.556 241.072 262.842 239.517C262.652 239.16 263.178 238.487 263.388 237.899Z" fill="#D1D3D4"/>
<path d="M251.81 246.682H257.505L257.673 247.333L252.462 250.506C252.231 249.077 251.999 247.795 251.81 246.682Z" fill="#D1D3D4"/>
<path d="M452.976 104.948L458.138 107.543L482.346 59.3903L477.183 56.7949L452.976 104.948Z" fill="#231F20"/>
<path d="M458.105 108.613C457.945 108.645 457.781 108.645 457.622 108.613L452.474 106.007C452.349 105.947 452.238 105.862 452.147 105.759C452.055 105.655 451.985 105.535 451.94 105.404C451.895 105.273 451.876 105.135 451.885 104.997C451.894 104.859 451.93 104.724 451.991 104.6L476.217 56.3353C476.275 56.2115 476.358 56.1008 476.46 56.01C476.562 55.9191 476.682 55.8499 476.811 55.8067C476.941 55.7635 477.078 55.7471 477.215 55.7585C477.351 55.7699 477.483 55.8089 477.604 55.8731L482.71 58.4785C482.834 58.5387 482.946 58.6234 483.037 58.7275C483.128 58.8315 483.197 58.9529 483.24 59.0843C483.283 59.2157 483.299 59.3544 483.288 59.4922C483.276 59.63 483.237 59.7641 483.172 59.8863L459.03 108.046C458.902 108.293 458.684 108.482 458.42 108.571L458.105 108.613ZM454.344 104.411L457.643 106.07L480.903 59.8443L477.604 58.1844L454.344 104.411Z" fill="#231F20"/>
<path d="M438.858 125.632C439.467 123.762 451.885 108.676 452.348 105.398C452.81 102.12 450.036 88.5885 452.81 86.7184C455.584 84.8484 460.689 97.4975 460.689 97.4975C460.689 97.4975 471.553 77.7253 474.641 79.0071C477.73 80.2888 476.742 91.236 475.02 97.9177C473.297 104.6 453.587 137.399 453.587 137.399L438.858 125.632Z" fill="white"/>
<path d="M453.587 138.408C453.353 138.412 453.123 138.338 452.936 138.197L438.228 126.473C438.065 126.334 437.946 126.151 437.886 125.945C437.826 125.74 437.828 125.522 437.891 125.317C439.281 122.851 440.892 120.516 442.703 118.341C446.044 113.824 451.108 106.995 451.36 105.251C451.399 103.327 451.294 101.402 451.045 99.4935C450.372 92.4546 450.078 87.3487 452.243 85.8568C452.514 85.6651 452.826 85.5404 453.155 85.4929C453.484 85.4454 453.819 85.4765 454.134 85.5837C456.613 86.3191 459.408 91.8872 460.857 95.1021C465.858 86.193 472.015 76.7587 475.082 78.0404C479.747 79.9735 477.058 94.3877 476.091 98.1488C474.305 104.852 455.394 136.558 454.491 137.903C454.413 138.032 454.309 138.143 454.186 138.23C454.063 138.317 453.924 138.377 453.776 138.408H453.587ZM440.182 125.359L453.293 135.865C456.634 130.255 472.519 103.444 474.011 97.6655C476.112 89.8911 476.112 80.856 474.242 80.0366C472.582 80.1626 466.342 89.4499 461.635 98.0647C461.539 98.2403 461.396 98.385 461.221 98.4818C461.046 98.5785 460.847 98.6234 460.647 98.611C460.45 98.5916 460.261 98.5187 460.102 98.4002C459.943 98.2818 459.819 98.1222 459.744 97.9387C457.369 92.0974 454.449 87.6428 453.44 87.6428C452.095 88.5674 452.768 95.5853 453.104 99.3675C453.4 101.455 453.506 103.565 453.419 105.671C453.125 107.772 449.469 112.815 444.363 119.707C442.787 121.766 440.938 124.204 440.182 125.359Z" fill="#231F20"/>
<path d="M492.838 399.754C492.838 399.754 508.344 427.195 507.273 427.321C506.201 427.447 481.386 434.759 481.386 434.759C481.386 434.759 466.783 412.487 466.993 411.919C467.203 411.352 492.838 399.754 492.838 399.754Z" fill="white"/>
<path d="M481.386 435.81C481.213 435.81 481.043 435.766 480.892 435.681C480.741 435.596 480.615 435.474 480.525 435.327C465.606 412.613 465.816 412.213 466.005 411.562C466.195 410.911 466.363 410.596 492.417 398.808C492.655 398.696 492.928 398.679 493.178 398.761C493.428 398.843 493.637 399.018 493.762 399.249C509.017 426.27 508.47 427.174 508.239 427.762C508.153 427.924 508.03 428.063 507.881 428.169C507.731 428.275 507.559 428.344 507.378 428.372C506.369 428.519 491.451 432.889 481.701 435.768L481.386 435.81ZM468.338 412.34C469.977 415.281 477.058 426.228 481.848 433.52C487.585 431.839 501.81 427.657 506.012 426.544C504.541 423.014 497.313 409.839 492.396 401.119C483.929 404.943 471.427 410.701 468.338 412.34Z" fill="#231F20"/>
<path d="M507.273 427.321C507.273 427.321 549.297 425.031 551.398 432.511C553.499 439.991 491.451 459.07 491.451 459.07L481.365 434.759L507.273 427.321Z" fill="#231F20"/>
<path d="M491.472 460.1C491.267 460.1 491.066 460.041 490.894 459.929C490.723 459.817 490.587 459.657 490.505 459.469L480.42 435.179C480.357 435.044 480.325 434.897 480.325 434.749C480.325 434.6 480.357 434.453 480.42 434.318C480.482 434.185 480.572 434.067 480.685 433.973C480.797 433.878 480.929 433.81 481.071 433.772L506.937 426.333H507.168C514.333 425.955 550.158 424.4 552.364 432.28C554.571 440.159 506.516 455.582 491.745 460.121C491.653 460.129 491.561 460.122 491.472 460.1ZM482.815 435.432L492.081 457.788C521.162 448.774 551.524 436.776 550.41 432.784C549.107 428.204 524.545 427.426 507.441 428.351L482.815 435.432Z" fill="#231F20"/>
<path d="M404.777 404.817L394.082 416.668L374.667 396.244L390.257 379.897L404.777 404.817Z" fill="white"/>
<path d="M394.082 417.719C393.936 417.717 393.793 417.687 393.659 417.629C393.526 417.571 393.405 417.487 393.304 417.382L373.91 396.959C373.719 396.766 373.612 396.506 373.612 396.234C373.612 395.963 373.719 395.702 373.91 395.509L389.501 379.183C389.612 379.063 389.75 378.972 389.903 378.917C390.057 378.862 390.222 378.845 390.384 378.868C390.546 378.887 390.702 378.942 390.84 379.029C390.978 379.116 391.095 379.234 391.182 379.372L405.68 404.271C405.794 404.464 405.844 404.689 405.821 404.912C405.798 405.135 405.705 405.345 405.554 405.511L394.859 417.361C394.652 417.571 394.375 417.697 394.082 417.719ZM376.117 396.245L394.061 415.155L403.474 404.649L390.068 381.536L376.117 396.245Z" fill="#231F20"/>
<path d="M394.082 416.668C394.082 416.668 408.097 458.965 400.743 458.397C393.388 457.83 358.509 413.768 358.509 413.768L374.667 396.244L394.082 416.668Z" fill="#231F20"/>
<path d="M400.89 459.448H400.764C393.199 458.86 361.387 418.979 357.794 414.441C357.635 414.249 357.548 414.007 357.548 413.758C357.548 413.509 357.635 413.267 357.794 413.075L373.952 395.551C374.053 395.446 374.174 395.362 374.307 395.305C374.441 395.247 374.584 395.216 374.73 395.215C375.014 395.216 375.286 395.329 375.486 395.53L394.901 415.954C394.998 416.074 395.076 416.209 395.132 416.353C397.234 422.467 407.067 453.229 402.949 458.482C402.708 458.795 402.395 459.047 402.037 459.215C401.678 459.383 401.285 459.463 400.89 459.448ZM359.874 413.81C373.343 430.746 395.889 456.969 400.827 457.347C400.908 457.363 400.991 457.353 401.067 457.319C401.142 457.285 401.205 457.229 401.247 457.158C403.873 453.817 397.696 430.977 393.157 417.235L374.688 397.799L359.874 413.81Z" fill="#231F20"/>
<path d="M416.901 203.587C416.901 203.587 501.705 295.388 503.049 304.444C505.634 321.968 406.395 411.94 406.395 411.94L383.66 380.906L442.787 312.008L365.043 205.856L416.901 203.587Z" fill="#231F20"/>
<path d="M406.353 412.97H406.227C406.082 412.953 405.942 412.908 405.816 412.835C405.689 412.763 405.579 412.666 405.491 412.55L382.777 381.494C382.631 381.309 382.551 381.079 382.551 380.843C382.551 380.606 382.631 380.377 382.777 380.191L441.316 311.966L364.182 206.465C364.067 206.314 363.997 206.133 363.978 205.944C363.96 205.755 363.994 205.564 364.077 205.393C364.158 205.221 364.286 205.075 364.445 204.972C364.605 204.868 364.79 204.81 364.98 204.805L416.817 202.536C416.967 202.522 417.118 202.546 417.258 202.605C417.397 202.663 417.52 202.755 417.615 202.872C426.335 212.306 502.692 295.177 504.037 304.254C505.15 311.882 489.118 332.473 456.361 365.483C432.281 389.899 407.298 412.487 407.067 412.697C406.973 412.788 406.861 412.86 406.738 412.907C406.615 412.954 406.484 412.975 406.353 412.97ZM384.963 380.927L406.5 410.343C434.593 384.835 504.037 318.332 501.999 304.549C501.074 298.245 450.457 241.513 416.459 204.637L367.06 206.738L443.544 311.335C443.698 311.517 443.782 311.748 443.782 311.987C443.782 312.225 443.698 312.456 443.544 312.638L384.963 380.927Z" fill="#231F20"/>
<path d="M347.015 223.947L471.132 426.606L505.97 406.561L403.243 205.036L347.015 223.947Z" fill="#231F20"/>
<path d="M471.132 427.657C470.951 427.658 470.773 427.612 470.614 427.524C470.456 427.436 470.323 427.308 470.229 427.153L346.133 224.493C346.071 224.351 346.039 224.197 346.039 224.042C346.039 223.886 346.071 223.733 346.133 223.59C346.189 223.444 346.276 223.311 346.388 223.202C346.501 223.094 346.636 223.011 346.784 222.96L402.865 204.049C403.1 203.966 403.358 203.971 403.59 204.064C403.822 204.157 404.012 204.33 404.125 204.553L506.874 406.078C506.995 406.319 507.019 406.597 506.941 406.855C506.863 407.114 506.688 407.332 506.453 407.465L471.616 427.531C471.465 427.607 471.3 427.65 471.132 427.657ZM348.591 224.514L471.49 425.199L504.583 406.141L402.718 206.318L348.591 224.514Z" fill="#231F20"/>
<path d="M473.528 341.151C473.335 341.156 473.145 341.107 472.978 341.011C472.812 340.914 472.675 340.774 472.582 340.605L414.274 229.242C414.191 229.087 414.148 228.914 414.148 228.738C414.148 228.562 414.191 228.389 414.274 228.233L420.431 217.202C420.495 217.081 420.582 216.974 420.688 216.888C420.794 216.801 420.915 216.736 421.046 216.697C421.178 216.658 421.315 216.645 421.451 216.66C421.587 216.674 421.719 216.716 421.839 216.782C421.96 216.848 422.068 216.937 422.155 217.045C422.242 217.153 422.307 217.276 422.346 217.409C422.385 217.542 422.397 217.681 422.382 217.819C422.367 217.956 422.325 218.089 422.259 218.211L416.375 228.717L474.431 339.596C474.558 339.845 474.584 340.134 474.501 340.401C474.419 340.667 474.235 340.892 473.99 341.025C473.846 341.097 473.689 341.14 473.528 341.151Z" fill="white"/>
<path d="M354.538 77.179C349.116 76.1915 343.737 74.9728 338.442 73.502C334.576 72.4304 330.437 71.0015 328.336 67.5976C331.803 66.0007 333.294 62.0085 334.471 58.3944L342.351 33.9576C344.183 27.1215 347.016 20.5935 350.755 14.5847C353.571 10.5084 365.653 -1.51044 370.128 5.96979C375.213 2.04057 385.95 -0.817044 391.981 2.14563C395.415 3.95304 398.414 6.48717 400.769 9.57162C403.124 12.6561 404.779 16.2167 405.617 20.0057C406.635 26.3035 406.327 32.7443 404.714 38.9164C404.517 40.1828 404.12 41.4099 403.537 42.5515C402.465 44.0503 401.1 45.3157 399.524 46.2706C388.501 54.2734 379.618 64.8669 373.658 77.116C373.397 77.9863 372.83 78.7327 372.061 79.2172C371.455 79.4337 370.803 79.4845 370.17 79.3643C365.043 78.818 359.748 78.1036 354.538 77.179Z" fill="white"/>
<path d="M370.948 80.3939C370.633 80.3939 370.338 80.3939 370.065 80.3939C364.833 79.9107 359.559 79.1963 354.411 78.2927C348.969 77.3262 343.506 76.0655 338.19 74.5947C333.988 73.418 329.786 71.8421 327.495 68.2911C327.413 68.1654 327.358 68.0232 327.337 67.8743C327.315 67.7255 327.326 67.5737 327.369 67.4296C327.414 67.2882 327.488 67.1575 327.586 67.0455C327.683 66.9335 327.803 66.8426 327.936 66.7782C330.962 65.3914 332.349 61.7774 333.505 58.2054L341.405 33.7896C343.272 26.8416 346.168 20.2124 349.999 14.1225C352.352 10.7186 360.337 2.67101 366.178 2.67101H366.409C367.187 2.69117 367.952 2.87791 368.651 3.21863C369.351 3.55935 369.969 4.04612 370.465 4.64612C375.823 1.05309 386.139 -1.78351 392.548 1.34726C396.124 3.2292 399.247 5.86762 401.7 9.07899C404.153 12.2904 405.877 15.9976 406.752 19.9428C407.813 26.3923 407.506 32.993 405.849 39.3157C405.636 40.6955 405.196 42.0304 404.546 43.2659C403.489 44.825 402.114 46.1426 400.511 47.1321L400.238 47.3212C389.321 55.1916 380.516 65.6353 374.604 77.7254C374.229 78.7858 373.483 79.6743 372.503 80.2258C372.004 80.4018 371.472 80.4593 370.948 80.3939ZM329.912 67.9339C332.356 70.2797 335.429 71.8639 338.758 72.4935C344.011 73.9433 349.411 75.183 354.769 76.1495C359.875 77.0741 365.085 77.7674 370.254 78.2507C370.703 78.3587 371.171 78.3587 371.62 78.2507C372.082 78.0406 372.419 77.3472 372.713 76.7379C378.778 64.3345 387.815 53.6229 399.02 45.5562L399.272 45.3671C400.636 44.5364 401.816 43.4352 402.739 42.1313C403.26 41.0936 403.614 39.9803 403.789 38.8324C405.38 32.7928 405.688 26.4869 404.693 20.321C403.896 16.6833 402.313 13.2639 400.055 10.3022C397.797 7.34048 394.92 4.90808 391.623 3.1753C386.202 0.527801 375.844 3.02821 370.864 6.87338C370.751 6.96692 370.619 7.0343 370.478 7.07063C370.336 7.10697 370.188 7.11136 370.044 7.0835C369.877 7.06482 369.716 7.00523 369.577 6.90997C369.438 6.81471 369.324 6.6867 369.246 6.53719C368.962 5.98043 368.533 5.51076 368.004 5.17787C367.475 4.84498 366.866 4.66125 366.241 4.64612H366.094C361.156 4.64612 353.676 12.2524 351.638 15.1521C347.91 21.0771 345.078 27.5202 343.233 34.2729L335.333 58.6887C334.387 62.1556 332.958 65.9378 329.912 67.9339Z" fill="#231F20"/>
<path d="M404.966 48.0144C404.966 48.0144 411.522 62.4496 409.294 64.8239C407.067 67.1982 401.436 64.5087 401.436 64.5087" fill="white"/>
<path d="M406.563 66.9252C404.63 66.8271 402.736 66.3412 400.995 65.4964C400.747 65.3701 400.559 65.1527 400.469 64.8901C400.379 64.6275 400.394 64.3402 400.511 64.0886C400.572 63.9643 400.656 63.8531 400.76 63.7615C400.863 63.6699 400.984 63.5996 401.115 63.5547C401.246 63.5098 401.384 63.4912 401.522 63.4999C401.66 63.5086 401.795 63.5444 401.919 63.6054C403.201 64.2357 407.172 65.7065 408.538 64.1517C409.483 63.1431 407.361 55.7469 404.02 48.4558C403.907 48.2022 403.898 47.9138 403.997 47.6539C404.095 47.394 404.292 47.1837 404.546 47.069C404.671 47.0098 404.807 46.9764 404.945 46.9709C405.083 46.9654 405.221 46.9878 405.351 47.0369C405.48 47.0859 405.598 47.1605 405.698 47.2563C405.798 47.3521 405.878 47.4671 405.932 47.5943C408.034 52.1119 412.53 62.933 410.135 65.5805C409.671 66.0483 409.112 66.4106 408.496 66.6426C407.879 66.8747 407.22 66.9711 406.563 66.9252Z" fill="#231F20"/>
<path d="M405.891 30.4907C410.66 35.8487 407.571 45.0519 406.542 51.2084C405.141 59.8653 403.495 68.4872 401.604 77.074C400.448 82.5161 386.202 80.3729 383.954 78.3347L382.378 96.7201C382.378 96.7201 377.44 106.217 366.808 99.0734C356.176 91.9294 354.664 84.2811 354.664 84.2811L359.58 59.277C359.58 59.277 368.973 60.8318 376.39 50.515C383.807 40.1982 386.244 22.9684 386.244 22.9684C386.244 22.9684 401.226 25.2587 405.891 30.4907Z" fill="white"/>
<path d="M374.247 102.792C371.348 102.667 368.553 101.68 366.22 99.9557C355.357 92.6646 353.613 84.7222 353.613 84.386C353.571 84.2491 353.571 84.1026 353.613 83.9657L358.551 59.0667C358.611 58.8033 358.767 58.5716 358.988 58.4163C359.209 58.2611 359.48 58.1934 359.748 58.2262C360.106 58.2262 368.615 59.5079 375.465 49.8214C382.567 39.8408 385.089 22.9052 385.11 22.7371C385.128 22.5988 385.175 22.4657 385.247 22.3463C385.319 22.227 385.416 22.1239 385.53 22.0437C385.639 21.9593 385.764 21.8973 385.898 21.8612C386.031 21.8252 386.17 21.8158 386.307 21.8336C386.938 21.8336 401.814 24.25 406.668 29.6921C410.996 34.5458 409.441 42.005 408.223 47.9934C407.971 49.1701 407.739 50.2837 407.571 51.2923C406.143 59.9281 404.483 68.627 402.634 77.1999C402.396 78.1009 401.913 78.9181 401.237 79.5601C400.562 80.2021 399.721 80.6435 398.809 80.8349C394.172 81.902 389.324 81.5954 384.857 79.9525L383.429 96.7619C383.406 96.9004 383.363 97.0348 383.303 97.1612C381.857 99.7263 379.467 101.626 376.642 102.456C375.86 102.664 375.056 102.777 374.247 102.792ZM355.735 84.1548C356.05 85.3315 358.193 92.0343 367.397 98.2118C368.607 99.1846 370.011 99.8883 371.514 100.276C373.018 100.664 374.587 100.726 376.117 100.46C378.308 99.8006 380.173 98.3469 381.349 96.3837L382.903 78.2505C382.92 78.0566 382.991 77.8713 383.107 77.7152C383.224 77.5592 383.381 77.4384 383.562 77.3665C383.743 77.2946 383.94 77.2744 384.132 77.308C384.323 77.3417 384.502 77.4279 384.647 77.5571C385.887 78.6707 393.704 80.3517 398.158 78.9229C399.566 78.4606 400.385 77.7672 400.574 76.8217C402.402 68.2698 404.062 59.5919 405.491 50.9981C405.68 49.9475 405.911 48.8969 406.164 47.6152C407.298 42.0891 408.727 35.1972 405.092 31.1419C401.415 26.9395 390.384 24.8383 387.022 24.1449C386.349 28.0952 383.597 42.047 377.167 51.0821C370.738 60.1172 363.194 60.4744 360.358 60.3484L355.735 84.1548Z" fill="#231F20"/>
<path d="M402.424 70.5814C402.424 70.5814 395.048 73.6491 392.569 66.1269L402.424 70.5814Z" fill="white"/>
<path d="M399.083 72.2413C397.358 72.2913 395.668 71.7433 394.301 70.6902C392.934 69.6371 391.973 68.1437 391.581 66.4631C391.533 66.3305 391.511 66.1895 391.518 66.0484C391.525 65.9072 391.56 65.769 391.622 65.6419C391.683 65.5147 391.77 65.4013 391.876 65.3084C391.983 65.2156 392.107 65.1451 392.241 65.1013C392.376 65.0574 392.517 65.0412 392.658 65.0534C392.799 65.0656 392.936 65.1061 393.06 65.1724C393.185 65.2387 393.295 65.3295 393.384 65.4394C393.473 65.5492 393.539 65.6759 393.577 65.8117C393.795 66.6075 394.172 67.351 394.685 67.9974C395.197 68.6437 395.836 69.1797 396.561 69.5728C398.302 70.2237 400.22 70.2237 401.961 69.5728C402.211 69.4967 402.48 69.5164 402.716 69.6281C402.953 69.7398 403.139 69.9354 403.238 70.1768C403.338 70.4182 403.344 70.6881 403.256 70.9338C403.167 71.1796 402.99 71.3835 402.76 71.5059C401.588 71.9696 400.342 72.2187 399.083 72.2413Z" fill="#231F20"/>
<path d="M387.484 50.9351C387.591 48.7353 387.074 46.5501 385.992 44.6315C385.398 43.018 384.554 41.5078 383.492 40.156C382.947 39.5025 382.266 38.9759 381.497 38.613C380.727 38.25 379.888 38.0595 379.037 38.0548C378.288 38.1172 377.561 38.3365 376.902 38.6985C376.243 39.0605 375.668 39.5571 375.213 40.156C374.31 41.4026 373.706 42.8406 373.448 44.3584C372.793 47.5954 372.998 50.9474 374.041 54.0809C375.084 57.2143 376.93 60.0199 379.395 62.2185L379.016 61.6301" fill="white"/>
<path d="M379.394 63.269C379.147 63.2684 378.909 63.1789 378.722 63.0169C376.108 60.6923 374.15 57.7223 373.044 54.4037C371.938 51.0851 371.722 47.5343 372.419 44.1062C372.72 42.4617 373.395 40.9087 374.394 39.5676C374.932 38.8376 375.623 38.2326 376.417 37.7938C377.211 37.355 378.09 37.0928 378.995 37.0252C380.007 37.0214 381.007 37.2462 381.921 37.6828C382.834 38.1194 383.637 38.7565 384.269 39.5466C385.401 40.961 386.308 42.5415 386.959 44.2323C388.121 46.343 388.66 48.7402 388.514 51.1452C388.472 51.417 388.325 51.6617 388.105 51.8267C387.885 51.9917 387.61 52.0638 387.337 52.0277C387.199 52.0123 387.066 51.9692 386.946 51.9012C386.825 51.8331 386.719 51.7414 386.635 51.6315C386.551 51.5217 386.489 51.3959 386.455 51.2618C386.42 51.1277 386.413 50.988 386.433 50.851C386.519 48.84 386.038 46.8453 385.047 45.0938C384.47 43.5863 383.677 42.1706 382.693 40.8914C382.254 40.3559 381.707 39.9185 381.088 39.6073C380.469 39.296 379.792 39.1179 379.1 39.0844C378.496 39.1471 377.912 39.3345 377.384 39.6347C376.856 39.9348 376.395 40.3413 376.033 40.8283C375.251 41.9406 374.72 43.2096 374.478 44.5474C373.898 47.3994 374.026 50.3498 374.85 53.1409C375.674 55.932 377.17 58.4787 379.205 60.5585C379.343 60.5795 379.474 60.6297 379.59 60.7059C379.706 60.782 379.804 60.8822 379.878 60.9997L380.277 61.5881C380.384 61.7469 380.446 61.9322 380.456 62.1237C380.465 62.3152 380.423 62.5057 380.332 62.6746C380.241 62.8434 380.105 62.9841 379.94 63.0815C379.775 63.1789 379.586 63.2292 379.394 63.227V63.269Z" fill="#231F20"/>
<path d="M383.954 78.335C383.954 78.335 376.936 74.868 374.31 69.2789C374.31 69.2789 372.692 82.5374 383.387 88.1896L383.954 78.335Z" fill="#231F20"/>
<path d="M383.387 89.219C383.218 89.2173 383.052 89.174 382.903 89.0929C371.704 83.2096 373.238 69.2787 373.259 69.1527C373.29 68.9254 373.393 68.7139 373.551 68.5479C373.709 68.382 373.916 68.2701 374.141 68.2282C374.365 68.1961 374.594 68.2358 374.794 68.3414C374.994 68.4471 375.155 68.6134 375.255 68.8165C377.692 74.0274 384.353 77.3683 384.416 77.3893C384.601 77.4826 384.755 77.6274 384.86 77.8065C384.964 77.9855 385.015 78.1909 385.005 78.3979L384.437 88.2315C384.428 88.4044 384.374 88.5721 384.282 88.7191C384.191 88.866 384.063 88.9873 383.912 89.0719C383.755 89.1715 383.572 89.2227 383.387 89.219ZM375.339 72.8508C375.423 75.4965 376.105 78.0888 377.335 80.4326C378.565 82.7765 380.311 84.8108 382.441 86.3824L382.861 78.9442C380.008 77.3824 377.459 75.3182 375.339 72.8508Z" fill="#231F20"/>
<path d="M402.116 41.6126C402.669 39.9741 402.591 38.4685 401.942 38.2498C401.293 38.0311 400.319 39.1821 399.767 40.8205C399.214 42.459 399.293 43.9645 399.941 44.1833C400.59 44.402 401.564 43.2511 402.116 41.6126Z" fill="#231F20"/>
<path d="M348.444 79.2803C348.444 79.2803 377.503 82.7472 388.093 99.2626C398.683 115.778 403.81 176.376 409.168 180.936C414.526 185.495 429.298 208.671 429.067 209.764C428.835 210.857 343.653 231.364 343.653 231.364C343.653 231.364 340.144 211.781 332.748 186.21C325.352 160.638 324.028 79.3013 348.444 79.2803Z" fill="#FF5C64"/>
<path d="M370.485 105.44C371.095 106.323 400.259 161.29 400.259 161.29L438.774 117.165L458.987 133.974C458.987 133.974 424.528 191.589 402.55 197.157C380.571 202.725 336.425 122.355 337.728 113.95C339.031 105.545 361.85 93.0431 370.485 105.44Z" fill="#FF5C64"/>
<path d="M400.259 162.34H400.154C399.983 162.325 399.818 162.267 399.675 162.172C399.532 162.076 399.415 161.946 399.335 161.794L372.923 112.164C372.857 112.041 372.816 111.907 372.803 111.769C372.789 111.63 372.804 111.49 372.845 111.357C372.886 111.224 372.953 111.101 373.042 110.994C373.131 110.887 373.241 110.799 373.364 110.735C373.61 110.609 373.895 110.585 374.158 110.667C374.422 110.75 374.642 110.933 374.772 111.176C375.087 111.744 396.288 151.561 400.469 159.504L416.459 141.223C416.557 141.125 416.673 141.047 416.801 140.993C416.929 140.94 417.067 140.913 417.205 140.913C417.344 140.913 417.481 140.94 417.609 140.993C417.737 141.047 417.854 141.125 417.951 141.223C418.052 141.318 418.132 141.432 418.187 141.558C418.241 141.685 418.27 141.821 418.27 141.959C418.27 142.097 418.241 142.233 418.187 142.36C418.132 142.486 418.052 142.6 417.951 142.694L401.058 162.025C400.954 162.13 400.829 162.212 400.691 162.266C400.554 162.32 400.407 162.346 400.259 162.34Z" fill="#231F20"/>
<path d="M402.865 197.43C388.535 197.43 373.889 184.676 359.286 159.42C359.179 159.183 359.163 158.914 359.243 158.667C359.322 158.419 359.49 158.209 359.715 158.079C359.94 157.948 360.205 157.905 360.46 157.959C360.714 158.012 360.94 158.159 361.093 158.369C376.369 184.76 391.413 197.115 405.89 195.119C420.368 193.123 436.379 165.702 436.547 165.345C436.616 165.224 436.708 165.117 436.819 165.032C436.929 164.947 437.056 164.885 437.191 164.849C437.325 164.814 437.466 164.805 437.604 164.824C437.742 164.844 437.875 164.89 437.995 164.961C438.115 165.033 438.22 165.127 438.303 165.239C438.386 165.351 438.446 165.478 438.48 165.614C438.513 165.749 438.519 165.89 438.497 166.028C438.476 166.166 438.427 166.298 438.354 166.416C437.681 167.572 421.544 195.077 406.184 197.199C405.085 197.359 403.975 197.437 402.865 197.43Z" fill="#231F20"/>
<path d="M381.559 257.503C381.365 257.499 381.175 257.44 381.012 257.335C380.894 257.266 380.79 257.173 380.708 257.064C380.626 256.954 380.566 256.829 380.533 256.696C380.5 256.563 380.493 256.424 380.514 256.289C380.535 256.153 380.583 256.023 380.655 255.906C390.405 239.643 383.429 232.604 383.135 232.31C383.036 232.212 382.958 232.096 382.905 231.968C382.851 231.84 382.824 231.702 382.824 231.564C382.824 231.425 382.851 231.288 382.905 231.16C382.958 231.032 383.036 230.916 383.135 230.818C383.23 230.72 383.345 230.642 383.471 230.589C383.597 230.536 383.733 230.509 383.87 230.509C384.007 230.509 384.143 230.536 384.269 230.589C384.395 230.642 384.51 230.72 384.605 230.818C384.963 231.154 393.178 239.223 382.504 257.02C382.402 257.175 382.261 257.302 382.096 257.387C381.93 257.471 381.745 257.512 381.559 257.503Z" fill="white"/>
<path d="M330.689 77.9775C321.864 77.9775 311.778 79.9316 307.177 87.3908C305.674 89.8061 304.878 92.5938 304.878 95.4384C304.878 98.2829 305.674 101.071 307.177 103.486C308.76 105.834 310.998 107.665 313.613 108.752C316.228 109.839 319.104 110.134 321.885 109.6C326.087 108.676 329.638 105.839 333.631 104.137C339.325 101.7 345.712 101.658 351.764 100.313C353.703 100.023 355.527 99.2094 357.038 97.9598C358.496 96.4532 359.323 94.4461 359.349 92.3496C360.211 77.4102 340.586 77.9775 330.689 77.9775Z" fill="#FF5C64"/>
<path d="M330.983 106.448C330.772 106.452 330.565 106.389 330.392 106.268C330.218 106.147 330.087 105.975 330.017 105.776C329.966 105.646 329.942 105.508 329.945 105.369C329.948 105.23 329.979 105.093 330.036 104.966C330.093 104.839 330.174 104.724 330.275 104.629C330.377 104.533 330.496 104.459 330.626 104.41C331.298 104.179 347.309 98.3168 358.362 99.2413C358.5 99.2519 358.634 99.2897 358.758 99.3526C358.881 99.4154 358.991 99.5021 359.081 99.6075C359.171 99.713 359.239 99.8352 359.281 99.9671C359.324 100.099 359.34 100.238 359.328 100.376C359.318 100.514 359.28 100.649 359.217 100.772C359.154 100.896 359.067 101.005 358.962 101.095C358.857 101.185 358.734 101.253 358.602 101.296C358.471 101.338 358.332 101.354 358.194 101.343C347.688 100.439 331.509 106.322 331.361 106.385C331.24 106.427 331.112 106.448 330.983 106.448Z" fill="#231F20"/>
<path d="M487.753 178.435H493.342C493.342 171.291 493.699 161.143 493.699 161.143L504.415 178.435H551.692C553.882 178.435 555.982 179.305 557.531 180.854C559.079 182.403 559.949 184.503 559.949 186.693V214.87C559.952 215.956 559.741 217.032 559.327 218.036C558.913 219.041 558.305 219.953 557.538 220.723C556.771 221.492 555.86 222.102 554.857 222.518C553.854 222.934 552.778 223.149 551.692 223.149H487.753C486.666 223.149 485.591 222.934 484.588 222.518C483.585 222.102 482.673 221.492 481.906 220.723C481.139 219.953 480.531 219.041 480.118 218.036C479.704 217.032 479.492 215.956 479.495 214.87V186.693C479.495 184.503 480.365 182.403 481.914 180.854C483.462 179.305 485.563 178.435 487.753 178.435Z" fill="white"/>
<path d="M551.692 224.199H487.753C485.282 224.193 482.915 223.208 481.169 221.459C479.424 219.71 478.444 217.34 478.444 214.87V186.693C478.444 184.224 479.425 181.857 481.171 180.111C482.916 178.365 485.284 177.385 487.753 177.385H492.291C492.291 170.388 492.649 161.205 492.649 161.1C492.655 160.877 492.735 160.661 492.875 160.487C493.016 160.312 493.209 160.189 493.426 160.134C493.646 160.073 493.879 160.085 494.092 160.168C494.304 160.252 494.483 160.402 494.603 160.596L505.003 177.406H551.692C554.161 177.406 556.528 178.386 558.274 180.132C560.019 181.878 561 184.245 561 186.714V214.891C560.995 217.358 560.012 219.722 558.268 221.467C556.523 223.211 554.159 224.193 551.692 224.199ZM487.753 179.486C485.843 179.491 484.013 180.252 482.663 181.603C481.312 182.953 480.551 184.783 480.546 186.693V214.87C480.546 216.783 481.304 218.618 482.655 219.973C484.006 221.328 485.839 222.092 487.753 222.098H551.692C553.605 222.092 555.438 221.328 556.789 219.973C558.14 218.618 558.899 216.783 558.899 214.87V186.693C558.893 184.783 558.132 182.953 556.782 181.603C555.432 180.252 553.602 179.491 551.692 179.486H504.415C504.237 179.485 504.062 179.438 503.907 179.35C503.753 179.262 503.624 179.135 503.533 178.981L494.645 164.651C494.54 168.265 494.413 173.96 494.392 178.435C494.387 178.712 494.275 178.976 494.079 179.172C493.883 179.368 493.619 179.48 493.342 179.486H487.753Z" fill="#D1D3D4"/>
<path d="M50.9368 164.505H59.8668C59.8668 175.914 60.4342 192.135 60.4342 192.135L77.5799 164.505H153.223C156.728 164.505 160.089 163.112 162.568 160.634C165.047 158.155 166.439 154.793 166.439 151.288V106.239C166.439 102.733 165.047 99.3718 162.568 96.8932C160.089 94.4147 156.728 93.0222 153.223 93.0222H50.9368C47.4352 93.0278 44.079 94.4227 41.6049 96.9006C39.1309 99.3786 37.7413 102.737 37.7413 106.239V151.288C37.7386 153.023 38.0779 154.741 38.7397 156.344C39.4016 157.948 40.3732 159.405 41.5988 160.632C42.8243 161.86 44.2799 162.834 45.8823 163.498C47.4846 164.163 49.2022 164.505 50.9368 164.505Z" fill="white"/>
<path d="M60.3712 193.186H60.098C59.8809 193.124 59.6889 192.995 59.5493 192.818C59.4097 192.641 59.3297 192.424 59.3206 192.198C59.3206 192.03 58.8163 176.797 58.7533 165.576H50.9368C47.1566 165.571 43.5331 164.065 40.8621 161.39C38.191 158.715 36.6908 155.089 36.6908 151.309V106.239C36.6908 102.458 38.191 98.8327 40.8621 96.1578C43.5331 93.4828 47.1566 91.9772 50.9368 91.9716H153.139C156.921 91.9772 160.546 93.4821 163.221 96.1565C165.895 98.8309 167.4 102.457 167.406 106.239V151.288C167.4 155.07 165.895 158.696 163.221 161.37C160.546 164.045 156.921 165.55 153.139 165.555H78.1682L61.3587 192.703C61.2531 192.865 61.1055 192.995 60.9317 193.08C60.7578 193.166 60.5641 193.202 60.3712 193.186ZM50.9368 94.0728C47.7139 94.0784 44.6249 95.3626 42.3479 97.6435C40.0709 99.9245 38.792 103.016 38.792 106.239V151.288C38.792 154.511 40.0709 157.602 42.3479 159.883C44.6249 162.164 47.7139 163.448 50.9368 163.454H59.8669C60.1438 163.459 60.4079 163.572 60.6038 163.768C60.7997 163.964 60.9121 164.228 60.9175 164.505C60.9175 172.594 61.2327 183.226 61.3797 188.626L76.6764 163.958C76.7736 163.806 76.907 163.68 77.0647 163.592C77.2223 163.504 77.3994 163.457 77.5799 163.454H153.223C156.448 163.448 159.539 162.165 161.819 159.885C164.099 157.604 165.383 154.513 165.389 151.288V106.239C165.383 103.014 164.099 99.9226 161.819 97.6422C159.539 95.3619 156.448 94.0784 153.223 94.0728H50.9368Z" fill="#D1D3D4"/>
<path d="M142.654 288.096C140.914 288.612 139.146 289.026 137.359 289.336C114.057 293.539 87.9808 292.593 69.3432 277.969L72.0748 267.736L64.1323 274.712L53.4163 265.172C71.6966 250.653 74.0709 227.729 86.0687 209.239C95.8392 194.173 117.881 193.06 133.156 199.51C143.809 204.066 152.339 212.49 157.026 223.086C162.195 234.978 162.027 248.468 160.976 261.39C159.778 275.91 155.345 284.188 142.654 288.096Z" fill="white"/>
<path d="M114.225 292.509C98.7389 292.509 82.0975 289.231 68.713 278.704C68.55 278.579 68.4273 278.409 68.36 278.214C68.2928 278.02 68.284 277.811 68.3348 277.611L70.1838 270.72L64.8258 275.489C64.6362 275.662 64.3889 275.758 64.1324 275.758C63.8759 275.758 63.6286 275.662 63.439 275.489L52.7229 265.971C52.6056 265.87 52.5126 265.744 52.4508 265.602C52.3889 265.46 52.3599 265.306 52.3657 265.151C52.3649 264.996 52.4006 264.843 52.47 264.705C52.5393 264.566 52.6404 264.445 52.7649 264.353C64.0483 255.381 69.0702 243.341 74.4072 230.608C77.3386 222.989 80.946 215.647 85.1863 208.672C92.7295 197.031 112.25 189.509 133.514 198.544C144.432 203.216 153.162 211.871 157.929 222.749C163.245 234.978 163.014 248.636 161.964 261.558C160.661 277.632 155.324 285.365 142.927 289.105C141.144 289.625 139.335 290.046 137.506 290.366C129.825 291.775 122.034 292.492 114.225 292.509ZM70.541 277.59C90.4813 292.824 117.734 291.858 137.17 288.328C138.92 288.014 140.653 287.607 142.36 287.109C153.769 283.663 158.686 276.456 159.904 261.411C160.934 248.804 161.186 235.42 156.059 223.59C151.501 213.204 143.163 204.941 132.736 200.477C117.419 194.005 96.0914 195.707 86.9513 209.806C82.7862 216.666 79.2353 223.88 76.3403 231.364C71.2974 243.446 66.0655 255.927 55.0342 265.172L64.1324 273.262L71.3815 266.958C71.5503 266.801 71.7665 266.703 71.9964 266.68C72.2264 266.658 72.4574 266.712 72.6537 266.834C72.8499 266.956 73.0004 267.139 73.0819 267.356C73.1634 267.572 73.1713 267.809 73.1044 268.03L70.541 277.59Z" fill="#231F20"/>
<path d="M47.8902 439.613C44.9275 439.613 22.8651 442.008 12.5272 447.156C2.18938 452.304 -0.0799015 452.682 2.02129 459.616C4.12247 466.55 22.2977 468.252 36.1446 465.626C45.0691 463.804 53.6778 460.682 61.695 456.359L47.8902 439.613Z" fill="white"/>
<path d="M23.3273 467.748C12.9895 467.748 2.84071 465.542 1.13874 459.889C-0.962444 452.745 1.47493 451.485 9.77462 447.45L12.1069 446.295C22.6129 441.063 44.7174 438.562 47.8271 438.667C47.9667 438.667 48.1047 438.697 48.2317 438.755C48.3586 438.813 48.4715 438.898 48.5625 439.004L62.3884 455.813C62.4748 455.921 62.5365 456.046 62.5692 456.181C62.6019 456.315 62.6047 456.455 62.5775 456.591C62.5571 456.728 62.5046 456.858 62.4242 456.971C62.3439 457.085 62.238 457.177 62.1152 457.242C54.0153 461.624 45.314 464.789 36.2916 466.634C32.0134 467.402 27.6737 467.775 23.3273 467.748ZM47.4489 440.579C43.2465 440.706 22.6339 443.206 12.9684 448.018L10.6151 449.173C2.35744 453.229 1.28583 453.754 2.96678 459.343C4.83684 465.521 22.2557 467.286 36.0185 464.701C44.4551 462.959 52.6087 460.052 60.2452 456.065L47.4489 440.579Z" fill="#231F20"/>
<path d="M44.9275 439.571C42.9868 440.047 41.2969 441.237 40.1948 442.904C39.0927 444.571 38.6593 446.592 38.9812 448.564C39.9477 455.918 55.4965 456.233 56.4 456.254C57.3035 456.275 44.9275 439.571 44.9275 439.571Z" fill="white"/>
<path d="M56.3789 457.2C53.4793 457.2 39.0442 456.485 38.0146 448.795C37.6809 446.584 38.1826 444.329 39.4218 442.468C40.6611 440.607 42.549 439.275 44.7174 438.73C44.8989 438.691 45.0879 438.704 45.2626 438.767C45.4372 438.83 45.5906 438.941 45.7049 439.088C57.8918 455.582 57.6186 456.128 57.2825 456.78C57.1797 456.92 57.043 457.033 56.8849 457.106C56.7269 457.18 56.5528 457.212 56.3789 457.2ZM44.5703 440.684C42.987 441.193 41.6428 442.26 40.7884 443.687C39.9339 445.113 39.6276 446.802 39.9266 448.438C40.62 453.775 50.8528 454.951 54.8451 455.225C53.2062 452.598 48.7727 446.379 44.5703 440.684Z" fill="#231F20"/>
<path d="M160.22 456.401C160.682 456.633 164.905 462.138 183.333 464.344C201.76 466.55 208.547 470.5 212.749 460.814C216.952 451.127 214.031 444.887 204.954 442.113C195.877 439.34 170.831 437.049 165.914 441.672C160.997 446.295 160.22 456.401 160.22 456.401Z" fill="white"/>
<path d="M203.693 468C200.307 467.849 196.936 467.448 193.608 466.802C190.603 466.319 187.178 465.752 183.228 465.289C175.516 464.365 165.221 462.243 159.841 457.347L159.673 457.2C159.522 457.119 159.4 456.992 159.324 456.837C159.249 456.682 159.224 456.508 159.253 456.338C159.253 455.897 160.115 445.832 165.242 440.979C170.684 435.852 196.402 438.499 205.164 441.189C207.124 441.62 208.968 442.466 210.574 443.669C212.179 444.872 213.509 446.405 214.472 448.165C216.09 451.611 215.775 456.002 213.569 461.192C211.363 466.382 208.379 468 203.693 468ZM161.228 456.002C166.25 460.499 176.084 462.495 183.459 463.377C187.451 463.861 190.876 464.428 193.965 464.911C204.891 466.676 208.988 467.349 211.909 460.436C213.884 455.771 214.199 451.905 212.833 448.984C211.981 447.474 210.817 446.162 209.419 445.137C208.02 444.112 206.42 443.396 204.723 443.038C195.499 440.222 171.104 438.247 166.628 442.387C162.552 446.148 161.438 454.09 161.228 456.002Z" fill="#231F20"/>
<path d="M154.336 452.451C154.336 452.451 162.741 459.427 168.267 458.608C173.793 457.788 181.568 454.762 178.458 448.711C175.348 442.66 155.345 439.088 155.345 439.088L154.336 452.451Z" fill="white"/>
<path d="M167.343 459.637C161.522 459.637 154.042 453.46 153.706 453.187C153.59 453.086 153.499 452.959 153.441 452.817C153.382 452.674 153.358 452.52 153.37 452.367L154.42 439.004C154.429 438.873 154.465 438.745 154.527 438.629C154.588 438.513 154.674 438.411 154.778 438.331C154.885 438.251 155.007 438.193 155.137 438.161C155.267 438.128 155.402 438.122 155.534 438.142C157.635 438.52 176.084 441.987 179.298 448.27C179.796 449.098 180.078 450.038 180.118 451.003C180.159 451.969 179.956 452.929 179.53 453.796C177.428 457.998 170.494 459.259 168.414 459.553C168.06 459.612 167.702 459.641 167.343 459.637ZM155.324 451.989C156.984 453.292 163.729 458.292 168.141 457.641C171.755 457.095 176.546 455.54 177.828 452.892C178.109 452.297 178.236 451.64 178.195 450.982C178.155 450.325 177.949 449.688 177.596 449.131C175.369 444.803 162.3 441.399 156.248 440.201L155.324 451.989Z" fill="#231F20"/>
<path d="M53.8575 393.786C53.8575 393.786 62.6615 428.203 94.8517 434.78C127.042 441.357 143.683 439.592 155.093 417.866C166.502 396.139 158.938 382.86 158.938 382.86L57.3665 380.759L53.8575 393.786Z" fill="#231F20"/>
<path d="M121.432 439.193C112.412 438.937 103.439 437.797 94.6416 435.789C62.1782 429.17 52.912 394.395 52.828 394.059C52.7859 393.879 52.7859 393.692 52.828 393.513L56.3579 380.569C56.4153 380.342 56.5486 380.141 56.7359 380C56.9231 379.858 57.153 379.785 57.3875 379.792L158.959 381.893C159.142 381.894 159.322 381.943 159.481 382.036C159.639 382.128 159.771 382.26 159.862 382.419C160.178 382.986 167.553 396.475 156.017 418.454C147.949 433.73 137.149 439.193 121.432 439.193ZM54.9291 393.786C55.8326 396.938 65.4351 427.678 95.0618 433.709C125.97 440.012 142.696 439.193 154.168 417.361C163.897 398.808 159.442 386.495 158.371 383.868L58.27 381.914L54.9291 393.786Z" fill="#231F20"/>
<path d="M166.607 394.101C166.607 394.101 183.249 340.332 181.063 306.608C178.878 272.884 156.879 270.425 149.251 269.795C141.624 269.165 101.239 262.966 86.0897 280.784C70.9402 298.602 44.2971 382.04 44.2971 382.04L166.607 394.101Z" fill="#FF5C64"/>
<path d="M106.597 269.879L109.224 287.886C111.012 290.59 113.725 292.549 116.854 293.396C119.983 294.244 123.314 293.92 126.222 292.488C137.569 287.76 137.779 279.082 137.779 279.082L132.4 245.841C123.911 237.198 117.99 226.366 115.296 214.555C115.296 214.555 105.273 232.037 90.7543 235.966C91.2805 243.89 92.4755 251.755 94.3263 259.478C96.8477 268.24 106.303 269.774 106.597 269.879Z" fill="white"/>
<path d="M119.961 294.862C117.631 294.808 115.349 294.196 113.305 293.078C111.261 291.959 109.516 290.366 108.215 288.433C108.136 288.313 108.085 288.176 108.068 288.033L105.547 270.741C102.726 270.16 100.109 268.843 97.9608 266.924C95.8131 265.005 94.2112 262.552 93.3177 259.814C91.4365 252.018 90.2274 244.074 89.7037 236.071C89.6907 235.83 89.7608 235.592 89.9024 235.397C90.0439 235.202 90.2483 235.062 90.4811 234.999C104.412 231.238 114.288 214.261 114.393 213.987C114.497 213.805 114.654 213.658 114.843 213.565C115.031 213.473 115.244 213.439 115.452 213.468C115.66 213.498 115.855 213.589 116.01 213.73C116.166 213.871 116.276 214.056 116.326 214.261C118.97 225.824 124.733 236.441 132.988 244.959C133.164 245.128 133.282 245.349 133.324 245.589L138.703 278.83C138.703 279.418 138.367 288.453 126.516 293.37C124.453 294.301 122.224 294.808 119.961 294.862ZM110.106 287.508C111.783 289.952 114.29 291.705 117.162 292.439C120.033 293.173 123.074 292.84 125.718 291.5C136.224 287.109 136.623 279.145 136.623 279.061L131.307 246.346C123.458 238.202 117.842 228.171 115.002 217.223C111.892 221.951 103.424 233.255 91.8889 236.785C92.4118 244.357 93.5716 251.87 95.3559 259.247C97.2259 265.698 103.172 268.009 106.534 268.807C106.709 268.842 106.878 268.898 107.038 268.975C107.174 269.056 107.289 269.165 107.377 269.296C107.464 269.427 107.521 269.576 107.543 269.732L110.106 287.508Z" fill="#231F20"/>
<path d="M125.277 246.346C125.422 244.658 126.115 243.064 127.252 241.807C128.359 240.692 129.644 239.768 131.055 239.076C131.79 238.623 132.615 238.337 133.471 238.235C134.077 238.238 134.677 238.359 135.236 238.592C136.609 239.01 137.786 239.904 138.556 241.114C139.044 242.165 139.274 243.318 139.229 244.476C139.295 245.725 139.182 246.978 138.893 248.195C138.587 249.409 138.043 250.55 137.292 251.553C136.542 252.555 135.6 253.398 134.521 254.034C133.442 254.669 132.247 255.084 131.007 255.254C129.766 255.424 128.504 255.345 127.294 255.024" fill="white"/>
<path d="M129.71 256.389C128.802 256.386 127.898 256.266 127.021 256.032C126.754 255.958 126.527 255.782 126.39 255.542C126.252 255.302 126.215 255.018 126.285 254.75C126.317 254.615 126.376 254.488 126.458 254.377C126.541 254.266 126.646 254.172 126.766 254.103C126.886 254.034 127.02 253.991 127.157 253.976C127.295 253.961 127.435 253.974 127.567 254.015C129.744 254.561 132.048 254.245 133.997 253.133C135.921 251.977 137.316 250.114 137.884 247.943C138.135 246.812 138.241 245.654 138.199 244.497C138.243 243.512 138.048 242.532 137.632 241.639C136.992 240.634 136.017 239.89 134.879 239.538C134.447 239.352 133.984 239.253 133.514 239.244C132.818 239.337 132.151 239.581 131.559 239.958C130.251 240.597 129.058 241.449 128.029 242.48C127.055 243.564 126.457 244.935 126.327 246.388C126.296 246.663 126.161 246.915 125.951 247.095C125.74 247.274 125.469 247.367 125.193 247.354C124.916 247.328 124.66 247.194 124.48 246.983C124.3 246.771 124.209 246.497 124.226 246.22C124.395 244.305 125.184 242.497 126.475 241.072C127.653 239.857 129.032 238.855 130.551 238.109C131.423 237.57 132.408 237.24 133.429 237.143C134.15 237.145 134.864 237.288 135.531 237.563C137.147 238.062 138.528 239.129 139.418 240.567C139.987 241.768 140.267 243.085 140.237 244.413C140.28 245.754 140.153 247.095 139.859 248.405C139.287 250.678 137.971 252.695 136.121 254.134C134.27 255.574 131.992 256.353 129.647 256.347L129.71 256.389Z" fill="#231F20"/>
<path d="M109.035 241.198C109.035 241.198 103.95 251.241 105.61 252.67C107.27 254.099 111.283 252.523 111.283 252.523" fill="white"/>
<path d="M107.711 254.309C106.716 254.367 105.733 254.069 104.937 253.469C103.025 251.83 105.61 245.652 108.089 240.736C108.215 240.488 108.434 240.301 108.698 240.214C108.962 240.127 109.249 240.149 109.497 240.273C109.622 240.333 109.733 240.418 109.824 240.522C109.915 240.626 109.984 240.748 110.027 240.879C110.07 241.01 110.086 241.149 110.075 241.287C110.063 241.425 110.024 241.559 109.959 241.681C107.648 246.262 105.967 251.052 106.366 251.956C107.123 252.565 109.476 252.103 110.905 251.557C111.164 251.454 111.453 251.458 111.71 251.568C111.966 251.678 112.167 251.886 112.271 252.145C112.374 252.404 112.37 252.694 112.259 252.95C112.149 253.206 111.941 253.408 111.682 253.511C110.41 253.987 109.069 254.257 107.711 254.309Z" fill="#231F20"/>
<path d="M117.045 241.003C117.9 240.933 118.515 239.902 118.417 238.699C118.319 237.496 117.545 236.577 116.69 236.647C115.834 236.717 115.219 237.749 115.317 238.952C115.415 240.154 116.189 241.073 117.045 241.003Z" fill="#231F20"/>
<path d="M101.005 243.25C101.861 243.186 102.483 242.159 102.393 240.955C102.304 239.752 101.537 238.828 100.68 238.891C99.8241 238.955 99.2026 239.983 99.2922 241.186C99.3819 242.39 100.149 243.314 101.005 243.25Z" fill="#231F20"/>
<path d="M110.359 262.336C107.343 262.262 104.369 261.613 101.597 260.424C101.47 260.365 101.357 260.282 101.263 260.179C101.17 260.076 101.097 259.956 101.05 259.825C101.003 259.694 100.983 259.555 100.99 259.416C100.997 259.277 101.032 259.141 101.092 259.016C101.149 258.89 101.23 258.778 101.331 258.684C101.431 258.59 101.55 258.518 101.679 258.471C101.809 258.424 101.946 258.403 102.083 258.41C102.221 258.417 102.355 258.452 102.479 258.512C102.479 258.512 110.022 261.894 115.275 259.142C116.676 258.303 117.858 257.144 118.724 255.76C119.59 254.375 120.114 252.805 120.255 251.178C120.305 250.9 120.464 250.652 120.697 250.491C120.929 250.329 121.216 250.267 121.495 250.317C121.773 250.367 122.021 250.526 122.182 250.758C122.344 250.991 122.406 251.278 122.356 251.557C122.161 253.502 121.507 255.374 120.448 257.018C119.389 258.662 117.954 260.031 116.263 261.012C114.431 261.926 112.405 262.38 110.359 262.336Z" fill="#231F20"/>
<path d="M106.597 269.879C106.597 269.879 118.175 270.845 124.226 266.118C124.226 266.118 119.12 282.276 108.383 282.234L106.597 269.879Z" fill="#231F20"/>
<path d="M108.32 283.285C108.064 283.284 107.816 283.192 107.621 283.027C107.425 282.862 107.293 282.633 107.249 282.381L105.442 270.047C105.415 269.889 105.424 269.727 105.471 269.574C105.517 269.421 105.599 269.28 105.709 269.164C105.819 269.048 105.955 268.959 106.105 268.904C106.256 268.849 106.417 268.831 106.576 268.849C106.681 268.849 117.818 269.711 123.386 265.277C123.565 265.143 123.782 265.07 124.006 265.07C124.229 265.07 124.447 265.143 124.626 265.277C124.81 265.405 124.95 265.587 125.025 265.798C125.1 266.009 125.108 266.239 125.046 266.454C124.899 267.084 119.667 283.285 108.32 283.285ZM107.711 271.014L109.182 281.141C115.843 280.532 120.129 272.884 122.02 268.534C117.481 270.369 112.603 271.214 107.711 271.014Z" fill="#231F20"/>
<path d="M170.642 278.452C179.866 280.28 208.295 371.198 195.267 380.843C174.949 395.887 112.901 375.338 112.901 375.338L119.204 348.59C119.204 348.59 163.981 350.691 164.8 341.53C165.62 332.368 139.775 289.252 143.389 282.97C147.003 276.687 170.642 278.452 170.642 278.452Z" fill="#FF5C64"/>
<path d="M123.743 357.688C116.293 357.994 108.832 357.487 101.491 356.175C96.071 354.75 90.4963 353.995 84.8921 353.927C77.4984 354.136 70.2 355.651 63.3339 358.402C63.0503 358.484 62.7955 358.644 62.5985 358.864C61.9261 359.789 63.46 360.692 64.6997 360.755C67.6568 360.88 70.6163 360.569 73.4826 359.831C66.3451 362.316 59.5746 365.751 53.3533 370.043C52.6599 370.526 51.8614 371.303 52.1976 372.144C52.5338 372.984 53.9416 372.837 54.8661 372.438L71.0243 365.42C66.8433 367.005 62.9528 369.27 59.5097 372.123C59.0265 372.522 58.4802 373.089 58.6062 373.72C58.8164 374.791 60.4343 374.623 61.4218 374.14C66.3562 371.826 71.0745 369.076 75.5208 365.924L65.4561 373.3C65.33 374.119 66.1705 374.812 66.99 374.854C67.8086 374.819 68.6014 374.557 69.2803 374.098L80.4376 367.941L73.4616 372.627C72.369 373.363 71.1083 374.56 71.6126 375.779C72.1169 376.998 74.3231 376.83 75.815 376.22C81.539 373.862 87.5083 372.149 93.612 371.114C95.7593 370.469 97.9725 370.067 100.21 369.917C103.588 370.366 106.921 371.111 110.169 372.144L125.046 375.863" fill="white"/>
<path d="M73.3986 377.586C72.9466 377.595 72.4971 377.516 72.0749 377.355C71.7732 377.23 71.4992 377.047 71.2684 376.816C71.0376 376.586 70.8547 376.312 70.7301 376.01C70.5222 375.454 70.5222 374.843 70.7301 374.287L69.8056 374.791C68.9691 375.345 67.993 375.651 66.99 375.674C66.6124 375.649 66.2441 375.547 65.9078 375.373C65.5716 375.2 65.2748 374.959 65.0359 374.665C64.7842 374.343 64.6245 373.958 64.5736 373.552C63.6911 374.014 62.7876 374.434 61.9051 374.854C61.4228 375.116 60.8894 375.271 60.3417 375.307C59.794 375.343 59.245 375.26 58.7323 375.064C58.4754 374.937 58.2521 374.75 58.0805 374.52C57.909 374.291 57.7939 374.023 57.7448 373.741C57.6808 373.406 57.699 373.062 57.7978 372.736C57.8966 372.41 58.0731 372.113 58.3121 371.871L55.3074 373.173C54.4139 373.59 53.4024 373.679 52.4498 373.426C52.207 373.336 51.9859 373.196 51.8012 373.015C51.6165 372.834 51.4723 372.616 51.3782 372.375C50.9159 371.303 51.3782 370.127 52.87 369.16C57.0335 366.303 61.4423 363.821 66.0444 361.743H64.5736C63.9912 361.725 63.4221 361.565 62.9164 361.275C62.4107 360.986 61.984 360.576 61.674 360.083C61.5347 359.802 61.4767 359.488 61.5064 359.177C61.5361 358.865 61.6524 358.567 61.8421 358.318C62.1474 357.956 62.5477 357.687 62.9977 357.541C69.9644 354.724 77.38 353.179 84.8921 352.981C89.8508 352.993 94.7896 353.607 99.6004 354.809L101.702 355.25C108.981 356.537 116.377 357.044 123.764 356.763C124.011 356.763 124.249 356.86 124.425 357.033C124.602 357.205 124.704 357.441 124.71 357.688C124.712 357.815 124.69 357.941 124.644 358.059C124.598 358.178 124.529 358.286 124.441 358.377C124.354 358.469 124.249 358.543 124.132 358.594C124.016 358.645 123.891 358.672 123.764 358.675C116.243 358.972 108.711 358.45 101.302 357.12L99.2012 356.7C94.5156 355.518 89.7035 354.911 84.8711 354.893C77.5916 355.095 70.4059 356.589 63.6491 359.306H63.46C63.7947 359.558 64.1971 359.704 64.6156 359.726C67.4467 359.848 70.2801 359.544 73.0204 358.822C73.2598 358.763 73.5128 358.797 73.7276 358.918C73.9424 359.04 74.1029 359.238 74.176 359.474C74.2497 359.713 74.2272 359.972 74.1136 360.196C73.9999 360.419 73.8038 360.59 73.5667 360.671C66.5471 363.104 59.8889 366.476 53.7735 370.694C53.1221 371.135 52.9541 371.492 52.9541 371.556C52.9541 371.619 53.6264 371.661 54.3618 371.345L66.8429 365.924C68.0616 365.336 69.3013 364.79 70.562 364.306C70.7993 364.222 71.0599 364.232 71.2903 364.333C71.5207 364.435 71.7037 364.621 71.8017 364.853C71.8925 365.087 71.8885 365.348 71.7904 365.579C71.6924 365.811 71.508 365.995 71.2764 366.092L67.6624 367.668C64.9223 369.027 62.3488 370.698 59.993 372.648C59.4467 373.11 59.4257 373.32 59.4257 373.32C59.9303 373.391 60.4442 373.303 60.8965 373.068C65.7682 370.769 70.4296 368.048 74.8274 364.937C75.034 364.787 75.2912 364.726 75.5431 364.765C75.7949 364.804 76.021 364.942 76.1722 365.147C76.3163 365.355 76.3749 365.611 76.3358 365.861C76.2967 366.112 76.1629 366.337 75.962 366.492L66.6748 373.531C66.8016 373.653 66.963 373.734 67.1371 373.762C67.781 373.713 68.399 373.488 68.9231 373.11L80.0804 366.954C80.2966 366.836 80.5497 366.805 80.7879 366.868C81.0261 366.93 81.2315 367.081 81.3621 367.29C81.4955 367.502 81.5395 367.758 81.4844 368.002C81.4292 368.247 81.2795 368.459 81.0679 368.593L74.092 373.278C73.2305 373.867 72.369 374.707 72.6002 375.38C72.6263 375.45 72.6684 375.513 72.7231 375.564C72.7778 375.615 72.8436 375.653 72.9153 375.674C73.7949 375.841 74.7051 375.708 75.4998 375.296C81.2868 372.895 87.328 371.161 93.507 370.127C94.2214 370.001 94.9358 369.812 95.6082 369.622C97.1237 369.146 98.7051 368.912 100.294 368.929C102.73 369.154 105.129 369.677 107.438 370.484C108.488 370.778 109.539 371.093 110.485 371.324L125.361 375.064C125.483 375.094 125.598 375.147 125.699 375.222C125.8 375.296 125.885 375.39 125.95 375.497C126.014 375.605 126.057 375.724 126.075 375.848C126.093 375.972 126.086 376.099 126.054 376.22C126.028 376.344 125.976 376.46 125.902 376.563C125.829 376.665 125.735 376.752 125.627 376.817C125.518 376.882 125.398 376.924 125.273 376.941C125.147 376.957 125.02 376.948 124.899 376.914L110.022 373.194C109.014 372.942 107.921 372.627 106.892 372.312C104.721 371.566 102.472 371.072 100.189 370.841C98.7624 370.836 97.3442 371.056 95.9864 371.492C95.2299 371.682 94.4945 371.871 93.7171 372.018C87.684 373.033 81.7845 374.725 76.1301 377.061C75.2576 377.395 74.3329 377.573 73.3986 377.586Z" fill="#231F20"/>
<path d="M90.7544 288.474C88.233 290.933 81.215 330.204 78.5885 348.757L90.7544 288.474Z" fill="white"/>
<path d="M78.5885 349.724H78.4415C78.3168 349.709 78.1965 349.669 78.0876 349.606C77.9787 349.544 77.8833 349.46 77.807 349.36C77.7307 349.261 77.6751 349.147 77.6433 349.025C77.6115 348.904 77.6043 348.777 77.622 348.653C79.5761 335.016 86.9933 290.807 90.082 287.718C90.1667 287.61 90.2735 287.521 90.3953 287.457C90.5171 287.393 90.6511 287.356 90.7885 287.348C90.9258 287.34 91.0632 287.362 91.1915 287.411C91.3199 287.461 91.4362 287.537 91.5327 287.635C91.6292 287.733 91.7036 287.85 91.7511 287.979C91.7986 288.109 91.8179 288.246 91.8079 288.383C91.7979 288.521 91.7587 288.654 91.693 288.775C91.6273 288.896 91.5365 289.001 91.4268 289.084C89.3256 291.374 82.4968 327.935 79.5341 348.821C79.5183 349.062 79.4124 349.289 79.2373 349.457C79.0622 349.624 78.8307 349.72 78.5885 349.724Z" fill="#231F20"/>
<path d="M146.646 385.129H146.52L124.836 380.927C124.596 380.887 124.378 380.764 124.221 380.58C124.063 380.395 123.976 380.161 123.974 379.918L123.785 353.843C123.784 353.578 123.883 353.323 124.062 353.128C124.242 352.933 124.488 352.813 124.752 352.792L163.918 349.535L147.907 289.903C147.836 289.63 147.876 289.341 148.017 289.097C148.159 288.853 148.391 288.675 148.663 288.601C148.797 288.566 148.936 288.558 149.073 288.577C149.21 288.596 149.342 288.643 149.461 288.713C149.58 288.783 149.684 288.876 149.767 288.987C149.85 289.097 149.911 289.223 149.945 289.357L166.292 350.292C166.325 350.441 166.327 350.596 166.296 350.747C166.266 350.897 166.204 351.04 166.115 351.164C166.026 351.289 165.911 351.394 165.779 351.472C165.646 351.549 165.499 351.598 165.347 351.615L125.907 354.893L126.075 379.12L146.919 383.133C147.198 383.161 147.454 383.298 147.631 383.515C147.809 383.732 147.893 384.01 147.865 384.289C147.837 384.567 147.699 384.824 147.483 385.001C147.266 385.178 146.988 385.262 146.709 385.234L146.646 385.129Z" fill="#231F20"/>
<path d="M26.0169 391.895L7.14819 341.403L84.1777 342.916L101.47 400.51L26.0169 391.895Z" fill="white"/>
<path d="M101.47 401.561H101.344L25.8906 392.946C25.6976 392.928 25.5137 392.855 25.361 392.736C25.2082 392.617 25.093 392.456 25.0292 392.273L6.11847 341.845C6.05409 341.687 6.03185 341.514 6.05395 341.345C6.07605 341.175 6.14171 341.015 6.24454 340.878C6.32874 340.723 6.45854 340.598 6.61637 340.519C6.77421 340.44 6.95247 340.411 7.12705 340.437L84.1566 341.95C84.3803 341.954 84.5967 342.03 84.7743 342.166C84.952 342.302 85.0815 342.491 85.1441 342.706L102.416 400.279C102.469 400.446 102.48 400.624 102.447 400.797C102.414 400.969 102.338 401.131 102.227 401.266C102.021 401.456 101.751 401.561 101.47 401.561ZM26.7521 390.907L99.9785 399.312L83.4842 343.946L8.74496 342.475L26.7521 390.907Z" fill="#231F20"/>
<path d="M30.1141 392.357C30.1141 392.357 9.20727 409.335 16.6034 424.905C23.9996 440.474 157.383 458.25 157.383 458.25L163.413 437.911C163.413 437.911 58.7112 384.415 30.1141 392.357Z" fill="#231F20"/>
<path d="M157.446 459.301H157.32C151.836 458.565 23.2222 441.252 15.658 425.346C8.09368 409.44 28.5803 392.252 29.4628 391.538C29.575 391.45 29.7036 391.386 29.841 391.348C58.5012 383.364 159.652 434.78 163.939 436.965C164.161 437.074 164.338 437.258 164.438 437.485C164.538 437.712 164.555 437.967 164.485 438.205L158.455 458.544C158.394 458.764 158.262 458.958 158.08 459.095C157.897 459.232 157.674 459.304 157.446 459.301ZM30.6184 393.303C28.6853 394.942 10.9303 410.532 17.549 424.442C23.3903 436.692 119.204 451.989 156.69 457.095L162.216 438.457C152.592 433.603 57.5136 386.243 30.6184 393.303Z" fill="#231F20"/>
<path d="M170.41 384.541C170.41 384.541 66.6748 426.565 40.9563 437.554L55.9167 460.667C55.9167 460.667 151.71 458.797 179.172 434.717C206.635 410.638 204.807 370.61 170.41 384.541Z" fill="#231F20"/>
<path d="M55.9166 461.738C55.7408 461.738 55.5679 461.694 55.4138 461.609C55.2596 461.525 55.129 461.403 55.0341 461.255L40.0737 438.142C39.9867 438.018 39.93 437.876 39.9081 437.726C39.8862 437.577 39.8997 437.424 39.9476 437.281C39.9859 437.13 40.0592 436.991 40.1614 436.874C40.2636 436.757 40.3919 436.666 40.5359 436.608C65.9603 425.682 168.918 384.079 170.011 383.595C182.24 378.636 191.884 380.065 196.465 387.482C204.492 400.51 194.364 422.845 179.866 435.558C168.309 445.685 143.914 453.166 107.375 457.809C80.2484 461.255 56.1688 461.759 55.9376 461.759L55.9166 461.738ZM42.511 438.037L56.4629 459.616C64.5315 459.406 152.718 456.527 178.479 433.961C195.625 418.916 200.709 398.346 194.679 388.575C190.624 381.998 182.072 380.927 170.81 385.528C169.78 385.928 69.7214 426.396 42.511 438.037Z" fill="#231F20"/>
<path d="M25.6386 371.724C25.5303 372.321 25.2779 372.884 24.9032 373.362L22.802 376.367C22.863 376.05 22.996 375.752 23.1909 375.495C23.3857 375.238 23.6372 375.029 23.9257 374.885C24.2142 374.741 24.532 374.665 24.8546 374.663C25.1771 374.661 25.4957 374.734 25.7857 374.875C26.3617 375.181 26.8404 375.643 27.1672 376.208C27.4941 376.772 27.6561 377.417 27.6348 378.069C27.5924 379.371 27.285 380.651 26.7312 381.83C25.3024 385.549 22.0666 390.991 17.3599 388.134C14.1872 386.222 13.3047 379.456 12.8424 376.115C11.9599 369.475 13.977 360.986 22.4868 362.289C22.239 365.547 21.0245 368.656 18.9989 371.219C20.4487 369.895 26.0379 367.815 25.6386 371.724Z" fill="white"/>
<path d="M20.0075 389.92C18.9264 389.896 17.8725 389.576 16.9607 388.995C13.4097 386.894 12.4852 380.065 12.0019 376.388C11.4136 372.186 12.0019 366.554 15.0697 363.466C16.0731 362.513 17.2962 361.823 18.6304 361.456C19.9646 361.09 21.3687 361.058 22.718 361.364C22.9594 361.401 23.178 361.527 23.33 361.718C23.482 361.909 23.5561 362.151 23.5375 362.394C23.3615 364.59 22.7621 366.73 21.7725 368.698C22.8734 368.307 24.0754 368.307 25.1764 368.698C25.7146 368.968 26.1473 369.411 26.406 369.955C26.6648 370.499 26.7349 371.114 26.6052 371.702C26.5044 372.465 26.2076 373.189 25.7437 373.804L26.248 373.972C26.9958 374.348 27.6215 374.929 28.0529 375.647C28.4842 376.365 28.7035 377.19 28.6854 378.027C28.6489 379.478 28.3202 380.908 27.7188 382.229C26.8153 384.562 24.8402 388.533 21.6464 389.71C21.1157 389.871 20.5617 389.942 20.0075 389.92ZM20.911 363.151C20.084 363.12 19.2594 363.256 18.4866 363.552C17.7139 363.849 17.009 364.298 16.4144 364.873C13.788 367.458 13.3887 372.333 13.893 376.031C14.3132 379.246 15.1957 385.696 17.9483 387.356C18.39 387.663 18.8964 387.865 19.4283 387.945C19.9602 388.025 20.5035 387.982 21.016 387.818C22.802 387.209 24.6301 384.835 25.9328 381.515C26.4252 380.452 26.7037 379.302 26.7523 378.132C26.7747 377.665 26.6691 377.201 26.4469 376.79C26.2247 376.379 25.8943 376.037 25.4916 375.8C25.3222 375.727 25.1399 375.69 24.9558 375.69C24.7716 375.69 24.5893 375.727 24.42 375.8L23.6845 376.913C23.5599 377.088 23.3818 377.217 23.177 377.282C22.9723 377.346 22.7522 377.342 22.5499 377.271C22.3474 377.197 22.1754 377.057 22.0612 376.875C21.947 376.692 21.8971 376.476 21.9195 376.262C21.9654 375.882 22.0924 375.517 22.2918 375.191C22.4912 374.864 22.7583 374.585 23.0752 374.371L24.1048 372.837C24.3799 372.482 24.5801 372.074 24.6931 371.639C24.6931 370.757 24.462 370.61 24.3569 370.568C23.5371 370.464 22.7048 370.532 21.9127 370.768C21.1206 371.003 20.386 371.4 19.7553 371.933C19.5796 372.1 19.3464 372.194 19.104 372.194C18.8615 372.194 18.6283 372.1 18.4526 371.933C18.2705 371.768 18.1567 371.541 18.1334 371.296C18.1101 371.051 18.1789 370.806 18.3265 370.61C20.0457 368.45 21.1493 365.865 21.5203 363.13L20.911 363.151Z" fill="#231F20"/>
<path d="M54.7401 433.204C54.522 433.203 54.3094 433.136 54.1296 433.012C53.9499 432.888 53.8112 432.714 53.7315 432.511C53.6278 432.243 53.6336 431.946 53.7476 431.682C53.8616 431.419 54.0747 431.211 54.3409 431.103C54.9082 430.893 109.938 409.587 121.852 402.275C121.973 402.179 122.113 402.109 122.263 402.071C122.413 402.034 122.569 402.028 122.721 402.055C122.873 402.082 123.018 402.14 123.146 402.227C123.274 402.314 123.382 402.427 123.462 402.559C123.543 402.691 123.595 402.838 123.615 402.992C123.635 403.145 123.622 403.301 123.577 403.449C123.532 403.596 123.456 403.733 123.354 403.849C123.252 403.966 123.127 404.059 122.987 404.124C110.905 411.541 57.4086 432.259 55.1393 433.141C55.0103 433.183 54.8756 433.204 54.7401 433.204Z" fill="white"/>
<path d="M151.836 111.954H58.7112C58.4326 111.954 58.1654 111.843 57.9684 111.646C57.7713 111.449 57.6606 111.182 57.6606 110.903C57.6606 110.625 57.7713 110.357 57.9684 110.16C58.1654 109.963 58.4326 109.853 58.7112 109.853H151.836C152.114 109.853 152.382 109.963 152.579 110.16C152.776 110.357 152.886 110.625 152.886 110.903C152.886 111.182 152.776 111.449 152.579 111.646C152.382 111.843 152.114 111.954 151.836 111.954Z" fill="#D1D3D4"/>
<path d="M151.836 129.289H58.7112C58.4326 129.289 58.1654 129.178 57.9684 128.981C57.7713 128.784 57.6606 128.517 57.6606 128.238C57.6606 127.959 57.7713 127.692 57.9684 127.495C58.1654 127.298 58.4326 127.188 58.7112 127.188H151.836C152.114 127.188 152.382 127.298 152.579 127.495C152.776 127.692 152.886 127.959 152.886 128.238C152.886 128.517 152.776 128.784 152.579 128.981C152.382 129.178 152.114 129.289 151.836 129.289Z" fill="#D1D3D4"/>
<path d="M130.089 146.624H58.6482C58.3696 146.624 58.1024 146.513 57.9054 146.316C57.7083 146.119 57.5977 145.852 57.5977 145.573C57.5977 145.294 57.7083 145.027 57.9054 144.83C58.1024 144.633 58.3696 144.522 58.6482 144.522H130.089C130.367 144.522 130.634 144.633 130.832 144.83C131.029 145.027 131.139 145.294 131.139 145.573C131.139 145.852 131.029 146.119 130.832 146.316C130.634 146.513 130.367 146.624 130.089 146.624Z" fill="#D1D3D4"/>
<path d="M514.984 214.933C514.825 214.928 514.668 214.892 514.522 214.828C514.347 214.739 514.199 214.604 514.095 214.437C513.991 214.271 513.935 214.079 513.933 213.882V188.668C513.932 188.482 513.982 188.298 514.079 188.139C514.175 187.98 514.314 187.85 514.48 187.764C514.641 187.666 514.827 187.614 515.016 187.614C515.205 187.614 515.39 187.666 515.551 187.764L533.79 199.258C533.934 199.346 534.054 199.469 534.139 199.616C534.223 199.763 534.27 199.929 534.273 200.098C534.282 200.269 534.248 200.439 534.174 200.593C534.101 200.747 533.99 200.88 533.853 200.981L515.614 214.618C515.45 214.797 515.226 214.909 514.984 214.933ZM516.035 190.664V211.781L531.373 200.33L516.035 190.664Z" fill="#D1D3D4"/>
</svg>
